<svg width="22" height="35" viewBox="0 0 22 35" fill="none" xmlns="http://www.w3.org/2000/svg">
<path d="M12 34.3617L12 1.63826C12 1.28594 11.552 1 11 1C10.448 1 9.99998 1.28594 9.99998 1.63826L9.99998 34.3617C9.99998 34.7141 10.448 35 11 35C11.552 35 12 34.7141 12 34.3617Z" fill="white"/>
<path d="M21.4072 11.759C21.4072 11.6535 21.3688 11.548 21.2927 11.4673L11.4567 1.13594C11.383 1.0593 11.2833 1.01563 11.179 1.01563C11.0747 1.01563 10.975 1.0593 10.9013 1.13594L1.07004 11.4681C0.917063 11.6288 0.917063 11.89 1.07004 12.0507C1.22301 12.2114 1.4717 12.2114 1.62467 12.0507L11.179 2.01027L20.7373 12.0507C20.8902 12.2114 21.1389 12.2114 21.2919 12.0507C21.3688 11.9699 21.4072 11.8645 21.4072 11.759Z" fill="white" stroke="white" stroke-width="0.681818"/>
</svg>
