<svg width="35" height="17" viewBox="0 0 35 17" fill="none" xmlns="http://www.w3.org/2000/svg">
<path d="M33.4141 9.18004H1.65302C1.31107 9.18004 1.03354 8.87459 1.03354 8.49822C1.03354 8.12186 1.31107 7.81641 1.65302 7.81641H33.4141C33.756 7.81641 34.0335 8.12186 34.0335 8.49822C34.0335 8.87459 33.756 9.18004 33.4141 9.18004Z" fill="#DADADA"/>
<path d="M8.87947 16C8.80211 16 8.72475 15.9718 8.66552 15.916L1.08824 8.70203C1.03203 8.64794 1 8.57487 1 8.49835C1 8.42182 1.03203 8.34875 1.08824 8.29467L8.66612 1.08415C8.78398 0.971951 8.97557 0.971951 9.09343 1.08415C9.21128 1.19634 9.21128 1.37874 9.09343 1.49093L1.7295 8.49835L9.09343 15.5086C9.21128 15.6208 9.21128 15.8032 9.09343 15.9154C9.0342 15.9718 8.95683 16 8.87947 16Z" stroke="#DADADA" stroke-width="0.681818"/>
</svg>
