<svg width="34" height="17" viewBox="0 0 34 17" fill="none" xmlns="http://www.w3.org/2000/svg">
<path d="M0.619484 9.18395H32.3805C32.7225 9.18395 33 8.87849 33 8.50213C33 8.12577 32.7225 7.82031 32.3805 7.82031H0.619484C0.277527 7.82031 0 8.12577 0 8.50213C0 8.87849 0.277527 9.18395 0.619484 9.18395Z" fill="white"/>
<path d="M25.154 16C25.2314 16 25.3088 15.9718 25.368 15.916L32.9453 8.70203C33.0015 8.64794 33.0335 8.57487 33.0335 8.49835C33.0335 8.42182 33.0015 8.34875 32.9453 8.29467L25.3674 1.08415C25.2495 0.971951 25.0579 0.971951 24.9401 1.08415C24.8222 1.19634 24.8222 1.37874 24.9401 1.49093L32.304 8.49835L24.9401 15.5086C24.8222 15.6208 24.8222 15.8032 24.9401 15.9154C24.9993 15.9718 25.0767 16 25.154 16Z" fill="white" stroke="white" stroke-width="0.681818"/>
</svg>
