<svg width="35" height="17" viewBox="0 0 35 17" fill="none" xmlns="http://www.w3.org/2000/svg">
<path d="M1.58595 9.18004H33.347C33.6889 9.18004 33.9665 8.87459 33.9665 8.49822C33.9665 8.12186 33.6889 7.81641 33.347 7.81641H1.58595C1.24399 7.81641 0.966461 8.12186 0.966461 8.49822C0.966461 8.87459 1.24399 9.18004 1.58595 9.18004Z" fill="#333333"/>
<path d="M26.1205 16C26.1979 16 26.2753 15.9718 26.3345 15.916L33.9118 8.70203C33.968 8.64794 34 8.57487 34 8.49835C34 8.42182 33.968 8.34875 33.9118 8.29467L26.3339 1.08415C26.216 0.971951 26.0244 0.971951 25.9066 1.08415C25.7887 1.19634 25.7887 1.37874 25.9066 1.49093L33.2705 8.49835L25.9066 15.5086C25.7887 15.6208 25.7887 15.8032 25.9066 15.9154C25.9658 15.9718 26.0432 16 26.1205 16Z" fill="#333333" stroke="#333333" stroke-width="0.681818"/>
</svg>
