<svg width="34" height="17" viewBox="0 0 34 17" fill="none" xmlns="http://www.w3.org/2000/svg">
<path d="M0.619667 9.18004H32.3807C32.7227 9.18004 33.0002 8.87459 33.0002 8.49822C33.0002 8.12186 32.7227 7.81641 32.3807 7.81641H0.619667C0.27771 7.81641 0.000183105 8.12186 0.000183105 8.49822C0.000183105 8.87459 0.27771 9.18004 0.619667 9.18004Z" fill="white"/>
<path d="M25.1542 16C25.2316 16 25.3089 15.9718 25.3682 15.916L32.9455 8.70203C33.0017 8.64794 33.0337 8.57487 33.0337 8.49835C33.0337 8.42182 33.0017 8.34875 32.9455 8.29467L25.3676 1.08415C25.2497 0.971951 25.0581 0.971951 24.9403 1.08415C24.8224 1.19634 24.8224 1.37874 24.9403 1.49093L32.3042 8.49835L24.9403 15.5086C24.8224 15.6208 24.8224 15.8032 24.9403 15.9154C24.9995 15.9718 25.0769 16 25.1542 16Z" fill="white" stroke="white" stroke-width="0.681818"/>
</svg>
