<svg width="103" height="131" viewBox="0 0 103 131" fill="none" xmlns="http://www.w3.org/2000/svg">
<path fill-rule="evenodd" clip-rule="evenodd" d="M21.1152 105.059C107.667 100.825 154.586 50.684 181.211 1.28287L179.3 0.00144196C152.967 48.8608 106.658 98.3851 21.0175 102.574L21.1152 105.059Z" fill="#99A18E" fill-opacity="0.12"/>
<path fill-rule="evenodd" clip-rule="evenodd" d="M57.139 99.0113C57.6371 99.0113 47.0718 116.622 34.5923 121.711L57.139 99.0113Z" fill="#99A18E" fill-opacity="0.12"/>
<path fill-rule="evenodd" clip-rule="evenodd" d="M57.8187 98.0208C57.5845 97.8242 57.3315 97.7678 57.139 97.7678V100.255C56.9543 100.255 56.7077 100.201 56.4786 100.008C56.2529 99.819 56.1424 99.5783 56.0918 99.4005C56.0091 99.11 56.0509 98.8721 56.0583 98.8306L56.0588 98.8275C56.0704 98.7599 56.0855 98.7105 56.0927 98.6894C56.092 98.6913 56.0911 98.6934 56.0901 98.6958C56.0642 98.7595 55.9967 98.9022 55.8703 99.136C55.6253 99.5895 55.223 100.268 54.676 101.117C53.5847 102.81 51.9483 105.132 49.9103 107.613C45.81 112.605 40.1959 118.102 34.2096 120.543L34.975 122.879C41.4682 120.231 47.3765 114.379 51.5542 109.293C53.6552 106.735 55.3467 104.336 56.4862 102.568C57.0547 101.687 57.4936 100.949 57.7798 100.42C57.919 100.162 58.0396 99.9217 58.1198 99.7249C58.1522 99.6455 58.2162 99.4833 58.2483 99.2965L58.2486 99.2951C58.26 99.2284 58.306 98.9614 58.2167 98.6477C58.1637 98.4614 58.0494 98.2143 57.8187 98.0208ZM56.0969 98.678C56.0968 98.6781 56.0952 98.682 56.0927 98.6894C56.0958 98.6816 56.097 98.6779 56.0969 98.678Z" fill="#99A18E" fill-opacity="0.12"/>
<path fill-rule="evenodd" clip-rule="evenodd" d="M35.5468 121.299C35.5799 122.19 34.6919 131.78 22.0177 129.937L35.5468 121.299Z" fill="#99A18E" fill-opacity="0.12"/>
<path fill-rule="evenodd" clip-rule="evenodd" d="M35.939 123.529C36.2351 122.463 36.3018 121.601 36.2893 121.264L34.8043 121.333C34.8084 121.442 34.7765 122.112 34.5193 123.038C34.2666 123.948 33.8073 125.062 32.9902 126.094C31.39 128.118 28.2697 130.01 22.1137 129.115L21.9217 130.759C28.4399 131.706 32.1007 129.725 34.1047 127.191C35.0898 125.946 35.6385 124.61 35.939 123.529Z" fill="#99A18E" fill-opacity="0.12"/>
<path fill-rule="evenodd" clip-rule="evenodd" d="M22.2404 104.757C22.7715 104.573 28.7045 103.53 29.8531 113.355L22.2404 104.757Z" fill="#99A18E" fill-opacity="0.12"/>
<path fill-rule="evenodd" clip-rule="evenodd" d="M23.4999 104.433C22.8342 104.402 22.3414 104.503 22.1836 104.558L22.2965 104.964C22.4042 104.926 22.8522 104.828 23.4842 104.857C24.1124 104.886 24.9121 105.041 25.7296 105.497C27.3528 106.402 29.0955 108.526 29.6638 113.387L30.0416 113.332C29.4613 108.367 27.6632 106.1 25.9 105.117C25.0243 104.628 24.1694 104.464 23.4999 104.433Z" fill="#99A18E" fill-opacity="0.12"/>
<path fill-rule="evenodd" clip-rule="evenodd" d="M24.9609 103.074C24.7432 102.687 22.6209 98.5175 28.6814 95.7471L24.9609 103.074Z" fill="#99A18E" fill-opacity="0.12"/>
<path fill-rule="evenodd" clip-rule="evenodd" d="M23.8289 100.194C23.5937 101.887 24.2753 103.21 24.4139 103.457L25.5079 102.692C25.4289 102.552 24.9405 101.597 25.1047 100.415C25.259 99.3053 26.0303 97.7376 28.9262 96.4138L28.4366 95.0813C25.272 96.5279 24.0742 98.43 23.8289 100.194Z" fill="#99A18E" fill-opacity="0.12"/>
<path fill-rule="evenodd" clip-rule="evenodd" d="M35.5468 121.299C35.5799 122.191 33.5516 122.568 22.0177 129.938L35.5468 121.299Z" fill="#99A18E" fill-opacity="0.12"/>
<path fill-rule="evenodd" clip-rule="evenodd" d="M35.485 122.675C35.8668 122.387 36.3152 121.965 36.2892 121.264L34.8042 121.333C34.7999 121.216 34.841 121.144 34.8533 121.126C34.8406 121.142 34.789 121.198 34.6524 121.301C34.3309 121.544 33.7664 121.88 32.7772 122.453C32.6471 122.528 32.5105 122.607 32.3672 122.69C30.3651 123.848 27.0426 125.771 21.6483 129.218L22.387 130.656C27.7547 127.226 31.0562 125.316 33.0522 124.161C33.1956 124.078 33.3322 123.999 33.4624 123.924C34.4179 123.37 35.0751 122.984 35.485 122.675ZM34.8567 121.122C34.8566 121.122 34.8553 121.123 34.8533 121.126C34.8558 121.123 34.8568 121.122 34.8567 121.122Z" fill="#99A18E" fill-opacity="0.12"/>
<path fill-rule="evenodd" clip-rule="evenodd" d="M22.2404 104.757C22.7715 104.573 23.3599 106.026 29.8531 113.355L22.2404 104.757Z" fill="#99A18E" fill-opacity="0.12"/>
<path fill-rule="evenodd" clip-rule="evenodd" d="M22.8656 104.835C22.6306 104.607 22.4214 104.475 22.1836 104.557L22.2965 104.963C22.3242 104.953 22.3877 104.934 22.6153 105.155C22.8362 105.37 23.1538 105.753 23.6696 106.385C23.7382 106.469 23.8102 106.557 23.8857 106.65C24.9389 107.942 26.6851 110.085 29.7172 113.508L29.9882 113.209C26.9616 109.793 25.2196 107.655 24.1675 106.364C24.092 106.271 24.0201 106.183 23.9515 106.099C23.4422 105.475 23.1072 105.07 22.8656 104.835Z" fill="#99A18E" fill-opacity="0.12"/>
<path fill-rule="evenodd" clip-rule="evenodd" d="M24.9608 103.074C24.7431 102.687 25.56 101.944 29.0158 95.3964L24.9608 103.074Z" fill="#99A18E" fill-opacity="0.12"/>
<path fill-rule="evenodd" clip-rule="evenodd" d="M24.4376 102.314C24.3301 102.558 24.1616 103.008 24.4138 103.457L25.5079 102.693C25.5961 102.85 25.574 102.991 25.5655 103.027C25.5694 103.015 25.5782 102.99 25.5957 102.951C25.6752 102.771 25.8397 102.478 26.1532 101.936C26.1939 101.866 26.2367 101.792 26.2816 101.715C26.9097 100.631 27.9531 98.83 29.5721 95.7623L28.4596 95.0317C26.854 98.0738 25.8218 99.8553 25.197 100.934C25.152 101.011 25.1092 101.085 25.0684 101.156C24.7729 101.666 24.558 102.041 24.4376 102.314ZM25.5629 103.036C25.5631 103.036 25.5641 103.032 25.5655 103.027C25.5635 103.033 25.5628 103.036 25.5629 103.036Z" fill="#99A18E" fill-opacity="0.12"/>
<path fill-rule="evenodd" clip-rule="evenodd" d="M35.5468 121.299C35.5799 122.191 25.7256 116.295 22.0177 129.938L35.5468 121.299Z" fill="#99A18E" fill-opacity="0.12"/>
<path fill-rule="evenodd" clip-rule="evenodd" d="M35.9771 122.016C36.2004 121.823 36.2993 121.535 36.2892 121.262L34.8042 121.331C34.7961 121.114 34.8778 120.869 35.0655 120.707C35.2039 120.587 35.3353 120.57 35.3554 120.567L35.3562 120.567C35.369 120.566 35.3763 120.565 35.3764 120.565C35.3764 120.564 35.34 120.563 35.2453 120.546C35.0983 120.52 34.9272 120.479 34.7106 120.428C34.5418 120.388 34.3455 120.342 34.1114 120.291C33.1086 120.071 31.6785 119.826 30.1073 120.01C28.5259 120.195 26.7971 120.817 25.2171 122.326C23.6405 123.831 22.2642 126.171 21.3064 129.695L22.7287 130.176C23.6249 126.878 24.8708 124.839 26.1837 123.585C27.4932 122.335 28.9211 121.816 30.2627 121.659C31.6144 121.5 32.8734 121.709 33.8249 121.918C33.9998 121.956 34.1767 121.997 34.3445 122.037C34.601 122.097 34.8359 122.152 35.0085 122.183C35.1448 122.207 35.342 122.238 35.5257 122.214C35.6144 122.203 35.8013 122.168 35.9771 122.016Z" fill="#99A18E" fill-opacity="0.12"/>
<path fill-rule="evenodd" clip-rule="evenodd" d="M22.2404 104.757C22.7715 104.573 20.9765 113.008 29.8531 113.355L22.2404 104.757Z" fill="#99A18E" fill-opacity="0.12"/>
<path fill-rule="evenodd" clip-rule="evenodd" d="M22.3992 104.594C22.3337 104.538 22.2543 104.528 22.1839 104.553L22.2968 104.959C22.2596 104.971 22.2089 104.967 22.1683 104.932C22.1451 104.912 22.1372 104.893 22.1373 104.893C22.1373 104.892 22.1377 104.893 22.1385 104.896C22.1461 104.917 22.1567 104.972 22.1663 105.079C22.1771 105.2 22.184 105.35 22.1924 105.532C22.1986 105.666 22.2056 105.817 22.2155 105.986C22.261 106.764 22.3654 107.837 22.7391 108.931C23.1137 110.028 23.7594 111.147 24.8853 112.013C26.0102 112.878 27.6 113.478 29.8464 113.566L29.8597 113.142C27.6678 113.056 26.1532 112.472 25.1016 111.663C24.0508 110.855 23.4478 109.812 23.0952 108.78C22.7416 107.745 22.6404 106.722 22.5957 105.959C22.5868 105.807 22.5801 105.661 22.5738 105.528C22.5648 105.334 22.5569 105.165 22.5455 105.037C22.5359 104.93 22.522 104.822 22.4933 104.74C22.4792 104.7 22.4525 104.639 22.3992 104.594Z" fill="#99A18E" fill-opacity="0.12"/>
<path fill-rule="evenodd" clip-rule="evenodd" d="M24.9609 103.074C24.7432 102.687 30.4718 101.952 29.0159 94.8295L24.9609 103.074Z" fill="#99A18E" fill-opacity="0.12"/>
<path fill-rule="evenodd" clip-rule="evenodd" d="M24.3539 102.781C24.2782 103.004 24.2992 103.252 24.4139 103.457L25.5078 102.692C25.6089 102.872 25.6279 103.095 25.561 103.292C25.5097 103.443 25.4262 103.524 25.4071 103.542C25.385 103.563 25.3691 103.574 25.3691 103.574C25.3691 103.574 25.3811 103.566 25.4112 103.55C25.48 103.513 25.5601 103.476 25.667 103.426C25.7484 103.388 25.8454 103.342 25.9648 103.284C26.4685 103.04 27.1827 102.658 27.8629 102.034C28.5481 101.405 29.2021 100.527 29.5769 99.3005C29.9514 98.0747 30.0306 96.5545 29.6453 94.6694L28.3865 94.9895C28.7292 96.6659 28.6382 97.9086 28.3549 98.8359C28.0719 99.7623 27.5803 100.428 27.0426 100.922C26.4997 101.42 25.9136 101.739 25.4499 101.964C25.3743 102.001 25.2938 102.038 25.215 102.075C25.0776 102.14 24.9454 102.202 24.8534 102.251C24.7855 102.288 24.6664 102.354 24.5659 102.45C24.5172 102.496 24.414 102.605 24.3539 102.781Z" fill="#99A18E" fill-opacity="0.12"/>
<path fill-rule="evenodd" clip-rule="evenodd" d="M21.0663 102.201C20.3515 103.114 6.72809 112.72 0.494995 96.6054L21.0663 102.201Z" fill="#99A18E" fill-opacity="0.12"/>
<path fill-rule="evenodd" clip-rule="evenodd" d="M21.1077 102.948C21.25 102.83 21.3865 102.707 21.4725 102.597L20.6603 101.805C20.6611 101.804 20.6611 101.804 20.66 101.806C20.6566 101.809 20.6428 101.825 20.6131 101.853C20.5774 101.887 20.528 101.93 20.4644 101.983C20.3371 102.089 20.1629 102.222 19.9454 102.375C19.5108 102.681 18.9147 103.056 18.1968 103.434C16.7581 104.192 14.8532 104.949 12.7937 105.191C10.7379 105.432 8.54638 105.158 6.50165 103.882C4.4598 102.607 2.5112 100.3 0.99007 96.3674L0 96.8439C1.59542 100.969 3.68716 103.503 5.97511 104.932C8.26018 106.358 10.6879 106.647 12.9065 106.387C15.1213 106.127 17.1459 105.318 18.6573 104.522C19.4146 104.123 20.0488 103.724 20.5204 103.392C20.756 103.227 20.9538 103.076 21.1077 102.948Z" fill="#99A18E" fill-opacity="0.12"/>
<path fill-rule="evenodd" clip-rule="evenodd" d="M22.0058 103.004C22.1799 103.771 20.3118 116.677 6.86383 117.801L22.0058 103.004Z" fill="#99A18E" fill-opacity="0.12"/>
<path fill-rule="evenodd" clip-rule="evenodd" d="M22.6948 103.331C22.7019 103.198 22.7087 102.994 22.6687 102.818L21.3426 103.192C21.3342 103.155 21.3324 103.132 21.3321 103.132C21.3317 103.132 21.3334 103.163 21.3293 103.239C21.3236 103.346 21.3089 103.499 21.281 103.696C21.2255 104.088 21.1215 104.626 20.9494 105.262C20.6052 106.536 19.9954 108.183 18.9786 109.839C16.9595 113.127 13.3121 116.498 6.81256 117.041L6.91472 118.562C13.8631 117.982 17.8738 114.338 20.1072 110.701C21.2167 108.894 21.8818 107.099 22.2591 105.703C22.4479 105.004 22.5663 104.399 22.6322 103.934C22.665 103.702 22.6857 103.498 22.6948 103.331Z" fill="#99A18E" fill-opacity="0.12"/>
<path fill-rule="evenodd" clip-rule="evenodd" d="M25.1421 103.454C24.4461 103.608 13.0442 101.242 12.7333 86.2031L25.1421 103.454Z" fill="#99A18E" fill-opacity="0.12"/>
<path fill-rule="evenodd" clip-rule="evenodd" d="M24.8702 103.712C24.9913 103.724 25.1076 103.729 25.1882 103.711L25.0965 103.197C25.0969 103.197 25.0968 103.197 25.0962 103.197C25.0933 103.197 25.0789 103.199 25.0485 103.198C25.0148 103.198 24.9698 103.196 24.9133 103.19C24.8005 103.178 24.6496 103.155 24.4654 103.116C24.0975 103.039 23.6041 102.904 23.0278 102.69C21.8751 102.262 20.398 101.522 18.9332 100.315C16.0113 97.9077 13.1221 93.6299 12.9684 86.1966L12.4987 86.2087C12.6559 93.8147 15.6231 98.2396 18.654 100.737C20.1655 101.982 21.6888 102.745 22.8794 103.187C23.4748 103.408 23.9888 103.55 24.3788 103.631C24.5736 103.672 24.7394 103.698 24.8702 103.712Z" fill="#99A18E" fill-opacity="0.12"/>
<path fill-rule="evenodd" clip-rule="evenodd" d="M54.7734 81.5742C54.5346 80.3917 46.6543 64.7091 34.2952 75.5697L54.7734 81.5742Z" fill="#99A18E" fill-opacity="0.12"/>
<path fill-rule="evenodd" clip-rule="evenodd" d="M54.0711 81.7464C54.0738 81.7546 54.0742 81.7559 54.0733 81.7512L55.4735 81.3994C55.4401 81.2344 55.3656 81.0361 55.2905 80.8561C55.2073 80.6565 55.0955 80.4142 54.9573 80.14C54.6806 79.591 54.2892 78.8966 53.7894 78.1372C52.7922 76.6222 51.3433 74.8177 49.4852 73.3966C47.6229 71.9725 45.3291 70.919 42.6653 70.9604C39.9971 71.0019 37.0388 72.1406 33.851 74.9419L34.7392 76.1995C37.7309 73.5706 40.3924 72.5969 42.6853 72.5613C44.9825 72.5256 46.991 73.4303 48.6736 74.7171C50.3602 76.0069 51.6986 77.6659 52.6324 79.0847C53.098 79.7921 53.458 80.4321 53.7062 80.9246C53.8305 81.1712 53.9246 81.3764 53.9891 81.5312C54.0417 81.6574 54.0641 81.7252 54.0711 81.7464Z" fill="#99A18E" fill-opacity="0.12"/>
<path fill-rule="evenodd" clip-rule="evenodd" d="M21.0663 102.2C20.3515 103.113 18.037 101.37 0.494995 96.6047L21.0663 102.2Z" fill="#99A18E" fill-opacity="0.12"/>
<path fill-rule="evenodd" clip-rule="evenodd" d="M19.9292 102.975C20.5347 103.087 21.0891 103.086 21.4725 102.596L20.6603 101.805L20.6565 101.809L20.6555 101.81C20.6556 101.81 20.6556 101.81 20.6554 101.81M19.9292 102.975C19.2993 102.858 18.3591 102.564 16.942 102.11L19.9292 102.975ZM16.942 102.11C16.7504 102.048 16.5495 101.984 16.3386 101.916L16.942 102.11ZM16.3386 101.916C13.4019 100.972 8.54055 99.4093 0.367493 97.1893L16.3386 101.916ZM0.367493 97.1893L0.622616 96.0206L0.367493 97.1893ZM0.622616 96.0206C8.81725 98.2465 13.6951 99.8146 16.6366 100.76L0.622616 96.0206ZM16.6366 100.76C16.8475 100.828 17.0484 100.893 17.2399 100.954L16.6366 100.76ZM17.2399 100.954C18.6835 101.417 19.5523 101.686 20.1057 101.788L17.2399 100.954ZM20.1057 101.788C20.382 101.839 20.5306 101.838 20.6094 101.824L20.1057 101.788ZM20.6094 101.824C20.6435 101.818 20.6553 101.81 20.6553 101.81L20.6094 101.824ZM20.6553 101.81C20.6554 101.81 20.6554 101.81 20.6554 101.81L20.6553 101.81Z" fill="#99A18E" fill-opacity="0.12"/>
<path fill-rule="evenodd" clip-rule="evenodd" d="M22.0056 103.004C22.1796 103.771 19.8216 105.169 7.20233 117.719L22.0056 103.004Z" fill="#99A18E" fill-opacity="0.12"/>
<path fill-rule="evenodd" clip-rule="evenodd" d="M22.5251 103.732C22.6519 103.494 22.7502 103.177 22.6686 102.817L21.3424 103.192C21.3092 103.045 21.3526 102.947 21.3522 102.947C21.3522 102.947 21.3512 102.949 21.3488 102.953C21.3224 103.003 21.2465 103.114 21.0592 103.321C20.6899 103.729 20.0431 104.344 18.9609 105.36C18.8175 105.495 18.6669 105.636 18.5088 105.784C16.3018 107.855 12.642 111.288 6.74713 117.15L7.65742 118.289C13.5377 112.441 17.1859 109.019 19.3896 106.952C19.5477 106.804 19.6983 106.662 19.8418 106.527C20.9048 105.529 21.6035 104.867 22.0218 104.405C22.2283 104.177 22.4066 103.955 22.5251 103.732Z" fill="#99A18E" fill-opacity="0.12"/>
<path fill-rule="evenodd" clip-rule="evenodd" d="M25.1421 103.455C24.4461 103.609 23.3164 100.91 12.7333 86.2038L25.1421 103.455Z" fill="#99A18E" fill-opacity="0.12"/>
<path fill-rule="evenodd" clip-rule="evenodd" d="M24.7132 103.579C24.8617 103.689 25.0189 103.749 25.1881 103.711L25.0965 103.197L25.0961 103.197C25.0902 103.199 25.0592 103.206 24.9736 103.142C24.8812 103.074 24.7548 102.944 24.5733 102.718C24.2121 102.266 23.6817 101.494 22.8329 100.243C22.7198 100.077 22.6011 99.9016 22.4765 99.7179C20.738 97.1536 17.8565 92.9036 12.9167 86.0393L12.5502 86.3674C17.4859 93.2259 20.3642 97.4713 22.1018 100.034C22.2264 100.218 22.3451 100.393 22.4583 100.56C23.3018 101.803 23.8458 102.596 24.2228 103.067C24.4105 103.301 24.5692 103.472 24.7132 103.579Z" fill="#99A18E" fill-opacity="0.12"/>
<path fill-rule="evenodd" clip-rule="evenodd" d="M54.7734 81.5742C54.5346 80.3917 51.755 80.6957 34.2952 75.5697L54.7734 81.5742Z" fill="#99A18E" fill-opacity="0.12"/>
<path fill-rule="evenodd" clip-rule="evenodd" d="M54.101 81.8199C54.0922 81.8072 54.0803 81.7846 54.0734 81.7508L55.4736 81.399C55.3229 80.6526 54.7468 80.3265 54.1621 80.1018C53.5464 79.8652 52.582 79.6215 51.1463 79.2696C50.9518 79.2219 50.7477 79.1721 50.5335 79.1197C47.5489 78.3905 42.6096 77.1836 34.4779 74.7962L34.1126 76.3445C42.2729 78.7403 47.2345 79.9526 50.2256 80.6835C50.4398 80.7358 50.6439 80.7857 50.8383 80.8333C52.3098 81.194 53.1764 81.4164 53.6946 81.6155C53.967 81.7202 54.0701 81.7925 54.101 81.8199ZM54.1121 81.832C54.1128 81.8319 54.1099 81.8278 54.101 81.8199C54.1068 81.8282 54.1113 81.8321 54.1121 81.832Z" fill="#99A18E" fill-opacity="0.12"/>
<path fill-rule="evenodd" clip-rule="evenodd" d="M21.0663 102.201C6.61269 104.326 9.05611 102.234 0.494995 96.606L21.0663 102.201Z" fill="#99A18E" fill-opacity="0.12"/>
<path fill-rule="evenodd" clip-rule="evenodd" d="M8.37929 102.869C10.793 103.893 13.9335 103.853 21.1367 102.794L20.9958 101.601C13.7454 102.667 10.8808 102.643 8.7625 101.745C7.70246 101.296 6.80527 100.617 5.60125 99.6598C5.49787 99.5777 5.39246 99.4936 5.28475 99.4078C4.14413 98.4986 2.7455 97.3837 0.768649 96.0842L0.221191 97.1204C2.15587 98.3922 3.52017 99.4796 4.65915 100.387C4.7665 100.473 4.87185 100.557 4.97549 100.639C6.17282 101.591 7.17333 102.358 8.37929 102.869Z" fill="#99A18E" fill-opacity="0.12"/>
<path fill-rule="evenodd" clip-rule="evenodd" d="M54.7734 81.5742C42.9704 72.0294 44.2257 75.1675 34.2952 75.5697L54.7734 81.5742Z" fill="#99A18E" fill-opacity="0.12"/>
<path fill-rule="evenodd" clip-rule="evenodd" d="M43.7371 75.6356C45.9315 75.9628 48.4252 77.4295 54.3523 82.2227L55.1947 80.9264C49.3188 76.1748 46.5387 74.4381 43.9273 74.0487C42.6229 73.8542 41.3944 74.001 39.9366 74.2018C39.8103 74.2192 39.6818 74.2371 39.551 74.2554C38.1622 74.4487 36.5053 74.6795 34.2692 74.77L34.3213 76.37C36.6225 76.2768 38.3352 76.0382 39.7267 75.8443C39.8581 75.826 39.9867 75.8081 40.1126 75.7908C41.5812 75.5884 42.6386 75.4718 43.7371 75.6356Z" fill="#99A18E" fill-opacity="0.12"/>
<path fill-rule="evenodd" clip-rule="evenodd" d="M21.0663 102.203C13.1778 101.368 13.9659 92.32 0.494995 96.6077L21.0663 102.203Z" fill="#99A18E" fill-opacity="0.12"/>
<path fill-rule="evenodd" clip-rule="evenodd" d="M14.1775 99.2992C15.9477 100.826 17.8496 102.466 21.0154 102.801L21.1173 101.603C18.2896 101.304 16.6994 99.9369 14.9776 98.4567C14.4069 97.9661 13.8217 97.463 13.1722 96.9822C11.8844 96.029 10.3943 95.2296 8.34682 94.9575C6.31033 94.6868 3.75878 94.9425 0.347107 96.0284L0.642977 97.185C3.96675 96.1271 6.36829 95.9058 8.21925 96.1519C10.0592 96.3964 11.3909 97.1072 12.576 97.9845C13.1187 98.3861 13.6421 98.8375 14.1775 99.2992Z" fill="#99A18E" fill-opacity="0.12"/>
<path fill-rule="evenodd" clip-rule="evenodd" d="M54.7734 81.5742C47.4799 78.1194 44.3112 86.4943 34.2952 75.5697L54.7734 81.5742Z" fill="#99A18E" fill-opacity="0.12"/>
<path fill-rule="evenodd" clip-rule="evenodd" d="M47.8783 81.8286C50.0108 81.4442 51.9296 81.0983 54.493 82.3125L55.054 80.8389C52.0745 79.4275 49.6358 79.8726 47.4204 80.2769C46.7602 80.3974 46.1199 80.5142 45.491 80.5773C44.0948 80.7172 42.6496 80.6361 40.9594 79.8882C39.2554 79.1343 37.2574 77.6825 34.7969 74.9988L33.7935 76.1435C36.341 78.9221 38.495 80.5202 40.4302 81.3764C42.379 82.2387 44.0599 82.3282 45.6195 82.1718C46.4185 82.0918 47.1605 81.958 47.8783 81.8286Z" fill="#99A18E" fill-opacity="0.12"/>
<path fill-rule="evenodd" clip-rule="evenodd" d="M21.0663 102.201C20.3515 103.114 11.6949 84.9828 0.494995 96.6054L21.0663 102.201Z" fill="#99A18E" fill-opacity="0.12"/>
<path fill-rule="evenodd" clip-rule="evenodd" d="M20.8854 102.825C21.0713 102.861 21.3037 102.812 21.4723 102.597L20.6601 101.806C20.784 101.647 20.9562 101.619 21.0668 101.64C21.1104 101.648 21.1392 101.662 21.1499 101.669C21.1482 101.667 21.1459 101.666 21.1432 101.664C21.0905 101.624 20.99 101.524 20.8281 101.333C20.6153 101.082 20.3552 100.745 20.0389 100.336C19.8837 100.135 19.7149 99.9167 19.5316 99.6824C18.4388 98.2853 16.9073 96.4255 15.0297 94.9013C13.1525 93.3775 10.892 92.1583 8.34386 92.104C5.78026 92.0494 3.00912 93.1754 0.127625 96.1656L0.862089 97.0463C3.58054 94.2252 6.09145 93.2591 8.32327 93.3066C10.5706 93.3545 12.6189 94.4318 14.3952 95.8738C16.171 97.3154 17.6377 99.0907 18.7191 100.473C18.8868 100.688 19.0474 100.895 19.1992 101.092C19.5273 101.516 19.8145 101.888 20.0447 102.16C20.2098 102.354 20.3795 102.539 20.5376 102.659C20.6127 102.716 20.7343 102.797 20.8854 102.825ZM21.1547 101.672C21.1547 101.672 21.1531 101.67 21.1499 101.669C21.1532 101.671 21.1547 101.672 21.1547 101.672Z" fill="#99A18E" fill-opacity="0.12"/>
<path fill-rule="evenodd" clip-rule="evenodd" d="M22.0055 103.004C22.1796 103.772 6.24822 107.182 7.30734 118.586L22.0055 103.004Z" fill="#99A18E" fill-opacity="0.12"/>
<path fill-rule="evenodd" clip-rule="evenodd" d="M22.471 103.61C22.5434 103.525 22.7631 103.234 22.6685 102.817L21.3424 103.191C21.2588 102.822 21.4579 102.584 21.4802 102.558C21.5014 102.533 21.5185 102.518 21.5251 102.513C21.5224 102.515 21.518 102.518 21.5115 102.522C21.4505 102.562 21.3284 102.626 21.123 102.719C20.8491 102.843 20.4949 102.989 20.0647 103.167C19.8584 103.251 19.6346 103.344 19.3939 103.444C17.9332 104.053 15.9524 104.924 13.9922 106.139C10.1164 108.542 6.05196 112.473 6.62699 118.664L7.98761 118.507C7.50352 113.295 10.8752 109.818 14.6568 107.473C16.5252 106.314 18.4285 105.476 19.8729 104.873C20.0946 104.781 20.3081 104.693 20.51 104.61C20.9548 104.427 21.3431 104.267 21.6379 104.133C21.8494 104.037 22.0507 103.938 22.2035 103.838C22.2753 103.791 22.38 103.717 22.471 103.61ZM21.5281 102.51C21.528 102.51 21.527 102.511 21.5251 102.513C21.5272 102.511 21.5281 102.51 21.5281 102.51Z" fill="#99A18E" fill-opacity="0.12"/>
<path fill-rule="evenodd" clip-rule="evenodd" d="M25.1421 103.456C24.4461 103.61 22.9979 85.615 12.7333 86.205L25.1421 103.456Z" fill="#99A18E" fill-opacity="0.12"/>
<path fill-rule="evenodd" clip-rule="evenodd" d="M24.8988 103.592C24.9399 103.643 25.0409 103.745 25.188 103.712L25.0964 103.198C25.1446 103.188 25.1866 103.2 25.2144 103.215C25.2383 103.229 25.2497 103.243 25.2503 103.244L25.2503 103.244C25.2504 103.244 25.2505 103.244 25.2505 103.244C25.2505 103.244 25.2469 103.239 25.2404 103.227C25.2333 103.214 25.2244 103.195 25.214 103.17C25.1706 103.066 25.1184 102.897 25.0555 102.66C24.9711 102.342 24.8746 101.929 24.7597 101.437C24.7044 101.201 24.6448 100.946 24.5803 100.675C24.1855 99.0154 23.6148 96.7831 22.7413 94.5612C21.0011 90.135 18.0108 85.6385 12.7213 85.9425L12.7455 86.466C17.7207 86.18 20.5868 90.3862 22.3109 94.7717C23.1695 96.9556 23.7329 99.1564 24.1261 100.809C24.1888 101.073 24.2474 101.323 24.3023 101.558C24.4186 102.055 24.5183 102.482 24.6049 102.809C24.6684 103.048 24.7287 103.249 24.7879 103.391C24.8167 103.46 24.8525 103.534 24.8988 103.592Z" fill="#99A18E" fill-opacity="0.12"/>
<path fill-rule="evenodd" clip-rule="evenodd" d="M54.7734 81.5729C54.5346 80.3903 39.1835 91.7372 34.2952 75.5683L54.7734 81.5729Z" fill="#99A18E" fill-opacity="0.12"/>
<path fill-rule="evenodd" clip-rule="evenodd" d="M54.4769 82.2597C54.3235 82.2017 54.1309 82.0381 54.0733 81.753L55.4735 81.4012C55.401 81.0422 55.164 80.8292 54.9382 80.7437C54.757 80.6751 54.5852 80.6848 54.4861 80.6959C54.2749 80.7196 54.0307 80.7983 53.8017 80.8821C53.4793 81.0001 53.0617 81.1772 52.5893 81.3774C52.3729 81.4691 52.145 81.5657 51.9095 81.6638C50.3712 82.3041 48.339 83.0798 46.1828 83.4013C44.0257 83.7229 41.8056 83.5805 39.8531 82.4546C37.919 81.3393 36.1499 79.2023 34.9752 75.3167L33.6152 75.8283C34.8846 80.0272 36.8675 82.5352 39.194 83.8768C41.5022 85.2079 44.0514 85.3343 46.3729 84.9882C48.6953 84.6419 50.8513 83.8131 52.4113 83.1637C52.6763 83.0534 52.9199 82.9501 53.1429 82.8556C53.5927 82.6649 53.9589 82.5096 54.2492 82.4033C54.4699 82.3226 54.5847 82.2943 54.6281 82.2891C54.6085 82.2897 54.5515 82.288 54.4769 82.2597ZM54.6295 82.2889C54.629 82.289 54.6286 82.289 54.6281 82.2891L54.6295 82.2889Z" fill="#99A18E" fill-opacity="0.12"/>
<path fill-rule="evenodd" clip-rule="evenodd" d="M95.5835 102.951C95.881 104.402 97.0436 120.425 75.7612 121.711L95.5835 102.951Z" fill="#99A18E" fill-opacity="0.12"/>
<path fill-rule="evenodd" clip-rule="evenodd" d="M94.3917 112.814C96.8415 108.248 96.4765 103.654 96.2957 102.772L94.8713 103.136C94.9879 103.705 95.353 107.848 93.1379 111.977C90.9595 116.038 86.1836 120.268 75.7217 120.9L75.8007 122.527C86.6212 121.874 91.9052 117.449 94.3917 112.814Z" fill="#99A18E" fill-opacity="0.12"/>
<path fill-rule="evenodd" clip-rule="evenodd" d="M95.5835 102.951C95.881 104.402 92.6588 105.709 75.7612 121.711L95.5835 102.951Z" fill="#99A18E" fill-opacity="0.12"/>
<path fill-rule="evenodd" clip-rule="evenodd" d="M95.5008 104.825C96.0386 104.233 96.464 103.591 96.2956 102.77L94.8713 103.133C94.8711 103.131 94.8705 103.124 94.8715 103.115C94.8718 103.113 94.872 103.112 94.8721 103.112C94.8722 103.111 94.8698 103.124 94.8572 103.152C94.8183 103.238 94.718 103.397 94.4749 103.664C93.988 104.199 93.1258 104.965 91.6708 106.232C91.4781 106.4 91.2758 106.576 91.0634 106.76C88.0992 109.338 83.1832 113.613 75.2883 121.09L76.2339 122.332C84.106 114.877 89.0037 110.618 91.9625 108.045C92.1748 107.861 92.3772 107.685 92.5699 107.517C93.9955 106.275 94.9391 105.442 95.5008 104.825Z" fill="#99A18E" fill-opacity="0.12"/>
<path fill-rule="evenodd" clip-rule="evenodd" d="M91.9885 106.992C85.6741 106.866 83.549 106.429 82.296 106.429L91.9885 106.992Z" fill="#99A18E" fill-opacity="0.12"/>
<path fill-rule="evenodd" clip-rule="evenodd" d="M85.1891 107.477C86.6796 107.603 88.8035 107.745 91.9754 107.809L92.0017 106.179C88.8592 106.116 86.7634 105.976 85.2995 105.852C84.8404 105.813 84.4347 105.775 84.0737 105.741C83.3104 105.669 82.7462 105.616 82.2962 105.616L82.296 107.245C82.6833 107.245 83.1519 107.29 83.8594 107.357C84.2296 107.392 84.6653 107.433 85.1891 107.477Z" fill="#99A18E" fill-opacity="0.12"/>
<path fill-rule="evenodd" clip-rule="evenodd" d="M87.501 110.645C82.1023 110.518 80.2854 110.081 79.2141 110.081L87.501 110.645Z" fill="#99A18E" fill-opacity="0.12"/>
<path fill-rule="evenodd" clip-rule="evenodd" d="M81.6707 111.125C82.9491 111.251 84.7694 111.393 87.4858 111.457L87.5164 109.837C84.8342 109.774 83.0466 109.634 81.7991 109.511C81.4157 109.473 81.0735 109.435 80.7666 109.401C80.1063 109.328 79.6089 109.273 79.2143 109.273L79.2141 110.894C79.5358 110.894 79.9222 110.937 80.5177 111.003C80.8353 111.038 81.2123 111.079 81.6707 111.125Z" fill="#99A18E" fill-opacity="0.12"/>
<path fill-rule="evenodd" clip-rule="evenodd" d="M83.1578 114.863C79.2536 114.737 77.9395 114.3 77.1648 114.3L83.1578 114.863Z" fill="#99A18E" fill-opacity="0.12"/>
<path fill-rule="evenodd" clip-rule="evenodd" d="M78.8987 115.345C79.8334 115.473 81.1606 115.616 83.1366 115.68L83.1793 114.046C81.251 113.983 79.9691 113.845 79.0771 113.723C78.7781 113.682 78.5292 113.644 78.3061 113.609C78.1897 113.592 78.0803 113.575 77.9745 113.559C77.6818 113.517 77.4117 113.482 77.1651 113.482L77.1648 115.117C77.3055 115.117 77.4902 115.137 77.7838 115.18C77.8753 115.193 77.9776 115.209 78.0901 115.226C78.3195 115.261 78.5911 115.303 78.8987 115.345Z" fill="#99A18E" fill-opacity="0.12"/>
<path fill-rule="evenodd" clip-rule="evenodd" d="M95.5835 102.951C95.881 104.402 78.1152 98.0834 75.7612 121.711L95.5835 102.951Z" fill="#99A18E" fill-opacity="0.12"/>
<path fill-rule="evenodd" clip-rule="evenodd" d="M96.1056 103.611C96.3005 103.367 96.3533 103.054 96.2959 102.773L94.8715 103.137C94.8326 102.947 94.8688 102.71 95.0138 102.528C95.0705 102.457 95.1268 102.417 95.1599 102.397C95.1933 102.376 95.2167 102.368 95.2215 102.366C95.2281 102.364 95.2076 102.371 95.1428 102.379C95.082 102.386 95.0013 102.391 94.8966 102.394C94.6397 102.401 94.3275 102.392 93.9438 102.382C93.6554 102.374 93.3266 102.365 92.9505 102.361C91.2643 102.341 88.9123 102.425 86.459 103.237C83.9961 104.052 81.4269 105.603 79.325 108.508C77.2259 111.409 75.6353 115.602 75.0353 121.625L76.4875 121.805C77.0645 116.014 78.5773 112.136 80.462 109.531C82.344 106.93 84.639 105.54 86.8746 104.8C89.1199 104.057 91.3006 103.972 92.9354 103.991C93.2522 103.994 93.5615 104.002 93.8488 104.01C94.2727 104.021 94.6488 104.031 94.9312 104.023C95.1617 104.017 95.4297 104 95.6504 103.924C95.7578 103.888 95.9499 103.806 96.1056 103.611Z" fill="#99A18E" fill-opacity="0.12"/>
<path fill-rule="evenodd" clip-rule="evenodd" d="M117.039 73.601C117.538 73.601 105.774 96.9731 94.4928 103.816L117.039 73.601Z" fill="#99A18E" fill-opacity="0.12"/>
<path fill-rule="evenodd" clip-rule="evenodd" d="M117.859 72.7483C117.622 72.4692 117.314 72.3549 117.039 72.3549V74.8418C116.773 74.8418 116.47 74.7303 116.239 74.4569C116.038 74.2203 115.978 73.9642 115.957 73.8391C115.92 73.6153 115.953 73.4429 115.957 73.4227L115.957 73.4211C115.965 73.3814 115.972 73.3576 115.972 73.3572C115.972 73.3569 115.968 73.3711 115.956 73.4035C115.913 73.5235 115.825 73.7381 115.682 74.0545C115.4 74.6762 114.949 75.5919 114.352 76.7278C113.158 78.9963 111.4 82.1003 109.276 85.4171C104.994 92.1062 99.3579 99.4472 93.9603 102.721L95.0254 104.906C100.909 101.337 106.796 93.5703 111.091 86.8625C113.256 83.481 115.05 80.3142 116.274 77.9865C116.886 76.8244 117.361 75.8607 117.671 75.1775C117.823 74.8414 117.948 74.5473 118.028 74.3215C118.063 74.2223 118.115 74.07 118.143 73.9101L118.144 73.9084C118.154 73.8516 118.191 73.6431 118.15 73.3915C118.128 73.2552 118.064 72.9906 117.859 72.7483Z" fill="#99A18E" fill-opacity="0.12"/>
<path fill-rule="evenodd" clip-rule="evenodd" d="M117.039 73.601C117.538 73.601 105.774 96.9731 94.4928 103.816L117.039 73.601Z" fill="#99A18E" fill-opacity="0.12"/>
<path fill-rule="evenodd" clip-rule="evenodd" d="M117.859 72.7483C117.622 72.4692 117.314 72.3549 117.039 72.3549V74.8418C116.773 74.8418 116.47 74.7303 116.239 74.4569C116.038 74.2203 115.978 73.9642 115.957 73.8391C115.92 73.6153 115.953 73.4429 115.957 73.4227L115.957 73.4211C115.965 73.3814 115.972 73.3576 115.972 73.3572C115.972 73.3569 115.968 73.3711 115.956 73.4035C115.913 73.5235 115.825 73.7381 115.682 74.0545C115.4 74.6762 114.949 75.5919 114.352 76.7278C113.158 78.9963 111.4 82.1003 109.276 85.4171C104.994 92.1062 99.3579 99.4472 93.9603 102.721L95.0254 104.906C100.909 101.337 106.796 93.5703 111.091 86.8625C113.256 83.481 115.05 80.3142 116.274 77.9865C116.886 76.8244 117.361 75.8607 117.671 75.1775C117.823 74.8414 117.948 74.5473 118.028 74.3215C118.063 74.2223 118.115 74.07 118.143 73.9101L118.144 73.9084C118.154 73.8516 118.191 73.6431 118.15 73.3915C118.128 73.2552 118.064 72.9906 117.859 72.7483Z" fill="#99A18E" fill-opacity="0.12"/>
<path fill-rule="evenodd" clip-rule="evenodd" d="M97.9864 63.4603C98.1732 63.0846 100.693 59.3901 105.491 63.6914L97.9864 63.4603Z" fill="#99A18E" fill-opacity="0.12"/>
<path fill-rule="evenodd" clip-rule="evenodd" d="M99.8217 61.145C98.379 61.6434 97.5854 62.8063 97.4313 63.1161L98.5411 63.8028C98.5406 63.8038 98.5409 63.8032 98.5423 63.8009C98.5494 63.7889 98.5835 63.7311 98.6528 63.6385C98.7299 63.5354 98.84 63.4033 98.9826 63.263C99.2686 62.9817 99.6742 62.6779 100.197 62.4972C101.201 62.1503 102.816 62.2005 105.093 64.2422L105.888 63.1388C103.368 60.8792 101.324 60.626 99.8217 61.145Z" fill="#99A18E" fill-opacity="0.12"/>
<path fill-rule="evenodd" clip-rule="evenodd" d="M99.3932 59.0703C99.1177 58.993 96.2805 57.6878 98.1221 53.0607L99.3932 59.0703Z" fill="#99A18E" fill-opacity="0.12"/>
<path fill-rule="evenodd" clip-rule="evenodd" d="M98.7022 58.9473C98.9937 59.1644 99.2447 59.2735 99.3418 59.3008L99.4449 58.8437C99.4042 58.8323 99.1973 58.7493 98.9368 58.5553C98.6799 58.364 98.3805 58.0715 98.1429 57.6485C97.6755 56.8161 97.4157 55.4188 98.3154 53.1582L97.9292 52.967C96.9873 55.3335 97.2253 56.9023 97.7849 57.8987C98.0608 58.39 98.4072 58.7276 98.7022 58.9473Z" fill="#99A18E" fill-opacity="0.12"/>
<path fill-rule="evenodd" clip-rule="evenodd" d="M111.62 43.3204C111.086 43.7464 104.399 46.68 99.8373 36.1421L111.62 43.3204Z" fill="#99A18E" fill-opacity="0.12"/>
<path fill-rule="evenodd" clip-rule="evenodd" d="M111.289 43.9913C111.541 43.8873 111.745 43.7781 111.857 43.6888L111.383 42.9503L111.384 42.9502C111.384 42.9502 111.381 42.9519 111.376 42.9553C111.371 42.959 111.364 42.9639 111.354 42.97C111.334 42.9822 111.308 42.9974 111.275 43.0153C111.208 43.0509 111.118 43.0939 111.006 43.14C110.783 43.2321 110.481 43.3338 110.116 43.4142C109.386 43.5749 108.413 43.6482 107.321 43.3972C105.158 42.9002 102.44 41.1096 100.204 35.9438L99.4706 36.3386C101.796 41.7108 104.702 43.7224 107.157 44.2865C108.373 44.5661 109.458 44.4847 110.274 44.3049C110.682 44.215 111.026 44.1 111.289 43.9913Z" fill="#99A18E" fill-opacity="0.12"/>
<path fill-rule="evenodd" clip-rule="evenodd" d="M97.9864 63.4603C98.1732 63.0846 99.0919 63.4967 105.491 63.6914L97.9864 63.4603Z" fill="#99A18E" fill-opacity="0.12"/>
<path fill-rule="evenodd" clip-rule="evenodd" d="M98.3079 62.603C98.0791 62.615 97.6557 62.6652 97.4313 63.1164L98.5411 63.8031C98.4594 63.9674 98.3359 64.014 98.3021 64.0233C98.3128 64.0215 98.3337 64.0188 98.3676 64.017C98.5345 64.0083 98.8229 64.0262 99.3655 64.0676C99.4358 64.073 99.5095 64.0786 99.5869 64.0846C100.672 64.1682 102.474 64.3072 105.473 64.3984L105.508 62.9833C102.535 62.8929 100.753 62.7554 99.6737 62.6723C99.5963 62.6663 99.5225 62.6606 99.4522 62.6552C98.942 62.6163 98.5658 62.5894 98.3079 62.603ZM98.2932 64.0252C98.2934 64.0253 98.2966 64.0248 98.3021 64.0233C98.2958 64.0243 98.2931 64.0251 98.2932 64.0252Z" fill="#99A18E" fill-opacity="0.12"/>
<path fill-rule="evenodd" clip-rule="evenodd" d="M99.3933 59.0703C99.1178 58.993 99.2074 58.1845 98.1223 53.0607L99.3933 59.0703Z" fill="#99A18E" fill-opacity="0.12"/>
<path fill-rule="evenodd" clip-rule="evenodd" d="M99.0298 58.8922C99.0788 59.0649 99.1547 59.2482 99.3419 59.3008L99.445 58.8437C99.4605 58.8481 99.4696 58.8563 99.4733 58.8606C99.4682 58.8523 99.4535 58.8236 99.4326 58.7501C99.3899 58.5995 99.3438 58.3472 99.269 57.9151C99.2591 57.858 99.2487 57.7981 99.2379 57.7352C99.0864 56.8582 98.8352 55.4033 98.328 53.0084L97.9168 53.1167C98.422 55.5023 98.6719 56.9497 98.823 57.8246C98.8339 57.8875 98.8442 57.9475 98.8541 58.0046C98.9269 58.4248 98.9779 58.7094 99.0298 58.8922ZM99.4752 58.8633C99.4753 58.8632 99.4746 58.8622 99.4733 58.8606C99.4746 58.8627 99.4752 58.8634 99.4752 58.8633Z" fill="#99A18E" fill-opacity="0.12"/>
<path fill-rule="evenodd" clip-rule="evenodd" d="M111.62 43.3189C111.086 43.7449 109.942 42.3605 100.221 36.8366L111.62 43.3189Z" fill="#99A18E" fill-opacity="0.12"/>
<path fill-rule="evenodd" clip-rule="evenodd" d="M110.824 43.6841C111.168 43.8449 111.532 43.9499 111.857 43.691L111.384 42.9525C111.393 42.945 111.401 42.9412 111.407 42.9394C111.382 42.9386 111.307 42.9257 111.138 42.8467C110.831 42.7031 110.358 42.4135 109.565 41.9161C109.46 41.8504 109.35 41.7813 109.235 41.7088C107.623 40.6961 104.949 39.0164 100.405 36.435L100.036 37.244C104.564 39.8169 107.227 41.4895 108.836 42.5001C108.951 42.5726 109.061 42.6417 109.166 42.7075C109.941 43.1935 110.462 43.5153 110.824 43.6841ZM111.418 42.9382C111.417 42.9377 111.413 42.9376 111.407 42.9394C111.415 42.9396 111.418 42.9387 111.418 42.9382Z" fill="#99A18E" fill-opacity="0.12"/>
<path fill-rule="evenodd" clip-rule="evenodd" d="M97.9864 63.4616C98.1732 63.0859 100.9 68.2655 105.491 63.6927L97.9864 63.4616Z" fill="#99A18E" fill-opacity="0.12"/>
<path fill-rule="evenodd" clip-rule="evenodd" d="M97.94 62.7381C97.7085 62.7672 97.5283 62.9226 97.4313 63.1175L98.5411 63.8042C98.4558 63.9756 98.2922 64.1183 98.0823 64.1447C97.9234 64.1647 97.8101 64.1074 97.7844 64.0941C97.7511 64.0769 97.7314 64.0611 97.7314 64.061C97.7314 64.0609 97.7408 64.0685 97.7616 64.0884C97.8127 64.137 97.8662 64.1934 97.9378 64.2688C97.9974 64.3316 98.0697 64.4076 98.1635 64.5034C98.5336 64.8816 99.0906 65.4066 99.8152 65.7898C100.548 66.1772 101.455 66.4213 102.509 66.2308C103.559 66.041 104.698 65.4304 105.913 64.2198L105.068 63.164C103.988 64.2398 103.064 64.6965 102.306 64.8334C101.552 64.9696 100.905 64.7997 100.359 64.5107C99.8045 64.2176 99.3578 63.804 99.0206 63.4595C98.9648 63.4025 98.9047 63.3395 98.8455 63.2776C98.7486 63.176 98.6543 63.0772 98.5864 63.0125C98.536 62.9644 98.4363 62.8708 98.3173 62.8093C98.2602 62.7799 98.1204 62.7153 97.94 62.7381Z" fill="#99A18E" fill-opacity="0.12"/>
<path fill-rule="evenodd" clip-rule="evenodd" d="M99.3933 59.0703C99.1178 58.993 101.912 55.8458 98.1223 53.0607L99.3933 59.0703Z" fill="#99A18E" fill-opacity="0.12"/>
<path fill-rule="evenodd" clip-rule="evenodd" d="M99.1793 59.1418C99.2091 59.227 99.2725 59.2814 99.3416 59.3008L99.4447 58.8437C99.4967 58.8583 99.5488 58.9018 99.5728 58.9704C99.5903 59.0201 99.5839 59.0589 99.5833 59.0631C99.5833 59.0632 99.5832 59.0633 99.5832 59.0634C99.583 59.0646 99.5829 59.0653 99.583 59.0653C99.5832 59.0654 99.5875 59.0495 99.6053 59.0082C99.6286 58.9541 99.6592 58.8911 99.6973 58.8125C99.7266 58.7524 99.7602 58.6831 99.7984 58.6016C99.9659 58.2448 100.182 57.7326 100.283 57.1259C100.385 56.516 100.37 55.8092 100.074 55.0697C99.7783 54.3315 99.211 53.5807 98.2384 52.8658L98.0059 53.2594C98.9281 53.9372 99.4327 54.6241 99.6878 55.2618C99.9425 55.8981 99.9567 56.5052 99.8677 57.0399C99.7783 57.5778 99.5846 58.0409 99.4241 58.383C99.3938 58.4475 99.3629 58.5113 99.3339 58.5712C99.2903 58.6613 99.251 58.7425 99.2245 58.8039C99.2033 58.8532 99.177 58.9185 99.1671 58.9818C99.1622 59.0125 99.1557 59.0744 99.1793 59.1418Z" fill="#99A18E" fill-opacity="0.12"/>
<path fill-rule="evenodd" clip-rule="evenodd" d="M111.621 43.3192C111.086 43.7452 110.632 33.3638 100.565 36.6554L111.621 43.3192Z" fill="#99A18E" fill-opacity="0.12"/>
<path fill-rule="evenodd" clip-rule="evenodd" d="M111.427 43.7562C111.586 43.8226 111.743 43.7821 111.857 43.6915L111.384 42.9529C111.464 42.8889 111.588 42.8539 111.713 42.9062C111.762 42.9265 111.795 42.954 111.812 42.9713C111.83 42.9888 111.84 43.0031 111.843 43.0076C111.844 43.0082 111.844 43.0077 111.843 43.006C111.838 42.9974 111.819 42.957 111.784 42.8574C111.738 42.728 111.69 42.5701 111.631 42.3756C111.584 42.2228 111.531 42.0474 111.467 41.8456C111.187 40.9687 110.749 39.7628 109.992 38.6426C109.232 37.5169 108.148 36.4743 106.584 35.937C105.022 35.4008 103.023 35.3817 100.45 36.2228L100.679 37.094C103.14 36.2894 104.972 36.3335 106.344 36.8048C107.713 37.275 108.663 38.1838 109.342 39.1888C110.024 40.1992 110.43 41.303 110.7 42.15C110.753 42.3162 110.803 42.4807 110.85 42.6337C110.916 42.8518 110.976 43.0464 111.026 43.1889C111.067 43.3062 111.122 43.4481 111.194 43.5551C111.229 43.6063 111.303 43.7043 111.427 43.7562Z" fill="#99A18E" fill-opacity="0.12"/>
<path fill-rule="evenodd" clip-rule="evenodd" d="M96.2999 62.8109C96.3347 63.6499 93.6472 75.7412 83.6031 71.012L96.2999 62.8109Z" fill="#99A18E" fill-opacity="0.12"/>
<path fill-rule="evenodd" clip-rule="evenodd" d="M97.0061 63.2304C97.0268 63.0937 97.0484 62.9206 97.0422 62.7717L95.5576 62.8482C95.557 62.8345 95.5571 62.827 95.5568 62.827C95.5563 62.8269 95.5543 62.8642 95.5406 62.9541C95.5242 63.0624 95.4965 63.2117 95.4552 63.3967C95.3727 63.7658 95.2404 64.2565 95.0491 64.8141C94.6649 65.934 94.0556 67.2868 93.1636 68.4633C92.2749 69.6356 91.1227 70.612 89.6426 71.0405C88.1668 71.4676 86.2841 71.3737 83.8921 70.2475L83.3141 71.7748C85.9442 73.0132 88.1639 73.1813 90.0159 72.6452C91.8634 72.1104 93.2642 70.8982 94.2985 69.5339C95.3295 68.1738 96.0134 66.642 96.4372 65.4066C96.6499 64.7866 96.8003 64.2319 96.8973 63.7977C96.9458 63.5809 96.982 63.3891 97.0061 63.2304Z" fill="#99A18E" fill-opacity="0.12"/>
<path fill-rule="evenodd" clip-rule="evenodd" d="M97.1159 62.7103C97.5328 63.001 102.279 70.2346 96.0338 77.9883L97.1159 62.7103Z" fill="#99A18E" fill-opacity="0.12"/>
<path fill-rule="evenodd" clip-rule="evenodd" d="M97.4707 62.6201C97.4152 62.55 97.3463 62.4697 97.2784 62.4223L96.9535 63.0021C96.9499 62.9996 96.948 62.9982 96.9479 62.9984C96.9475 62.999 96.9676 63.0176 97.0115 63.073C97.0598 63.134 97.1231 63.2216 97.1977 63.3357C97.3466 63.5633 97.5345 63.8868 97.7312 64.2939C98.1249 65.1085 98.5495 66.2483 98.7717 67.6137C99.214 70.3307 98.8611 73.9687 95.8059 77.7618L96.2619 78.2188C99.4521 74.2581 99.8487 70.4025 99.3749 67.4916C99.1391 66.043 98.6892 64.8352 98.2708 63.9695C98.0616 63.5365 97.859 63.1866 97.6929 62.9326C97.61 62.8059 97.5347 62.7008 97.4707 62.6201Z" fill="#99A18E" fill-opacity="0.12"/>
<path fill-rule="evenodd" clip-rule="evenodd" d="M99.9189 60.1423C99.6368 60.5917 92.9154 65.5051 86.2965 58.1471L99.9189 60.1423Z" fill="#99A18E" fill-opacity="0.12"/>
<path fill-rule="evenodd" clip-rule="evenodd" d="M100.198 60.8472C100.263 60.7897 100.375 60.6867 100.453 60.5628L99.3848 59.7286C99.4087 59.6906 99.4276 59.6701 99.4276 59.6702C99.4276 59.6702 99.416 59.6827 99.3862 59.7091C99.3394 59.7506 99.2668 59.8096 99.1675 59.8819C98.9698 60.026 98.6842 60.2101 98.3229 60.4011C97.5998 60.7835 96.5924 61.1837 95.4008 61.3546C93.0443 61.6927 89.914 61.1453 86.7567 57.6354L85.8363 58.6656C89.2979 62.5137 92.8377 63.1886 95.5671 62.7971C96.9185 62.6033 98.0581 62.1507 98.8814 61.7153C99.2933 61.4975 99.6308 61.2815 99.8805 61.0996C100.005 61.009 100.112 60.9235 100.198 60.8472Z" fill="#99A18E" fill-opacity="0.12"/>
<path fill-rule="evenodd" clip-rule="evenodd" d="M96.2999 62.8105C96.3346 63.6495 94.4273 64.015 83.6031 71.0117L96.2999 62.8105Z" fill="#99A18E" fill-opacity="0.12"/>
<path fill-rule="evenodd" clip-rule="evenodd" d="M96.2722 64.1439C96.6313 63.8702 97.0707 63.4576 97.0423 62.7699L95.5576 62.8464C95.5522 62.7157 95.6002 62.6363 95.6131 62.618C95.6014 62.6321 95.5544 62.6831 95.4335 62.7753C95.1345 63.0032 94.6073 63.3206 93.6778 63.8659C93.5557 63.9375 93.4276 64.0126 93.2931 64.0913C91.4135 65.1921 88.2939 67.0192 83.2305 70.2921L83.9757 71.7266C89.0126 68.4707 92.1112 66.656 93.9846 65.5588C94.1192 65.48 94.2474 65.4049 94.3695 65.3332C95.2655 64.8077 95.8851 64.4391 96.2722 64.1439ZM95.6162 62.614C95.6161 62.614 95.615 62.6154 95.6131 62.618C95.6154 62.6153 95.6163 62.614 95.6162 62.614Z" fill="#99A18E" fill-opacity="0.12"/>
<path fill-rule="evenodd" clip-rule="evenodd" d="M97.1158 62.7103C97.5328 63.001 96.9538 64.9614 96.0338 77.9883L97.1158 62.7103Z" fill="#99A18E" fill-opacity="0.12"/>
<path fill-rule="evenodd" clip-rule="evenodd" d="M97.5254 62.8389C97.4923 62.6803 97.4232 62.5218 97.2783 62.4208L96.9534 63.0007C96.9287 62.9834 96.9205 62.9642 96.9205 62.9643C96.9205 62.9643 96.9238 62.9722 96.9283 62.9938C96.9414 63.0567 96.9506 63.1724 96.9457 63.3797C96.9361 63.7907 96.8759 64.4535 96.7715 65.5371C96.7576 65.6811 96.743 65.8322 96.7276 65.9907C96.5133 68.2061 96.1579 71.8788 95.7283 77.9619L96.3394 78.0156C96.7683 71.9423 97.123 68.277 97.3371 66.0638C97.3525 65.9053 97.3671 65.7542 97.381 65.6102C97.4842 64.5391 97.5481 63.843 97.5585 63.3976C97.5637 63.1768 97.5568 62.9897 97.5254 62.8389Z" fill="#99A18E" fill-opacity="0.12"/>
<path fill-rule="evenodd" clip-rule="evenodd" d="M99.9189 60.1451C99.6368 60.5945 97.9118 59.8482 86.2965 58.1499L99.9189 60.1451Z" fill="#99A18E" fill-opacity="0.12"/>
<path fill-rule="evenodd" clip-rule="evenodd" d="M99.8434 60.9733C100.04 60.9341 100.284 60.8301 100.453 60.5615L99.3847 59.7274C99.4828 59.5712 99.6113 59.5421 99.6143 59.5415C99.6146 59.5415 99.6097 59.5425 99.5979 59.5435C99.5863 59.5445 99.5697 59.5454 99.5472 59.5456C99.5015 59.546 99.4392 59.5434 99.3553 59.5361C99.0052 59.5057 98.4316 59.4077 97.4606 59.2342C97.3324 59.2113 97.1979 59.1872 97.0567 59.1619C95.0834 58.8084 91.8098 58.222 86.3811 57.4283L86.2117 58.8703C91.6219 59.6613 94.8812 60.2452 96.8505 60.598C96.9916 60.6233 97.1262 60.6474 97.2544 60.6703C98.2018 60.8395 98.8383 60.9499 99.254 60.9861C99.4582 61.0039 99.6619 61.0094 99.8434 60.9733Z" fill="#99A18E" fill-opacity="0.12"/>
<path fill-rule="evenodd" clip-rule="evenodd" d="M96.2999 62.8105C89.9821 71.603 90.3049 69.2493 83.6031 71.0117L96.2999 62.8105Z" fill="#99A18E" fill-opacity="0.12"/>
<path fill-rule="evenodd" clip-rule="evenodd" d="M90.3853 70.3085C92.1326 69.4828 93.7412 67.6945 96.8796 63.3268L95.7199 62.2899C92.5405 66.7147 91.1517 68.1458 89.8055 68.782C89.1312 69.1006 88.435 69.2353 87.4185 69.4008C87.3315 69.415 87.2427 69.4293 87.1518 69.444C86.1896 69.5991 84.9964 69.7915 83.4325 70.2028L83.7735 71.8164C85.2717 71.4224 86.4073 71.2392 87.3667 71.0844C87.457 71.0698 87.5457 71.0555 87.6331 71.0413C88.6384 70.8777 89.5129 70.7208 90.3853 70.3085Z" fill="#99A18E" fill-opacity="0.12"/>
<path fill-rule="evenodd" clip-rule="evenodd" d="M96.2999 62.8105C91.9943 66.6111 88.5001 61.6631 83.6031 71.0117L96.2999 62.8105Z" fill="#99A18E" fill-opacity="0.12"/>
<path fill-rule="evenodd" clip-rule="evenodd" d="M91.5888 65.4615C93.1442 65.2787 94.9403 65.0675 96.761 63.4603L95.8388 62.1603C94.3852 63.4434 93.1325 63.5947 91.6651 63.772C91.1556 63.8336 90.6202 63.8983 90.0415 64.0146C88.946 64.2347 87.7989 64.6516 86.6004 65.6584C85.414 66.655 84.2175 68.1955 82.9615 70.5933L84.2447 71.4297C85.4372 69.1532 86.5138 67.8065 87.4945 66.9827C88.4629 66.1692 89.3766 65.8327 90.305 65.6462C90.7093 65.5649 91.139 65.5144 91.5888 65.4615Z" fill="#99A18E" fill-opacity="0.12"/>
<path fill-rule="evenodd" clip-rule="evenodd" d="M96.2999 62.8105C96.3346 63.6495 84.2115 59.2077 83.6031 71.0117L96.2999 62.8105Z" fill="#99A18E" fill-opacity="0.12"/>
<path fill-rule="evenodd" clip-rule="evenodd" d="M96.6848 63.5602C96.8784 63.414 97.0574 63.1393 97.0422 62.7716L95.5576 62.8481C95.5445 62.5328 95.702 62.3002 95.8517 62.1872C95.9124 62.1414 95.9649 62.1189 95.9923 62.1088C96.0211 62.098 96.0407 62.0941 96.0457 62.0932C96.0471 62.0929 96.0479 62.0928 96.0479 62.0928C96.0478 62.0927 96.0327 62.0948 95.9962 62.0955C95.9544 62.0963 95.8986 62.095 95.8258 62.091C95.6201 62.0797 95.359 62.0519 95.0317 62.0169C94.8661 61.9992 94.6835 61.9797 94.4825 61.9597C93.3294 61.8445 91.7299 61.7292 90.0927 61.9772C88.4563 62.225 86.7187 62.845 85.3447 64.2584C83.9551 65.688 83.0221 67.8415 82.8612 70.9634L84.345 71.0586C84.4883 68.2785 85.2989 66.5608 86.3523 65.4771C87.4214 64.3773 88.8266 63.842 90.2927 63.62C91.7579 63.398 93.2207 63.4981 94.3499 63.6109C94.5184 63.6277 94.6837 63.6454 94.842 63.6622C95.1943 63.6998 95.512 63.7337 95.7527 63.7469C95.9205 63.7561 96.1201 63.7606 96.2938 63.7278C96.374 63.7127 96.5315 63.6758 96.6848 63.5602Z" fill="#99A18E" fill-opacity="0.12"/>
<path fill-rule="evenodd" clip-rule="evenodd" d="M97.1159 62.7103C97.5329 63.001 90.6028 72.8489 96.0338 77.9883L97.1159 62.7103Z" fill="#99A18E" fill-opacity="0.12"/>
<path fill-rule="evenodd" clip-rule="evenodd" d="M97.4403 62.7761C97.442 62.7101 97.4327 62.529 97.2782 62.4213L96.9533 63.0012C96.8249 62.9116 96.8273 62.7674 96.8276 62.7561C96.8278 62.7457 96.8288 62.7399 96.8287 62.7399C96.8287 62.7398 96.8273 62.7481 96.8217 62.7668C96.8028 62.8303 96.7615 62.9341 96.6926 63.0863C96.6007 63.2893 96.4755 63.545 96.3251 63.8522C96.2521 64.0013 96.1732 64.1625 96.0892 64.3358C95.5812 65.3841 94.9146 66.8216 94.4057 68.4174C93.3955 71.5855 92.9634 75.5322 95.8354 78.25L96.232 77.7286C93.673 75.307 93.9904 71.76 94.9832 68.6466C95.4759 67.1017 96.1241 65.7015 96.6285 64.6609C96.7079 64.497 96.7845 64.3407 96.8564 64.1937C97.0103 63.8794 97.1434 63.6075 97.2398 63.3945C97.3099 63.2395 97.3694 63.097 97.4036 62.9818C97.4199 62.9269 97.4383 62.8533 97.4403 62.7761Z" fill="#99A18E" fill-opacity="0.12"/>
<path fill-rule="evenodd" clip-rule="evenodd" d="M99.9189 60.1462C99.6368 60.5956 91.1784 52.3667 86.2965 58.151L99.9189 60.1462Z" fill="#99A18E" fill-opacity="0.12"/>
<path fill-rule="evenodd" clip-rule="evenodd" d="M99.816 60.8842C99.914 60.8931 100.241 60.8972 100.453 60.5591L99.3849 59.7249C99.5795 59.4149 99.8725 59.4301 99.9216 59.4346C99.9665 59.4386 99.9981 59.4484 100.01 59.4526C100.01 59.4526 100.01 59.4525 100.01 59.4525C99.9795 59.4394 99.9076 59.4004 99.7762 59.3167C99.6041 59.207 99.3894 59.0596 99.1258 58.8786C98.9952 58.789 98.8526 58.6911 98.6972 58.5855C97.7811 57.9627 96.5103 57.1333 95.0826 56.4722C92.2715 55.1706 88.5621 54.4017 85.8219 57.6483L86.7712 58.6453C88.9129 56.1077 91.8737 56.5611 94.5827 57.8155C95.9151 58.4324 97.1169 59.2144 98.0187 59.8274C98.1569 59.9213 98.2904 60.013 98.4172 60.1C98.6939 60.2899 98.9385 60.4578 99.1294 60.5794C99.2658 60.6664 99.4093 60.7525 99.5364 60.8077C99.5947 60.833 99.6968 60.8734 99.816 60.8842ZM100.015 59.4547C100.015 59.4546 100.013 59.4538 100.01 59.4526C100.014 59.4542 100.015 59.4548 100.015 59.4547Z" fill="#99A18E" fill-opacity="0.12"/>
<path fill-rule="evenodd" clip-rule="evenodd" d="M148.986 46.1932C149.484 46.1932 106.364 48.6672 100.661 62.3711L148.986 46.1932Z" fill="#99A18E" fill-opacity="0.12"/>
<path fill-rule="evenodd" clip-rule="evenodd" d="M149.018 44.95L148.986 44.9496V47.4365L148.959 47.4361C148.944 47.4356 148.899 47.4325 148.868 47.4292C148.771 47.4124 147.99 46.7434 147.95 45.7463C148.223 45.2909 148.709 44.99 148.774 44.9735C148.798 44.9685 148.835 44.962 148.847 44.9602L148.871 44.9572L148.881 44.9561L148.884 44.9558C148.884 44.9558 148.88 44.9561 148.87 44.957L148.832 44.9599L148.514 44.9834C148.222 45.005 147.779 45.0385 147.204 45.086C146.054 45.181 144.379 45.332 142.338 45.5562C138.258 46.0044 132.704 46.7459 126.948 47.9198C121.202 49.0919 115.21 50.7037 110.274 52.9074C105.41 55.0787 101.271 57.952 99.6501 61.8474L101.672 62.8945C102.903 59.938 106.293 57.3631 111.102 55.2163C115.839 53.1018 121.665 51.5257 127.349 50.3663C133.025 49.2087 138.514 48.4753 142.556 48.0312C144.577 47.8094 146.233 47.66 147.369 47.5662C147.936 47.5193 148.374 47.4863 148.662 47.4649L148.983 47.4412C149.015 47.4388 149.048 47.4362 149.071 47.434L149.1 47.431L149.129 47.4273C149.142 47.4253 149.18 47.4187 149.205 47.4136C149.27 47.3969 149.757 47.0958 150.03 46.6403C149.99 45.6431 149.209 44.974 149.111 44.9571C149.098 44.9557 149.083 44.9543 149.067 44.9532C149.047 44.9516 149.027 44.9504 149.018 44.95Z" fill="#99A18E" fill-opacity="0.12"/>
<path fill-rule="evenodd" clip-rule="evenodd" d="M91.0473 87.8615C91.5454 87.8615 60.9251 89.7211 52.7901 80.0002L91.0473 87.8615Z" fill="#99A18E" fill-opacity="0.12"/>
<path fill-rule="evenodd" clip-rule="evenodd" d="M91.1073 86.6223C91.0778 86.6206 91.0539 86.6206 91.047 86.6206V89.1076L91.0466 89.1076C91.0426 89.1076 91.0222 89.1076 90.9955 89.1061C90.9784 89.105 90.9287 89.1001 90.8965 89.0956C90.8159 89.0794 90.3696 88.8468 90.0962 88.5027C89.9685 87.5766 90.5901 86.7333 90.732 86.6737C90.7776 86.6596 90.846 86.6428 90.868 86.6384C90.9 86.6324 90.925 86.6295 90.9292 86.629L90.9296 86.629C90.9401 86.6277 90.9469 86.6271 90.9461 86.6272C90.9455 86.6272 90.9408 86.6276 90.9304 86.6284C90.8953 86.631 90.8295 86.6353 90.7323 86.6407C90.5399 86.6516 90.2383 86.6666 89.8403 86.6823C89.0446 86.7138 87.8682 86.7482 86.4157 86.7593C83.5091 86.7816 79.5071 86.7107 75.2426 86.3391C70.972 85.967 66.472 85.2961 62.5568 84.1307C58.6043 82.9542 55.4186 81.3219 53.6046 79.1543L51.9749 80.8514C54.2284 83.5442 57.9209 85.3248 61.982 86.5336C66.0806 87.7535 70.7298 88.4404 75.0689 88.8185C79.4142 89.1971 83.4823 89.2688 86.4311 89.2462C87.9063 89.2349 89.104 89.2 89.9193 89.1677C90.3268 89.1516 90.6398 89.1361 90.8452 89.1245C90.9469 89.1188 91.0259 89.1138 91.0779 89.1099C91.097 89.1085 91.1332 89.1058 91.1659 89.1019L91.1664 89.1019C91.1735 89.101 91.2014 89.0977 91.2355 89.0913C91.2584 89.0868 91.3274 89.0698 91.3734 89.0556C91.5157 88.9958 92.1375 88.1524 92.0097 87.2263C91.7363 86.882 91.2897 86.6493 91.2086 86.6331C91.1758 86.6285 91.1253 86.6235 91.1073 86.6223Z" fill="#99A18E" fill-opacity="0.12"/>
</svg>
