<svg width="320" height="491" viewBox="0 0 320 491" fill="none" xmlns="http://www.w3.org/2000/svg">
<path fill-rule="evenodd" clip-rule="evenodd" d="M254.211 57.3179C245.502 290.662 125.175 417.907 6.27853 490.447L3.14879 485.317C120.741 413.573 239.589 287.981 248.206 57.0938L254.211 57.3179Z" fill="#E9ECE0" fill-opacity="0.33"/>
<path fill-rule="evenodd" clip-rule="evenodd" d="M240.238 154.505C240.247 155.847 282.613 127.094 294.689 93.3789Z" fill="#E9ECE0" fill-opacity="0.33"/>
<path fill-rule="evenodd" clip-rule="evenodd" d="M237.857 156.355C237.378 155.727 237.238 155.046 237.234 154.527L243.243 154.488C243.24 153.99 243.105 153.327 242.636 152.712C242.175 152.107 241.591 151.813 241.161 151.679C240.457 151.461 239.883 151.577 239.783 151.598L239.776 151.599C239.613 151.632 239.493 151.673 239.443 151.693C239.447 151.691 239.452 151.688 239.458 151.686C239.612 151.615 239.955 151.431 240.518 151.086C241.609 150.419 243.242 149.324 245.283 147.836C249.355 144.868 254.936 140.421 260.895 134.889C272.884 123.759 286.069 108.542 291.861 92.3688L297.519 94.3951C291.236 111.937 277.199 127.954 264.983 139.293C258.84 144.996 253.074 149.593 248.822 152.692C246.701 154.238 244.928 155.433 243.654 156.213C243.034 156.592 242.454 156.921 241.98 157.14C241.789 157.228 241.398 157.403 240.947 157.493L240.944 157.494C240.783 157.526 240.139 157.654 239.379 157.418C238.928 157.278 238.329 156.974 237.857 156.355ZM239.415 151.704C239.415 151.704 239.425 151.7 239.443 151.693C239.424 151.701 239.415 151.705 239.415 151.704Z" fill="#E9ECE0" fill-opacity="0.33"/>
<path fill-rule="evenodd" clip-rule="evenodd" d="M293.705 95.9592C295.86 96.0343 319.014 93.4899 314.34 59.3592Z" fill="#E9ECE0" fill-opacity="0.33"/>
<path fill-rule="evenodd" clip-rule="evenodd" d="M299.101 96.9833C296.531 97.7982 294.449 97.9916 293.635 97.9632L293.775 93.9598C294.038 93.969 295.658 93.8725 297.89 93.1649C300.084 92.4692 302.767 91.2138 305.248 88.9955C310.109 84.6506 314.626 76.2109 312.355 59.6332L316.324 59.0897C318.728 76.6428 314.005 86.5407 307.918 91.982C304.926 94.6567 301.708 96.1565 299.101 96.9833Z" fill="#E9ECE0" fill-opacity="0.33"/>
<path fill-rule="evenodd" clip-rule="evenodd" d="M253.507 60.3541C253.072 61.7883 250.656 77.7955 274.416 80.7366Z" fill="#E9ECE0" fill-opacity="0.33"/>
<path fill-rule="evenodd" clip-rule="evenodd" d="M252.737 63.7551C252.651 61.9614 252.887 60.6315 253.016 60.2054L253.999 60.5033C253.911 60.7942 253.681 62.0031 253.763 63.706C253.844 65.3987 254.231 67.5517 255.347 69.7478C257.563 74.1085 262.725 78.7721 274.48 80.2272L274.354 81.2465C262.348 79.7604 256.838 74.9499 254.431 70.2132C253.236 67.8605 252.823 65.559 252.737 63.7551Z" fill="#E9ECE0" fill-opacity="0.33"/>
<path fill-rule="evenodd" clip-rule="evenodd" d="M249.49 67.7123C248.55 67.1318 238.439 61.4772 231.852 77.8552Z" fill="#E9ECE0" fill-opacity="0.33"/>
<path fill-rule="evenodd" clip-rule="evenodd" d="M242.511 64.7068C246.597 64.046 249.806 65.8622 250.405 66.2321L248.576 69.1926C248.235 68.9818 245.919 67.6805 243.067 68.1418C240.388 68.5751 236.614 70.6785 233.466 78.5045L230.238 77.206C233.678 68.6539 238.253 65.3956 242.511 64.7068Z" fill="#E9ECE0" fill-opacity="0.33"/>
<path fill-rule="evenodd" clip-rule="evenodd" d="M293.705 95.9594C295.86 96.0346 296.735 90.5619 314.34 59.3594Z" fill="#E9ECE0" fill-opacity="0.33"/>
<path fill-rule="evenodd" clip-rule="evenodd" d="M297.029 95.7705C296.34 96.804 295.33 98.0192 293.635 97.9601L293.775 93.9567C293.492 93.9469 293.32 94.0589 293.276 94.0923C293.314 94.0577 293.45 93.9177 293.696 93.5481C294.277 92.6778 295.078 91.1509 296.446 88.4758C296.625 88.124 296.814 87.7546 297.012 87.3669C299.776 81.9527 304.362 72.9674 312.596 58.3742L316.084 60.3426C307.892 74.8639 303.334 83.7923 300.579 89.19C300.381 89.5778 300.192 89.9473 300.012 90.2993C298.691 92.8833 297.769 94.6607 297.029 95.7705ZM293.266 94.1014C293.266 94.1011 293.269 94.0978 293.276 94.0923C293.269 94.099 293.265 94.1017 293.266 94.1014Z" fill="#E9ECE0" fill-opacity="0.33"/>
<path fill-rule="evenodd" clip-rule="evenodd" d="M253.507 60.3541C253.072 61.7883 256.592 63.3513 274.416 80.7366Z" fill="#E9ECE0" fill-opacity="0.33"/>
<path fill-rule="evenodd" clip-rule="evenodd" d="M253.699 62.0412C253.142 61.4113 252.82 60.8496 253.015 60.2073L253.998 60.5052C253.975 60.58 253.93 60.7515 254.469 61.3613C254.992 61.9535 255.921 62.8034 257.457 64.1838C257.662 64.3674 257.876 64.5598 258.101 64.7619C261.243 67.5803 266.451 72.2528 274.774 80.3711L274.057 81.1064C265.749 73.0028 260.553 68.3412 257.415 65.526C257.19 65.324 256.975 65.1315 256.771 64.9479C255.254 63.585 254.271 62.6887 253.699 62.0412Z" fill="#E9ECE0" fill-opacity="0.33"/>
<path fill-rule="evenodd" clip-rule="evenodd" d="M249.49 67.717C248.55 67.1364 246.771 69.3497 231.01 78.767Z" fill="#E9ECE0" fill-opacity="0.33"/>
<path fill-rule="evenodd" clip-rule="evenodd" d="M247.644 66.3159C248.23 66.0225 249.315 65.5612 250.405 66.2339L248.577 69.1947C248.958 69.4301 249.298 69.3681 249.385 69.3446C249.356 69.3553 249.297 69.3797 249.202 69.4274C248.768 69.6444 248.065 70.0925 246.761 70.9458C246.592 71.0567 246.414 71.1732 246.228 71.2955C243.62 73.0053 239.287 75.846 231.903 80.2579L230.119 77.2708C237.441 72.8957 241.727 70.0853 244.322 68.3844C244.508 68.2621 244.686 68.1455 244.855 68.0345C246.084 67.2299 246.987 66.6448 247.644 66.3159ZM249.407 69.3377C249.407 69.3381 249.399 69.3409 249.385 69.3446C249.4 69.3391 249.407 69.3373 249.407 69.3377Z" fill="#E9ECE0" fill-opacity="0.33"/>
<path fill-rule="evenodd" clip-rule="evenodd" d="M293.705 95.9594C295.86 96.0346 281.441 69.5678 314.34 59.3594Z" fill="#E9ECE0" fill-opacity="0.33"/>
<path fill-rule="evenodd" clip-rule="evenodd" d="M295.451 97.1068C294.987 97.7117 294.295 97.9827 293.636 97.9597L293.775 93.9563C293.251 93.938 292.661 94.1619 292.271 94.6704C291.984 95.0454 291.946 95.3998 291.94 95.4541L291.939 95.456C291.936 95.4905 291.935 95.5104 291.934 95.5105C291.932 95.5105 291.929 95.4124 291.886 95.1576C291.82 94.7617 291.719 94.3012 291.592 93.7181C291.493 93.2641 291.378 92.7357 291.25 92.1055C290.701 89.4062 290.083 85.5556 290.501 81.3179C290.921 77.0529 292.392 72.3836 296.01 68.1014C299.62 63.8284 305.249 60.082 313.747 57.4451L314.934 61.271C306.982 63.7382 302.076 67.1283 299.07 70.6867C296.071 74.2357 294.844 78.0925 294.487 81.7108C294.128 85.3565 294.654 88.7465 295.175 91.3075C295.271 91.7783 295.374 92.2547 295.472 92.7061C295.621 93.3967 295.758 94.0289 295.837 94.4937C295.898 94.8606 295.976 95.3915 295.922 95.887C295.896 96.1263 295.816 96.6306 295.451 97.1068Z" fill="#E9ECE0" fill-opacity="0.33"/>
<path fill-rule="evenodd" clip-rule="evenodd" d="M253.507 60.3541C253.072 61.7883 273.42 56.8175 274.416 80.7366Z" fill="#E9ECE0" fill-opacity="0.33"/>
<path fill-rule="evenodd" clip-rule="evenodd" d="M253.119 60.7887C252.983 60.613 252.957 60.3992 253.015 60.2091L253.998 60.507C254.028 60.4065 254.016 60.2698 253.931 60.1609C253.883 60.0988 253.836 60.0777 253.835 60.078C253.835 60.078 253.837 60.0792 253.843 60.0812C253.895 60.1013 254.028 60.1292 254.286 60.1532C254.579 60.1804 254.942 60.1968 255.382 60.2165C255.706 60.2311 256.071 60.2475 256.48 60.2716C258.36 60.382 260.954 60.6464 263.604 61.6364C266.261 62.6287 268.977 64.3515 271.088 67.3724C273.198 70.3907 274.677 74.6661 274.929 80.7191L273.902 80.7619C273.657 74.8554 272.219 70.7825 270.246 67.9608C268.276 65.1416 265.745 63.5326 263.245 62.5985C260.738 61.662 258.264 61.4052 256.42 61.2969C256.052 61.2753 255.701 61.2593 255.378 61.2446C254.91 61.2233 254.502 61.2047 254.191 61.1759C253.933 61.1519 253.672 61.1161 253.474 61.0398C253.377 61.0025 253.229 60.9315 253.119 60.7887Z" fill="#E9ECE0" fill-opacity="0.33"/>
<path fill-rule="evenodd" clip-rule="evenodd" d="M249.49 67.7155C248.55 67.135 246.876 82.5864 229.64 78.7745Z" fill="#E9ECE0" fill-opacity="0.33"/>
<path fill-rule="evenodd" clip-rule="evenodd" d="M248.773 66.082C249.309 65.8745 249.91 65.9271 250.405 66.233L248.577 69.1935C249.013 69.4631 249.554 69.5107 250.028 69.3273C250.392 69.1868 250.586 68.9604 250.63 68.9085C250.681 68.8487 250.706 68.8057 250.706 68.8058C250.707 68.8058 250.688 68.8381 250.649 68.9197C250.562 69.1057 250.472 69.3221 250.353 69.6109C250.263 69.831 250.155 70.0931 250.017 70.4157C249.435 71.7772 248.524 73.7082 247.028 75.5511C245.521 77.4078 243.412 79.1844 240.454 80.2139C237.499 81.2426 233.827 81.4799 229.266 80.471L230.017 77.0734C234.073 77.9705 237.074 77.7058 239.31 76.9276C241.543 76.1502 243.144 74.8149 244.327 73.3578C245.521 71.8869 246.282 70.3022 246.817 69.0489C246.904 68.8444 246.994 68.6269 247.082 68.414C247.236 68.0425 247.384 67.6852 247.501 67.4365C247.588 67.2529 247.745 66.9309 247.975 66.6587C248.087 66.5265 248.347 66.2468 248.773 66.082Z" fill="#E9ECE0" fill-opacity="0.33"/>
<path fill-rule="evenodd" clip-rule="evenodd" d="M178.764 371.327C180.972 373.251 220.501 391.266 231.863 350.41Z" fill="#E9ECE0" fill-opacity="0.33"/>
<path fill-rule="evenodd" clip-rule="evenodd" d="M178.848 373.222C178.43 372.992 178.016 372.741 177.741 372.501L179.784 370.157C179.782 370.155 179.78 370.154 179.78 370.154C179.78 370.153 179.818 370.183 179.914 370.244C180.018 370.311 180.162 370.396 180.348 370.498C180.72 370.703 181.226 370.957 181.855 371.243C183.112 371.814 184.823 372.494 186.86 373.135C190.944 374.422 196.267 375.534 201.831 375.36C207.384 375.186 213.124 373.734 218.146 369.946C223.159 366.165 227.595 359.95 230.364 349.996L233.359 350.829C230.446 361.304 225.681 368.158 220.018 372.429C214.363 376.694 207.953 378.279 201.928 378.468C195.914 378.656 190.23 377.457 185.926 376.101C183.769 375.422 181.941 374.697 180.569 374.074C179.884 373.763 179.304 373.473 178.848 373.222Z" fill="#E9ECE0" fill-opacity="0.33"/>
<path fill-rule="evenodd" clip-rule="evenodd" d="M247.305 57.2326C249.499 55.2918 272.47 18.4222 233.424 1.87635Z" fill="#E9ECE0" fill-opacity="0.33"/>
<path fill-rule="evenodd" clip-rule="evenodd" d="M249.113 57.3323C248.83 57.7175 248.533 58.0873 248.269 58.3209L246.344 56.1443C246.341 56.1466 246.341 56.1465 246.344 56.1436C246.353 56.1344 246.389 56.0969 246.457 56.0165C246.538 55.9196 246.643 55.7859 246.769 55.6134C247.022 55.2689 247.341 54.7972 247.707 54.2086C248.438 53.0323 249.335 51.4199 250.236 49.4791C252.042 45.5894 253.837 40.4433 254.385 34.8888C254.931 29.3441 254.232 23.4418 251.112 17.9509C247.997 12.4677 242.387 7.25215 232.859 3.21427L233.993 0.538312C243.987 4.77338 250.148 10.3712 253.639 16.5152C257.125 22.6516 257.867 29.1903 257.277 35.1739C256.688 41.1476 254.769 46.6169 252.872 50.7032C251.921 52.7503 250.968 54.4661 250.176 55.7422C249.78 56.3798 249.419 56.9154 249.113 57.3323Z" fill="#E9ECE0" fill-opacity="0.33"/>
<path fill-rule="evenodd" clip-rule="evenodd" d="M249.269 59.7511C251.126 60.2082 282.277 54.97 284.755 18.707Z" fill="#E9ECE0" fill-opacity="0.33"/>
<path fill-rule="evenodd" clip-rule="evenodd" d="M250.068 61.6006C249.748 61.622 249.253 61.6433 248.827 61.5385L249.709 57.9584C249.619 57.9364 249.564 57.9318 249.564 57.9309C249.564 57.93 249.639 57.9341 249.822 57.9219C250.08 57.9047 250.45 57.8627 250.925 57.7845C251.871 57.6286 253.169 57.3398 254.704 56.8661C257.777 55.9183 261.744 54.2487 265.727 51.4823C273.637 45.9885 281.718 36.1049 282.916 18.5786L286.594 18.83C285.313 37.5667 276.579 48.4337 267.83 54.5105C263.483 57.5293 259.159 59.35 255.791 60.3891C254.106 60.9088 252.646 61.2376 251.524 61.4224C250.964 61.5145 250.473 61.5735 250.068 61.6006Z" fill="#E9ECE0" fill-opacity="0.33"/>
<path fill-rule="evenodd" clip-rule="evenodd" d="M250.406 68.1986C250.766 66.3205 244.849 35.6268 208.506 35.0256Z" fill="#E9ECE0" fill-opacity="0.33"/>
<path fill-rule="evenodd" clip-rule="evenodd" d="M251.024 67.4575C251.056 67.7837 251.069 68.0971 251.027 68.3146L249.783 68.0758C249.783 68.0766 249.783 68.0763 249.783 68.0747C249.784 68.0669 249.788 68.0283 249.787 67.9462C249.785 67.8554 249.778 67.7342 249.763 67.582C249.733 67.278 249.674 66.8718 249.578 66.376C249.385 65.3855 249.049 64.0578 248.522 62.5081C247.467 59.408 245.654 55.4384 242.712 51.5094C236.845 43.6722 226.458 35.9525 208.495 35.6554L208.516 34.389C226.896 34.6931 237.64 42.6208 243.726 50.7503C246.762 54.8046 248.632 58.8982 249.721 62.1002C250.266 63.7014 250.617 65.0846 250.821 66.1344C250.923 66.6588 250.989 67.1052 251.024 67.4575Z" fill="#E9ECE0" fill-opacity="0.33"/>
<path fill-rule="evenodd" clip-rule="evenodd" d="M198.062 148.405C195.2 147.78 157.169 126.787 183.194 93.3055Z" fill="#E9ECE0" fill-opacity="0.33"/>
<path fill-rule="evenodd" clip-rule="evenodd" d="M198.465 146.51C198.485 146.517 198.488 146.518 198.476 146.515L197.651 150.295C197.252 150.208 196.771 150.01 196.335 149.81C195.851 149.589 195.264 149.292 194.599 148.923C193.267 148.186 191.583 147.142 189.739 145.807C186.061 143.143 181.675 139.267 178.209 134.281C174.736 129.284 172.15 123.118 172.203 115.938C172.257 108.746 174.956 100.755 181.669 92.119L184.723 94.493C178.423 102.598 176.117 109.786 176.072 115.967C176.026 122.159 178.247 127.558 181.386 132.073C184.532 136.598 188.564 140.179 192.008 142.674C193.726 143.918 195.278 144.878 196.473 145.539C197.071 145.87 197.568 146.12 197.943 146.292C198.249 146.432 198.413 146.491 198.465 146.51Z" fill="#E9ECE0" fill-opacity="0.33"/>
<path fill-rule="evenodd" clip-rule="evenodd" d="M178.764 371.327C180.972 373.251 186.582 368.231 231.863 350.41Z" fill="#E9ECE0" fill-opacity="0.33"/>
<path fill-rule="evenodd" clip-rule="evenodd" d="M182.085 372.862C180.503 373.353 178.972 373.571 177.743 372.5L179.786 370.156C179.782 370.154 179.777 370.151 179.77 370.149C179.768 370.148 179.767 370.148 179.767 370.148C179.765 370.147 179.792 370.156 179.864 370.158C180.063 370.163 180.447 370.115 181.165 369.892C182.602 369.447 184.827 368.489 188.533 366.852C189.024 366.635 189.538 366.407 190.078 366.168C197.624 362.829 210.137 357.291 231.294 348.964L232.433 351.858C211.336 360.161 198.867 365.679 191.335 369.012C190.795 369.251 190.28 369.479 189.79 369.696C186.157 371.301 183.736 372.351 182.085 372.862Z" fill="#E9ECE0" fill-opacity="0.33"/>
<path fill-rule="evenodd" clip-rule="evenodd" d="M247.306 57.2332C249.499 55.2924 245.246 49.0815 233.425 1.87693Z" fill="#E9ECE0" fill-opacity="0.33"/>
<path fill-rule="evenodd" clip-rule="evenodd" d="M249.157 54.1537C249.438 55.7839 249.445 57.2783 248.269 58.3193L246.343 56.1427L246.354 56.1326L246.356 56.1298C246.356 56.1302 246.356 56.1301 246.356 56.1296M249.157 54.1537C248.864 52.4581 248.138 49.9285 247.015 46.1162ZM247.015 46.1162C246.863 45.6009 246.704 45.0604 246.536 44.4931ZM246.536 44.4931C244.204 36.5929 240.342 23.515 234.835 1.52172ZM234.835 1.52172L232.015 2.22774ZM232.015 2.22774C237.538 24.2791 241.412 37.4014 243.748 45.3145ZM243.748 45.3145C243.916 45.8818 244.075 46.4223 244.227 46.9374ZM244.227 46.9374C245.371 50.8209 246.036 53.1583 246.293 54.6482ZM246.293 54.6482C246.421 55.3921 246.422 55.7926 246.389 56.0052ZM246.389 56.0052C246.374 56.0974 246.357 56.1291 246.357 56.1292ZM246.357 56.1292C246.357 56.1294 246.356 56.1295 246.356 56.1296Z" fill="#E9ECE0" fill-opacity="0.33"/>
<path fill-rule="evenodd" clip-rule="evenodd" d="M59.3672 417.503C61.9235 416.726 61.3802 406.689 73.1185 344.141Z" fill="#E9ECE0" fill-opacity="0.33"/>
<path fill-rule="evenodd" clip-rule="evenodd" d="M61.9365 417.618C61.5399 418.357 60.9245 419.075 59.937 419.375L58.7998 415.629C58.5497 415.705 58.4414 415.847 58.4405 415.846C58.4401 415.846 58.4563 415.824 58.487 415.767C58.6177 415.523 58.8057 415.022 59.0426 414.046C59.5112 412.114 60.0363 408.927 60.8675 403.679C60.9779 402.982 61.0936 402.249 61.215 401.481C62.9078 390.76 65.7144 372.987 71.1958 343.779L75.0435 344.501C69.5723 373.654 66.7725 391.385 65.0816 402.093C64.9603 402.861 64.8446 403.594 64.7341 404.292C63.9142 409.469 63.3622 412.846 62.847 414.969C62.5919 416.02 62.3113 416.919 61.9365 417.618Z" fill="#E9ECE0" fill-opacity="0.33"/>
<path fill-rule="evenodd" clip-rule="evenodd" d="M249.268 59.7508C251.126 60.2079 254.462 53.8305 284.563 19.6211Z" fill="#E9ECE0" fill-opacity="0.33"/>
<path fill-rule="evenodd" clip-rule="evenodd" d="M251.036 61.1373C250.463 61.4826 249.699 61.7525 248.829 61.5383L249.71 57.9582C249.356 57.871 249.118 57.9895 249.118 57.9885C249.118 57.9883 249.123 57.9856 249.133 57.9792C249.253 57.9072 249.52 57.7009 250.016 57.1928C250.996 56.1911 252.471 54.4381 254.907 51.5054C255.23 51.1166 255.569 50.7084 255.924 50.28C260.888 44.2991 269.119 34.3811 283.18 18.4007L285.948 20.8362C271.921 36.7771 263.717 46.6637 258.761 52.6356C258.405 53.064 258.066 53.4723 257.743 53.8612C255.35 56.7418 253.762 58.6356 252.653 59.7702C252.105 60.3302 251.572 60.8144 251.036 61.1373Z" fill="#E9ECE0" fill-opacity="0.33"/>
<path fill-rule="evenodd" clip-rule="evenodd" d="M250.405 68.1986C250.766 66.3205 244.224 63.318 208.505 35.0256Z" fill="#E9ECE0" fill-opacity="0.33"/>
<path fill-rule="evenodd" clip-rule="evenodd" d="M250.698 67.0419C250.967 67.4406 251.114 67.8632 251.027 68.3198L249.783 68.081L249.783 68.0799C249.786 68.064 249.803 67.9803 249.648 67.7506C249.481 67.5028 249.165 67.1641 248.614 66.6785C247.518 65.712 245.643 64.2946 242.606 62.0267C242.201 61.7243 241.776 61.4072 241.33 61.0744C235.103 56.429 224.784 48.7297 208.111 35.5239L208.898 34.5311C225.556 47.7257 235.864 55.4165 242.087 60.0595C242.533 60.3924 242.959 60.7095 243.364 61.0119C246.382 63.2659 248.307 64.7196 249.452 65.7284C250.021 66.2304 250.437 66.6556 250.698 67.0419Z" fill="#E9ECE0" fill-opacity="0.33"/>
<path fill-rule="evenodd" clip-rule="evenodd" d="M198.062 148.405C195.2 147.78 195.886 140.283 183.194 93.3055Z" fill="#E9ECE0" fill-opacity="0.33"/>
<path fill-rule="evenodd" clip-rule="evenodd" d="M198.641 146.588C198.61 146.565 198.555 146.533 198.474 146.515L197.648 150.294C195.842 149.9 195.044 148.352 194.491 146.78C193.908 145.124 193.303 142.529 192.427 138.665C192.309 138.141 192.185 137.592 192.054 137.016C190.24 128.983 187.237 115.689 181.326 93.8102L185.06 92.8012C190.992 114.757 194.009 128.111 195.827 136.161C195.957 136.738 196.081 137.287 196.2 137.81C197.097 141.771 197.65 144.103 198.14 145.496C198.398 146.229 198.574 146.505 198.641 146.588ZM198.671 146.618C198.67 146.62 198.66 146.612 198.641 146.588C198.661 146.604 198.671 146.616 198.671 146.618Z" fill="#E9ECE0" fill-opacity="0.33"/>
<path fill-rule="evenodd" clip-rule="evenodd" d="M178.764 371.327C218.057 371.13 210.847 367.013 231.863 350.41Z" fill="#E9ECE0" fill-opacity="0.33"/>
<path fill-rule="evenodd" clip-rule="evenodd" d="M212.911 368.387C206.775 371.735 198.349 372.785 178.771 372.884L178.756 369.774C198.471 369.675 206.086 368.569 211.422 365.658C214.092 364.201 216.257 362.257 219.159 359.525C219.408 359.29 219.662 359.051 219.921 358.806C222.669 356.212 226.042 353.029 230.898 349.192L232.826 351.632C228.08 355.381 224.796 358.481 222.052 361.07C221.794 361.314 221.54 361.554 221.29 361.789C218.406 364.504 215.977 366.715 212.911 368.387Z" fill="#E9ECE0" fill-opacity="0.33"/>
<path fill-rule="evenodd" clip-rule="evenodd" d="M247.306 57.2306C252.187 18.2414 247.173 24.8599 233.425 1.87435Z" fill="#E9ECE0" fill-opacity="0.33"/>
<path fill-rule="evenodd" clip-rule="evenodd" d="M248.707 23.027C251.223 29.5164 251.181 37.9813 248.749 57.4123L245.865 57.0513C248.313 37.493 248.205 29.7725 245.997 24.0775C244.892 21.2276 243.237 18.8201 240.903 15.5901C240.703 15.3127 240.498 15.03 240.289 14.741C238.072 11.6811 235.353 7.92901 232.179 2.62141L234.673 1.12957C237.78 6.32396 240.431 9.98391 242.645 13.0394C242.853 13.3274 243.058 13.61 243.259 13.8881C245.58 17.1002 247.45 19.7847 248.707 23.027Z" fill="#E9ECE0" fill-opacity="0.33"/>
<path fill-rule="evenodd" clip-rule="evenodd" d="M59.3669 417.503C80.3948 375.653 73.5866 379.953 73.1182 344.141Z" fill="#E9ECE0" fill-opacity="0.33"/>
<path fill-rule="evenodd" clip-rule="evenodd" d="M76.2526 378.752C75.3438 387.792 71.6184 397.481 61.1173 418.38L57.6192 416.622C68.1459 395.672 71.5304 386.586 72.3574 378.36C72.7724 374.232 72.5493 370.26 72.173 364.964C72.1407 364.508 72.1072 364.044 72.0731 363.57C71.7116 358.544 71.27 352.405 71.1622 344.165L75.0767 344.113C75.183 352.236 75.6171 358.272 75.9782 363.293C76.0122 363.766 76.0456 364.23 76.078 364.686C76.4529 369.963 76.7054 374.247 76.2526 378.752Z" fill="#E9ECE0" fill-opacity="0.33"/>
<path fill-rule="evenodd" clip-rule="evenodd" d="M198.062 148.405C174.792 116.743 182.396 120.077 183.194 93.3055Z" fill="#E9ECE0" fill-opacity="0.33"/>
<path fill-rule="evenodd" clip-rule="evenodd" d="M183.518 118.751C184.348 124.66 187.935 131.358 199.621 147.257L196.503 149.548C184.919 133.786 180.674 126.32 179.687 119.288C179.195 115.776 179.528 112.462 179.987 108.53C180.027 108.189 180.068 107.843 180.11 107.49C180.553 103.744 181.081 99.2743 181.261 93.2462L185.127 93.3614C184.943 99.565 184.396 104.185 183.952 107.938C183.91 108.293 183.869 108.64 183.83 108.979C183.366 112.941 183.103 115.793 183.518 118.751Z" fill="#E9ECE0" fill-opacity="0.33"/>
<path fill-rule="evenodd" clip-rule="evenodd" d="M178.764 371.33C199.556 366.446 194.486 345.075 231.863 350.414Z" fill="#E9ECE0" fill-opacity="0.33"/>
<path fill-rule="evenodd" clip-rule="evenodd" d="M196.294 361.92C192.064 366.225 187.497 370.874 179.121 372.842L178.41 369.815C185.832 368.071 189.605 364.243 193.712 360.076C195.078 358.69 196.481 357.266 198.068 355.869C201.203 353.109 204.934 350.641 210.331 349.236C215.698 347.839 222.609 347.519 232.084 348.872L231.644 351.951C222.43 350.635 215.959 350.984 211.114 352.245C206.3 353.498 202.991 355.678 200.123 358.203C198.814 359.356 197.569 360.622 196.294 361.92Z" fill="#E9ECE0" fill-opacity="0.33"/>
<path fill-rule="evenodd" clip-rule="evenodd" d="M247.305 57.2295C245.149 35.9815 223.301 38.2478 233.424 1.87325Z" fill="#E9ECE0" fill-opacity="0.33"/>
<path fill-rule="evenodd" clip-rule="evenodd" d="M240.172 38.7101C243.892 43.4572 247.888 48.5574 248.753 57.0847L245.861 57.3782C245.088 49.7614 241.757 45.4972 238.151 40.8798C236.955 39.3493 235.729 37.7801 234.556 36.0371C232.231 32.5812 230.273 28.5776 229.579 23.0634C228.89 17.5789 229.463 10.6979 232.026 1.48553L234.826 2.26476C232.328 11.2397 231.836 17.7159 232.463 22.7008C233.086 27.656 234.827 31.234 236.967 34.4144C237.948 35.8707 239.047 37.2743 240.172 38.7101Z" fill="#E9ECE0" fill-opacity="0.33"/>
<path fill-rule="evenodd" clip-rule="evenodd" d="M59.3672 417.503C67.0999 391.468 49.1911 379.452 73.1185 344.141Z" fill="#E9ECE0" fill-opacity="0.33"/>
<path fill-rule="evenodd" clip-rule="evenodd" d="M62.715 391.457C63.4887 399.415 64.3011 407.77 61.2454 418.058L57.4926 416.943C60.3112 407.453 59.5988 400.07 58.8459 392.268C58.5998 389.717 58.3494 387.122 58.2165 384.393C57.6765 373.304 59.2948 361.052 71.4998 343.041L74.7407 345.237C63.0184 362.536 61.6273 373.948 62.1267 384.203C62.2441 386.613 62.4777 389.016 62.715 391.457Z" fill="#E9ECE0" fill-opacity="0.33"/>
<path fill-rule="evenodd" clip-rule="evenodd" d="M198.062 148.405C189.586 128.801 209.766 120.129 183.194 93.3055Z" fill="#E9ECE0" fill-opacity="0.33"/>
<path fill-rule="evenodd" clip-rule="evenodd" d="M198.553 129.817C197.662 135.571 196.86 140.748 199.839 147.637L196.288 149.173C192.826 141.165 193.858 134.585 194.796 128.607C195.076 126.826 195.347 125.099 195.488 123.403C195.802 119.637 195.58 115.743 193.743 111.2C191.892 106.619 188.349 101.257 181.821 94.6673L184.57 91.9448C191.328 98.7671 195.227 104.548 197.33 109.75C199.448 114.989 199.693 119.518 199.343 123.724C199.164 125.878 198.853 127.88 198.553 129.817Z" fill="#E9ECE0" fill-opacity="0.33"/>
<path fill-rule="evenodd" clip-rule="evenodd" d="M178.764 371.327C180.972 373.251 198.146 326.682 231.863 350.41Z" fill="#E9ECE0" fill-opacity="0.33"/>
<path fill-rule="evenodd" clip-rule="evenodd" d="M179.482 372.854C178.97 373.015 178.295 372.983 177.742 372.501L179.785 370.157C179.371 369.796 178.863 369.789 178.548 369.888C178.417 369.93 178.334 369.982 178.303 370.004C178.306 370.002 178.31 369.998 178.314 369.995C178.433 369.888 178.663 369.621 179.032 369.105C179.517 368.428 180.099 367.53 180.808 366.436C181.157 365.898 181.537 365.312 181.951 364.682C184.412 360.937 187.897 355.916 192.42 351.573C196.942 347.23 202.597 343.471 209.412 342.405C216.27 341.332 224.065 343.024 232.757 349.141L230.968 351.684C222.801 345.937 215.805 344.552 209.892 345.477C203.935 346.409 198.836 349.722 194.574 353.816C190.313 357.908 186.983 362.686 184.55 366.39C184.173 366.963 183.813 367.518 183.472 368.043C182.735 369.181 182.088 370.179 181.561 370.915C181.183 371.442 180.785 371.954 180.393 372.307C180.208 372.474 179.897 372.723 179.482 372.854ZM178.29 370.015C178.29 370.014 178.295 370.01 178.303 370.004C178.294 370.012 178.29 370.015 178.29 370.015Z" fill="#E9ECE0" fill-opacity="0.33"/>
<path fill-rule="evenodd" clip-rule="evenodd" d="M247.304 57.2301C249.497 55.2892 205.537 32.243 233.423 1.87378Z" fill="#E9ECE0" fill-opacity="0.33"/>
<path fill-rule="evenodd" clip-rule="evenodd" d="M248.811 56.7321C248.9 57.2327 248.787 57.8599 248.269 58.3176L246.343 56.141C245.963 56.4775 245.897 56.9421 245.95 57.2397C245.97 57.3571 246.005 57.4345 246.021 57.4635C246.018 57.4588 246.014 57.4527 246.009 57.4454C245.911 57.3041 245.669 57.0347 245.204 56.6014C244.594 56.0318 243.776 55.3359 242.781 54.4899C242.293 54.0747 241.763 53.6233 241.193 53.1329C237.798 50.2096 233.278 46.1112 229.562 41.0745C225.847 36.0392 222.862 29.9657 222.686 23.0988C222.509 16.1901 225.181 8.70353 232.355 0.890173L234.496 2.85586C227.727 10.2271 225.437 17.0098 225.591 23.0243C225.746 29.0805 228.385 34.5842 231.901 39.3491C235.415 44.1127 239.73 48.0379 243.09 50.9306C243.611 51.3794 244.116 51.8088 244.593 52.2149C245.625 53.0925 246.527 53.8606 247.188 54.4768C247.661 54.9187 248.11 55.3731 248.403 55.7975C248.541 55.9989 248.739 56.3255 248.811 56.7321ZM246.028 57.4763C246.028 57.4762 246.025 57.4719 246.021 57.4635C246.026 57.4721 246.028 57.4763 246.028 57.4763Z" fill="#E9ECE0" fill-opacity="0.33"/>
<path fill-rule="evenodd" clip-rule="evenodd" d="M59.367 417.504C61.9224 416.728 40.4241 359.473 75.4381 343.014L59.367 417.504ZM59.367 417.504C61.9224 416.728 95.8538 387.771 72.9601 342.46Z" fill="#E9ECE0" fill-opacity="0.33"/>
<path fill-rule="evenodd" clip-rule="evenodd" d="M61.3349 418.676C60.9627 418.934 60.4466 419.269 59.9505 419.42L56.6921 420.41L57.5597 416.389C57.5305 416.073 57.4726 415.643 57.3799 415.079C57.198 413.973 56.9196 412.565 56.5839 410.866C56.4233 410.054 56.2496 409.175 56.0671 408.231C54.9532 402.472 53.5761 394.61 53.2306 386.221C52.5457 369.596 55.9036 349.983 74.5872 341.2L78.2509 339.478L76.8432 346.003C86.1215 367.259 83.3008 384.885 77.5299 397.514C74.4606 404.231 70.5717 409.507 67.2775 413.163C65.6301 414.991 64.1201 416.426 62.9191 417.443C62.32 417.95 61.7839 418.365 61.3349 418.676ZM72.5548 346.885C59.4344 355.304 56.6158 371.074 57.233 386.057C57.5418 393.552 58.7087 400.656 59.7573 406.202L72.5548 346.885ZM75.3161 353.081C81.4288 370.719 78.7352 385.238 73.8865 395.849C71.0152 402.132 67.373 407.073 64.3017 410.481C63.682 411.169 63.0873 411.792 62.5291 412.35L75.3161 353.081Z" fill="#E9ECE0" fill-opacity="0.33"/>
<path fill-rule="evenodd" clip-rule="evenodd" d="M249.267 59.7504C251.124 60.2075 259.085 17.2152 286.657 19.8902Z" fill="#E9ECE0" fill-opacity="0.33"/>
<path fill-rule="evenodd" clip-rule="evenodd" d="M250.739 60.9938C250.535 61.1902 249.835 61.7869 248.826 61.5386L249.707 57.9586C248.814 57.7389 248.242 58.2793 248.179 58.34C248.12 58.3975 248.084 58.4436 248.071 58.4615C248.076 58.4544 248.083 58.4424 248.093 58.4247C248.189 58.2598 248.342 57.9298 248.563 57.3746C248.858 56.6346 249.205 55.6774 249.625 54.5152C249.827 53.9578 250.046 53.3532 250.284 52.7028C251.73 48.7563 253.799 43.4041 256.701 38.1017C262.44 27.6177 271.865 16.6012 286.835 18.0536L286.479 21.7232C273.876 20.5006 265.534 29.6427 259.935 39.8719C257.169 44.926 255.176 50.069 253.746 53.9715C253.526 54.5703 253.317 55.1472 253.12 55.6927C252.685 56.8943 252.305 57.9436 251.988 58.7402C251.76 59.3116 251.525 59.8558 251.286 60.2691C251.174 60.4633 250.995 60.7469 250.739 60.9938ZM248.066 58.4696C248.066 58.4695 248.067 58.4667 248.071 58.4615C248.067 58.4672 248.066 58.4698 248.066 58.4696Z" fill="#E9ECE0" fill-opacity="0.33"/>
<path fill-rule="evenodd" clip-rule="evenodd" d="M250.406 68.1985C250.767 66.3204 207.261 62.7005 208.506 35.0255Z" fill="#E9ECE0" fill-opacity="0.33"/>
<path fill-rule="evenodd" clip-rule="evenodd" d="M250.731 67.5378C250.857 67.6478 251.104 67.9184 251.028 68.3156L249.784 68.0767C249.759 68.2069 249.789 68.3199 249.827 68.3945C249.86 68.4588 249.895 68.4893 249.897 68.4907L249.897 68.4908C249.897 68.491 249.897 68.4912 249.897 68.4912C249.897 68.4912 249.886 68.4818 249.856 68.4642C249.824 68.4453 249.779 68.4218 249.718 68.3941C249.465 68.2787 249.056 68.1407 248.483 67.9751C247.712 67.7526 246.713 67.4989 245.523 67.197C244.951 67.0516 244.334 66.8951 243.678 66.7255C239.661 65.6875 234.258 64.1845 228.874 61.8651C218.149 57.2447 207.232 49.2558 207.873 34.9947L209.139 35.0516C208.535 48.4655 218.748 56.124 229.375 60.7019C234.667 62.9816 239.994 64.4654 243.995 65.4992C244.632 65.664 245.239 65.818 245.807 65.9623C247.011 66.2679 248.043 66.53 248.834 66.7582C249.413 66.9254 249.9 67.0848 250.245 67.2422C250.412 67.3186 250.59 67.4142 250.731 67.5378Z" fill="#E9ECE0" fill-opacity="0.33"/>
<path fill-rule="evenodd" clip-rule="evenodd" d="M198.063 148.405C195.201 147.78 222.348 106.227 183.195 93.3062Z" fill="#E9ECE0" fill-opacity="0.33"/>
<path fill-rule="evenodd" clip-rule="evenodd" d="M199.707 147.593C199.564 147.18 199.165 146.664 198.475 146.513L197.65 150.293C196.781 150.103 196.262 149.467 196.052 148.86C195.883 148.373 195.903 147.91 195.928 147.642C195.982 147.073 196.168 146.413 196.366 145.795C196.646 144.924 197.066 143.796 197.542 142.52C197.759 141.935 197.989 141.319 198.222 140.683C199.742 136.526 201.58 131.037 202.319 125.22C203.058 119.402 202.675 113.42 199.921 108.176C197.192 102.98 191.997 98.2457 182.588 95.1407L183.801 91.4671C193.968 94.8224 200.063 100.127 203.346 106.377C206.602 112.577 206.952 119.445 206.157 125.708C205.361 131.973 203.396 137.797 201.855 142.011C201.593 142.728 201.348 143.386 201.123 143.988C200.67 145.203 200.301 146.193 200.05 146.977C199.858 147.573 199.792 147.883 199.78 148C199.782 147.947 199.776 147.794 199.707 147.593ZM199.78 148.004C199.78 148.003 199.78 148.001 199.78 148Z" fill="#E9ECE0" fill-opacity="0.33"/>
<path fill-rule="evenodd" clip-rule="evenodd" d="M250.433 258.061C253.943 258.84 292.68 261.721 295.412 204.34Z" fill="#E9ECE0" fill-opacity="0.33"/>
<path fill-rule="evenodd" clip-rule="evenodd" d="M274.238 254.695C263.247 261.37 252.142 260.459 250.008 259.985L250.862 256.14C252.238 256.446 262.256 257.364 272.194 251.329C281.967 245.394 292.104 232.455 293.447 204.248L297.38 204.436C295.991 233.609 285.394 247.921 274.238 254.695Z" fill="#E9ECE0" fill-opacity="0.33"/>
<path fill-rule="evenodd" clip-rule="evenodd" d="M250.433 258.061C253.943 258.84 257.045 250.134 295.412 204.34Z" fill="#E9ECE0" fill-opacity="0.33"/>
<path fill-rule="evenodd" clip-rule="evenodd" d="M254.96 257.811C253.54 259.27 251.996 260.427 250.008 259.986L250.862 256.141C250.857 256.141 250.84 256.139 250.818 256.142C250.813 256.143 250.81 256.144 250.81 256.144C250.81 256.144 250.84 256.138 250.907 256.103C251.115 255.997 251.496 255.724 252.137 255.065C253.422 253.744 255.257 251.408 258.293 247.467C258.695 246.945 259.117 246.397 259.559 245.821C265.735 237.792 275.978 224.475 293.904 203.078L296.923 205.607C279.049 226.942 268.844 240.209 262.679 248.224C262.237 248.799 261.815 249.348 261.413 249.87C258.439 253.732 256.442 256.288 254.96 257.811Z" fill="#E9ECE0" fill-opacity="0.33"/>
<path fill-rule="evenodd" clip-rule="evenodd" d="M260.127 248.307C259.71 231.29 258.619 225.57 258.596 222.192Z" fill="#E9ECE0" fill-opacity="0.33"/>
<path fill-rule="evenodd" clip-rule="evenodd" d="M261.176 229.975C261.507 233.99 261.887 239.712 262.096 248.26L258.159 248.357C257.951 239.888 257.576 234.242 257.251 230.298C257.15 229.061 257.05 227.968 256.961 226.996C256.774 224.94 256.635 223.42 256.627 222.207L260.565 222.181C260.572 223.225 260.688 224.487 260.862 226.393C260.953 227.39 261.06 228.564 261.176 229.975Z" fill="#E9ECE0" fill-opacity="0.33"/>
<path fill-rule="evenodd" clip-rule="evenodd" d="M268.877 236.155C268.476 221.607 267.389 216.716 267.37 213.829Z" fill="#E9ECE0" fill-opacity="0.33"/>
<path fill-rule="evenodd" clip-rule="evenodd" d="M269.931 220.435C270.259 223.879 270.634 228.782 270.836 236.103L266.922 236.211C266.722 228.983 266.353 224.167 266.033 220.806C265.934 219.774 265.837 218.852 265.75 218.025C265.562 216.247 265.421 214.907 265.414 213.844L269.33 213.817C269.335 214.684 269.445 215.725 269.615 217.329C269.706 218.185 269.813 219.2 269.931 220.435Z" fill="#E9ECE0" fill-opacity="0.33"/>
<path fill-rule="evenodd" clip-rule="evenodd" d="M278.989 224.383C278.615 213.862 277.537 210.327 277.523 208.239Z" fill="#E9ECE0" fill-opacity="0.33"/>
<path fill-rule="evenodd" clip-rule="evenodd" d="M280.08 212.897C280.406 215.415 280.774 218.99 280.964 224.314L277.017 224.455C276.832 219.259 276.474 215.806 276.164 213.404C276.06 212.599 275.963 211.928 275.877 211.327C275.832 211.014 275.79 210.719 275.75 210.435C275.642 209.646 275.554 208.919 275.549 208.254L279.499 208.228C279.501 208.607 279.554 209.104 279.663 209.895C279.697 210.141 279.736 210.417 279.78 210.72C279.868 211.338 279.973 212.069 280.08 212.897Z" fill="#E9ECE0" fill-opacity="0.33"/>
<path fill-rule="evenodd" clip-rule="evenodd" d="M250.433 258.061C253.943 258.84 238.364 211.056 295.412 204.34Z" fill="#E9ECE0" fill-opacity="0.33"/>
<path fill-rule="evenodd" clip-rule="evenodd" d="M252.028 259.458C251.441 259.988 250.686 260.135 250.007 259.985L250.86 256.14C250.402 256.038 249.828 256.139 249.392 256.533C249.221 256.687 249.125 256.839 249.077 256.929C249.028 257.019 249.008 257.082 249.005 257.095C248.999 257.113 249.016 257.058 249.034 256.883C249.05 256.719 249.061 256.501 249.066 256.219C249.078 255.527 249.052 254.685 249.02 253.651C248.996 252.874 248.969 251.988 248.951 250.975C248.875 246.43 249.036 240.09 250.955 233.465C252.881 226.814 256.583 219.865 263.564 214.154C270.537 208.451 280.641 204.098 295.182 202.386L295.643 206.297C281.66 207.943 272.319 212.081 266.058 217.202C259.806 222.316 256.487 228.523 254.738 234.56C252.982 240.623 252.815 246.502 252.889 250.908C252.904 251.762 252.929 252.595 252.952 253.37C252.986 254.512 253.016 255.526 253.003 256.287C252.993 256.908 252.956 257.631 252.777 258.227C252.69 258.517 252.497 259.036 252.028 259.458Z" fill="#E9ECE0" fill-opacity="0.33"/>
<path fill-rule="evenodd" clip-rule="evenodd" d="M179.889 316.353C179.898 317.696 236.163 285.624 252.5 255.109Z" fill="#E9ECE0" fill-opacity="0.33"/>
<path fill-rule="evenodd" clip-rule="evenodd" d="M177.848 318.574C177.169 317.941 176.888 317.111 176.883 316.372L182.892 316.333C182.887 315.614 182.612 314.801 181.948 314.181C181.373 313.644 180.753 313.485 180.45 313.432C179.909 313.337 179.492 313.428 179.444 313.439L179.44 313.439C179.344 313.459 179.287 313.478 179.286 313.479C179.285 313.479 179.319 313.468 179.398 313.436C179.686 313.319 180.204 313.078 180.966 312.686C182.463 311.916 184.667 310.688 187.401 309.059C192.862 305.807 200.331 301.019 208.308 295.243C224.395 283.595 242.033 268.29 249.849 253.691L255.147 256.527C246.627 272.442 227.964 288.43 211.832 300.111C203.699 305.999 196.079 310.885 190.477 314.222C187.679 315.888 185.359 317.184 183.714 318.03C182.905 318.446 182.196 318.786 181.652 319.006C181.413 319.103 181.046 319.243 180.66 319.323L180.656 319.324C180.519 319.353 180.015 319.457 179.407 319.35C179.077 319.292 178.437 319.124 177.848 318.574Z" fill="#E9ECE0" fill-opacity="0.33"/>
<path fill-rule="evenodd" clip-rule="evenodd" d="M179.889 316.353C179.898 317.696 236.163 285.624 252.5 255.109Z" fill="#E9ECE0" fill-opacity="0.33"/>
<path fill-rule="evenodd" clip-rule="evenodd" d="M177.848 318.574C177.169 317.941 176.888 317.111 176.883 316.372L182.892 316.333C182.887 315.614 182.612 314.801 181.948 314.181C181.373 313.644 180.753 313.485 180.45 313.432C179.909 313.337 179.492 313.428 179.444 313.439L179.44 313.439C179.344 313.459 179.287 313.478 179.286 313.479C179.285 313.479 179.319 313.468 179.398 313.436C179.686 313.319 180.204 313.078 180.966 312.686C182.463 311.916 184.667 310.688 187.401 309.059C192.862 305.807 200.331 301.019 208.308 295.243C224.395 283.595 242.033 268.29 249.849 253.691L255.147 256.527C246.627 272.442 227.964 288.43 211.832 300.111C203.699 305.999 196.079 310.885 190.477 314.222C187.679 315.888 185.359 317.184 183.714 318.03C182.905 318.446 182.196 318.786 181.652 319.006C181.413 319.103 181.046 319.243 180.66 319.323L180.656 319.324C180.519 319.353 180.015 319.457 179.407 319.35C179.077 319.292 178.437 319.124 177.848 318.574Z" fill="#E9ECE0" fill-opacity="0.33"/>
<path fill-rule="evenodd" clip-rule="evenodd" d="M114.226 402.888C114.234 404.231 147.239 387.637 180.25 372.051Z" fill="#E9ECE0" fill-opacity="0.33"/>
<path fill-rule="evenodd" clip-rule="evenodd" d="M112.427 405.322C111.649 404.728 111.227 403.825 111.221 402.902L117.23 402.863C117.224 401.983 116.818 401.113 116.072 400.544C115.477 400.09 114.888 399.998 114.673 399.973C114.414 399.942 114.22 399.958 114.147 399.965C114.06 399.974 114.006 399.985 113.999 399.986C113.997 399.987 113.997 399.987 113.999 399.986C114.009 399.984 114.062 399.97 114.171 399.937C114.296 399.897 114.463 399.84 114.674 399.762C115.541 399.444 116.883 398.88 118.679 398.079C122.249 396.487 127.373 394.068 133.564 391.103C137.672 389.135 142.245 386.929 147.127 384.575C156.917 379.852 167.948 374.531 178.967 369.329L181.533 374.763C170.534 379.956 159.55 385.254 149.773 389.97C144.884 392.328 140.296 394.541 136.159 396.523C129.972 399.486 124.78 401.938 121.127 403.567C119.312 404.376 117.816 405.01 116.747 405.403C116.241 405.589 115.694 405.772 115.212 405.872C115.026 405.91 114.536 406.007 113.97 405.941C113.691 405.908 113.055 405.8 112.427 405.322Z" fill="#E9ECE0" fill-opacity="0.33"/>
<path fill-rule="evenodd" clip-rule="evenodd" d="M155.055 265.16C154.15 265.669 145.268 272.52 155.745 285.382Z" fill="#E9ECE0" fill-opacity="0.33"/>
<path fill-rule="evenodd" clip-rule="evenodd" d="M149.496 270.144C150.675 266.247 153.471 264.09 154.216 263.67L155.895 266.65C155.898 266.649 155.896 266.65 155.891 266.654C155.862 266.673 155.723 266.766 155.5 266.954C155.252 267.163 154.935 267.462 154.599 267.849C153.924 268.624 153.197 269.722 152.77 271.134C151.949 273.846 152.099 278.197 157.072 284.302L154.42 286.462C148.916 279.705 148.268 274.2 149.496 270.144Z" fill="#E9ECE0" fill-opacity="0.33"/>
<path fill-rule="evenodd" clip-rule="evenodd" d="M144.473 269.02C144.281 268.279 141.078 260.653 129.93 265.689Z" fill="#E9ECE0" fill-opacity="0.33"/>
<path fill-rule="evenodd" clip-rule="evenodd" d="M144.158 267.158C144.688 267.94 144.956 268.615 145.023 268.876L143.921 269.161C143.893 269.052 143.688 268.495 143.215 267.797C142.748 267.107 142.036 266.305 141.01 265.671C138.991 264.424 135.61 263.746 130.164 266.207L129.695 265.169C135.396 262.593 139.191 263.21 141.608 264.702C142.8 265.438 143.622 266.366 144.158 267.158Z" fill="#E9ECE0" fill-opacity="0.33"/>
<path fill-rule="evenodd" clip-rule="evenodd" d="M106.632 302.222C107.652 300.776 114.623 282.707 89.0809 270.577Z" fill="#E9ECE0" fill-opacity="0.33"/>
<path fill-rule="evenodd" clip-rule="evenodd" d="M108.247 301.322C108 302.002 107.74 302.554 107.526 302.857L105.733 301.593L105.733 301.593C105.733 301.593 105.737 301.587 105.745 301.573C105.754 301.559 105.766 301.539 105.78 301.513C105.809 301.46 105.846 301.388 105.888 301.298C105.973 301.117 106.076 300.874 106.185 300.573C106.404 299.971 106.644 299.155 106.832 298.17C107.208 296.2 107.368 293.577 106.742 290.637C105.503 284.815 101.129 277.517 88.6079 271.571L89.549 269.589C102.57 275.773 107.481 283.573 108.888 290.18C109.584 293.455 109.407 296.378 108.987 298.581C108.777 299.683 108.505 300.612 108.247 301.322Z" fill="#E9ECE0" fill-opacity="0.33"/>
<path fill-rule="evenodd" clip-rule="evenodd" d="M155.055 265.16C154.15 265.669 155.162 268.139 155.745 285.382Z" fill="#E9ECE0" fill-opacity="0.33"/>
<path fill-rule="evenodd" clip-rule="evenodd" d="M152.989 266.039C153.014 265.422 153.128 264.28 154.214 263.669L155.893 266.649C156.289 266.426 156.399 266.092 156.421 266.001C156.417 266.03 156.411 266.086 156.407 266.178C156.389 266.628 156.437 267.405 156.547 268.867C156.561 269.056 156.576 269.255 156.592 269.463C156.813 272.386 157.18 277.242 157.453 285.323L154.035 285.438C153.764 277.428 153.401 272.626 153.181 269.719C153.165 269.511 153.15 269.312 153.136 269.123C153.032 267.748 152.961 266.735 152.989 266.039ZM156.425 265.977C156.426 265.978 156.424 265.986 156.421 266.001C156.423 265.984 156.425 265.977 156.425 265.977Z" fill="#E9ECE0" fill-opacity="0.33"/>
<path fill-rule="evenodd" clip-rule="evenodd" d="M144.473 269.02C144.282 268.278 142.33 268.532 129.93 265.688Z" fill="#E9ECE0" fill-opacity="0.33"/>
<path fill-rule="evenodd" clip-rule="evenodd" d="M144.031 268.041C144.449 268.171 144.893 268.372 145.024 268.876L143.921 269.161C143.932 269.203 143.952 269.227 143.962 269.237C143.942 269.224 143.872 269.184 143.694 269.129C143.33 269.017 142.72 268.896 141.674 268.701C141.536 268.676 141.391 268.649 141.239 268.62C139.117 268.226 135.598 267.572 129.802 266.243L130.057 265.133C135.829 266.457 139.331 267.107 141.448 267.501C141.6 267.529 141.745 267.556 141.883 267.582C142.9 267.772 143.588 267.904 144.031 268.041ZM143.969 269.242C143.969 269.243 143.966 269.241 143.962 269.237C143.967 269.241 143.969 269.242 143.969 269.242Z" fill="#E9ECE0" fill-opacity="0.33"/>
<path fill-rule="evenodd" clip-rule="evenodd" d="M106.63 302.222C107.65 300.776 104.285 297.715 90.7673 271.599Z" fill="#E9ECE0" fill-opacity="0.33"/>
<path fill-rule="evenodd" clip-rule="evenodd" d="M107.493 300.07C107.888 300.995 108.148 301.976 107.528 302.855L105.735 301.591C105.717 301.616 105.708 301.639 105.704 301.655C105.702 301.588 105.669 301.385 105.475 300.931C105.123 300.105 104.415 298.836 103.199 296.706C103.038 296.425 102.87 296.13 102.692 295.82C100.217 291.49 96.1119 284.309 89.7947 272.105L91.7429 271.096C98.0393 283.261 102.127 290.411 104.597 294.732C104.775 295.042 104.944 295.337 105.104 295.619C106.292 297.7 107.079 299.099 107.493 300.07ZM105.701 301.683C105.7 301.682 105.7 301.671 105.704 301.655C105.705 301.676 105.703 301.684 105.701 301.683Z" fill="#E9ECE0" fill-opacity="0.33"/>
<path fill-rule="evenodd" clip-rule="evenodd" d="M104.041 295.968C96.2335 292.928 93.428 292.338 91.8896 291.708Z" fill="#E9ECE0" fill-opacity="0.33"/>
<path fill-rule="evenodd" clip-rule="evenodd" d="M95.9528 291.89C97.8414 292.503 100.515 293.417 104.439 294.945L103.643 296.99C99.7598 295.478 97.1265 294.577 95.2761 293.977C94.6992 293.79 94.1861 293.629 93.728 293.484C92.7552 293.178 92.031 292.95 91.4737 292.722L92.3057 290.692C92.7761 290.885 93.3632 291.07 94.2559 291.35C94.7271 291.498 95.2835 291.673 95.9528 291.89Z" fill="#E9ECE0" fill-opacity="0.33"/>
<path fill-rule="evenodd" clip-rule="evenodd" d="M100.183 289.69C93.4991 287.112 91.0718 286.677 89.7567 286.138Z" fill="#E9ECE0" fill-opacity="0.33"/>
<path fill-rule="evenodd" clip-rule="evenodd" d="M93.2646 286.153C94.8926 286.658 97.1926 287.419 100.557 288.717L99.8074 290.661C96.4884 289.381 94.2328 288.635 92.6474 288.144C92.1631 287.993 91.7278 287.863 91.3363 287.746C90.4902 287.493 89.849 287.301 89.3609 287.101L90.1514 285.173C90.5427 285.334 91.0307 285.479 91.7874 285.705C92.1935 285.827 92.6771 285.971 93.2646 286.153Z" fill="#E9ECE0" fill-opacity="0.33"/>
<path fill-rule="evenodd" clip-rule="evenodd" d="M96.7551 282.861C91.9054 281.035 90.0957 280.854 89.1447 280.464Z" fill="#E9ECE0" fill-opacity="0.33"/>
<path fill-rule="evenodd" clip-rule="evenodd" d="M91.743 280.187C92.948 280.517 94.6415 281.028 97.096 281.952L96.412 283.768C94.0168 282.867 92.3806 282.374 91.2305 282.059C90.8456 281.954 90.5233 281.87 90.2344 281.796C90.083 281.757 89.9408 281.72 89.8035 281.683C89.4249 281.583 89.078 281.485 88.7753 281.361L89.5119 279.565C89.6846 279.636 89.9205 279.706 90.3003 279.807C90.4188 279.838 90.5519 279.873 90.6982 279.911C90.9953 279.988 91.3471 280.079 91.743 280.187Z" fill="#E9ECE0" fill-opacity="0.33"/>
<path fill-rule="evenodd" clip-rule="evenodd" d="M155.055 265.159C154.15 265.668 166.713 272.936 155.745 285.38Z" fill="#E9ECE0" fill-opacity="0.33"/>
<path fill-rule="evenodd" clip-rule="evenodd" d="M153.309 265.048C153.375 264.424 153.747 263.935 154.216 263.671L155.895 266.651C156.308 266.419 156.65 265.976 156.71 265.41C156.755 264.981 156.615 264.676 156.582 264.607C156.54 264.518 156.502 264.465 156.501 264.465C156.501 264.465 156.52 264.49 156.568 264.546C156.687 264.683 156.824 264.826 157.007 265.018C157.16 265.178 157.345 265.371 157.578 265.623C158.498 266.614 159.777 268.107 160.715 270.054C161.664 272.022 162.27 274.463 161.828 277.308C161.388 280.142 159.933 283.22 157.029 286.514L154.463 284.252C157.043 281.325 158.131 278.827 158.448 276.783C158.764 274.748 158.342 273.008 157.634 271.539C156.916 270.05 155.909 268.853 155.071 267.949C154.932 267.8 154.779 267.639 154.628 267.48C154.381 267.22 154.141 266.968 153.983 266.786C153.866 266.651 153.638 266.384 153.487 266.064C153.415 265.91 153.257 265.535 153.309 265.048Z" fill="#E9ECE0" fill-opacity="0.33"/>
<path fill-rule="evenodd" clip-rule="evenodd" d="M144.473 269.02C144.282 268.278 136.726 275.859 129.93 265.688Z" fill="#E9ECE0" fill-opacity="0.33"/>
<path fill-rule="evenodd" clip-rule="evenodd" d="M144.637 268.442C144.843 268.521 144.975 268.691 145.023 268.877L143.921 269.163C143.957 269.302 144.063 269.442 144.229 269.506C144.35 269.552 144.443 269.534 144.454 269.532C144.454 269.532 144.454 269.532 144.454 269.532C144.457 269.532 144.459 269.531 144.459 269.532C144.459 269.532 144.421 269.544 144.321 269.593C144.191 269.656 144.039 269.74 143.85 269.844C143.705 269.924 143.538 270.015 143.342 270.12C142.483 270.577 141.249 271.168 139.785 271.449C138.313 271.732 136.605 271.703 134.813 270.917C133.024 270.133 131.2 268.615 129.456 266.005L130.403 265.372C132.057 267.847 133.725 269.196 135.27 269.874C136.812 270.55 138.279 270.579 139.57 270.331C140.868 270.081 141.984 269.552 142.807 269.114C142.963 269.032 143.116 268.947 143.261 268.868C143.477 268.749 143.673 268.642 143.821 268.57C143.94 268.512 144.097 268.44 144.25 268.412C144.324 268.398 144.473 268.38 144.637 268.442Z" fill="#E9ECE0" fill-opacity="0.33"/>
<path fill-rule="evenodd" clip-rule="evenodd" d="M106.629 302.223C107.649 300.777 82.5577 299.715 90.3341 272.531Z" fill="#E9ECE0" fill-opacity="0.33"/>
<path fill-rule="evenodd" clip-rule="evenodd" d="M107.677 301.695C107.84 302.121 107.745 302.547 107.528 302.855L105.735 301.591C105.582 301.808 105.499 302.144 105.628 302.48C105.678 302.61 105.745 302.698 105.787 302.746C105.83 302.794 105.864 302.821 105.875 302.829C105.877 302.83 105.876 302.829 105.871 302.827C105.85 302.816 105.753 302.763 105.511 302.67C105.198 302.55 104.815 302.423 104.344 302.266C103.974 302.143 103.55 302.002 103.061 301.832C100.937 301.091 98.0158 299.93 95.2958 297.908C92.5627 295.877 90.0243 292.971 88.6988 288.764C87.3758 284.565 87.2943 279.175 89.2815 272.228L91.3907 272.832C89.4896 279.477 89.6285 284.414 90.7912 288.105C91.9513 291.787 94.1641 294.334 96.6043 296.148C99.0576 297.971 101.732 299.045 103.783 299.76C104.186 299.9 104.584 300.033 104.954 300.157C105.483 300.333 105.954 300.49 106.299 300.623C106.583 300.732 106.927 300.876 107.187 301.07C107.311 301.163 107.549 301.362 107.677 301.695Z" fill="#E9ECE0" fill-opacity="0.33"/>
<path fill-rule="evenodd" clip-rule="evenodd" d="M153.45 260.621C155.477 260.701 184.645 253.268 173.042 226.271Z" fill="#E9ECE0" fill-opacity="0.33"/>
<path fill-rule="evenodd" clip-rule="evenodd" d="M154.479 262.521C154.149 262.579 153.731 262.639 153.371 262.625L153.53 258.623C153.497 258.621 153.479 258.621 153.479 258.621C153.479 258.619 153.569 258.613 153.786 258.575C154.047 258.529 154.407 258.452 154.853 258.338C155.744 258.11 156.927 257.745 158.271 257.221C160.97 256.168 164.228 254.505 167.055 252.082C169.872 249.668 172.211 246.547 173.22 242.551C174.227 238.567 173.966 233.494 171.203 227.065L174.884 225.483C177.922 232.552 178.367 238.532 177.104 243.532C175.844 248.52 172.94 252.314 169.662 255.124C166.394 257.924 162.705 259.791 159.727 260.953C158.233 261.536 156.895 261.95 155.848 262.218C155.325 262.352 154.862 262.453 154.479 262.521Z" fill="#E9ECE0" fill-opacity="0.33"/>
<path fill-rule="evenodd" clip-rule="evenodd" d="M153.225 262.825C153.935 263.944 171.496 276.623 190.121 259.668Z" fill="#E9ECE0" fill-opacity="0.33"/>
<path fill-rule="evenodd" clip-rule="evenodd" d="M153.008 263.78C152.838 263.631 152.642 263.447 152.527 263.264L153.922 262.379C153.916 262.37 153.912 262.365 153.913 262.364C153.914 262.363 153.96 262.417 154.094 262.535C154.242 262.664 154.455 262.833 154.732 263.032C155.285 263.43 156.07 263.931 157.057 264.455C159.032 265.503 161.793 266.63 165.096 267.207C171.669 268.357 180.453 267.348 189.564 259.054L190.676 260.276C181.163 268.936 171.854 270.066 164.812 268.835C161.308 268.222 158.382 267.029 156.282 265.915C155.232 265.358 154.383 264.817 153.767 264.373C153.459 264.152 153.204 263.951 153.008 263.78Z" fill="#E9ECE0" fill-opacity="0.33"/>
<path fill-rule="evenodd" clip-rule="evenodd" d="M147.075 270.419C148.156 269.652 159.91 251.459 142.015 233.735Z" fill="#E9ECE0" fill-opacity="0.33"/>
<path fill-rule="evenodd" clip-rule="evenodd" d="M148.774 271.162C148.636 271.338 148.389 271.642 148.091 271.853L146.057 268.988C145.966 269.053 145.916 269.104 145.917 269.104C145.917 269.104 145.947 269.073 146.01 268.992C146.109 268.865 146.251 268.669 146.424 268.4C146.768 267.865 147.208 267.092 147.663 266.115C148.575 264.16 149.524 261.439 149.916 258.225C150.691 251.868 149.314 243.44 140.778 234.985L143.251 232.488C152.609 241.758 154.302 251.288 153.404 258.65C152.959 262.295 151.886 265.374 150.849 267.6C150.329 268.713 149.814 269.626 149.378 270.302C149.161 270.639 148.957 270.929 148.774 271.162Z" fill="#E9ECE0" fill-opacity="0.33"/>
<path fill-rule="evenodd" clip-rule="evenodd" d="M153.449 260.623C155.477 260.704 156.326 255.557 173.042 226.273Z" fill="#E9ECE0" fill-opacity="0.33"/>
<path fill-rule="evenodd" clip-rule="evenodd" d="M156.678 260.527C156.023 261.5 155.034 262.69 153.372 262.625L153.531 258.622C153.215 258.609 153.024 258.74 152.98 258.775C153.014 258.743 153.136 258.616 153.357 258.289C153.902 257.479 154.66 256.053 155.961 253.539C156.132 253.209 156.311 252.863 156.499 252.499C159.126 247.416 163.486 238.979 171.305 225.28L174.784 227.266C167.005 240.893 162.675 249.273 160.057 254.34C159.869 254.703 159.69 255.05 159.519 255.381C158.265 257.804 157.385 259.479 156.678 260.527ZM152.97 258.783C152.97 258.783 152.974 258.78 152.98 258.775C152.974 258.781 152.97 258.784 152.97 258.783Z" fill="#E9ECE0" fill-opacity="0.33"/>
<path fill-rule="evenodd" clip-rule="evenodd" d="M153.225 262.825C153.935 263.944 158.661 262.353 190.121 259.668Z" fill="#E9ECE0" fill-opacity="0.33"/>
<path fill-rule="evenodd" clip-rule="evenodd" d="M153.542 263.926C153.158 263.84 152.774 263.656 152.527 263.267L153.923 262.382C153.88 262.316 153.834 262.294 153.834 262.294C153.834 262.294 153.853 262.303 153.906 262.315C154.058 262.349 154.337 262.372 154.838 262.355C155.831 262.323 157.432 262.15 160.048 261.852C160.396 261.812 160.76 261.77 161.143 261.727C166.492 261.114 175.36 260.098 190.051 258.845L190.191 260.491C175.524 261.742 166.674 262.756 161.331 263.368C160.948 263.412 160.583 263.454 160.235 263.493C157.649 263.788 155.968 263.972 154.892 264.007C154.359 264.024 153.907 264.009 153.542 263.926Z" fill="#E9ECE0" fill-opacity="0.33"/>
<path fill-rule="evenodd" clip-rule="evenodd" d="M147.075 270.417C148.156 269.649 146.322 265.012 142.015 233.733Z" fill="#E9ECE0" fill-opacity="0.33"/>
<path fill-rule="evenodd" clip-rule="evenodd" d="M149.076 270.202C148.985 270.732 148.738 271.392 148.092 271.851L146.057 268.985C145.682 269.252 145.614 269.599 145.612 269.607C145.612 269.608 145.614 269.595 145.617 269.563C145.619 269.531 145.621 269.487 145.621 269.426C145.621 269.303 145.614 269.135 145.595 268.909C145.515 267.966 145.268 266.422 144.832 263.807C144.774 263.462 144.714 263.1 144.65 262.72C143.761 257.407 142.287 248.593 140.274 233.974L143.755 233.494C145.761 248.064 147.229 256.839 148.116 262.141C148.18 262.521 148.241 262.884 148.298 263.229C148.724 265.78 149.002 267.493 149.096 268.613C149.143 269.163 149.16 269.712 149.076 270.202Z" fill="#E9ECE0" fill-opacity="0.33"/>
<path fill-rule="evenodd" clip-rule="evenodd" d="M153.449 260.623C174.583 243.457 168.901 244.364 173.042 226.273Z" fill="#E9ECE0" fill-opacity="0.33"/>
<path fill-rule="evenodd" clip-rule="evenodd" d="M171.469 244.564C169.504 249.286 165.212 253.65 154.713 262.178L152.188 259.068C162.823 250.429 166.257 246.664 167.77 243.025C168.528 241.203 168.841 239.324 169.223 236.582C169.256 236.347 169.289 236.108 169.323 235.862C169.681 233.267 170.125 230.048 171.091 225.826L174.996 226.72C174.07 230.764 173.647 233.828 173.29 236.416C173.257 236.659 173.224 236.899 173.191 237.135C172.813 239.847 172.449 242.206 171.469 244.564Z" fill="#E9ECE0" fill-opacity="0.33"/>
<path fill-rule="evenodd" clip-rule="evenodd" d="M153.449 260.623C162.557 248.959 150.54 239.619 173.042 226.273Z" fill="#E9ECE0" fill-opacity="0.33"/>
<path fill-rule="evenodd" clip-rule="evenodd" d="M159.772 247.886C159.358 252.081 158.879 256.925 155.028 261.857L151.87 259.392C154.945 255.454 155.289 252.076 155.692 248.118C155.831 246.744 155.978 245.3 156.249 243.738C156.762 240.782 157.749 237.684 160.16 234.438C162.547 231.224 166.249 227.975 172.02 224.552L174.064 227.998C168.584 231.247 165.349 234.17 163.376 236.826C161.427 239.449 160.63 241.917 160.196 244.423C160.007 245.514 159.892 246.672 159.772 247.886Z" fill="#E9ECE0" fill-opacity="0.33"/>
<path fill-rule="evenodd" clip-rule="evenodd" d="M153.449 260.623C155.477 260.704 144.532 228.099 173.042 226.273Z" fill="#E9ECE0" fill-opacity="0.33"/>
<path fill-rule="evenodd" clip-rule="evenodd" d="M155.271 261.649C154.921 262.173 154.26 262.66 153.371 262.625L153.53 258.622C152.768 258.592 152.209 259.02 151.939 259.426C151.829 259.59 151.776 259.732 151.752 259.806C151.726 259.883 151.717 259.936 151.715 259.95C151.714 259.954 151.714 259.956 151.714 259.956C151.714 259.956 151.718 259.915 151.72 259.816C151.721 259.704 151.717 259.553 151.706 259.357C151.675 258.803 151.603 258.1 151.513 257.218C151.467 256.772 151.417 256.28 151.365 255.739C151.066 252.633 150.76 248.324 151.33 243.907C151.9 239.493 153.368 234.8 156.759 231.074C160.188 227.306 165.375 224.758 172.916 224.275L173.172 228.273C166.457 228.703 162.321 230.914 159.721 233.771C157.082 236.669 155.814 240.465 155.303 244.42C154.792 248.373 155.06 252.314 155.352 255.355C155.396 255.809 155.441 256.254 155.485 256.681C155.582 257.63 155.669 258.486 155.705 259.134C155.731 259.586 155.745 260.124 155.669 260.593C155.634 260.809 155.547 261.234 155.271 261.649Z" fill="#E9ECE0" fill-opacity="0.33"/>
<path fill-rule="evenodd" clip-rule="evenodd" d="M153.225 262.827C153.935 263.946 177.608 245.113 190.121 259.67Z" fill="#E9ECE0" fill-opacity="0.33"/>
<path fill-rule="evenodd" clip-rule="evenodd" d="M153.387 263.697C153.228 263.703 152.79 263.681 152.527 263.266L153.922 262.381C153.704 262.037 153.355 262.045 153.328 262.046C153.303 262.047 153.289 262.05 153.289 262.05C153.289 262.05 153.309 262.046 153.354 262.03C153.507 261.978 153.757 261.865 154.124 261.677C154.612 261.427 155.228 261.085 155.968 260.675C156.327 260.476 156.715 260.26 157.132 260.031C159.656 258.646 163.117 256.826 166.964 255.43C174.601 252.657 184.13 251.43 190.747 259.128L189.494 260.205C183.598 253.346 175.034 254.258 167.528 256.983C163.804 258.335 160.432 260.104 157.927 261.48C157.532 261.696 157.156 261.905 156.802 262.101C156.045 262.521 155.391 262.884 154.878 263.147C154.505 263.339 154.161 263.501 153.883 263.595C153.751 263.64 153.574 263.691 153.387 263.697Z" fill="#E9ECE0" fill-opacity="0.33"/>
<path fill-rule="evenodd" clip-rule="evenodd" d="M147.074 270.419C148.155 269.651 128.124 246.984 142.014 233.735Z" fill="#E9ECE0" fill-opacity="0.33"/>
<path fill-rule="evenodd" clip-rule="evenodd" d="M148.864 270.132C148.887 270.395 148.903 271.276 148.089 271.853L146.055 268.988C145.309 269.517 145.351 270.307 145.363 270.439C145.374 270.56 145.398 270.645 145.408 270.677C145.408 270.677 145.408 270.676 145.408 270.676C145.376 270.595 145.28 270.402 145.076 270.049C144.807 269.587 144.448 269.01 144.006 268.303C143.787 267.952 143.548 267.569 143.29 267.152C141.769 264.693 139.743 261.281 138.12 257.443C134.926 249.887 133.003 239.902 140.799 232.465L143.225 235.008C137.131 240.82 138.279 248.793 141.357 256.075C142.871 259.656 144.782 262.883 146.279 265.304C146.508 265.675 146.732 266.033 146.944 266.374C147.408 267.117 147.818 267.773 148.115 268.286C148.328 268.652 148.538 269.037 148.674 269.379C148.736 269.536 148.836 269.81 148.864 270.132ZM145.413 270.691C145.413 270.691 145.411 270.686 145.408 270.677C145.412 270.686 145.413 270.691 145.413 270.691Z" fill="#E9ECE0" fill-opacity="0.33"/>
<path fill-rule="evenodd" clip-rule="evenodd" d="M114.226 402.883C114.235 404.226 119.455 287.969 152.467 272.383Z" fill="#E9ECE0" fill-opacity="0.33"/>
<path fill-rule="evenodd" clip-rule="evenodd" d="M111.223 402.992L111.221 402.906L117.23 402.867L117.229 402.794C117.227 402.755 117.219 402.631 117.21 402.549C117.168 402.287 115.538 400.195 113.128 400.101C112.033 400.845 111.314 402.16 111.275 402.335C111.264 402.4 111.249 402.499 111.245 402.532L111.238 402.596L111.235 402.622L111.234 402.631C111.234 402.632 111.235 402.621 111.237 402.593L111.244 402.49L111.295 401.634C111.342 400.847 111.415 399.652 111.52 398.101C111.729 395.001 112.064 390.484 112.57 384.979C113.581 373.975 115.276 358.994 118.011 343.463C120.742 327.957 124.531 311.782 129.769 298.443C134.93 285.298 141.8 274.099 151.183 269.669L153.749 275.103C146.627 278.465 140.465 287.643 135.362 300.639C130.337 313.439 126.631 329.167 123.929 344.505C121.232 359.82 119.556 374.625 118.554 385.529C118.054 390.977 117.722 395.445 117.515 398.506C117.412 400.036 117.34 401.216 117.293 401.993L117.241 402.859C117.236 402.945 117.231 403.033 117.226 403.097L117.219 403.175L117.21 403.252C117.206 403.289 117.191 403.391 117.179 403.458C117.139 403.634 116.42 404.95 115.325 405.694C112.914 405.601 111.284 403.507 111.242 403.244C111.238 403.209 111.234 403.166 111.231 403.126C111.227 403.069 111.224 403.016 111.223 402.992Z" fill="#E9ECE0" fill-opacity="0.33"/>
<path fill-rule="evenodd" clip-rule="evenodd" d="M114.224 402.887C114.233 404.23 122.184 316.77 104.309 299.835Z" fill="#E9ECE0" fill-opacity="0.33"/>
<path fill-rule="evenodd" clip-rule="evenodd" d="M111.237 403.22C111.22 403.06 111.22 402.932 111.22 402.906L117.229 402.867L117.229 402.865C117.229 402.843 117.228 402.725 117.212 402.576C117.199 402.474 117.139 402.168 117.081 401.967C116.847 401.433 115.121 400.034 113.451 399.999C112.51 400.435 111.604 401.435 111.463 401.721C111.412 401.85 111.344 402.054 111.324 402.126C111.293 402.243 111.276 402.335 111.273 402.356L111.272 402.357C111.265 402.397 111.261 402.429 111.259 402.441C111.26 402.435 111.261 402.425 111.263 402.409C111.274 402.315 111.293 402.132 111.32 401.852C111.372 401.3 111.448 400.437 111.539 399.3C111.72 397.026 111.96 393.677 112.192 389.563C112.657 381.332 113.09 370.066 112.968 358.246C112.846 346.406 112.168 334.104 110.437 323.766C109.571 318.597 108.455 313.998 107.052 310.229C105.634 306.422 104.004 303.685 102.242 302.016L106.375 297.654C109.082 300.218 111.114 303.919 112.683 308.132C114.266 312.381 115.461 317.383 116.364 322.774C118.169 333.555 118.854 346.21 118.977 358.184C119.101 370.177 118.662 381.583 118.192 389.902C117.957 394.064 117.714 397.459 117.529 399.778C117.436 400.936 117.358 401.831 117.302 402.421C117.274 402.712 117.25 402.946 117.232 403.105L117.231 403.107C117.225 403.162 117.21 403.29 117.188 403.413L117.188 403.414C117.183 403.442 117.165 403.544 117.132 403.669C117.111 403.744 117.042 403.95 116.99 404.08C116.849 404.368 115.942 405.368 115.001 405.805C113.33 405.77 111.604 404.37 111.369 403.835C111.311 403.633 111.25 403.325 111.237 403.22Z" fill="#E9ECE0" fill-opacity="0.33"/>
<path fill-rule="evenodd" clip-rule="evenodd" d="M213.892 246.071C213.901 247.414 217.856 164.856 194.226 143.083Z" fill="#E9ECE0" fill-opacity="0.33"/>
<path fill-rule="evenodd" clip-rule="evenodd" d="M210.892 246.254C210.887 246.175 210.887 246.11 210.887 246.092L216.896 246.053L216.896 246.052C216.896 246.041 216.895 245.986 216.891 245.914C216.888 245.868 216.875 245.734 216.864 245.647C216.824 245.43 216.254 244.231 215.417 243.5C213.177 243.17 211.151 244.859 211.009 245.242C210.976 245.365 210.937 245.55 210.926 245.609C210.913 245.695 210.906 245.763 210.905 245.774L210.905 245.775C210.902 245.804 210.901 245.822 210.901 245.82C210.901 245.818 210.902 245.806 210.903 245.777C210.909 245.683 210.918 245.505 210.93 245.243C210.953 244.725 210.983 243.911 211.015 242.838C211.077 240.693 211.139 237.522 211.14 233.607C211.143 225.773 210.901 214.988 209.929 203.5C208.955 191.995 207.255 179.878 204.37 169.344C201.458 158.709 197.458 150.149 192.189 145.294L196.261 140.874C202.807 146.906 207.174 156.83 210.166 167.757C213.185 178.784 214.927 191.304 215.917 202.993C216.908 214.698 217.152 225.661 217.15 233.609C217.148 237.586 217.085 240.814 217.021 243.012C216.989 244.111 216.957 244.955 216.933 245.509C216.921 245.783 216.91 245.996 216.902 246.136C216.899 246.187 216.893 246.285 216.884 246.373L216.884 246.374C216.882 246.394 216.874 246.469 216.86 246.561C216.849 246.623 216.809 246.809 216.776 246.933C216.634 247.318 214.607 249.007 212.367 248.677C211.53 247.946 210.96 246.746 210.919 246.527C210.908 246.439 210.895 246.303 210.892 246.254Z" fill="#E9ECE0" fill-opacity="0.33"/>
<path fill-rule="evenodd" clip-rule="evenodd" d="M35.1348 468.307C35.1436 469.649 48.4311 451.489 62.0081 415.254Z" fill="#E9ECE0" fill-opacity="0.33"/>
<path fill-rule="evenodd" clip-rule="evenodd" d="M32.5369 469.851C32.165 469.203 32.1305 468.595 32.1287 468.327L38.1378 468.288C38.1363 468.063 38.1085 467.487 37.7498 466.862C37.3051 466.086 36.5252 465.542 35.6219 465.406C34.8927 465.296 34.3349 465.488 34.1191 465.573C33.8643 465.673 33.6873 465.786 33.6087 465.839C33.4904 465.919 33.4142 465.987 33.3896 466.01C33.404 465.995 33.4367 465.961 33.4894 465.902C33.7657 465.592 34.2611 464.961 34.9669 463.955C36.3565 461.974 38.3904 458.784 40.8647 454.397C45.8079 445.632 52.4585 432.174 59.1929 414.201L64.8201 416.309C57.9775 434.571 51.1958 448.311 46.0989 457.349C43.5531 461.863 41.4149 465.227 39.8864 467.406C39.1331 468.479 38.4829 469.33 37.9778 469.898C37.7749 470.126 37.409 470.525 36.966 470.823C36.8368 470.91 36.6153 471.048 36.3223 471.164C36.0681 471.264 35.4782 471.462 34.7233 471.347C33.7942 471.207 32.9948 470.65 32.5369 469.851ZM33.3809 466.018C33.3809 466.018 33.3838 466.015 33.3896 466.01C33.3837 466.015 33.3809 466.018 33.3809 466.018Z" fill="#E9ECE0" fill-opacity="0.33"/>
</svg>
