<svg width="104" height="131" viewBox="0 0 104 131" fill="none" xmlns="http://www.w3.org/2000/svg">
<path fill-rule="evenodd" clip-rule="evenodd" d="M82.096 105.059C-4.45623 100.825 -51.3746 50.684 -78 1.28286L-76.0892 0.00144256C-49.7558 48.8608 -3.44718 98.3851 82.1936 102.574L82.096 105.059Z" fill="#99A18E" fill-opacity="0.12"/>
<path fill-rule="evenodd" clip-rule="evenodd" d="M46.0721 99.0113C45.574 99.0113 56.1393 116.622 68.6188 121.711Z" fill="#99A18E" fill-opacity="0.12"/>
<path fill-rule="evenodd" clip-rule="evenodd" d="M45.3924 98.0208C45.6266 97.8242 45.8796 97.7678 46.0721 97.7678V100.255C46.2568 100.255 46.5034 100.201 46.7325 100.008C46.9582 99.819 47.0687 99.5783 47.1193 99.4005C47.202 99.11 47.1601 98.8721 47.1528 98.8306L47.1523 98.8275C47.1407 98.7599 47.1256 98.7105 47.1184 98.6894C47.1191 98.6913 47.12 98.6934 47.121 98.6958C47.1469 98.7595 47.2144 98.9022 47.3408 99.136C47.5858 99.5895 47.9881 100.268 48.5351 101.117C49.6264 102.81 51.2628 105.132 53.3008 107.613C57.4011 112.605 63.0152 118.102 69.0015 120.543L68.236 122.879C61.7429 120.231 55.8346 114.379 51.6569 109.293C49.5559 106.735 47.8644 104.336 46.7249 102.568C46.1564 101.687 45.7175 100.949 45.4313 100.42C45.2921 100.162 45.1715 99.9217 45.0913 99.7249C45.0589 99.6455 44.9949 99.4833 44.9628 99.2965L44.9625 99.2951C44.951 99.2284 44.905 98.9614 44.9944 98.6477C45.0474 98.4614 45.1617 98.2143 45.3924 98.0208ZM47.1142 98.678C47.1143 98.6781 47.1159 98.682 47.1184 98.6894C47.1153 98.6816 47.1141 98.6779 47.1142 98.678Z" fill="#99A18E" fill-opacity="0.12"/>
<path fill-rule="evenodd" clip-rule="evenodd" d="M67.6643 121.299C67.6312 122.19 68.5193 131.78 81.1935 129.937Z" fill="#99A18E" fill-opacity="0.12"/>
<path fill-rule="evenodd" clip-rule="evenodd" d="M67.2721 123.529C66.976 122.463 66.9093 121.601 66.9218 121.264L68.4068 121.333C68.4027 121.442 68.4346 122.112 68.6917 123.038C68.9445 123.948 69.4038 125.062 70.2208 126.094C71.8211 128.118 74.9414 130.01 81.0973 129.115L81.2894 130.759C74.7712 131.706 71.1104 129.725 69.1064 127.191C68.1213 125.946 67.5726 124.61 67.2721 123.529Z" fill="#99A18E" fill-opacity="0.12"/>
<path fill-rule="evenodd" clip-rule="evenodd" d="M80.9707 104.757C80.4397 104.573 74.5067 103.53 73.3581 113.355Z" fill="#99A18E" fill-opacity="0.12"/>
<path fill-rule="evenodd" clip-rule="evenodd" d="M79.7113 104.433C80.3769 104.402 80.8698 104.503 81.0276 104.558L80.9147 104.964C80.8069 104.926 80.359 104.828 79.727 104.857C79.0988 104.886 78.2991 105.041 77.4816 105.497C75.8584 106.402 74.1156 108.526 73.5474 113.387L73.1695 113.332C73.7499 108.367 75.548 106.1 77.3112 105.117C78.1869 104.628 79.0418 104.464 79.7113 104.433Z" fill="#99A18E" fill-opacity="0.12"/>
<path fill-rule="evenodd" clip-rule="evenodd" d="M78.2502 103.074C78.4679 102.687 80.5902 98.5175 74.5297 95.7471Z" fill="#99A18E" fill-opacity="0.12"/>
<path fill-rule="evenodd" clip-rule="evenodd" d="M79.3822 100.194C79.6174 101.887 78.9358 103.21 78.7972 103.457L77.7032 102.692C77.7822 102.552 78.2706 101.597 78.1064 100.415C77.9521 99.3053 77.1808 97.7376 74.2849 96.4138L74.7745 95.0813C77.9391 96.5279 79.1369 98.43 79.3822 100.194Z" fill="#99A18E" fill-opacity="0.12"/>
<path fill-rule="evenodd" clip-rule="evenodd" d="M67.6644 121.299C67.6313 122.191 69.6596 122.568 81.1935 129.938Z" fill="#99A18E" fill-opacity="0.12"/>
<path fill-rule="evenodd" clip-rule="evenodd" d="M67.7261 122.675C67.3443 122.387 66.8959 121.965 66.9219 121.264L68.4069 121.333C68.4112 121.216 68.37 121.144 68.3578 121.126C68.3705 121.142 68.4221 121.198 68.5587 121.301C68.8802 121.544 69.4447 121.88 70.4339 122.453C70.564 122.528 70.7006 122.607 70.8439 122.69C72.846 123.848 76.1685 125.771 81.5628 129.218L80.8241 130.656C75.4564 127.226 72.1548 125.316 70.1589 124.161C70.0155 124.078 69.8789 123.999 69.7487 123.924C68.7932 123.37 68.136 122.984 67.7261 122.675ZM68.3544 121.122C68.3545 121.122 68.3558 121.123 68.3578 121.126C68.3553 121.123 68.3543 121.122 68.3544 121.122Z" fill="#99A18E" fill-opacity="0.12"/>
<path fill-rule="evenodd" clip-rule="evenodd" d="M80.9707 104.757C80.4397 104.573 79.8513 106.026 73.3581 113.355Z" fill="#99A18E" fill-opacity="0.12"/>
<path fill-rule="evenodd" clip-rule="evenodd" d="M80.3455 104.835C80.5806 104.607 80.7897 104.475 81.0276 104.557L80.9147 104.963C80.887 104.953 80.8234 104.934 80.5959 105.155C80.3749 105.37 80.0574 105.753 79.5415 106.385C79.4729 106.469 79.401 106.557 79.3255 106.65C78.2722 107.942 76.5261 110.085 73.494 113.508L73.2229 113.209C76.2495 109.793 77.9916 107.655 79.0436 106.364C79.1191 106.271 79.1911 106.183 79.2597 106.099C79.769 105.475 80.1039 105.07 80.3455 104.835Z" fill="#99A18E" fill-opacity="0.12"/>
<path fill-rule="evenodd" clip-rule="evenodd" d="M78.2504 103.074C78.468 102.687 77.6512 101.944 74.1954 95.3964Z" fill="#99A18E" fill-opacity="0.12"/>
<path fill-rule="evenodd" clip-rule="evenodd" d="M78.7736 102.314C78.881 102.558 79.0495 103.008 78.7974 103.457L77.7033 102.693C77.615 102.85 77.6372 102.991 77.6457 103.027C77.6418 103.015 77.6329 102.99 77.6154 102.951C77.5359 102.771 77.3714 102.478 77.058 101.936C77.0173 101.866 76.9745 101.792 76.9295 101.715C76.3015 100.631 75.258 98.83 73.639 95.7623L74.7516 95.0317C76.3571 98.0738 77.3894 99.8553 78.0142 100.934C78.0591 101.011 78.1019 101.085 78.1427 101.156C78.4383 101.666 78.6531 102.041 78.7736 102.314ZM77.6482 103.036C77.648 103.036 77.647 103.032 77.6457 103.027C77.6477 103.033 77.6484 103.036 77.6482 103.036Z" fill="#99A18E" fill-opacity="0.12"/>
<path fill-rule="evenodd" clip-rule="evenodd" d="M67.6644 121.299C67.6312 122.191 77.4856 116.295 81.1935 129.938Z" fill="#99A18E" fill-opacity="0.12"/>
<path fill-rule="evenodd" clip-rule="evenodd" d="M67.234 122.016C67.0107 121.823 66.9118 121.535 66.9219 121.262L68.4069 121.331C68.415 121.114 68.3333 120.869 68.1456 120.707C68.0072 120.587 67.8758 120.57 67.8556 120.567L67.8549 120.567C67.8421 120.566 67.8347 120.565 67.8347 120.565C67.8347 120.564 67.8711 120.563 67.9658 120.546C68.1128 120.52 68.2839 120.479 68.5005 120.428C68.6692 120.388 68.8656 120.342 69.0997 120.291C70.1025 120.071 71.5326 119.826 73.1038 120.01C74.6851 120.195 76.414 120.817 77.994 122.326C79.5705 123.831 80.9469 126.171 81.9047 129.695L80.4824 130.176C79.5862 126.878 78.3403 124.839 77.0274 123.585C75.7179 122.335 74.29 121.816 72.9484 121.659C71.5967 121.5 70.3377 121.709 69.3862 121.918C69.2113 121.956 69.0344 121.997 68.8666 122.037C68.6101 122.097 68.3752 122.152 68.2025 122.183C68.0663 122.207 67.8691 122.238 67.6854 122.214C67.5967 122.203 67.4098 122.168 67.234 122.016Z" fill="#99A18E" fill-opacity="0.12"/>
<path fill-rule="evenodd" clip-rule="evenodd" d="M80.9707 104.757C80.4397 104.573 82.2347 113.008 73.3581 113.355Z" fill="#99A18E" fill-opacity="0.12"/>
<path fill-rule="evenodd" clip-rule="evenodd" d="M80.8119 104.594C80.8774 104.538 80.9568 104.528 81.0272 104.553L80.9143 104.959C80.9515 104.971 81.0022 104.967 81.0429 104.932C81.066 104.912 81.0739 104.893 81.0739 104.893C81.0738 104.892 81.0734 104.893 81.0727 104.896C81.0651 104.917 81.0544 104.972 81.0448 105.079C81.034 105.2 81.0271 105.35 81.0187 105.532C81.0125 105.666 81.0055 105.817 80.9956 105.986C80.9501 106.764 80.8457 107.837 80.4721 108.931C80.0974 110.028 79.4517 111.147 78.3258 112.013C77.2009 112.878 75.6111 113.478 73.3647 113.566L73.3514 113.142C75.5433 113.056 77.0579 112.472 78.1096 111.663C79.1603 110.855 79.7634 109.812 80.116 108.78C80.4695 107.745 80.5707 106.722 80.6154 105.959C80.6243 105.807 80.6311 105.661 80.6373 105.528C80.6463 105.334 80.6542 105.165 80.6657 105.037C80.6752 104.93 80.6891 104.822 80.7179 104.74C80.732 104.7 80.7586 104.639 80.8119 104.594Z" fill="#99A18E" fill-opacity="0.12"/>
<path fill-rule="evenodd" clip-rule="evenodd" d="M78.2502 103.074C78.4679 102.687 72.7393 101.952 74.1952 94.8295Z" fill="#99A18E" fill-opacity="0.12"/>
<path fill-rule="evenodd" clip-rule="evenodd" d="M78.8572 102.781C78.9329 103.004 78.9119 103.252 78.7973 103.457L77.7033 102.692C77.6022 102.872 77.5832 103.095 77.6501 103.292C77.7014 103.443 77.7849 103.524 77.8041 103.542C77.8261 103.563 77.842 103.574 77.842 103.574C77.842 103.574 77.83 103.566 77.7999 103.55C77.7311 103.513 77.651 103.476 77.5441 103.426C77.4627 103.388 77.3657 103.342 77.2463 103.284C76.7426 103.04 76.0284 102.658 75.3483 102.034C74.663 101.405 74.009 100.527 73.6342 99.3005C73.2597 98.0747 73.1805 96.5545 73.5659 94.6694L74.8246 94.9895C74.482 96.6659 74.5729 97.9086 74.8562 98.8359C75.1393 99.7623 75.6308 100.428 76.1685 100.922C76.7114 101.42 77.2975 101.739 77.7612 101.964C77.8368 102.001 77.9173 102.038 77.9961 102.075C78.1336 102.14 78.2658 102.202 78.3578 102.251C78.4257 102.288 78.5447 102.354 78.6452 102.45C78.694 102.496 78.7971 102.605 78.8572 102.781Z" fill="#99A18E" fill-opacity="0.12"/>
<path fill-rule="evenodd" clip-rule="evenodd" d="M82.1448 102.201C82.8595 103.114 96.483 112.72 102.716 96.6054Z" fill="#99A18E" fill-opacity="0.12"/>
<path fill-rule="evenodd" clip-rule="evenodd" d="M82.1034 102.948C81.9612 102.83 81.8247 102.707 81.7386 102.597L82.5508 101.805C82.55 101.804 82.55 101.804 82.5511 101.806C82.5545 101.809 82.5683 101.825 82.598 101.853C82.6338 101.887 82.6831 101.93 82.7468 101.983C82.874 102.089 83.0482 102.222 83.2657 102.375C83.7004 102.681 84.2964 103.056 85.0143 103.434C86.4531 104.192 88.358 104.949 90.4174 105.191C92.4732 105.432 94.6647 105.158 96.7095 103.882C98.7513 102.607 100.7 100.3 102.221 96.3674L103.211 96.8439C101.616 100.969 99.524 103.503 97.236 104.932C94.9509 106.358 92.5232 106.647 90.3047 106.387C88.0898 106.127 86.0652 105.318 84.5538 104.522C83.7966 104.123 83.1623 103.724 82.6907 103.392C82.4552 103.227 82.2573 103.076 82.1034 102.948Z" fill="#99A18E" fill-opacity="0.12"/>
<path fill-rule="evenodd" clip-rule="evenodd" d="M81.2053 103.004C81.0312 103.771 82.8993 116.677 96.3473 117.801Z" fill="#99A18E" fill-opacity="0.12"/>
<path fill-rule="evenodd" clip-rule="evenodd" d="M80.5163 103.331C80.5092 103.198 80.5024 102.994 80.5424 102.818L81.8685 103.192C81.8769 103.155 81.8787 103.132 81.879 103.132C81.8794 103.132 81.8777 103.163 81.8818 103.239C81.8875 103.346 81.9022 103.499 81.9301 103.696C81.9856 104.088 82.0896 104.626 82.2617 105.262C82.6059 106.536 83.2157 108.183 84.2325 109.839C86.2516 113.127 89.899 116.498 96.3985 117.041L96.2964 118.562C89.348 117.982 85.3373 114.338 83.1039 110.701C81.9944 108.894 81.3293 107.099 80.952 105.703C80.7632 105.004 80.6448 104.399 80.5789 103.934C80.5461 103.702 80.5254 103.498 80.5163 103.331Z" fill="#99A18E" fill-opacity="0.12"/>
<path fill-rule="evenodd" clip-rule="evenodd" d="M78.0691 103.454C78.765 103.608 90.1669 101.242 90.4778 86.2031Z" fill="#99A18E" fill-opacity="0.12"/>
<path fill-rule="evenodd" clip-rule="evenodd" d="M78.341 103.712C78.2199 103.724 78.1036 103.729 78.023 103.711L78.1146 103.197C78.1143 103.197 78.1144 103.197 78.115 103.197C78.1179 103.197 78.1322 103.199 78.1627 103.198C78.1963 103.198 78.2413 103.196 78.2978 103.19C78.4107 103.178 78.5615 103.155 78.7457 103.116C79.1137 103.039 79.607 102.904 80.1833 102.69C81.336 102.262 82.8131 101.522 84.278 100.315C87.1998 97.9077 90.089 93.6299 90.2427 86.1966L90.7125 86.2087C90.5552 93.8147 87.588 98.2396 84.5571 100.737C83.0456 101.982 81.5223 102.745 80.3317 103.187C79.7363 103.408 79.2223 103.55 78.8323 103.631C78.6375 103.672 78.4718 103.698 78.341 103.712Z" fill="#99A18E" fill-opacity="0.12"/>
<path fill-rule="evenodd" clip-rule="evenodd" d="M48.4377 81.5742C48.6765 80.3917 56.5568 64.7091 68.916 75.5697Z" fill="#99A18E" fill-opacity="0.12"/>
<path fill-rule="evenodd" clip-rule="evenodd" d="M49.14 81.7464C49.1373 81.7546 49.1369 81.7559 49.1378 81.7512L47.7376 81.3994C47.7709 81.2344 47.8455 81.0361 47.9206 80.8561C48.0037 80.6565 48.1155 80.4142 48.2537 80.14C48.5304 79.591 48.9219 78.8966 49.4217 78.1372C50.4189 76.6222 51.8677 74.8177 53.7259 73.3966C55.5882 71.9725 57.882 70.919 60.5458 70.9604C63.214 71.0019 66.1723 72.1406 69.3601 74.9419L68.4719 76.1995C65.4801 73.5706 62.8187 72.5969 60.5258 72.5613C58.2286 72.5256 56.2201 73.4303 54.5375 74.7171C52.8509 76.0069 51.5125 77.6659 50.5787 79.0847C50.113 79.7921 49.7531 80.4321 49.5048 80.9246C49.3806 81.1712 49.2865 81.3764 49.222 81.5312C49.1694 81.6574 49.147 81.7252 49.14 81.7464Z" fill="#99A18E" fill-opacity="0.12"/>
<path fill-rule="evenodd" clip-rule="evenodd" d="M82.1448 102.2C82.8595 103.113 85.1741 101.37 102.716 96.6047Z" fill="#99A18E" fill-opacity="0.12"/>
<path fill-rule="evenodd" clip-rule="evenodd" d="M83.282 102.975C82.6765 103.087 82.122 103.086 81.7386 102.596L82.5508 101.805L82.5546 101.809L82.5556 101.81C82.5555 101.81 82.5555 101.81 82.5557 101.81M83.282 102.975C83.9118 102.858 84.852 102.564 86.2692 102.11ZM86.2692 102.11C86.4607 102.048 86.6616 101.984 86.8725 101.916ZM86.8725 101.916C89.8092 100.972 94.6706 99.4093 102.844 97.1893ZM102.844 97.1893L102.589 96.0206ZM102.589 96.0206C94.3939 98.2465 89.516 99.8146 86.5745 100.76ZM86.5745 100.76C86.3636 100.828 86.1627 100.893 85.9712 100.954ZM85.9712 100.954C84.5276 101.417 83.6588 101.686 83.1055 101.788ZM83.1055 101.788C82.8291 101.839 82.6805 101.838 82.6018 101.824ZM82.6018 101.824C82.5676 101.818 82.5559 101.81 82.5558 101.81ZM82.5558 101.81C82.5558 101.81 82.5557 101.81 82.5557 101.81Z" fill="#99A18E" fill-opacity="0.12"/>
<path fill-rule="evenodd" clip-rule="evenodd" d="M81.2055 103.004C81.0315 103.771 83.3895 105.169 96.0088 117.719Z" fill="#99A18E" fill-opacity="0.12"/>
<path fill-rule="evenodd" clip-rule="evenodd" d="M80.686 103.732C80.5593 103.494 80.461 103.177 80.5426 102.817L81.8687 103.192C81.9019 103.045 81.8585 102.947 81.8589 102.947C81.8589 102.947 81.8599 102.949 81.8623 102.953C81.8887 103.003 81.9646 103.114 82.1519 103.321C82.5212 103.729 83.168 104.344 84.2502 105.36C84.3936 105.495 84.5443 105.636 84.7023 105.784C86.9093 107.855 90.5691 111.288 96.464 117.15L95.5537 118.289C89.6734 112.441 86.0252 109.019 83.8215 106.952C83.6635 106.804 83.5128 106.662 83.3693 106.527C82.3063 105.529 81.6076 104.867 81.1893 104.405C80.9829 104.177 80.8045 103.955 80.686 103.732Z" fill="#99A18E" fill-opacity="0.12"/>
<path fill-rule="evenodd" clip-rule="evenodd" d="M78.0691 103.455C78.765 103.609 79.8947 100.91 90.4778 86.2038Z" fill="#99A18E" fill-opacity="0.12"/>
<path fill-rule="evenodd" clip-rule="evenodd" d="M78.4979 103.579C78.3494 103.689 78.1922 103.749 78.023 103.711L78.1146 103.197L78.115 103.197C78.1209 103.199 78.1519 103.206 78.2375 103.142C78.3299 103.074 78.4563 102.944 78.6378 102.718C78.999 102.266 79.5294 101.494 80.3782 100.243C80.4914 100.077 80.61 99.9016 80.7346 99.7179C82.4732 97.1536 85.3546 92.9036 90.2944 86.0393L90.6609 86.3674C85.7253 93.2259 82.8469 97.4713 81.1093 100.034C80.9847 100.218 80.866 100.393 80.7529 100.56C79.9093 101.803 79.3653 102.596 78.9883 103.067C78.8006 103.301 78.6419 103.472 78.4979 103.579Z" fill="#99A18E" fill-opacity="0.12"/>
<path fill-rule="evenodd" clip-rule="evenodd" d="M48.4377 81.5742C48.6765 80.3917 51.4561 80.6957 68.916 75.5697Z" fill="#99A18E" fill-opacity="0.12"/>
<path fill-rule="evenodd" clip-rule="evenodd" d="M49.1101 81.8199C49.119 81.8072 49.1309 81.7846 49.1377 81.7508L47.7375 81.399C47.8882 80.6526 48.4643 80.3265 49.049 80.1018C49.6647 79.8652 50.6291 79.6215 52.0648 79.2696C52.2593 79.2219 52.4634 79.1721 52.6776 79.1197C55.6622 78.3905 60.6015 77.1836 68.7332 74.7962L69.0985 76.3445C60.9382 78.7403 55.9766 79.9526 52.9855 80.6835C52.7713 80.7358 52.5673 80.7857 52.3728 80.8333C50.9013 81.194 50.0347 81.4164 49.5165 81.6155C49.2442 81.7202 49.1411 81.7925 49.1101 81.8199ZM49.0991 81.832C49.0983 81.8319 49.1012 81.8278 49.1101 81.8199C49.1043 81.8282 49.0999 81.8321 49.0991 81.832Z" fill="#99A18E" fill-opacity="0.12"/>
<path fill-rule="evenodd" clip-rule="evenodd" d="M82.1448 102.201C96.5984 104.326 94.155 102.234 102.716 96.606Z" fill="#99A18E" fill-opacity="0.12"/>
<path fill-rule="evenodd" clip-rule="evenodd" d="M94.8318 102.869C92.4181 103.893 89.2776 103.853 82.0744 102.794L82.2153 101.601C89.4657 102.667 92.3304 102.643 94.4486 101.745C95.5087 101.296 96.4059 100.617 97.6099 99.6598C97.7132 99.5777 97.8187 99.4936 97.9264 99.4078C99.067 98.4986 100.466 97.3837 102.442 96.0842L102.99 97.1204C101.055 98.3922 99.691 99.4796 98.552 100.387C98.4446 100.473 98.3393 100.557 98.2356 100.639C97.0383 101.591 96.0378 102.358 94.8318 102.869Z" fill="#99A18E" fill-opacity="0.12"/>
<path fill-rule="evenodd" clip-rule="evenodd" d="M48.4377 81.5742C60.2407 72.0294 58.9855 75.1675 68.916 75.5697Z" fill="#99A18E" fill-opacity="0.12"/>
<path fill-rule="evenodd" clip-rule="evenodd" d="M59.474 75.6356C57.2797 75.9628 54.786 77.4295 48.8588 82.2227L48.0164 80.9264C53.8923 76.1748 56.6725 74.4381 59.2838 74.0487C60.5883 73.8542 61.8167 74.001 63.2745 74.2018C63.4008 74.2192 63.5293 74.2371 63.6601 74.2554C65.0489 74.4487 66.7058 74.6795 68.9419 74.77L68.8898 76.37C66.5887 76.2768 64.8759 76.0382 63.4844 75.8443C63.353 75.826 63.2245 75.8081 63.0985 75.7908C61.6299 75.5884 60.5725 75.4718 59.474 75.6356Z" fill="#99A18E" fill-opacity="0.12"/>
<path fill-rule="evenodd" clip-rule="evenodd" d="M82.1448 102.203C90.0332 101.368 89.2452 92.32 102.716 96.6077Z" fill="#99A18E" fill-opacity="0.12"/>
<path fill-rule="evenodd" clip-rule="evenodd" d="M89.0336 99.2992C87.2634 100.826 85.3615 102.466 82.1957 102.801L82.0938 101.603C84.9216 101.304 86.5117 99.9369 88.2335 98.4567C88.8042 97.9661 89.3894 97.463 90.0389 96.9822C91.3267 96.029 92.8168 95.2296 94.8643 94.9575C96.9008 94.6868 99.4523 94.9425 102.864 96.0284L102.568 97.185C99.2444 96.1271 96.8428 95.9058 94.9919 96.1519C93.1519 96.3964 91.8202 97.1072 90.6351 97.9845C90.0924 98.3861 89.569 98.8375 89.0336 99.2992Z" fill="#99A18E" fill-opacity="0.12"/>
<path fill-rule="evenodd" clip-rule="evenodd" d="M48.4377 81.5742C55.7312 78.1194 58.8999 86.4943 68.916 75.5697Z" fill="#99A18E" fill-opacity="0.12"/>
<path fill-rule="evenodd" clip-rule="evenodd" d="M55.3328 81.8286C53.2004 81.4442 51.2816 81.0983 48.7182 82.3125L48.1572 80.8389C51.1366 79.4275 53.5754 79.8726 55.7908 80.2769C56.4509 80.3974 57.0912 80.5142 57.7201 80.5773C59.1164 80.7172 60.5615 80.6361 62.2518 79.8882C63.9557 79.1343 65.9537 77.6825 68.4143 74.9988L69.4177 76.1435C66.8702 78.9221 64.7161 80.5202 62.781 81.3764C60.8322 82.2387 59.1513 82.3282 57.5917 82.1718C56.7927 82.0918 56.0507 81.958 55.3328 81.8286Z" fill="#99A18E" fill-opacity="0.12"/>
<path fill-rule="evenodd" clip-rule="evenodd" d="M82.1448 102.201C82.8595 103.114 91.5162 84.9828 102.716 96.6054Z" fill="#99A18E" fill-opacity="0.12"/>
<path fill-rule="evenodd" clip-rule="evenodd" d="M82.3258 102.825C82.1398 102.861 81.9074 102.812 81.7388 102.597L82.551 101.806C82.4271 101.647 82.2549 101.619 82.1444 101.64C82.1008 101.648 82.072 101.662 82.0612 101.669C82.0629 101.667 82.0652 101.666 82.0679 101.664C82.1206 101.624 82.2211 101.524 82.383 101.333C82.5958 101.082 82.856 100.745 83.1722 100.336C83.3275 100.135 83.4962 99.9167 83.6795 99.6824C84.7723 98.2853 86.3038 96.4255 88.1814 94.9013C90.0586 93.3775 92.3191 92.1583 94.8673 92.104C97.4309 92.0494 100.202 93.1754 103.083 96.1656L102.349 97.0463C99.6306 94.2252 97.1197 93.2591 94.8878 93.3066C92.6406 93.3545 90.5923 94.4318 88.8159 95.8738C87.0401 97.3154 85.5734 99.0907 84.492 100.473C84.3243 100.688 84.1637 100.895 84.0119 101.092C83.6838 101.516 83.3966 101.888 83.1664 102.16C83.0014 102.354 82.8317 102.539 82.6735 102.659C82.5985 102.716 82.4768 102.797 82.3258 102.825ZM82.0564 101.672C82.0564 101.672 82.0581 101.67 82.0612 101.669C82.058 101.671 82.0564 101.672 82.0564 101.672Z" fill="#99A18E" fill-opacity="0.12"/>
<path fill-rule="evenodd" clip-rule="evenodd" d="M81.2056 103.004C81.0315 103.772 96.9629 107.182 95.9037 118.586Z" fill="#99A18E" fill-opacity="0.12"/>
<path fill-rule="evenodd" clip-rule="evenodd" d="M80.7401 103.61C80.6677 103.525 80.448 103.234 80.5426 102.817L81.8687 103.191C81.9524 102.822 81.7532 102.584 81.7309 102.558C81.7097 102.533 81.6927 102.518 81.686 102.513C81.6887 102.515 81.6931 102.518 81.6997 102.522C81.7606 102.562 81.8827 102.626 82.0881 102.719C82.362 102.843 82.7163 102.989 83.1464 103.167C83.3528 103.251 83.5765 103.344 83.8173 103.444C85.2779 104.053 87.2587 104.924 89.2189 106.139C93.0947 108.542 97.1592 112.473 96.5841 118.664L95.2235 118.507C95.7076 113.295 92.3359 109.818 88.5543 107.473C86.6859 106.314 84.7826 105.476 83.3382 104.873C83.1165 104.781 82.903 104.693 82.7011 104.61C82.2564 104.427 81.868 104.267 81.5732 104.133C81.3618 104.037 81.1604 103.938 81.0076 103.838C80.9359 103.791 80.8311 103.717 80.7401 103.61ZM81.6831 102.51C81.6831 102.51 81.6842 102.511 81.686 102.513C81.684 102.511 81.683 102.51 81.6831 102.51Z" fill="#99A18E" fill-opacity="0.12"/>
<path fill-rule="evenodd" clip-rule="evenodd" d="M78.0691 103.456C78.765 103.61 80.2132 85.615 90.4778 86.205Z" fill="#99A18E" fill-opacity="0.12"/>
<path fill-rule="evenodd" clip-rule="evenodd" d="M78.3124 103.592C78.2712 103.643 78.1703 103.745 78.0231 103.712L78.1147 103.198C78.0665 103.188 78.0245 103.2 77.9967 103.215C77.9728 103.229 77.9614 103.243 77.9608 103.244L77.9608 103.244C77.9607 103.244 77.9607 103.244 77.9607 103.244C77.9606 103.244 77.9642 103.239 77.9708 103.227C77.9779 103.214 77.9867 103.195 77.9971 103.17C78.0406 103.066 78.0927 102.897 78.1556 102.66C78.24 102.342 78.3365 101.929 78.4514 101.437C78.5067 101.201 78.5663 100.946 78.6308 100.675C79.0256 99.0154 79.5963 96.7831 80.4698 94.5612C82.21 90.135 85.2003 85.6385 90.4898 85.9425L90.4656 86.466C85.4904 86.18 82.6243 90.3862 80.9002 94.7717C80.0416 96.9556 79.4782 99.1564 79.085 100.809C79.0223 101.073 78.9637 101.323 78.9088 101.558C78.7925 102.055 78.6928 102.482 78.6062 102.809C78.5428 103.048 78.4824 103.249 78.4232 103.391C78.3944 103.46 78.3586 103.534 78.3124 103.592Z" fill="#99A18E" fill-opacity="0.12"/>
<path fill-rule="evenodd" clip-rule="evenodd" d="M48.4377 81.5729C48.6765 80.3903 64.0277 91.7372 68.916 75.5683Z" fill="#99A18E" fill-opacity="0.12"/>
<path fill-rule="evenodd" clip-rule="evenodd" d="M48.7342 82.2597C48.8876 82.2017 49.0802 82.0381 49.1378 81.753L47.7376 81.4012C47.8101 81.0422 48.0471 80.8292 48.2729 80.7437C48.4541 80.6751 48.6259 80.6848 48.725 80.6959C48.9362 80.7196 49.1804 80.7983 49.4094 80.8821C49.7318 81.0001 50.1494 81.1772 50.6218 81.3774C50.8382 81.4691 51.0661 81.5657 51.3016 81.6638C52.8399 82.3041 54.8721 83.0798 57.0283 83.4013C59.1854 83.7229 61.4055 83.5805 63.358 82.4546C65.2921 81.3393 67.0612 79.2023 68.2359 75.3167L69.5959 75.8283C68.3265 80.0272 66.3436 82.5352 64.0171 83.8768C61.7089 85.2079 59.1597 85.3343 56.8382 84.9882C54.5157 84.6419 52.3598 83.8131 50.7998 83.1637C50.5348 83.0534 50.2912 82.9501 50.0682 82.8556C49.6184 82.6649 49.2522 82.5096 48.9619 82.4033C48.7412 82.3226 48.6264 82.2943 48.583 82.2891C48.6026 82.2897 48.6596 82.288 48.7342 82.2597ZM48.5816 82.2889C48.5821 82.289 48.5825 82.289 48.583 82.2891Z" fill="#99A18E" fill-opacity="0.12"/>
<path fill-rule="evenodd" clip-rule="evenodd" d="M7.62756 102.951C7.33008 104.402 6.1675 120.425 27.4499 121.711Z" fill="#99A18E" fill-opacity="0.12"/>
<path fill-rule="evenodd" clip-rule="evenodd" d="M8.81946 112.814C6.36963 108.248 6.73463 103.654 6.91547 102.772L8.33984 103.136C8.22321 103.705 7.85818 107.848 10.0733 111.977C12.2517 116.038 17.0276 120.268 27.4895 120.9L27.4105 122.527C16.59 121.874 11.306 117.449 8.81946 112.814Z" fill="#99A18E" fill-opacity="0.12"/>
<path fill-rule="evenodd" clip-rule="evenodd" d="M7.62759 102.951C7.33012 104.402 10.5523 105.709 27.4499 121.711Z" fill="#99A18E" fill-opacity="0.12"/>
<path fill-rule="evenodd" clip-rule="evenodd" d="M7.71038 104.825C7.17254 104.233 6.74718 103.591 6.91559 102.77L8.33988 103.133C8.34003 103.131 8.34068 103.124 8.33961 103.115C8.33935 103.113 8.33911 103.112 8.33908 103.112C8.33897 103.111 8.34136 103.124 8.35395 103.152C8.39288 103.238 8.49312 103.397 8.73621 103.664C9.22311 104.199 10.0853 104.965 11.5403 106.232C11.733 106.4 11.9354 106.576 12.1477 106.76C15.1119 109.338 20.0279 113.613 27.9229 121.09L26.9772 122.332C19.1052 114.877 14.2075 110.618 11.2487 108.045C11.0363 107.861 10.834 107.685 10.6412 107.517C9.21567 106.275 8.27203 105.442 7.71038 104.825Z" fill="#99A18E" fill-opacity="0.12"/>
<path fill-rule="evenodd" clip-rule="evenodd" d="M11.2226 106.992C17.537 106.866 19.6621 106.429 20.9151 106.429Z" fill="#99A18E" fill-opacity="0.12"/>
<path fill-rule="evenodd" clip-rule="evenodd" d="M18.022 107.477C16.5315 107.603 14.4076 107.745 11.2357 107.809L11.2094 106.179C14.3518 106.116 16.4477 105.976 17.9115 105.852C18.3707 105.813 18.7764 105.775 19.1374 105.741C19.9007 105.669 20.4649 105.616 20.9149 105.616L20.9151 107.245C20.5278 107.245 20.0592 107.29 19.3517 107.357C18.9814 107.392 18.5458 107.433 18.022 107.477Z" fill="#99A18E" fill-opacity="0.12"/>
<path fill-rule="evenodd" clip-rule="evenodd" d="M15.7101 110.645C21.1088 110.518 22.9257 110.081 23.997 110.081Z" fill="#99A18E" fill-opacity="0.12"/>
<path fill-rule="evenodd" clip-rule="evenodd" d="M21.5404 111.125C20.262 111.251 18.4417 111.393 15.7253 111.457L15.6947 109.837C18.3769 109.774 20.1645 109.634 21.412 109.511C21.7954 109.473 22.1376 109.435 22.4445 109.401C23.1048 109.328 23.6022 109.273 23.9968 109.273L23.997 110.894C23.6753 110.894 23.2889 110.937 22.6934 111.003C22.3758 111.038 21.9988 111.079 21.5404 111.125Z" fill="#99A18E" fill-opacity="0.12"/>
<path fill-rule="evenodd" clip-rule="evenodd" d="M20.0533 114.863C23.9576 114.737 25.2716 114.3 26.0463 114.3Z" fill="#99A18E" fill-opacity="0.12"/>
<path fill-rule="evenodd" clip-rule="evenodd" d="M24.3124 115.345C23.3777 115.473 22.0505 115.616 20.0745 115.68L20.0319 114.046C21.9601 113.983 23.242 113.845 24.134 113.723C24.433 113.682 24.6819 113.644 24.905 113.609C25.0215 113.592 25.1308 113.575 25.2366 113.559C25.5293 113.517 25.7994 113.482 26.046 113.482L26.0463 115.117C25.9056 115.117 25.7209 115.137 25.4273 115.18C25.3359 115.193 25.2335 115.209 25.121 115.226C24.8916 115.261 24.62 115.303 24.3124 115.345Z" fill="#99A18E" fill-opacity="0.12"/>
<path fill-rule="evenodd" clip-rule="evenodd" d="M7.62758 102.951C7.3301 104.402 25.0959 98.0834 27.4499 121.711Z" fill="#99A18E" fill-opacity="0.12"/>
<path fill-rule="evenodd" clip-rule="evenodd" d="M7.10556 103.611C6.91063 103.367 6.85777 103.054 6.91526 102.773L8.33963 103.137C8.37853 102.947 8.34236 102.71 8.19735 102.528C8.1406 102.457 8.08432 102.417 8.05122 102.397C8.01782 102.376 7.99442 102.368 7.98963 102.366C7.98298 102.364 8.00349 102.371 8.06829 102.379C8.12909 102.386 8.20984 102.391 8.31451 102.394C8.57142 102.401 8.8836 102.392 9.26728 102.382C9.55568 102.374 9.88449 102.365 10.2606 102.361C11.9468 102.341 14.2988 102.425 16.7521 103.237C19.215 104.052 21.7842 105.603 23.8861 108.508C25.9852 111.409 27.5758 115.602 28.1758 121.625L26.7236 121.805C26.1467 116.014 24.6339 112.136 22.7491 109.531C20.8671 106.93 18.5721 105.54 16.3365 104.8C14.0913 104.057 11.9105 103.972 10.2757 103.991C9.95892 103.994 9.64964 104.002 9.36227 104.01C8.93845 104.021 8.5623 104.031 8.27994 104.023C8.04946 104.017 7.78142 104 7.56072 103.924C7.45334 103.888 7.26123 103.806 7.10556 103.611Z" fill="#99A18E" fill-opacity="0.12"/>
<path fill-rule="evenodd" clip-rule="evenodd" d="M-13.8282 73.601C-14.3264 73.601 -2.5634 96.9731 8.71829 103.816Z" fill="#99A18E" fill-opacity="0.12"/>
<path fill-rule="evenodd" clip-rule="evenodd" d="M-14.6476 72.7483C-14.4111 72.4692 -14.1024 72.3549 -13.8281 72.3549V74.8418C-13.5616 74.8418 -13.2593 74.7303 -13.0275 74.4569C-12.827 74.2203 -12.7665 73.9642 -12.746 73.8391C-12.7093 73.6153 -12.7422 73.4429 -12.746 73.4227L-12.7463 73.4211C-12.7535 73.3814 -12.7604 73.3576 -12.7605 73.3572C-12.7606 73.3569 -12.7565 73.3711 -12.7449 73.4035C-12.7022 73.5235 -12.614 73.7381 -12.4705 74.0545C-12.1884 74.6762 -11.7381 75.5919 -11.1405 76.7278C-9.9471 78.9963 -8.18886 82.1003 -6.06523 85.4171C-1.78253 92.1062 3.85319 99.4472 9.25085 102.721L8.18575 104.906C2.30175 101.337 -3.58488 93.5703 -7.87955 86.8625C-10.0446 83.481 -11.8388 80.3142 -13.0634 77.9865C-13.6748 76.8244 -14.1498 75.8607 -14.4598 75.1775C-14.6122 74.8414 -14.7366 74.5473 -14.817 74.3215C-14.8524 74.2223 -14.9036 74.07 -14.9323 73.9101L-14.9326 73.9084C-14.9428 73.8516 -14.9804 73.6431 -14.9391 73.3915C-14.9168 73.2552 -14.8529 72.9906 -14.6476 72.7483Z" fill="#99A18E" fill-opacity="0.12"/>
<path fill-rule="evenodd" clip-rule="evenodd" d="M-13.8282 73.601C-14.3264 73.601 -2.5634 96.9731 8.71829 103.816Z" fill="#99A18E" fill-opacity="0.12"/>
<path fill-rule="evenodd" clip-rule="evenodd" d="M-14.6476 72.7483C-14.4111 72.4692 -14.1024 72.3549 -13.8281 72.3549V74.8418C-13.5616 74.8418 -13.2593 74.7303 -13.0275 74.4569C-12.827 74.2203 -12.7665 73.9642 -12.746 73.8391C-12.7093 73.6153 -12.7422 73.4429 -12.746 73.4227L-12.7463 73.4211C-12.7535 73.3814 -12.7604 73.3576 -12.7605 73.3572C-12.7606 73.3569 -12.7565 73.3711 -12.7449 73.4035C-12.7022 73.5235 -12.614 73.7381 -12.4705 74.0545C-12.1884 74.6762 -11.7381 75.5919 -11.1405 76.7278C-9.9471 78.9963 -8.18886 82.1003 -6.06523 85.4171C-1.78253 92.1062 3.85319 99.4472 9.25085 102.721L8.18575 104.906C2.30175 101.337 -3.58488 93.5703 -7.87955 86.8625C-10.0446 83.481 -11.8388 80.3142 -13.0634 77.9865C-13.6748 76.8244 -14.1498 75.8607 -14.4598 75.1775C-14.6122 74.8414 -14.7366 74.5473 -14.817 74.3215C-14.8524 74.2223 -14.9036 74.07 -14.9323 73.9101L-14.9326 73.9084C-14.9428 73.8516 -14.9804 73.6431 -14.9391 73.3915C-14.9168 73.2552 -14.8529 72.9906 -14.6476 72.7483Z" fill="#99A18E" fill-opacity="0.12"/>
<path fill-rule="evenodd" clip-rule="evenodd" d="M5.22473 63.4603C5.03789 63.0846 2.51772 59.3901 -2.27947 63.6914Z" fill="#99A18E" fill-opacity="0.12"/>
<path fill-rule="evenodd" clip-rule="evenodd" d="M3.38941 61.145C4.83207 61.6434 5.62572 62.8063 5.77975 63.1161L4.67 63.8028C4.67053 63.8038 4.67015 63.8032 4.6688 63.8009C4.66168 63.7889 4.62761 63.7311 4.5583 63.6385C4.48118 63.5354 4.37105 63.4033 4.22844 63.263C3.9425 62.9817 3.53684 62.6779 3.01393 62.4972C2.00979 62.1503 0.395278 62.2005 -1.88175 64.2422L-2.67683 63.1388C-0.156686 60.8792 1.88746 60.626 3.38941 61.145Z" fill="#99A18E" fill-opacity="0.12"/>
<path fill-rule="evenodd" clip-rule="evenodd" d="M3.81795 59.0703C4.09347 58.993 6.9306 57.6878 5.08901 53.0607Z" fill="#99A18E" fill-opacity="0.12"/>
<path fill-rule="evenodd" clip-rule="evenodd" d="M4.50888 58.9473C4.2174 59.1644 3.9664 59.2735 3.86932 59.3008L3.76621 58.8437C3.80688 58.8323 4.01384 58.7493 4.27425 58.5553C4.53115 58.364 4.83057 58.0715 5.06815 57.6485C5.5356 56.8161 5.79542 55.4188 4.89572 53.1582L5.2819 52.967C6.22374 55.3335 5.98579 56.9023 5.42621 57.8987C5.15028 58.39 4.80386 58.7276 4.50888 58.9473Z" fill="#99A18E" fill-opacity="0.12"/>
<path fill-rule="evenodd" clip-rule="evenodd" d="M-8.40924 43.3204C-7.87509 43.7464 -1.18814 46.68 3.37384 36.1421Z" fill="#99A18E" fill-opacity="0.12"/>
<path fill-rule="evenodd" clip-rule="evenodd" d="M-8.07791 43.9913C-8.32953 43.8873 -8.53375 43.7781 -8.64573 43.6888L-8.17236 42.9503L-8.17243 42.9502C-8.17243 42.9502 -8.17023 42.9519 -8.16526 42.9553C-8.15994 42.959 -8.15254 42.9639 -8.14281 42.97C-8.12323 42.9822 -8.09687 42.9974 -8.06343 43.0153C-7.99653 43.0509 -7.90658 43.0939 -7.79508 43.14C-7.5722 43.2321 -7.27027 43.3338 -6.90531 43.4142C-6.17522 43.5749 -5.20227 43.6482 -4.11007 43.3972C-1.9472 42.9002 0.771222 41.1096 3.00754 35.9438L3.74048 36.3386C1.41483 41.7108 -1.4912 43.7224 -3.94583 44.2865C-5.16238 44.5661 -6.24644 44.4847 -7.06294 44.3049C-7.47127 44.215 -7.81504 44.1 -8.07791 43.9913Z" fill="#99A18E" fill-opacity="0.12"/>
<path fill-rule="evenodd" clip-rule="evenodd" d="M5.22473 63.4603C5.03789 63.0846 4.11919 63.4967 -2.27947 63.6914Z" fill="#99A18E" fill-opacity="0.12"/>
<path fill-rule="evenodd" clip-rule="evenodd" d="M4.90319 62.603C5.13203 62.615 5.55537 62.6652 5.77975 63.1164L4.67001 63.8031C4.75169 63.9674 4.87519 64.014 4.90902 64.0233C4.89833 64.0215 4.87743 64.0188 4.84349 64.017C4.67661 64.0083 4.38816 64.0262 3.84556 64.0676C3.7753 64.073 3.70156 64.0786 3.62416 64.0846C2.53942 64.1682 0.736789 64.3072 -2.26197 64.3984L-2.29657 62.9833C0.676047 62.8929 2.45851 62.7554 3.53735 62.6723C3.61476 62.6663 3.68854 62.6606 3.75888 62.6552C4.26913 62.6163 4.6453 62.5894 4.90319 62.603ZM4.91784 64.0252C4.91765 64.0253 4.91452 64.0248 4.90902 64.0233C4.91528 64.0243 4.91803 64.0251 4.91784 64.0252Z" fill="#99A18E" fill-opacity="0.12"/>
<path fill-rule="evenodd" clip-rule="evenodd" d="M3.81787 59.0703C4.09338 58.993 4.00375 58.1845 5.0889 53.0607Z" fill="#99A18E" fill-opacity="0.12"/>
<path fill-rule="evenodd" clip-rule="evenodd" d="M4.18133 58.8922C4.13237 59.0649 4.05643 59.2482 3.86924 59.3008L3.76613 58.8437C3.75061 58.8481 3.74155 58.8563 3.73785 58.8606C3.74295 58.8523 3.75765 58.8236 3.7785 58.7501C3.82121 58.5995 3.8673 58.3472 3.94216 57.9151C3.95206 57.858 3.96241 57.7981 3.97327 57.7352C4.1247 56.8582 4.3759 55.4033 4.88311 53.0084L5.29431 53.1167C4.7891 55.5023 4.53918 56.9497 4.38812 57.8246C4.37726 57.8875 4.3669 57.9475 4.357 58.0046C4.28419 58.4248 4.23321 58.7094 4.18133 58.8922ZM3.73588 58.8633C3.73586 58.8632 3.7365 58.8622 3.73785 58.8606C3.73657 58.8627 3.73589 58.8634 3.73588 58.8633Z" fill="#99A18E" fill-opacity="0.12"/>
<path fill-rule="evenodd" clip-rule="evenodd" d="M-8.40919 43.3189C-7.87504 43.7449 -6.73136 42.3605 2.99048 36.8366Z" fill="#99A18E" fill-opacity="0.12"/>
<path fill-rule="evenodd" clip-rule="evenodd" d="M-7.61252 43.6841C-7.95655 43.8449 -8.32122 43.9499 -8.64586 43.691L-8.17249 42.9525C-8.18181 42.945 -8.19017 42.9412 -8.19628 42.9394C-8.17121 42.9386 -8.09605 42.9257 -7.92702 42.8467C-7.61974 42.7031 -7.1472 42.4135 -6.35417 41.9161C-6.24934 41.8504 -6.13935 41.7813 -6.02393 41.7088C-4.41172 40.6961 -1.73753 39.0164 2.80578 36.435L3.1752 37.244C-1.35314 39.8169 -4.01602 41.4895 -5.62493 42.5001C-5.74038 42.5726 -5.85039 42.6417 -5.95528 42.7075C-6.73017 43.1935 -7.25132 43.5153 -7.61252 43.6841ZM-8.2065 42.9382C-8.20609 42.9377 -8.20227 42.9376 -8.19628 42.9394C-8.20392 42.9396 -8.20691 42.9387 -8.2065 42.9382Z" fill="#99A18E" fill-opacity="0.12"/>
<path fill-rule="evenodd" clip-rule="evenodd" d="M-0.198851 37.2191C-0.324137 37.7169 -0.51781 38.4164 -0.866626 39.4297L-1.53896 39.1417C-1.19856 38.1529 -1.01182 37.4771 -0.892235 37.002C-0.852212 36.843 -0.820503 36.7098 -0.792085 36.5904C-0.777191 36.5279 -0.763202 36.4691 -0.749393 36.4124C-0.71129 36.256 -0.674001 36.1127 -0.627203 35.9878L0.037323 36.2974C0.0106102 36.3688 -0.0161855 36.4662 -0.0543984 36.6231C-0.0663286 36.672 -0.0794242 36.727 -0.0938242 36.7875C-0.123066 36.9102 -0.157687 37.0556 -0.198851 37.2191Z" fill="#99A18E" fill-opacity="0.12"/>
<path fill-rule="evenodd" clip-rule="evenodd" d="M5.22473 63.4616C5.03789 63.0859 2.31088 68.2655 -2.27947 63.6927Z" fill="#99A18E" fill-opacity="0.12"/>
<path fill-rule="evenodd" clip-rule="evenodd" d="M5.27114 62.7381C5.50259 62.7672 5.68283 62.9226 5.77975 63.1175L4.67 63.8042C4.75525 63.9756 4.91886 64.1183 5.12875 64.1447C5.28765 64.1647 5.40097 64.1074 5.42667 64.0941C5.45996 64.0769 5.47969 64.0611 5.47972 64.061C5.47974 64.0609 5.47033 64.0685 5.44947 64.0884C5.39843 64.137 5.34491 64.1934 5.27331 64.2688C5.21365 64.3316 5.14143 64.4076 5.04761 64.5034C4.67747 64.8816 4.12054 65.4066 3.39594 65.7898C2.66349 66.1772 1.75624 66.4213 0.702065 66.2308C-0.348306 66.041 -1.48673 65.4304 -2.70195 64.2198L-1.85662 63.164C-0.776669 64.2398 0.147152 64.6965 0.904959 64.8334C1.65896 64.9696 2.30583 64.7997 2.85227 64.5107C3.40657 64.2176 3.85331 63.804 4.19047 63.4595C4.24626 63.4025 4.30641 63.3395 4.36556 63.2776C4.46253 63.176 4.5568 63.0772 4.62466 63.0125C4.67505 62.9644 4.77479 62.8708 4.89382 62.8093C4.95088 62.7799 5.09067 62.7153 5.27114 62.7381Z" fill="#99A18E" fill-opacity="0.12"/>
<path fill-rule="evenodd" clip-rule="evenodd" d="M3.81786 59.0703C4.09337 58.993 1.29929 55.8458 5.0889 53.0607Z" fill="#99A18E" fill-opacity="0.12"/>
<path fill-rule="evenodd" clip-rule="evenodd" d="M4.03187 59.1418C4.00204 59.227 3.93869 59.2814 3.86951 59.3008L3.7664 58.8437C3.71445 58.8583 3.66232 58.9018 3.6383 58.9704C3.6209 59.0201 3.6272 59.0589 3.62788 59.0631C3.6279 59.0632 3.62791 59.0633 3.62792 59.0634C3.62812 59.0646 3.62823 59.0653 3.62817 59.0653C3.62791 59.0654 3.62364 59.0495 3.60585 59.0082C3.58254 58.9541 3.55197 58.8911 3.51381 58.8125C3.4846 58.7524 3.45094 58.6831 3.4127 58.6016C3.24526 58.2448 3.02888 57.7326 2.92797 57.1259C2.82652 56.516 2.84157 55.8092 3.13748 55.0697C3.43286 54.3315 4.00015 53.5807 4.97277 52.8658L5.20523 53.2594C4.28303 53.9372 3.77848 54.6241 3.52331 55.2618C3.26867 55.8981 3.25446 56.5052 3.3434 57.0399C3.43287 57.5778 3.6265 58.0409 3.78704 58.383C3.81733 58.4475 3.84823 58.5113 3.87724 58.5712C3.92083 58.6613 3.96014 58.7425 3.98663 58.8039C4.00789 58.8532 4.03411 58.9185 4.04408 58.9818C4.04891 59.0125 4.05549 59.0744 4.03187 59.1418Z" fill="#99A18E" fill-opacity="0.12"/>
<path fill-rule="evenodd" clip-rule="evenodd" d="M-8.4094 43.3192C-7.87525 43.7452 -7.42044 33.3638 2.64627 36.6554Z" fill="#99A18E" fill-opacity="0.12"/>
<path fill-rule="evenodd" clip-rule="evenodd" d="M-8.21603 43.7562C-8.37451 43.8226 -8.53223 43.7821 -8.64589 43.6915L-8.17251 42.9529C-8.25278 42.8889 -8.37728 42.8539 -8.50209 42.9062C-8.5506 42.9265 -8.58336 42.954 -8.60118 42.9713C-8.61919 42.9888 -8.62921 43.0031 -8.63224 43.0076C-8.63262 43.0082 -8.63239 43.0077 -8.63156 43.006C-8.62733 42.9974 -8.60757 42.957 -8.57255 42.8574C-8.52707 42.728 -8.47898 42.5701 -8.41976 42.3756C-8.37323 42.2228 -8.31984 42.0474 -8.25544 41.8456C-7.97563 40.9687 -7.53762 39.7628 -6.78113 38.6426C-6.02099 37.5169 -4.93669 36.4743 -3.37251 35.937C-1.81128 35.4008 0.188541 35.3817 2.76096 36.2228L2.532 37.094C0.0710574 36.2894 -1.76099 36.3335 -3.133 36.8048C-4.50206 37.275 -5.45235 38.1838 -6.13102 39.1888C-6.81334 40.1992 -7.21836 41.303 -7.48864 42.15C-7.54167 42.3162 -7.59193 42.4807 -7.63865 42.6337C-7.70528 42.8518 -7.76472 43.0464 -7.81482 43.1889C-7.85608 43.3062 -7.9104 43.4481 -7.98298 43.5551C-8.01768 43.6063 -8.09208 43.7043 -8.21603 43.7562Z" fill="#99A18E" fill-opacity="0.12"/>
<path fill-rule="evenodd" clip-rule="evenodd" d="M6.91121 62.8109C6.87647 63.6499 9.56394 75.7412 19.608 71.012Z" fill="#99A18E" fill-opacity="0.12"/>
<path fill-rule="evenodd" clip-rule="evenodd" d="M6.20502 63.2304C6.18432 63.0937 6.16274 62.9206 6.1689 62.7717L7.65356 62.8482C7.65412 62.8345 7.65407 62.827 7.65431 62.827C7.65484 62.8269 7.65685 62.8642 7.67047 62.9541C7.68688 63.0624 7.71457 63.2117 7.7559 63.3967C7.8384 63.7658 7.97074 64.2565 8.16203 64.8141C8.54624 65.934 9.15551 67.2868 10.0475 68.4633C10.9362 69.6356 12.0884 70.612 13.5686 71.0405C15.0443 71.4676 16.9271 71.3737 19.319 70.2475L19.897 71.7748C17.2669 73.0132 15.0472 73.1813 13.1952 72.6452C11.3477 72.1104 9.94697 70.8982 8.91264 69.5339C7.88159 68.1738 7.19776 66.642 6.77396 65.4066C6.56125 64.7866 6.41086 64.2319 6.31381 63.7977C6.26536 63.5809 6.22907 63.3891 6.20502 63.2304Z" fill="#99A18E" fill-opacity="0.12"/>
<path fill-rule="evenodd" clip-rule="evenodd" d="M6.09523 62.7103C5.67828 63.001 0.931893 70.2346 7.17728 77.9883Z" fill="#99A18E" fill-opacity="0.12"/>
<path fill-rule="evenodd" clip-rule="evenodd" d="M5.74034 62.6201C5.79587 62.55 5.86478 62.4697 5.93271 62.4223L6.25759 63.0021C6.26119 62.9996 6.26308 62.9982 6.2632 62.9984C6.26359 62.999 6.24345 63.0176 6.1996 63.073C6.15126 63.134 6.08794 63.2216 6.01336 63.3357C5.86448 63.5633 5.67661 63.8868 5.47984 64.2939C5.08618 65.1085 4.6616 66.2483 4.43934 67.6137C3.99709 70.3307 4.34998 73.9687 7.40518 77.7618L6.94921 78.2188C3.759 74.2581 3.36239 70.4025 3.83622 67.4916C4.072 66.043 4.52187 64.8352 4.94026 63.9695C5.14952 63.5365 5.35208 63.1866 5.51818 62.9326C5.60109 62.8059 5.6764 62.7008 5.74034 62.6201Z" fill="#99A18E" fill-opacity="0.12"/>
<path fill-rule="evenodd" clip-rule="evenodd" d="M3.29225 60.1423C3.57432 60.5917 10.2957 65.5051 16.9146 58.1471Z" fill="#99A18E" fill-opacity="0.12"/>
<path fill-rule="evenodd" clip-rule="evenodd" d="M3.01315 60.8472C2.94833 60.7897 2.83603 60.6867 2.75825 60.5628L3.8263 59.7286C3.80245 59.6906 3.78356 59.6701 3.78357 59.6702C3.78357 59.6702 3.79513 59.6827 3.82491 59.7091C3.87168 59.7506 3.94432 59.8096 4.04361 59.8819C4.24131 60.026 4.52691 60.2101 4.88823 60.4011C5.61136 60.7835 6.61868 61.1837 7.81029 61.3546C10.1668 61.6927 13.2972 61.1453 16.4545 57.6354L17.3748 58.6656C13.9132 62.5137 10.3734 63.1886 7.64399 62.7971C6.29264 62.6033 5.15304 62.1507 4.32974 61.7153C3.91784 61.4975 3.58035 61.2815 3.33063 61.0996C3.20621 61.009 3.09906 60.9235 3.01315 60.8472Z" fill="#99A18E" fill-opacity="0.12"/>
<path fill-rule="evenodd" clip-rule="evenodd" d="M6.91125 62.8105C6.8765 63.6495 8.7838 64.015 19.608 71.0117Z" fill="#99A18E" fill-opacity="0.12"/>
<path fill-rule="evenodd" clip-rule="evenodd" d="M6.9389 64.1439C6.57984 63.8702 6.14038 63.4576 6.16886 62.7699L7.65352 62.8464C7.65893 62.7157 7.61091 62.6363 7.59803 62.618C7.60974 62.6321 7.65669 62.6831 7.7776 62.7753C8.07658 63.0032 8.60378 63.3206 9.53335 63.8659C9.65541 63.9375 9.78356 64.0126 9.91806 64.0913C11.7976 65.1921 14.9172 67.0192 19.9806 70.2921L19.2354 71.7266C14.1985 68.4707 11.0999 66.656 9.22647 65.5588C9.09195 65.48 8.96375 65.4049 8.8416 65.3332C7.94565 64.8077 7.32602 64.4391 6.9389 64.1439ZM7.59491 62.614C7.595 62.614 7.59614 62.6154 7.59803 62.618C7.59576 62.6153 7.59482 62.614 7.59491 62.614Z" fill="#99A18E" fill-opacity="0.12"/>
<path fill-rule="evenodd" clip-rule="evenodd" d="M6.09527 62.7103C5.67832 63.001 6.25734 64.9614 7.17728 77.9883Z" fill="#99A18E" fill-opacity="0.12"/>
<path fill-rule="evenodd" clip-rule="evenodd" d="M5.68575 62.8389C5.71882 62.6803 5.78795 62.5218 5.93279 62.4208L6.25768 63.0007C6.28239 62.9834 6.29058 62.9642 6.29063 62.9643C6.29065 62.9643 6.28731 62.9722 6.28282 62.9938C6.2697 63.0567 6.26056 63.1724 6.26542 63.3797C6.27504 63.7907 6.33523 64.4535 6.43965 65.5371C6.45352 65.6811 6.46814 65.8322 6.48348 65.9907C6.69785 68.2061 7.05325 71.8788 7.48285 77.9619L6.87175 78.0156C6.44283 71.9423 6.08816 68.277 5.874 66.0638C5.85866 65.9053 5.84404 65.7542 5.83017 65.6102C5.72695 64.5391 5.66306 63.843 5.65263 63.3976C5.64746 63.1767 5.65431 62.9897 5.68575 62.8389Z" fill="#99A18E" fill-opacity="0.12"/>
<path fill-rule="evenodd" clip-rule="evenodd" d="M3.29225 60.1451C3.57432 60.5945 5.29936 59.8482 16.9146 58.1499Z" fill="#99A18E" fill-opacity="0.12"/>
<path fill-rule="evenodd" clip-rule="evenodd" d="M3.36775 60.9733C3.17112 60.9341 2.92693 60.8301 2.75836 60.5615L3.82641 59.7274C3.72836 59.5712 3.59978 59.5421 3.59685 59.5415C3.59647 59.5415 3.60145 59.5425 3.61319 59.5435C3.62485 59.5445 3.64143 59.5454 3.66391 59.5456C3.70967 59.546 3.77191 59.5434 3.8558 59.5361C4.20589 59.5057 4.7795 59.4077 5.75054 59.2342C5.87872 59.2113 6.01324 59.1872 6.15441 59.1619C8.12777 58.8084 11.4013 58.222 16.83 57.4283L16.9995 58.8703C11.5892 59.6613 8.32993 60.2452 6.36066 60.598C6.21949 60.6233 6.08494 60.6474 5.95671 60.6703C5.00933 60.8395 4.37284 60.9499 3.95717 60.9861C3.75294 61.0039 3.54923 61.0094 3.36775 60.9733Z" fill="#99A18E" fill-opacity="0.12"/>
<path fill-rule="evenodd" clip-rule="evenodd" d="M6.91122 62.8105C13.2291 71.603 12.9062 69.2493 19.608 71.0117Z" fill="#99A18E" fill-opacity="0.12"/>
<path fill-rule="evenodd" clip-rule="evenodd" d="M12.8258 70.3085C11.0785 69.4828 9.46989 67.6945 6.33149 63.3268L7.49118 62.2899C10.6706 66.7147 12.0594 68.1458 13.4056 68.782C14.0799 69.1006 14.7762 69.2353 15.7927 69.4008C15.8796 69.415 15.9684 69.4293 16.0594 69.444C17.0215 69.5991 18.2148 69.7915 19.7786 70.2028L19.4376 71.8164C17.9394 71.4224 16.8038 71.2392 15.8445 71.0844C15.7541 71.0698 15.6654 71.0555 15.578 71.0413C14.5727 70.8777 13.6983 70.7208 12.8258 70.3085Z" fill="#99A18E" fill-opacity="0.12"/>
<path fill-rule="evenodd" clip-rule="evenodd" d="M6.91122 62.8105C11.2169 66.6111 14.711 61.6631 19.608 71.0117Z" fill="#99A18E" fill-opacity="0.12"/>
<path fill-rule="evenodd" clip-rule="evenodd" d="M11.6223 65.4615C10.067 65.2787 8.27084 65.0675 6.45008 63.4603L7.37234 62.1603C8.82595 63.4434 10.0786 63.5947 11.546 63.772C12.0555 63.8336 12.5909 63.8983 13.1696 64.0146C14.2651 64.2347 15.4122 64.6516 16.6107 65.6584C17.7971 66.655 18.9936 68.1955 20.2496 70.5933L18.9664 71.4297C17.7739 69.1532 16.6973 67.8065 15.7167 66.9827C14.7482 66.1692 13.8345 65.8327 12.9061 65.6462C12.5018 65.5649 12.0721 65.5144 11.6223 65.4615Z" fill="#99A18E" fill-opacity="0.12"/>
<path fill-rule="evenodd" clip-rule="evenodd" d="M6.91124 62.8105C6.8765 63.6495 18.9996 59.2077 19.608 71.0117Z" fill="#99A18E" fill-opacity="0.12"/>
<path fill-rule="evenodd" clip-rule="evenodd" d="M6.52633 63.5602C6.33274 63.414 6.15364 63.1393 6.16887 62.7716L7.65353 62.8481C7.66659 62.5328 7.50907 62.3002 7.35935 62.1872C7.29865 62.1414 7.24622 62.1189 7.21883 62.1088C7.18997 62.098 7.17035 62.0941 7.16543 62.0932C7.16398 62.0929 7.16323 62.0928 7.16323 62.0928C7.16324 62.0927 7.17844 62.0948 7.21493 62.0955C7.25667 62.0963 7.31253 62.095 7.38526 62.091C7.59102 62.0797 7.85209 62.0519 8.17942 62.0169C8.34503 61.9992 8.52761 61.9797 8.72858 61.9597C9.88166 61.8445 11.4812 61.7292 13.1184 61.9772C14.7548 62.225 16.4924 62.845 17.8664 64.2584C19.256 65.688 20.189 67.8415 20.3499 70.9634L18.8661 71.0586C18.7228 68.2785 17.9122 66.5608 16.8588 65.4771C15.7897 64.3773 14.3845 63.842 12.9184 63.62C11.4532 63.398 9.99039 63.4981 8.86114 63.6109C8.69273 63.6277 8.5274 63.6454 8.36904 63.6622C8.01682 63.6998 7.69906 63.7337 7.45841 63.7469C7.29055 63.7561 7.09101 63.7606 6.91733 63.7278C6.83711 63.7127 6.67954 63.6758 6.52633 63.5602Z" fill="#99A18E" fill-opacity="0.12"/>
<path fill-rule="evenodd" clip-rule="evenodd" d="M6.09525 62.7103C5.67829 63.001 12.6083 72.8489 7.1773 77.9883Z" fill="#99A18E" fill-opacity="0.12"/>
<path fill-rule="evenodd" clip-rule="evenodd" d="M5.77083 62.7761C5.7691 62.7101 5.77843 62.529 5.93292 62.4213L6.25781 63.0012C6.38624 62.9116 6.38386 62.7674 6.38356 62.7561C6.38329 62.7457 6.38235 62.7399 6.38239 62.7399C6.38244 62.7398 6.38386 62.7481 6.38943 62.7668C6.40827 62.8303 6.44963 62.9341 6.51852 63.0863C6.61037 63.2893 6.73557 63.545 6.88599 63.8522C6.95899 64.0013 7.03793 64.1626 7.12188 64.3358C7.62996 65.3841 8.29656 66.8216 8.80544 68.4174C9.81566 71.5855 10.2477 75.5322 7.3757 78.25L6.97914 77.7286C9.53815 75.307 9.2207 71.76 8.2279 68.6466C7.73527 67.1017 7.08697 65.7015 6.58265 64.6609C6.5032 64.497 6.42667 64.3407 6.35468 64.1937C6.20081 63.8794 6.06771 63.6075 5.97129 63.3945C5.90119 63.2395 5.84172 63.097 5.80751 62.9818C5.79124 62.9269 5.77286 62.8533 5.77083 62.7761Z" fill="#99A18E" fill-opacity="0.12"/>
<path fill-rule="evenodd" clip-rule="evenodd" d="M3.29225 60.1462C3.57432 60.5956 12.0327 52.3667 16.9146 58.151Z" fill="#99A18E" fill-opacity="0.12"/>
<path fill-rule="evenodd" clip-rule="evenodd" d="M3.3951 60.8842C3.29713 60.8931 2.97046 60.8972 2.75824 60.5591L3.82629 59.7249C3.63169 59.4149 3.33863 59.4301 3.28951 59.4346C3.24469 59.4386 3.21302 59.4484 3.20115 59.4526C3.20125 59.4526 3.20136 59.4525 3.20146 59.4525C3.23167 59.4394 3.3035 59.4004 3.43492 59.3167C3.60703 59.207 3.82173 59.0596 4.08536 58.8786C4.21597 58.789 4.35859 58.6911 4.51398 58.5855C5.43006 57.9627 6.70089 57.1333 8.12857 56.4722C10.9397 55.1706 14.649 54.4017 17.3893 57.6483L16.4399 58.6453C14.2982 56.1077 11.3375 56.5611 8.62842 57.8155C7.29601 58.4324 6.09424 59.2144 5.19249 59.8274C5.05429 59.9213 4.92075 60.013 4.79396 60.1C4.51722 60.2899 4.27261 60.4578 4.08178 60.5794C3.94539 60.6664 3.80181 60.7525 3.67474 60.8077C3.61643 60.833 3.51438 60.8734 3.3951 60.8842ZM3.196 59.4547C3.19605 59.4546 3.19781 59.4538 3.20115 59.4526C3.19762 59.4542 3.19595 59.4548 3.196 59.4547Z" fill="#99A18E" fill-opacity="0.12"/>
<path fill-rule="evenodd" clip-rule="evenodd" d="M-45.7747 46.1932C-46.2729 46.1932 -3.15282 48.6672 2.5499 62.3711Z" fill="#99A18E" fill-opacity="0.12"/>
<path fill-rule="evenodd" clip-rule="evenodd" d="M-45.8066 44.95L-45.7747 44.9496V47.4365L-45.7476 47.4361C-45.7331 47.4356 -45.6874 47.4325 -45.6568 47.4292C-45.5596 47.4124 -44.7793 46.7434 -44.7387 45.7463C-45.012 45.2909 -45.4982 44.99 -45.563 44.9735C-45.5871 44.9685 -45.624 44.962 -45.636 44.9602L-45.6597 44.9572L-45.6694 44.9561L-45.6728 44.9558C-45.673 44.9558 -45.6692 44.9561 -45.6587 44.957L-45.6204 44.9599L-45.3029 44.9834C-45.0113 45.005 -44.5678 45.0385 -43.9929 45.086C-42.8431 45.181 -41.1682 45.332 -39.1269 45.5562C-35.0466 46.0044 -29.4926 46.7459 -23.7373 47.9198C-17.991 49.0919 -11.9991 50.7037 -7.0626 52.9074C-2.19845 55.0787 1.93994 57.952 3.56097 61.8474L1.53871 62.8945C0.308386 59.938 -3.08176 57.3631 -7.89094 55.2163C-12.6278 53.1018 -18.454 51.5257 -24.1383 50.3663C-29.8135 49.2087 -35.3026 48.4753 -39.3454 48.0312C-41.3656 47.8094 -43.0223 47.66 -44.1576 47.5662C-44.7251 47.5193 -45.1626 47.4863 -45.4506 47.4649L-45.7718 47.4412C-45.8038 47.4388 -45.8364 47.4362 -45.8601 47.434L-45.8891 47.431L-45.9178 47.4273C-45.9312 47.4253 -45.9691 47.4187 -45.9939 47.4136C-46.0593 47.3969 -46.5459 47.0958 -46.8192 46.6403C-46.7787 45.6431 -45.9981 44.974 -45.9004 44.9571C-45.8872 44.9557 -45.8714 44.9543 -45.8563 44.9532C-45.8354 44.9516 -45.8158 44.9504 -45.8066 44.95Z" fill="#99A18E" fill-opacity="0.12"/>
<path fill-rule="evenodd" clip-rule="evenodd" d="M12.1638 87.8615C11.6657 87.8615 42.286 89.7211 50.421 80.0002Z" fill="#99A18E" fill-opacity="0.12"/>
<path fill-rule="evenodd" clip-rule="evenodd" d="M12.1038 86.6223C12.1334 86.6206 12.1572 86.6206 12.1641 86.6206V89.1076L12.1645 89.1076C12.1685 89.1076 12.189 89.1076 12.2156 89.1061C12.2327 89.105 12.2824 89.1001 12.3146 89.0956C12.3953 89.0794 12.8415 88.8468 13.1149 88.5027C13.2426 87.5766 12.621 86.7333 12.4791 86.6737C12.4335 86.6596 12.3652 86.6428 12.3431 86.6384C12.3111 86.6324 12.2861 86.6295 12.2819 86.629L12.2815 86.629C12.271 86.6277 12.2643 86.6271 12.265 86.6272C12.2656 86.6272 12.2703 86.6276 12.2807 86.6284C12.3159 86.631 12.3816 86.6353 12.4788 86.6407C12.6712 86.6516 12.9728 86.6666 13.3708 86.6823C14.1666 86.7138 15.3429 86.7482 16.7954 86.7593C19.702 86.7816 23.7041 86.7107 27.9685 86.3391C32.2391 85.967 36.7391 85.2961 40.6543 84.1307C44.6069 82.9542 47.7925 81.3219 49.6065 79.1543L51.2363 80.8514C48.9827 83.5442 45.2903 85.3248 41.2291 86.5336C37.1306 87.7535 32.4813 88.4404 28.1422 88.8185C23.797 89.1971 19.7288 89.2688 16.7801 89.2462C15.3048 89.2349 14.1071 89.2 13.2918 89.1677C12.8844 89.1516 12.5713 89.1361 12.3659 89.1245C12.2642 89.1188 12.1853 89.1138 12.1333 89.1099C12.1141 89.1085 12.078 89.1058 12.0453 89.1019L12.0448 89.1019C12.0376 89.101 12.0097 89.0977 11.9756 89.0913C11.9527 89.0868 11.8837 89.0698 11.8377 89.0556C11.6954 88.9958 11.0736 88.1524 11.2014 87.2263C11.4748 86.882 11.9214 86.6493 12.0025 86.6331C12.0353 86.6285 12.0858 86.6235 12.1038 86.6223Z" fill="#99A18E" fill-opacity="0.12"/>
</svg>
