<svg width="489" height="385" viewBox="0 0 489 385" fill="none" xmlns="http://www.w3.org/2000/svg">
<path fill-rule="evenodd" clip-rule="evenodd" d="M428.818 308.504C184.553 296.092 52.1413 149.092 -23.0001 4.2601L-17.6075 0.503296C56.7098 143.746 187.4 288.939 429.093 301.22L428.818 308.504Z" fill="#99A18E" fill-opacity="0.12"/>
<path fill-rule="evenodd" clip-rule="evenodd" d="M327.152 290.782C325.747 290.782 355.564 342.414 390.783 357.332L327.152 290.782Z" fill="#99A18E" fill-opacity="0.12"/>
<path fill-rule="evenodd" clip-rule="evenodd" d="M325.234 287.88C325.895 287.304 326.609 287.139 327.153 287.139V294.43C327.674 294.43 328.37 294.271 329.016 293.707C329.653 293.152 329.965 292.446 330.108 291.925C330.341 291.073 330.223 290.376 330.203 290.254L330.201 290.245C330.168 290.047 330.126 289.902 330.105 289.84C330.107 289.846 330.11 289.852 330.113 289.859C330.186 290.046 330.376 290.464 330.733 291.15C331.424 292.479 332.56 294.469 334.103 296.956C337.183 301.92 341.802 308.728 347.553 316.002C359.125 330.636 374.969 346.754 391.863 353.91L389.703 360.758C371.378 352.996 354.704 335.838 342.914 320.927C336.984 313.429 332.211 306.396 328.995 301.213C327.39 298.627 326.152 296.466 325.344 294.914C324.951 294.159 324.611 293.453 324.384 292.876C324.293 292.643 324.113 292.168 324.022 291.62L324.021 291.616C323.989 291.42 323.859 290.638 324.111 289.718C324.261 289.172 324.583 288.448 325.234 287.88ZM330.093 289.807C330.094 289.807 330.098 289.819 330.105 289.84C330.097 289.817 330.093 289.807 330.093 289.807Z" fill="#99A18E" fill-opacity="0.12"/>
<path fill-rule="evenodd" clip-rule="evenodd" d="M388.089 356.123C387.996 358.737 390.502 386.85 426.271 381.449L388.089 356.123Z" fill="#99A18E" fill-opacity="0.12"/>
<path fill-rule="evenodd" clip-rule="evenodd" d="M386.983 362.659C386.147 359.535 385.959 357.006 385.994 356.019L390.185 356.22C390.173 356.54 390.263 358.506 390.989 361.22C391.702 363.887 392.999 367.152 395.304 370.181C399.821 376.112 408.627 381.659 426 379.036L426.542 383.856C408.146 386.634 397.815 380.825 392.159 373.396C389.379 369.745 387.831 365.829 386.983 362.659Z" fill="#99A18E" fill-opacity="0.12"/>
<path fill-rule="evenodd" clip-rule="evenodd" d="M425.642 307.631C424.144 307.093 407.4 304.035 404.158 332.84L425.642 307.631Z" fill="#99A18E" fill-opacity="0.12"/>
<path fill-rule="evenodd" clip-rule="evenodd" d="M422.088 306.671C423.966 306.581 425.357 306.877 425.803 307.037L425.484 308.228C425.18 308.118 423.916 307.83 422.132 307.916C420.359 308.001 418.102 308.453 415.795 309.79C411.214 312.445 406.296 318.671 404.692 332.922L403.626 332.761C405.264 318.206 410.338 311.559 415.314 308.675C417.786 307.243 420.198 306.761 422.088 306.671Z" fill="#99A18E" fill-opacity="0.12"/>
<path fill-rule="evenodd" clip-rule="evenodd" d="M417.964 302.691C418.579 301.556 424.568 289.332 407.465 281.21L417.964 302.691Z" fill="#99A18E" fill-opacity="0.12"/>
<path fill-rule="evenodd" clip-rule="evenodd" d="M421.159 294.251C421.823 299.213 419.9 303.093 419.508 303.816L416.421 301.574C416.644 301.162 418.022 298.362 417.559 294.898C417.123 291.644 414.947 287.048 406.774 283.167L408.155 279.261C417.087 283.502 420.467 289.078 421.159 294.251Z" fill="#99A18E" fill-opacity="0.12"/>
<path fill-rule="evenodd" clip-rule="evenodd" d="M388.09 356.123C387.996 358.737 393.72 359.842 426.271 381.449L388.09 356.123Z" fill="#99A18E" fill-opacity="0.12"/>
<path fill-rule="evenodd" clip-rule="evenodd" d="M388.264 360.155C387.186 359.311 385.921 358.075 385.994 356.02L390.185 356.221C390.197 355.878 390.081 355.668 390.046 355.615C390.082 355.661 390.228 355.827 390.613 356.129C391.521 356.84 393.114 357.824 395.905 359.504C396.273 359.725 396.658 359.957 397.063 360.2C402.713 363.596 412.09 369.232 427.313 379.337L425.228 383.555C410.08 373.499 400.762 367.899 395.129 364.514C394.725 364.27 394.339 364.039 393.972 363.818C391.275 362.194 389.421 361.062 388.264 360.155ZM390.037 355.602C390.037 355.602 390.041 355.606 390.046 355.615C390.039 355.606 390.037 355.602 390.037 355.602Z" fill="#99A18E" fill-opacity="0.12"/>
<path fill-rule="evenodd" clip-rule="evenodd" d="M425.642 307.631C424.144 307.093 422.483 311.352 404.158 332.84L425.642 307.631Z" fill="#99A18E" fill-opacity="0.12"/>
<path fill-rule="evenodd" clip-rule="evenodd" d="M423.878 307.847C424.541 307.177 425.131 306.791 425.803 307.032L425.484 308.222C425.406 308.194 425.227 308.138 424.584 308.787C423.961 309.417 423.065 310.537 421.609 312.391C421.415 312.637 421.212 312.896 420.999 313.168C418.027 316.957 413.099 323.239 404.542 333.273L403.777 332.398C412.318 322.382 417.235 316.114 420.204 312.329C420.417 312.057 420.62 311.799 420.813 311.552C422.251 309.722 423.196 308.536 423.878 307.847Z" fill="#99A18E" fill-opacity="0.12"/>
<path fill-rule="evenodd" clip-rule="evenodd" d="M417.965 302.691C418.579 301.555 416.274 299.379 406.521 280.182L417.965 302.691Z" fill="#99A18E" fill-opacity="0.12"/>
<path fill-rule="evenodd" clip-rule="evenodd" d="M419.442 300.466C419.745 301.179 420.22 302.5 419.509 303.816L416.421 301.575C416.172 302.036 416.235 302.449 416.259 302.555C416.248 302.52 416.222 302.448 416.173 302.332C415.949 301.804 415.485 300.947 414.6 299.358C414.485 299.152 414.364 298.936 414.237 298.708C412.465 295.53 409.52 290.251 404.951 281.257L408.091 279.115C412.622 288.034 415.535 293.257 417.298 296.418C417.425 296.646 417.546 296.862 417.661 297.069C418.495 298.566 419.102 299.666 419.442 300.466ZM416.266 302.581C416.265 302.581 416.262 302.572 416.259 302.555C416.264 302.573 416.266 302.581 416.266 302.581Z" fill="#99A18E" fill-opacity="0.12"/>
<path fill-rule="evenodd" clip-rule="evenodd" d="M388.089 356.123C387.996 358.737 415.807 341.452 426.271 381.449L388.089 356.123Z" fill="#99A18E" fill-opacity="0.12"/>
<path fill-rule="evenodd" clip-rule="evenodd" d="M386.875 358.23C386.245 357.663 385.966 356.82 385.994 356.021L390.185 356.222C390.208 355.585 389.977 354.868 389.448 354.391C389.057 354.039 388.686 353.99 388.629 353.983L388.627 353.983C388.591 353.978 388.57 353.977 388.57 353.976C388.57 353.974 388.673 353.97 388.94 353.92C389.355 353.843 389.838 353.724 390.449 353.575C390.925 353.458 391.48 353.322 392.14 353.172C394.97 352.528 399.006 351.808 403.441 352.349C407.903 352.892 412.782 354.714 417.241 359.138C421.691 363.552 425.575 370.41 428.278 380.742L424.264 382.152C421.735 372.485 418.219 366.506 414.514 362.83C410.818 359.164 406.788 357.644 403.002 357.182C399.187 356.718 395.634 357.33 392.949 357.941C392.455 358.054 391.956 358.175 391.483 358.29C390.758 358.466 390.096 358.628 389.608 358.719C389.224 358.791 388.667 358.88 388.149 358.811C387.899 358.778 387.371 358.676 386.875 358.23Z" fill="#99A18E" fill-opacity="0.12"/>
<path fill-rule="evenodd" clip-rule="evenodd" d="M425.642 307.631C424.144 307.093 429.209 331.821 404.158 332.84L425.642 307.631Z" fill="#99A18E" fill-opacity="0.12"/>
<path fill-rule="evenodd" clip-rule="evenodd" d="M425.194 307.156C425.379 306.992 425.603 306.963 425.802 307.034L425.483 308.224C425.588 308.262 425.731 308.248 425.846 308.147C425.911 308.089 425.934 308.032 425.933 308.031C425.933 308.031 425.932 308.034 425.93 308.04C425.909 308.103 425.878 308.264 425.851 308.578C425.821 308.933 425.801 309.373 425.778 309.906C425.76 310.299 425.741 310.742 425.713 311.238C425.584 313.519 425.29 316.664 424.235 319.872C423.178 323.087 421.355 326.369 418.178 328.907C415.003 331.443 410.517 333.203 404.177 333.461L404.139 332.215C410.325 331.964 414.6 330.251 417.568 327.881C420.533 325.512 422.235 322.454 423.23 319.428C424.228 316.393 424.513 313.394 424.639 311.157C424.665 310.712 424.684 310.285 424.701 309.893C424.727 309.326 424.749 308.831 424.781 308.454C424.808 308.141 424.847 307.825 424.929 307.585C424.968 307.467 425.044 307.288 425.194 307.156Z" fill="#99A18E" fill-opacity="0.12"/>
<path fill-rule="evenodd" clip-rule="evenodd" d="M417.964 302.691C418.579 301.556 402.412 299.402 406.521 278.52L417.964 302.691Z" fill="#99A18E" fill-opacity="0.12"/>
<path fill-rule="evenodd" clip-rule="evenodd" d="M419.678 301.839C419.891 302.492 419.832 303.221 419.509 303.819L416.421 301.577C416.136 302.105 416.082 302.76 416.271 303.337C416.416 303.779 416.651 304.017 416.706 304.07C416.768 304.132 416.813 304.164 416.813 304.164C416.813 304.164 416.779 304.141 416.694 304.094C416.5 303.986 416.274 303.876 415.972 303.729C415.742 303.618 415.468 303.484 415.132 303.315C413.71 302.598 411.694 301.478 409.775 299.648C407.841 297.804 405.995 295.231 404.938 291.635C403.881 288.041 403.657 283.584 404.745 278.058L408.297 278.996C407.33 283.911 407.587 287.554 408.386 290.273C409.185 292.989 410.572 294.94 412.09 296.387C413.622 297.848 415.276 298.783 416.585 299.443C416.798 299.55 417.025 299.661 417.247 299.77C417.635 299.96 418.009 300.142 418.268 300.286C418.46 300.393 418.796 300.585 419.079 300.867C419.217 301.004 419.508 301.321 419.678 301.839Z" fill="#99A18E" fill-opacity="0.12"/>
<path fill-rule="evenodd" clip-rule="evenodd" d="M100.547 214.487C98.5169 217.151 79.3844 264.969 122.085 279.078L100.547 214.487Z" fill="#99A18E" fill-opacity="0.12"/>
<path fill-rule="evenodd" clip-rule="evenodd" d="M98.5639 214.567C98.8082 214.061 99.0738 213.561 99.3263 213.229L101.767 215.727C101.769 215.723 101.771 215.722 101.771 215.722C101.771 215.722 101.74 215.767 101.675 215.883C101.605 216.009 101.514 216.183 101.406 216.408C101.189 216.857 100.919 217.47 100.616 218.231C100.009 219.751 99.2863 221.822 98.6004 224.288C97.2258 229.232 96.0249 235.682 96.1694 242.434C96.3137 249.174 97.7948 256.15 101.726 262.273C105.651 268.385 112.129 273.817 122.532 277.255L121.639 280.883C110.691 277.266 103.548 271.429 99.1139 264.525C94.6863 257.63 93.071 249.84 92.9145 242.528C92.7583 235.229 94.0523 228.343 95.5014 223.131C96.2275 220.52 96.9985 218.307 97.6601 216.648C97.9906 215.819 98.2982 215.118 98.5639 214.567Z" fill="#99A18E" fill-opacity="0.12"/>
<path fill-rule="evenodd" clip-rule="evenodd" d="M428.956 300.126C430.973 302.803 469.421 330.966 487.011 283.722L428.956 300.126Z" fill="#99A18E" fill-opacity="0.12"/>
<path fill-rule="evenodd" clip-rule="evenodd" d="M428.839 302.32C428.437 301.974 428.052 301.611 427.809 301.289L430.102 298.969C430.099 298.966 430.099 298.966 430.102 298.97C430.112 298.981 430.151 299.025 430.235 299.108C430.336 299.207 430.475 299.335 430.655 299.49C431.014 299.799 431.505 300.19 432.119 300.639C433.346 301.535 435.028 302.636 437.054 303.745C441.114 305.967 446.49 308.186 452.302 308.894C458.104 309.601 464.289 308.798 470.06 305.057C475.822 301.32 481.321 294.556 485.614 283.026L488.408 284.423C483.906 296.516 478.003 303.947 471.546 308.134C465.097 312.316 458.245 313.164 451.984 312.401C445.733 311.639 440.02 309.268 435.754 306.933C433.617 305.764 431.827 304.594 430.496 303.622C429.832 303.136 429.273 302.694 428.839 302.32Z" fill="#99A18E" fill-opacity="0.12"/>
<path fill-rule="evenodd" clip-rule="evenodd" d="M426.304 302.494C425.813 304.744 431.085 342.581 469.037 345.875L426.304 302.494Z" fill="#99A18E" fill-opacity="0.12"/>
<path fill-rule="evenodd" clip-rule="evenodd" d="M424.36 303.446C424.34 303.057 424.321 302.457 424.433 301.941L428.176 303.039C428.2 302.93 428.205 302.863 428.206 302.863C428.207 302.863 428.202 302.955 428.213 303.177C428.23 303.489 428.271 303.939 428.35 304.516C428.507 305.666 428.8 307.242 429.286 309.109C430.257 312.844 431.978 317.67 434.848 322.525C440.546 332.166 450.839 342.049 469.182 343.641L468.894 348.102C449.284 346.4 437.966 335.717 431.663 325.053C428.531 319.755 426.654 314.495 425.589 310.4C425.057 308.351 424.722 306.577 424.537 305.214C424.444 304.534 424.386 303.937 424.36 303.446Z" fill="#99A18E" fill-opacity="0.12"/>
<path fill-rule="evenodd" clip-rule="evenodd" d="M417.453 303.804C419.417 304.257 451.595 297.32 452.473 253.228L417.453 303.804Z" fill="#99A18E" fill-opacity="0.12"/>
<path fill-rule="evenodd" clip-rule="evenodd" d="M418.221 304.562C417.879 304.598 417.551 304.611 417.323 304.559L417.582 303.052C417.581 303.052 417.581 303.052 417.583 303.052C417.591 303.053 417.631 303.058 417.717 303.057C417.812 303.056 417.939 303.048 418.099 303.031C418.417 302.997 418.843 302.928 419.363 302.815C420.401 302.59 421.794 302.193 423.42 301.565C426.673 300.31 430.842 298.141 434.976 294.603C443.222 287.546 451.376 275.004 451.809 253.212L453.135 253.247C452.691 275.546 444.317 288.519 435.764 295.839C431.498 299.49 427.199 301.727 423.839 303.023C422.159 303.671 420.708 304.087 419.607 304.326C419.058 304.445 418.59 304.522 418.221 304.562Z" fill="#99A18E" fill-opacity="0.12"/>
<path fill-rule="evenodd" clip-rule="evenodd" d="M333.829 239.664C334.503 236.197 356.742 190.219 391.622 222.06L333.829 239.664Z" fill="#99A18E" fill-opacity="0.12"/>
<path fill-rule="evenodd" clip-rule="evenodd" d="M335.811 240.162C335.803 240.186 335.802 240.189 335.804 240.176L331.853 239.144C331.947 238.66 332.157 238.079 332.369 237.552C332.604 236.966 332.919 236.256 333.309 235.452C334.09 233.843 335.195 231.807 336.606 229.58C339.42 225.139 343.509 219.848 348.753 215.682C354.008 211.507 360.482 208.419 368 208.54C375.53 208.662 383.879 212 392.875 220.213L390.369 223.9C381.925 216.192 374.414 213.338 367.943 213.233C361.46 213.129 355.792 215.781 351.043 219.554C346.283 223.335 342.506 228.199 339.871 232.358C338.557 234.432 337.541 236.308 336.84 237.752C336.49 238.475 336.224 239.077 336.042 239.531C335.894 239.901 335.83 240.099 335.811 240.162Z" fill="#99A18E" fill-opacity="0.12"/>
<path fill-rule="evenodd" clip-rule="evenodd" d="M100.547 214.487C98.5168 217.151 103.735 223.997 122.085 279.078L100.547 214.487Z" fill="#99A18E" fill-opacity="0.12"/>
<path fill-rule="evenodd" clip-rule="evenodd" d="M98.9179 218.5C98.4151 216.576 98.1976 214.717 99.3271 213.235L101.767 215.732C101.769 215.728 101.772 215.721 101.775 215.713C101.776 215.711 101.776 215.709 101.776 215.709C101.776 215.707 101.767 215.74 101.765 215.827C101.758 216.068 101.806 216.535 102.034 217.407C102.491 219.154 103.479 221.862 105.168 226.371C105.391 226.968 105.626 227.594 105.873 228.252C109.318 237.433 115.031 252.66 123.605 278.395L120.567 279.754C112.018 254.091 106.325 238.919 102.886 229.754C102.64 229.097 102.405 228.471 102.181 227.873C100.525 223.453 99.4423 220.507 98.9179 218.5Z" fill="#99A18E" fill-opacity="0.12"/>
<path fill-rule="evenodd" clip-rule="evenodd" d="M428.956 300.132C430.973 302.809 437.505 297.697 487.011 283.727L428.956 300.132Z" fill="#99A18E" fill-opacity="0.12"/>
<path fill-rule="evenodd" clip-rule="evenodd" d="M432.165 302.405C430.456 302.733 428.892 302.73 427.81 301.294L430.102 298.975L430.112 298.988L430.115 298.991C430.115 298.991 430.115 298.991 430.115 298.991M432.165 302.405C433.942 302.063 436.596 301.202 440.595 299.869L432.165 302.405ZM440.595 299.869C441.136 299.689 441.703 299.5 442.298 299.301L440.595 299.869ZM442.298 299.301C450.586 296.534 464.306 291.952 487.371 285.443L442.298 299.301ZM487.371 285.443L486.651 282.017L487.371 285.443ZM486.651 282.017C463.525 288.543 449.759 293.14 441.457 295.912L486.651 282.017ZM441.457 295.912C440.862 296.111 440.295 296.3 439.755 296.48L441.457 295.912ZM439.755 296.48C435.681 297.837 433.229 298.625 431.667 298.926L439.755 296.48ZM431.667 298.926C430.887 299.076 430.468 299.074 430.245 299.031L431.667 298.926ZM430.245 299.031C430.149 299.013 430.116 298.991 430.116 298.991L430.245 299.031ZM430.116 298.991C430.116 298.991 430.115 298.991 430.115 298.991L430.116 298.991Z" fill="#99A18E" fill-opacity="0.12"/>
<path fill-rule="evenodd" clip-rule="evenodd" d="M53.0145 69.2512C53.8097 72.3589 64.3233 71.779 129.735 86.5156L53.0145 69.2512Z" fill="#99A18E" fill-opacity="0.12"/>
<path fill-rule="evenodd" clip-rule="evenodd" d="M52.8747 72.3706C52.1036 71.8835 51.3558 71.1313 51.0487 69.9307L54.9787 68.5805C54.9009 68.2764 54.7526 68.1439 54.7533 68.1428C54.7536 68.1424 54.7769 68.1622 54.8366 68.1999C55.0906 68.3603 55.6138 68.5924 56.6345 68.8876C58.6536 69.4715 61.9872 70.1338 67.4765 71.1837C68.2062 71.3233 68.9722 71.4694 69.7761 71.6227C80.9893 73.7614 99.5797 77.3072 130.125 84.1888L129.343 88.8516C98.8548 81.9828 80.3092 78.4456 69.1088 76.3094C68.3049 76.156 67.5388 76.0099 66.8089 75.8703C61.394 74.8346 57.8618 74.1382 55.6419 73.4963C54.543 73.1785 53.6035 72.8309 52.8747 72.3706Z" fill="#99A18E" fill-opacity="0.12"/>
<path fill-rule="evenodd" clip-rule="evenodd" d="M426.305 302.485C425.814 304.734 432.468 308.833 468.082 345.625L426.305 302.485Z" fill="#99A18E" fill-opacity="0.12"/>
<path fill-rule="evenodd" clip-rule="evenodd" d="M424.839 304.619C424.481 303.921 424.204 302.993 424.434 301.938L428.176 303.035C428.27 302.606 428.148 302.317 428.149 302.317C428.149 302.317 428.152 302.323 428.158 302.336C428.233 302.481 428.447 302.807 428.976 303.414C430.018 304.61 431.843 306.413 434.897 309.392C435.302 309.787 435.727 310.202 436.174 310.636C442.402 316.706 452.731 326.771 469.367 343.958L466.798 347.297C450.203 330.153 439.907 320.119 433.688 314.059C433.242 313.624 432.817 313.21 432.412 312.815C429.412 309.889 427.44 307.947 426.259 306.592C425.677 305.923 425.173 305.272 424.839 304.619Z" fill="#99A18E" fill-opacity="0.12"/>
<path fill-rule="evenodd" clip-rule="evenodd" d="M417.453 303.806C419.417 304.259 422.606 296.346 452.473 253.231L417.453 303.806Z" fill="#99A18E" fill-opacity="0.12"/>
<path fill-rule="evenodd" clip-rule="evenodd" d="M418.664 304.168C418.244 304.492 417.801 304.667 417.323 304.557L417.582 303.05L417.583 303.05C417.6 303.054 417.687 303.075 417.929 302.889C418.189 302.688 418.546 302.308 419.058 301.643C420.078 300.32 421.575 298.056 423.97 294.39C424.289 293.901 424.624 293.387 424.976 292.849C429.882 285.331 438.014 272.871 451.955 252.746L452.99 253.708C439.06 273.816 430.937 286.262 426.033 293.776C425.682 294.315 425.347 294.828 425.027 295.317C422.647 298.961 421.111 301.286 420.047 302.667C419.518 303.354 419.07 303.855 418.664 304.168Z" fill="#99A18E" fill-opacity="0.12"/>
<path fill-rule="evenodd" clip-rule="evenodd" d="M333.829 239.664C334.503 236.197 342.347 237.089 391.622 222.06L333.829 239.664Z" fill="#99A18E" fill-opacity="0.12"/>
<path fill-rule="evenodd" clip-rule="evenodd" d="M335.726 240.378C335.751 240.341 335.785 240.275 335.804 240.176L331.852 239.145C332.278 236.956 333.904 236 335.554 235.342C337.291 234.648 340.013 233.933 344.065 232.902C344.614 232.762 345.19 232.616 345.794 232.462C354.217 230.324 368.157 226.786 391.106 219.787L392.137 224.326C369.107 231.35 355.105 234.904 346.663 237.047C346.059 237.2 345.483 237.346 344.934 237.486C340.781 238.544 338.336 239.196 336.873 239.779C336.105 240.086 335.814 240.298 335.726 240.378ZM335.695 240.414C335.693 240.414 335.701 240.402 335.726 240.378C335.71 240.403 335.697 240.414 335.695 240.414Z" fill="#99A18E" fill-opacity="0.12"/>
<path fill-rule="evenodd" clip-rule="evenodd" d="M100.547 214.487C100.485 262.164 104.845 253.447 122.085 279.078L100.547 214.487Z" fill="#99A18E" fill-opacity="0.12"/>
<path fill-rule="evenodd" clip-rule="evenodd" d="M103.393 255.939C99.9302 248.467 98.8877 238.236 98.9184 214.481L102.174 214.487C102.143 238.408 103.25 247.656 106.262 254.154C107.769 257.405 109.79 260.047 112.63 263.59C112.874 263.894 113.123 264.204 113.378 264.52C116.075 267.875 119.385 271.992 123.369 277.915L120.801 280.234C116.908 274.446 113.685 270.438 110.992 267.088C110.738 266.772 110.489 266.463 110.245 266.158C107.421 262.636 105.124 259.672 103.393 255.939Z" fill="#99A18E" fill-opacity="0.12"/>
<path fill-rule="evenodd" clip-rule="evenodd" d="M428.956 300.132C469.746 306.363 462.85 300.227 487.011 283.728L428.956 300.132Z" fill="#99A18E" fill-opacity="0.12"/>
<path fill-rule="evenodd" clip-rule="evenodd" d="M464.761 302.096C457.949 305.098 449.086 304.98 428.757 301.875L429.155 298.379C449.617 301.504 457.701 301.434 463.679 298.8C466.671 297.482 469.203 295.493 472.601 292.687C472.892 292.446 473.19 292.199 473.494 291.948C476.713 289.282 480.66 286.014 486.239 282.204L487.784 285.242C482.324 288.97 478.474 292.158 475.26 294.82C474.957 295.071 474.659 295.317 474.367 295.559C470.988 298.349 468.164 300.597 464.761 302.096Z" fill="#99A18E" fill-opacity="0.12"/>
<path fill-rule="evenodd" clip-rule="evenodd" d="M53.0145 69.2539C96.6896 95.098 92.2342 86.8035 129.735 86.5184L53.0145 69.2539Z" fill="#99A18E" fill-opacity="0.12"/>
<path fill-rule="evenodd" clip-rule="evenodd" d="M93.4717 90.0423C84.0129 88.8683 73.8934 84.2717 52.0824 71.3654L53.9466 67.1351C75.8107 80.0728 85.301 84.251 93.9083 85.3194C98.2279 85.8556 102.388 85.6163 107.936 85.2016C108.413 85.166 108.9 85.1291 109.397 85.0915C114.661 84.6926 121.092 84.2053 129.721 84.1397L129.748 88.8896C121.243 88.9542 114.919 89.4333 109.66 89.8316C109.164 89.8692 108.678 89.906 108.2 89.9417C102.672 90.3549 98.1852 90.6274 93.4717 90.0423Z" fill="#99A18E" fill-opacity="0.12"/>
<path fill-rule="evenodd" clip-rule="evenodd" d="M333.829 239.664C367.139 211.681 363.596 220.881 391.622 222.06L333.829 239.664Z" fill="#99A18E" fill-opacity="0.12"/>
<path fill-rule="evenodd" clip-rule="evenodd" d="M364.975 222.247C358.782 223.207 351.744 227.507 335.017 241.559L332.639 237.758C349.222 223.828 357.068 218.737 364.438 217.595C368.119 217.025 371.586 217.455 375.7 218.044C376.057 218.095 376.42 218.147 376.789 218.201C380.708 218.768 385.384 219.444 391.695 219.71L391.548 224.4C385.054 224.127 380.22 223.427 376.293 222.859C375.922 222.806 375.559 222.753 375.204 222.702C371.059 222.109 368.075 221.767 364.975 222.247Z" fill="#99A18E" fill-opacity="0.12"/>
<path fill-rule="evenodd" clip-rule="evenodd" d="M100.547 214.487C105.519 239.752 127.931 233.77 122.086 279.078L100.547 214.487Z" fill="#99A18E" fill-opacity="0.12"/>
<path fill-rule="evenodd" clip-rule="evenodd" d="M110.277 235.828C105.798 230.662 100.962 225.083 98.959 214.905L102.133 214.067C103.908 223.086 107.891 227.694 112.226 232.71C113.668 234.378 115.149 236.092 116.601 238.028C119.47 241.854 122.028 246.4 123.463 252.96C124.889 259.482 125.177 267.87 123.695 279.355L120.475 278.798C121.916 267.629 121.594 259.775 120.306 253.886C119.027 248.035 116.768 244.003 114.143 240.503C112.945 238.905 111.627 237.385 110.277 235.828Z" fill="#99A18E" fill-opacity="0.12"/>
<path fill-rule="evenodd" clip-rule="evenodd" d="M428.956 300.129C451.218 297.68 448.994 271.154 487.011 283.725L428.956 300.129Z" fill="#99A18E" fill-opacity="0.12"/>
<path fill-rule="evenodd" clip-rule="evenodd" d="M448.397 291.621C443.401 296.096 438.034 300.904 429.099 301.887L428.812 298.376C436.792 297.498 441.28 293.491 446.139 289.151C447.75 287.712 449.401 286.238 451.234 284.828C454.869 282.034 459.074 279.69 464.852 278.892C470.6 278.099 477.801 278.848 487.429 282.032L486.594 285.423C477.214 282.321 470.436 281.672 465.212 282.394C460.02 283.111 456.261 285.195 452.917 287.766C451.385 288.944 449.908 290.267 448.397 291.621Z" fill="#99A18E" fill-opacity="0.12"/>
<path fill-rule="evenodd" clip-rule="evenodd" d="M53.0145 69.2512C80.2214 78.8391 92.9252 57.2053 129.735 86.5156L53.0145 69.2512Z" fill="#99A18E" fill-opacity="0.12"/>
<path fill-rule="evenodd" clip-rule="evenodd" d="M80.26 73.5239C71.9221 74.3998 63.1684 75.3194 52.4171 71.5305L53.6098 66.986C63.5269 70.4809 71.2622 69.6749 79.4373 68.823C82.1094 68.5446 84.8286 68.2613 87.6862 68.1216C99.3011 67.5541 112.118 69.6144 130.894 84.5656L128.573 88.4805C110.539 74.1207 98.5999 72.3427 87.8589 72.8675C85.3346 72.9908 82.8169 73.2553 80.26 73.5239Z" fill="#99A18E" fill-opacity="0.12"/>
<path fill-rule="evenodd" clip-rule="evenodd" d="M333.829 239.664C354.412 229.535 363.355 254.088 391.622 222.06L333.829 239.664Z" fill="#99A18E" fill-opacity="0.12"/>
<path fill-rule="evenodd" clip-rule="evenodd" d="M353.288 240.405C347.27 239.278 341.854 238.264 334.62 241.824L333.037 237.504C341.445 233.366 348.328 234.671 354.58 235.856C356.443 236.21 358.25 236.552 360.025 236.737C363.966 237.147 368.044 236.909 372.814 234.717C377.623 232.506 383.262 228.25 390.206 220.382L393.038 223.738C385.848 231.884 379.769 236.57 374.308 239.08C368.808 241.608 364.064 241.87 359.662 241.412C357.408 241.177 355.314 240.785 353.288 240.405Z" fill="#99A18E" fill-opacity="0.12"/>
<path fill-rule="evenodd" clip-rule="evenodd" d="M100.547 214.487C98.5171 217.151 147.161 238.356 122.085 279.078L100.547 214.487Z" fill="#99A18E" fill-opacity="0.12"/>
<path fill-rule="evenodd" clip-rule="evenodd" d="M98.945 215.345C98.7796 214.722 98.8183 213.903 99.3262 213.237L101.767 215.734C102.148 215.234 102.159 214.618 102.057 214.234C102.014 214.075 101.96 213.974 101.937 213.937C101.94 213.941 101.943 213.945 101.947 213.95C102.058 214.095 102.336 214.376 102.874 214.829C103.579 215.422 104.515 216.135 105.656 217.004C106.217 217.432 106.828 217.898 107.485 218.405C111.39 221.421 116.622 225.689 121.139 231.211C125.655 236.732 129.553 243.623 130.623 251.899C131.7 260.23 129.874 269.674 123.41 280.172L120.76 277.98C126.834 268.117 128.331 259.64 127.403 252.458C126.468 245.223 123.033 239.01 118.776 233.807C114.521 228.604 109.54 224.527 105.679 221.545C105.082 221.083 104.503 220.642 103.955 220.224C102.769 219.32 101.729 218.527 100.961 217.882C100.412 217.42 99.8784 216.933 99.5119 216.455C99.3384 216.228 99.079 215.849 98.945 215.345ZM101.926 213.921C101.927 213.921 101.931 213.926 101.937 213.937C101.929 213.926 101.926 213.921 101.926 213.921Z" fill="#99A18E" fill-opacity="0.12"/>
<path fill-rule="evenodd" clip-rule="evenodd" d="M428.956 300.128C430.973 302.805 455.403 249.649 487.011 283.724L428.956 300.128Z" fill="#99A18E" fill-opacity="0.12"/>
<path fill-rule="evenodd" clip-rule="evenodd" d="M429.466 301.961C428.942 302.065 428.286 301.923 427.81 301.291L430.102 298.972C429.752 298.508 429.266 298.424 428.954 298.485C428.831 298.51 428.75 298.551 428.72 298.57C428.725 298.566 428.731 298.561 428.739 298.555C428.887 298.438 429.171 298.146 429.628 297.586C430.228 296.85 430.963 295.863 431.855 294.663C432.293 294.074 432.77 293.434 433.287 292.747C436.371 288.651 440.693 283.198 445.992 278.73C451.29 274.262 457.669 270.688 464.861 270.529C472.096 270.369 479.916 273.67 488.048 282.436L485.975 285.018C478.303 276.748 471.217 273.915 464.919 274.055C458.576 274.195 452.796 277.353 447.783 281.581C442.771 285.807 438.632 291.012 435.58 295.065C435.107 295.694 434.653 296.303 434.225 296.879C433.299 298.124 432.489 299.213 431.839 300.009C431.373 300.58 430.894 301.122 430.448 301.473C430.236 301.64 429.893 301.877 429.466 301.961ZM428.706 298.579C428.706 298.578 428.711 298.575 428.72 298.57C428.711 298.576 428.706 298.579 428.706 298.579Z" fill="#99A18E" fill-opacity="0.12"/>
<path fill-rule="evenodd" clip-rule="evenodd" d="M53.0128 69.2538C53.8084 72.3604 113.904 46.7291 130.899 89.3418L53.0128 69.2538ZM53.0128 69.2538C53.8084 72.3604 83.8965 113.759 131.495 86.3397L53.0128 69.2538Z" fill="#99A18E" fill-opacity="0.12"/>
<path fill-rule="evenodd" clip-rule="evenodd" d="M51.772 71.6299C51.5043 71.1764 51.1574 70.5474 51.003 69.9444L49.9885 65.9831L54.193 67.0675C54.523 67.0346 54.974 66.9678 55.5648 66.8598C56.7245 66.6478 58.2011 66.3212 59.9819 65.9272C60.8335 65.7388 61.7547 65.535 62.7441 65.321C68.7817 64.0151 77.0239 62.4064 85.809 62.0535C103.221 61.354 123.735 65.5832 132.803 88.3217L134.582 92.7806L127.759 91.021C105.439 102.11 87.0033 98.5487 73.8196 91.4469C66.8077 87.6698 61.3096 82.9096 57.5044 78.8839C55.6014 76.8705 54.1088 75.0271 53.0525 73.5618C52.5256 72.831 52.095 72.1772 51.772 71.6299ZM126.865 85.8109C118.139 69.8251 101.646 66.2806 85.9544 66.911C78.104 67.2264 70.6577 68.586 64.8435 69.8145L126.865 85.8109ZM120.359 89.1122C101.848 96.3894 86.6647 93.0064 75.5877 87.0394C69.0282 83.506 63.8802 79.0478 60.3326 75.2944C59.6167 74.5371 58.9681 73.8106 58.3881 73.1289L120.359 89.1122Z" fill="#99A18E" fill-opacity="0.12"/>
<path fill-rule="evenodd" clip-rule="evenodd" d="M426.305 302.487C425.814 304.737 470.775 314.735 467.786 348.168L426.305 302.487Z" fill="#99A18E" fill-opacity="0.12"/>
<path fill-rule="evenodd" clip-rule="evenodd" d="M424.991 304.267C424.787 304.019 424.167 303.164 424.434 301.942L428.176 303.04C428.413 301.958 427.851 301.26 427.787 301.183C427.728 301.11 427.68 301.066 427.661 301.051C427.668 301.056 427.681 301.065 427.699 301.078C427.871 301.195 428.216 301.383 428.796 301.656C429.568 302.02 430.568 302.448 431.782 302.967C432.365 303.216 432.996 303.487 433.676 303.781C437.798 305.567 443.388 308.119 448.92 311.683C459.858 318.728 471.329 330.251 469.706 348.402L465.866 347.941C467.232 332.66 457.717 322.467 447.044 315.593C441.771 312.196 436.4 309.737 432.324 307.971C431.698 307.7 431.095 307.442 430.526 307.198C429.27 306.661 428.174 306.192 427.342 305.801C426.746 305.52 426.178 305.23 425.746 304.937C425.544 304.799 425.248 304.58 424.991 304.267ZM427.653 301.044C427.653 301.044 427.656 301.046 427.661 301.051C427.655 301.046 427.652 301.044 427.653 301.044Z" fill="#99A18E" fill-opacity="0.12"/>
<path fill-rule="evenodd" clip-rule="evenodd" d="M417.453 303.806C419.417 304.258 423.504 251.5 452.473 253.23L417.453 303.806Z" fill="#99A18E" fill-opacity="0.12"/>
<path fill-rule="evenodd" clip-rule="evenodd" d="M418.14 304.206C418.024 304.357 417.739 304.655 417.324 304.56L417.582 303.052C417.446 303.021 417.327 303.056 417.249 303.102C417.182 303.141 417.149 303.184 417.148 303.186L417.148 303.186C417.147 303.186 417.147 303.186 417.147 303.186C417.147 303.186 417.157 303.172 417.176 303.136C417.196 303.097 417.221 303.043 417.25 302.97C417.373 302.664 417.52 302.169 417.697 301.474C417.936 300.541 418.208 299.33 418.532 297.889C418.688 297.196 418.856 296.449 419.039 295.654C420.153 290.789 421.763 284.244 424.229 277.73C429.14 264.754 437.579 251.571 452.507 252.463L452.438 253.997C438.398 253.159 430.309 265.491 425.443 278.348C423.02 284.75 421.43 291.202 420.32 296.048C420.144 296.82 419.978 297.555 419.823 298.243C419.495 299.702 419.213 300.952 418.969 301.91C418.79 302.611 418.62 303.201 418.453 303.617C418.372 303.82 418.27 304.035 418.14 304.206Z" fill="#99A18E" fill-opacity="0.12"/>
<path fill-rule="evenodd" clip-rule="evenodd" d="M333.829 239.662C334.503 236.195 377.826 269.461 391.622 222.058L333.829 239.662Z" fill="#99A18E" fill-opacity="0.12"/>
<path fill-rule="evenodd" clip-rule="evenodd" d="M334.665 241.66C335.098 241.49 335.642 241.01 335.804 240.175L331.853 239.143C332.057 238.091 332.726 237.466 333.364 237.215C333.875 237.014 334.36 237.043 334.64 237.075C335.236 237.145 335.925 237.376 336.571 237.621C337.481 237.967 338.659 238.486 339.992 239.073C340.603 239.342 341.247 239.626 341.911 239.913C346.253 241.79 351.988 244.064 358.073 245.007C364.161 245.95 370.426 245.532 375.936 242.232C381.395 238.962 386.387 232.697 389.703 221.305L393.541 222.805C389.958 235.115 384.362 242.468 377.796 246.401C371.282 250.303 364.088 250.674 357.536 249.659C350.982 248.644 344.897 246.214 340.495 244.311C339.747 243.987 339.06 243.684 338.43 243.407C337.161 242.848 336.127 242.393 335.308 242.081C334.685 241.844 334.361 241.761 334.239 241.746C334.294 241.748 334.455 241.743 334.665 241.66ZM334.235 241.746C334.236 241.746 334.237 241.746 334.239 241.746L334.235 241.746Z" fill="#99A18E" fill-opacity="0.12"/>
<path fill-rule="evenodd" clip-rule="evenodd" d="M218.656 302.342C217.816 306.594 214.535 353.571 274.597 357.34L218.656 302.342Z" fill="#99A18E" fill-opacity="0.12"/>
<path fill-rule="evenodd" clip-rule="evenodd" d="M222.019 331.25C215.105 317.862 216.136 304.396 216.646 301.811L220.666 302.876C220.337 304.543 219.306 316.691 225.558 328.797C231.706 340.702 245.184 353.103 274.709 354.955L274.486 359.727C243.949 357.811 229.037 344.839 222.019 331.25Z" fill="#99A18E" fill-opacity="0.12"/>
<path fill-rule="evenodd" clip-rule="evenodd" d="M218.656 302.342C217.816 306.594 226.91 310.427 274.597 357.34L218.656 302.342Z" fill="#99A18E" fill-opacity="0.12"/>
<path fill-rule="evenodd" clip-rule="evenodd" d="M218.889 307.836C217.371 306.102 216.171 304.219 216.646 301.812L220.666 302.877C220.666 302.872 220.668 302.851 220.665 302.825C220.664 302.819 220.664 302.815 220.664 302.815C220.663 302.814 220.67 302.851 220.706 302.933C220.815 303.186 221.098 303.65 221.784 304.434C223.158 306.003 225.592 308.248 229.698 311.963C230.242 312.455 230.813 312.97 231.412 313.512C239.778 321.069 253.651 333.602 275.932 355.521L273.264 359.164C251.047 337.309 237.225 324.822 228.875 317.279C228.276 316.737 227.705 316.221 227.161 315.729C223.137 312.09 220.474 309.647 218.889 307.836Z" fill="#99A18E" fill-opacity="0.12"/>
<path fill-rule="evenodd" clip-rule="evenodd" d="M228.801 314.176C246.622 313.804 252.619 312.526 256.155 312.525L228.801 314.176Z" fill="#99A18E" fill-opacity="0.12"/>
<path fill-rule="evenodd" clip-rule="evenodd" d="M247.99 315.599C243.784 315.969 237.79 316.384 228.838 316.57L228.764 311.793C237.633 311.608 243.547 311.197 247.679 310.834C248.975 310.72 250.119 310.608 251.138 310.508C253.292 310.297 254.885 310.141 256.155 310.141L256.155 314.919C255.062 314.919 253.74 315.049 251.743 315.246C250.698 315.348 249.469 315.469 247.99 315.599Z" fill="#99A18E" fill-opacity="0.12"/>
<path fill-rule="evenodd" clip-rule="evenodd" d="M241.466 324.891C256.702 324.519 261.83 323.24 264.853 323.24L241.466 324.891Z" fill="#99A18E" fill-opacity="0.12"/>
<path fill-rule="evenodd" clip-rule="evenodd" d="M257.92 326.295C254.312 326.666 249.175 327.082 241.509 327.27L241.422 322.519C248.992 322.335 254.037 321.925 257.558 321.563C258.64 321.452 259.605 321.341 260.471 321.242C262.335 321.028 263.739 320.867 264.852 320.867L264.853 325.618C263.945 325.618 262.854 325.744 261.174 325.937C260.278 326.04 259.214 326.162 257.92 326.295Z" fill="#99A18E" fill-opacity="0.12"/>
<path fill-rule="evenodd" clip-rule="evenodd" d="M253.723 337.254C264.741 336.883 268.45 335.604 270.636 335.603L253.723 337.254Z" fill="#99A18E" fill-opacity="0.12"/>
<path fill-rule="evenodd" clip-rule="evenodd" d="M265.743 338.671C263.105 339.046 259.359 339.464 253.783 339.652L253.663 334.862C259.104 334.679 262.722 334.272 265.24 333.914C266.083 333.795 266.786 333.683 267.415 333.583C267.744 333.531 268.053 333.482 268.351 333.436C269.177 333.311 269.939 333.21 270.635 333.21L270.636 338.002C270.239 338.002 269.718 338.062 268.889 338.188C268.631 338.227 268.342 338.273 268.025 338.323C267.378 338.426 266.611 338.547 265.743 338.671Z" fill="#99A18E" fill-opacity="0.12"/>
<path fill-rule="evenodd" clip-rule="evenodd" d="M218.656 302.342C217.816 306.594 267.954 288.07 274.597 357.34L218.656 302.342Z" fill="#99A18E" fill-opacity="0.12"/>
<path fill-rule="evenodd" clip-rule="evenodd" d="M217.182 304.263C216.632 303.546 216.483 302.628 216.645 301.807L220.665 302.872C220.775 302.316 220.673 301.62 220.264 301.087C220.103 300.878 219.945 300.761 219.851 300.701C219.757 300.642 219.691 300.618 219.677 300.613C219.659 300.606 219.716 300.628 219.899 300.65C220.071 300.67 220.299 300.686 220.594 300.694C221.319 300.714 222.2 300.689 223.283 300.658C224.097 300.636 225.025 300.609 226.086 300.597C230.845 300.54 237.483 300.786 244.407 303.166C251.357 305.556 258.608 310.102 264.54 318.618C270.464 327.123 274.953 339.417 276.646 357.074L272.548 357.602C270.92 340.623 266.65 329.256 261.331 321.619C256.02 313.994 249.543 309.917 243.234 307.747C236.897 305.569 230.743 305.319 226.129 305.375C225.235 305.386 224.362 305.409 223.551 305.431C222.355 305.464 221.293 305.493 220.497 305.471C219.846 305.453 219.09 305.402 218.467 305.181C218.164 305.073 217.622 304.835 217.182 304.263Z" fill="#99A18E" fill-opacity="0.12"/>
<path fill-rule="evenodd" clip-rule="evenodd" d="M158.104 216.287C156.698 216.287 189.895 284.808 221.734 304.871L158.104 216.287Z" fill="#99A18E" fill-opacity="0.12"/>
<path fill-rule="evenodd" clip-rule="evenodd" d="M155.791 213.791C156.459 212.973 157.33 212.638 158.104 212.638V219.929C158.856 219.929 159.709 219.602 160.363 218.8C160.929 218.107 161.1 217.356 161.158 216.989C161.261 216.333 161.169 215.827 161.158 215.768L161.157 215.763C161.137 215.647 161.117 215.577 161.117 215.576C161.117 215.575 161.128 215.617 161.161 215.712C161.281 216.064 161.53 216.693 161.935 217.621C162.731 219.443 164.002 222.128 165.689 225.458C169.057 232.109 174.019 241.209 180.012 250.933C192.099 270.544 208.004 292.066 223.237 301.665L220.231 308.07C203.625 297.606 187.012 274.836 174.892 255.171C168.782 245.257 163.718 235.972 160.262 229.148C158.537 225.741 157.196 222.916 156.321 220.913C155.891 219.928 155.54 219.065 155.313 218.403C155.213 218.112 155.069 217.666 154.988 217.197L154.987 217.192C154.958 217.026 154.852 216.414 154.968 215.677C155.032 215.277 155.212 214.501 155.791 213.791Z" fill="#99A18E" fill-opacity="0.12"/>
<path fill-rule="evenodd" clip-rule="evenodd" d="M158.104 216.287C156.698 216.287 189.895 284.808 221.734 304.871L158.104 216.287Z" fill="#99A18E" fill-opacity="0.12"/>
<path fill-rule="evenodd" clip-rule="evenodd" d="M155.791 213.791C156.459 212.973 157.33 212.638 158.104 212.638V219.929C158.856 219.929 159.709 219.602 160.363 218.8C160.929 218.107 161.1 217.356 161.158 216.989C161.261 216.333 161.169 215.827 161.158 215.768L161.157 215.763C161.137 215.647 161.117 215.577 161.117 215.576C161.117 215.575 161.128 215.617 161.161 215.712C161.281 216.064 161.53 216.693 161.935 217.621C162.731 219.443 164.002 222.128 165.689 225.458C169.057 232.109 174.019 241.209 180.012 250.933C192.099 270.544 208.004 292.066 223.237 301.665L220.231 308.07C203.625 297.606 187.012 274.836 174.892 255.171C168.782 245.257 163.718 235.972 160.262 229.148C158.537 225.741 157.196 222.916 156.321 220.913C155.891 219.928 155.54 219.065 155.313 218.403C155.213 218.112 155.069 217.666 154.988 217.197L154.987 217.192C154.958 217.026 154.852 216.414 154.968 215.677C155.032 215.277 155.212 214.501 155.791 213.791Z" fill="#99A18E" fill-opacity="0.12"/>
<path fill-rule="evenodd" clip-rule="evenodd" d="M67.9456 135.932C66.5394 135.932 83.689 176.109 99.783 216.285L67.9456 135.932Z" fill="#99A18E" fill-opacity="0.12"/>
<path fill-rule="evenodd" clip-rule="evenodd" d="M65.4043 133.728C66.0314 132.788 66.98 132.283 67.9457 132.283V139.574C68.8674 139.574 69.7812 139.089 70.3823 138.188C70.8615 137.469 70.9616 136.756 70.9896 136.495C71.0234 136.181 71.0082 135.946 71.0012 135.857C70.9929 135.751 70.9816 135.686 70.9801 135.677C70.9796 135.674 70.9796 135.674 70.9802 135.677C70.9828 135.69 70.9962 135.754 71.031 135.886C71.0715 136.039 71.1299 136.241 71.2099 136.498C71.5376 137.553 72.119 139.185 72.9454 141.371C74.5877 145.714 77.0856 151.951 80.148 159.486C82.1805 164.486 84.4587 170.052 86.8907 175.993C91.7685 187.909 97.2647 201.336 102.637 214.747L96.9295 217.816C91.5675 204.431 86.0949 191.062 81.2238 179.162C78.7876 173.211 76.5019 167.627 74.4557 162.592C71.3947 155.061 68.863 148.742 67.1823 144.297C66.3472 142.088 65.6937 140.268 65.2899 138.969C65.0985 138.352 64.9101 137.688 64.8093 137.102C64.7705 136.876 64.6719 136.282 64.7457 135.595C64.782 135.257 64.8991 134.485 65.4043 133.728Z" fill="#99A18E" fill-opacity="0.12"/>
<path fill-rule="evenodd" clip-rule="evenodd" d="M211.874 186.557C211.347 185.455 204.235 174.624 190.696 187.234L211.874 186.557Z" fill="#99A18E" fill-opacity="0.12"/>
<path fill-rule="evenodd" clip-rule="evenodd" d="M206.695 179.767C210.766 181.229 213.006 184.638 213.441 185.546L210.309 187.559C210.31 187.563 210.309 187.561 210.305 187.554C210.285 187.519 210.189 187.349 209.994 187.078C209.776 186.775 209.465 186.388 209.063 185.977C208.256 185.152 207.111 184.261 205.635 183.732C202.801 182.715 198.245 182.862 191.819 188.848L189.575 185.613C196.687 178.988 202.456 178.246 206.695 179.767Z" fill="#99A18E" fill-opacity="0.12"/>
<path fill-rule="evenodd" clip-rule="evenodd" d="M207.904 173.688C208.682 173.461 216.688 169.634 211.491 156.068L207.904 173.688Z" fill="#99A18E" fill-opacity="0.12"/>
<path fill-rule="evenodd" clip-rule="evenodd" d="M209.854 173.323C209.031 173.96 208.323 174.279 208.049 174.359L207.758 173.019C207.873 172.986 208.457 172.742 209.192 172.174C209.917 171.613 210.762 170.755 211.432 169.515C212.752 167.075 213.485 162.978 210.946 156.351L212.036 155.79C214.694 162.728 214.022 167.328 212.443 170.249C211.664 171.689 210.686 172.679 209.854 173.323Z" fill="#99A18E" fill-opacity="0.12"/>
<path fill-rule="evenodd" clip-rule="evenodd" d="M173.397 127.512C174.904 128.761 193.776 137.362 206.651 106.467L173.397 127.512Z" fill="#99A18E" fill-opacity="0.12"/>
<path fill-rule="evenodd" clip-rule="evenodd" d="M174.332 129.475C173.622 129.17 173.045 128.85 172.729 128.588L174.065 126.423L174.065 126.423C174.065 126.423 174.071 126.428 174.085 126.438C174.1 126.449 174.121 126.463 174.149 126.481C174.204 126.517 174.278 126.561 174.373 126.614C174.562 126.718 174.815 126.844 175.13 126.979C175.759 127.249 176.611 127.548 177.641 127.783C179.702 128.255 182.447 128.469 185.53 127.734C191.634 126.276 199.306 121.027 205.617 105.882L207.685 107.039C201.122 122.789 192.921 128.687 185.993 130.341C182.56 131.16 179.501 130.922 177.196 130.395C176.044 130.131 175.074 129.794 174.332 129.475Z" fill="#99A18E" fill-opacity="0.12"/>
<path fill-rule="evenodd" clip-rule="evenodd" d="M211.874 186.557C211.347 185.457 208.754 186.664 190.696 187.234L211.874 186.557Z" fill="#99A18E" fill-opacity="0.12"/>
<path fill-rule="evenodd" clip-rule="evenodd" d="M210.967 184.044C211.613 184.08 212.807 184.227 213.441 185.55L210.309 187.563C210.539 188.045 210.888 188.181 210.983 188.209C210.953 188.203 210.894 188.196 210.798 188.19C210.327 188.165 209.513 188.217 207.982 188.339C207.784 188.354 207.576 188.371 207.357 188.388C204.296 188.634 199.209 189.041 190.746 189.309L190.648 185.16C199.037 184.894 204.068 184.492 207.112 184.248C207.331 184.23 207.539 184.214 207.737 184.198C209.177 184.084 210.239 184.005 210.967 184.044ZM211.008 188.214C211.008 188.215 210.999 188.213 210.983 188.209C211.001 188.212 211.009 188.214 211.008 188.214Z" fill="#99A18E" fill-opacity="0.12"/>
<path fill-rule="evenodd" clip-rule="evenodd" d="M207.904 173.688C208.681 173.461 208.428 171.091 211.491 156.068L207.904 173.688Z" fill="#99A18E" fill-opacity="0.12"/>
<path fill-rule="evenodd" clip-rule="evenodd" d="M208.93 173.162C208.791 173.668 208.577 174.205 208.049 174.359L207.758 173.019C207.714 173.032 207.688 173.056 207.678 173.069C207.692 173.045 207.734 172.96 207.793 172.745C207.913 172.303 208.043 171.564 208.255 170.297C208.282 170.13 208.312 169.954 208.342 169.769C208.77 167.198 209.479 162.933 210.91 155.911L212.071 156.229C210.645 163.223 209.939 167.467 209.513 170.031C209.482 170.216 209.453 170.392 209.425 170.559C209.22 171.791 209.076 172.625 208.93 173.162ZM207.672 173.077C207.672 173.076 207.674 173.073 207.678 173.069C207.674 173.075 207.672 173.077 207.672 173.077Z" fill="#99A18E" fill-opacity="0.12"/>
<path fill-rule="evenodd" clip-rule="evenodd" d="M173.397 127.504C174.905 128.753 178.132 124.695 205.569 108.5L173.397 127.504Z" fill="#99A18E" fill-opacity="0.12"/>
<path fill-rule="evenodd" clip-rule="evenodd" d="M175.645 128.571C174.675 129.043 173.645 129.351 172.729 128.592L174.065 126.426C174.039 126.405 174.015 126.393 173.998 126.388C174.069 126.386 174.281 126.348 174.758 126.116C175.625 125.695 176.959 124.846 179.197 123.388C179.493 123.195 179.803 122.993 180.129 122.78C184.679 119.811 192.226 114.887 205.048 107.319L206.09 109.691C193.31 117.234 185.795 122.137 181.255 125.1C180.929 125.313 180.618 125.515 180.322 125.708C178.136 127.133 176.665 128.076 175.645 128.571ZM173.969 126.384C173.97 126.383 173.981 126.383 173.998 126.388C173.976 126.389 173.968 126.386 173.969 126.384Z" fill="#99A18E" fill-opacity="0.12"/>
<path fill-rule="evenodd" clip-rule="evenodd" d="M179.962 124.422C183.198 114.973 183.835 111.574 184.506 109.713L179.962 124.422Z" fill="#99A18E" fill-opacity="0.12"/>
<path fill-rule="evenodd" clip-rule="evenodd" d="M184.286 114.634C183.632 116.921 182.656 120.157 181.029 124.906L178.894 123.924C180.504 119.225 181.464 116.037 182.105 113.797C182.305 113.098 182.478 112.477 182.632 111.922C182.959 110.744 183.203 109.867 183.446 109.193L185.565 110.219C185.36 110.788 185.163 111.499 184.863 112.58C184.705 113.15 184.518 113.824 184.286 114.634Z" fill="#99A18E" fill-opacity="0.12"/>
<path fill-rule="evenodd" clip-rule="evenodd" d="M186.564 119.789C189.31 111.7 189.781 108.758 190.355 107.167L186.564 119.789Z" fill="#99A18E" fill-opacity="0.12"/>
<path fill-rule="evenodd" clip-rule="evenodd" d="M190.313 111.418C189.774 113.389 188.961 116.174 187.579 120.246L185.549 119.321C186.912 115.304 187.708 112.573 188.234 110.653C188.394 110.067 188.534 109.54 188.659 109.066C188.93 108.041 189.135 107.265 189.348 106.674L191.361 107.648C191.19 108.122 191.034 108.713 190.793 109.629C190.663 110.121 190.508 110.706 190.313 111.418Z" fill="#99A18E" fill-opacity="0.12"/>
<path fill-rule="evenodd" clip-rule="evenodd" d="M193.735 115.684C195.68 109.814 195.882 107.619 196.297 106.469L193.735 115.684Z" fill="#99A18E" fill-opacity="0.12"/>
<path fill-rule="evenodd" clip-rule="evenodd" d="M196.568 109.621C196.214 111.08 195.668 113.131 194.683 116.102L192.786 115.257C193.747 112.358 194.274 110.377 194.611 108.984C194.724 108.518 194.814 108.127 194.894 107.777C194.936 107.594 194.975 107.422 195.014 107.256C195.122 106.797 195.227 106.377 195.359 106.01L197.234 106.918C197.159 107.128 197.083 107.413 196.976 107.873C196.942 108.017 196.905 108.178 196.864 108.355C196.782 108.715 196.684 109.141 196.568 109.621Z" fill="#99A18E" fill-opacity="0.12"/>
<path fill-rule="evenodd" clip-rule="evenodd" d="M211.874 186.558C211.347 185.456 203.651 200.641 190.696 187.235L211.874 186.558Z" fill="#99A18E" fill-opacity="0.12"/>
<path fill-rule="evenodd" clip-rule="evenodd" d="M212.005 184.438C212.658 184.523 213.167 184.978 213.441 185.55L210.309 187.563C210.549 188.066 211.011 188.484 211.603 188.562C212.052 188.62 212.372 188.452 212.444 188.413C212.538 188.363 212.594 188.316 212.594 188.316C212.594 188.316 212.567 188.338 212.509 188.396C212.365 188.539 212.213 188.704 212.011 188.925C211.843 189.109 211.639 189.332 211.374 189.613C210.33 190.722 208.758 192.261 206.713 193.385C204.646 194.52 202.086 195.236 199.111 194.677C196.146 194.121 192.933 192.331 189.504 188.782L191.89 185.686C194.937 188.84 197.545 190.179 199.683 190.581C201.811 190.98 203.637 190.482 205.179 189.634C206.743 188.775 208.004 187.562 208.955 186.553C209.113 186.386 209.283 186.201 209.45 186.019C209.723 185.721 209.989 185.432 210.181 185.242C210.323 185.101 210.604 184.827 210.94 184.646C211.101 184.56 211.496 184.371 212.005 184.438Z" fill="#99A18E" fill-opacity="0.12"/>
<path fill-rule="evenodd" clip-rule="evenodd" d="M207.904 173.688C208.681 173.461 200.796 164.234 211.491 156.068L207.904 173.688Z" fill="#99A18E" fill-opacity="0.12"/>
<path fill-rule="evenodd" clip-rule="evenodd" d="M208.508 173.893C208.423 174.143 208.245 174.302 208.049 174.359L207.758 173.019C207.612 173.062 207.465 173.19 207.397 173.391C207.348 173.536 207.366 173.65 207.368 173.663C207.368 173.663 207.368 173.663 207.368 173.663C207.368 173.667 207.369 173.669 207.368 173.669C207.368 173.669 207.356 173.623 207.305 173.502C207.24 173.343 207.153 173.158 207.046 172.928C206.963 172.752 206.868 172.548 206.76 172.309C206.288 171.263 205.677 169.762 205.392 167.983C205.106 166.195 205.148 164.123 205.984 161.955C206.817 159.791 208.418 157.589 211.163 155.494L211.819 156.648C209.217 158.635 207.793 160.649 207.072 162.518C206.354 164.384 206.314 166.163 206.565 167.731C206.817 169.308 207.364 170.666 207.817 171.669C207.902 171.858 207.989 172.045 208.071 172.221C208.194 172.485 208.305 172.723 208.38 172.903C208.44 173.047 208.514 173.239 208.542 173.424C208.556 173.514 208.574 173.696 208.508 173.893Z" fill="#99A18E" fill-opacity="0.12"/>
<path fill-rule="evenodd" clip-rule="evenodd" d="M173.396 127.513C174.904 128.762 176.187 98.3265 204.597 107.977L173.396 127.513Z" fill="#99A18E" fill-opacity="0.12"/>
<path fill-rule="evenodd" clip-rule="evenodd" d="M173.942 128.783C173.495 128.977 173.05 128.858 172.729 128.593L174.065 126.427C173.839 126.24 173.487 126.137 173.135 126.291C172.998 126.35 172.906 126.431 172.855 126.482C172.804 126.533 172.776 126.575 172.768 126.588C172.767 126.59 172.767 126.588 172.77 126.583C172.781 126.558 172.837 126.439 172.936 126.147C173.064 125.768 173.2 125.305 173.367 124.735C173.499 124.287 173.649 123.773 173.831 123.181C174.621 120.61 175.857 117.075 177.992 113.791C180.137 110.491 183.197 107.434 187.611 105.859C192.018 104.287 197.661 104.231 204.921 106.697L204.275 109.251C197.33 106.892 192.159 107.021 188.287 108.403C184.424 109.781 181.742 112.446 179.826 115.392C177.901 118.355 176.758 121.591 175.995 124.074C175.845 124.561 175.704 125.043 175.572 125.492C175.384 126.131 175.216 126.702 175.075 127.119C174.958 127.463 174.805 127.879 174.6 128.193C174.502 128.343 174.292 128.63 173.942 128.783Z" fill="#99A18E" fill-opacity="0.12"/>
<path fill-rule="evenodd" clip-rule="evenodd" d="M216.634 184.649C216.536 187.109 224.12 222.557 252.466 208.693L216.634 184.649Z" fill="#99A18E" fill-opacity="0.12"/>
<path fill-rule="evenodd" clip-rule="evenodd" d="M214.641 185.877C214.582 185.476 214.521 184.969 214.539 184.532L218.729 184.757C218.73 184.716 218.73 184.694 218.731 184.694C218.732 184.694 218.738 184.803 218.776 185.067C218.823 185.384 218.901 185.822 219.018 186.364C219.25 187.447 219.624 188.885 220.164 190.52C221.248 193.803 222.968 197.769 225.485 201.219C227.993 204.655 231.245 207.518 235.422 208.774C239.587 210.026 244.9 209.751 251.651 206.449L253.282 210.927C245.859 214.558 239.595 215.05 234.368 213.479C229.154 211.911 225.201 208.357 222.282 204.357C219.372 200.37 217.442 195.879 216.246 192.257C215.646 190.439 215.222 188.813 214.948 187.54C214.811 186.905 214.709 186.342 214.641 185.877Z" fill="#99A18E" fill-opacity="0.12"/>
<path fill-rule="evenodd" clip-rule="evenodd" d="M214.331 184.357C213.154 185.21 199.759 206.417 217.385 229.148L214.331 184.357Z" fill="#99A18E" fill-opacity="0.12"/>
<path fill-rule="evenodd" clip-rule="evenodd" d="M213.329 184.085C213.486 183.88 213.681 183.644 213.872 183.505L214.789 185.205C214.799 185.198 214.805 185.194 214.805 185.194C214.806 185.196 214.749 185.25 214.625 185.413C214.489 185.592 214.31 185.849 214.1 186.183C213.68 186.85 213.15 187.799 212.594 188.992C211.483 191.38 210.285 194.722 209.658 198.725C208.41 206.691 209.406 217.356 218.028 228.477L216.741 229.816C207.738 218.205 206.618 206.901 207.956 198.367C208.621 194.12 209.891 190.579 211.071 188.041C211.662 186.772 212.234 185.746 212.702 185.001C212.936 184.63 213.149 184.321 213.329 184.085Z" fill="#99A18E" fill-opacity="0.12"/>
<path fill-rule="evenodd" clip-rule="evenodd" d="M206.42 176.831C207.216 178.148 226.185 192.553 244.865 170.981L206.42 176.831Z" fill="#99A18E" fill-opacity="0.12"/>
<path fill-rule="evenodd" clip-rule="evenodd" d="M205.633 178.893C205.45 178.724 205.133 178.422 204.913 178.059L207.928 175.613C207.86 175.502 207.807 175.442 207.807 175.442C207.807 175.442 207.84 175.478 207.924 175.556C208.056 175.678 208.261 175.851 208.541 176.063C209.099 176.485 209.905 177.025 210.925 177.585C212.965 178.706 215.808 179.879 219.171 180.38C225.822 181.371 234.656 179.766 243.566 169.477L246.164 172.497C236.395 183.778 226.405 185.757 218.702 184.609C214.888 184.041 211.672 182.714 209.348 181.438C208.186 180.799 207.233 180.166 206.529 179.632C206.178 179.367 205.875 179.116 205.633 178.893Z" fill="#99A18E" fill-opacity="0.12"/>
<path fill-rule="evenodd" clip-rule="evenodd" d="M216.634 184.644C216.536 187.103 221.918 188.175 252.466 208.688L216.634 184.644Z" fill="#99A18E" fill-opacity="0.12"/>
<path fill-rule="evenodd" clip-rule="evenodd" d="M216.712 188.563C215.699 187.76 214.458 186.551 214.539 184.534L218.729 184.759C218.744 184.376 218.608 184.143 218.572 184.089C218.605 184.13 218.738 184.28 219.079 184.55C219.923 185.218 221.411 186.149 224.034 187.748C224.378 187.957 224.74 188.177 225.12 188.408C230.424 191.636 239.228 196.992 253.518 206.588L251.415 210.793C237.2 201.248 228.455 195.927 223.168 192.711C222.788 192.48 222.426 192.259 222.082 192.049C219.553 190.509 217.804 189.428 216.712 188.563ZM218.563 184.077C218.564 184.077 218.567 184.081 218.572 184.089C218.566 184.081 218.563 184.077 218.563 184.077Z" fill="#99A18E" fill-opacity="0.12"/>
<path fill-rule="evenodd" clip-rule="evenodd" d="M214.331 184.357C213.154 185.21 214.788 190.957 217.385 229.148L214.331 184.357Z" fill="#99A18E" fill-opacity="0.12"/>
<path fill-rule="evenodd" clip-rule="evenodd" d="M213.175 184.725C213.269 184.26 213.464 183.795 213.873 183.499L214.789 185.199C214.859 185.148 214.882 185.092 214.882 185.092C214.882 185.092 214.873 185.116 214.86 185.179C214.823 185.363 214.798 185.702 214.811 186.31C214.838 187.515 215.008 189.458 215.303 192.635C215.342 193.057 215.383 193.5 215.427 193.965C216.032 200.46 217.035 211.227 218.247 229.061L216.522 229.219C215.312 211.413 214.311 200.668 213.707 194.179C213.663 193.714 213.622 193.272 213.583 192.849C213.292 189.709 213.111 187.668 213.082 186.363C213.067 185.715 213.087 185.167 213.175 184.725Z" fill="#99A18E" fill-opacity="0.12"/>
<path fill-rule="evenodd" clip-rule="evenodd" d="M206.42 176.835C207.216 178.152 212.085 175.964 244.865 170.985L206.42 176.835Z" fill="#99A18E" fill-opacity="0.12"/>
<path fill-rule="evenodd" clip-rule="evenodd" d="M206.634 179.258C206.079 179.143 205.39 178.838 204.914 178.05L207.928 175.605C207.651 175.147 207.288 175.062 207.28 175.06C207.279 175.06 207.293 175.063 207.326 175.066C207.359 175.069 207.406 175.071 207.469 175.072C207.599 175.073 207.774 175.066 208.011 175.044C208.999 174.955 210.618 174.667 213.358 174.159C213.72 174.092 214.1 174.021 214.498 173.947C220.067 172.911 229.306 171.191 244.626 168.864L245.105 173.092C229.836 175.411 220.638 177.123 215.08 178.157C214.682 178.231 214.302 178.302 213.94 178.369C211.266 178.865 209.47 179.189 208.297 179.295C207.721 179.347 207.146 179.364 206.634 179.258Z" fill="#99A18E" fill-opacity="0.12"/>
<path fill-rule="evenodd" clip-rule="evenodd" d="M216.634 184.644C234.464 210.421 233.553 203.52 252.466 208.688L216.634 184.644Z" fill="#99A18E" fill-opacity="0.12"/>
<path fill-rule="evenodd" clip-rule="evenodd" d="M233.326 206.634C228.395 204.213 223.855 198.97 214.998 186.165L218.271 183.126C227.243 196.098 231.163 200.294 234.962 202.159C236.865 203.093 238.83 203.488 241.699 203.973C241.944 204.014 242.195 204.056 242.451 204.099C245.167 204.554 248.534 205.118 252.948 206.324L251.985 211.055C247.757 209.9 244.552 209.362 241.845 208.909C241.59 208.866 241.34 208.824 241.093 208.782C238.256 208.303 235.788 207.843 233.326 206.634Z" fill="#99A18E" fill-opacity="0.12"/>
<path fill-rule="evenodd" clip-rule="evenodd" d="M216.634 184.644C228.785 195.786 238.646 181.28 252.466 208.688L216.634 184.644Z" fill="#99A18E" fill-opacity="0.12"/>
<path fill-rule="evenodd" clip-rule="evenodd" d="M229.929 192.417C225.54 191.881 220.471 191.262 215.332 186.55L217.935 182.739C222.038 186.501 225.573 186.944 229.714 187.464C231.152 187.645 232.663 187.834 234.296 188.175C237.388 188.821 240.625 190.043 244.008 192.994C247.356 195.916 250.732 200.432 254.277 207.462L250.656 209.914C247.29 203.24 244.252 199.292 241.484 196.877C238.751 194.492 236.173 193.505 233.552 192.959C232.411 192.72 231.199 192.572 229.929 192.417Z" fill="#99A18E" fill-opacity="0.12"/>
<path fill-rule="evenodd" clip-rule="evenodd" d="M216.634 184.643C216.536 187.103 250.749 174.081 252.466 208.688L216.634 184.643Z" fill="#99A18E" fill-opacity="0.12"/>
<path fill-rule="evenodd" clip-rule="evenodd" d="M215.548 186.849C215.001 186.42 214.496 185.615 214.539 184.537L218.729 184.761C218.766 183.837 218.321 183.155 217.898 182.823C217.727 182.689 217.579 182.623 217.502 182.593C217.42 182.562 217.365 182.551 217.351 182.548C217.347 182.547 217.345 182.547 217.345 182.547C217.345 182.546 217.388 182.553 217.491 182.555C217.609 182.557 217.766 182.553 217.972 182.541C218.552 182.508 219.289 182.427 220.213 182.324C220.68 182.272 221.195 182.215 221.763 182.156C225.017 181.819 229.531 181.481 234.151 182.208C238.77 182.934 243.673 184.752 247.551 188.896C251.473 193.087 254.106 199.4 254.56 208.553L250.372 208.832C249.968 200.682 247.68 195.646 244.707 192.469C241.69 189.244 237.725 187.675 233.587 187.024C229.452 186.373 225.324 186.667 222.137 186.997C221.661 187.047 221.195 187.098 220.748 187.148C219.754 187.258 218.857 187.357 218.178 187.396C217.704 187.423 217.141 187.436 216.651 187.34C216.425 187.296 215.98 187.188 215.548 186.849Z" fill="#99A18E" fill-opacity="0.12"/>
<path fill-rule="evenodd" clip-rule="evenodd" d="M214.331 184.357C213.154 185.21 232.712 214.081 217.385 229.148L214.331 184.357Z" fill="#99A18E" fill-opacity="0.12"/>
<path fill-rule="evenodd" clip-rule="evenodd" d="M213.416 184.541C213.411 184.347 213.437 183.817 213.873 183.501L214.79 185.201C215.152 184.938 215.146 184.515 215.145 184.482C215.144 184.452 215.141 184.435 215.141 184.435C215.142 184.435 215.146 184.459 215.161 184.514C215.214 184.7 215.331 185.004 215.526 185.45C215.785 186.045 216.138 186.795 216.563 187.696C216.769 188.133 216.991 188.606 217.228 189.113C218.662 192.187 220.544 196.401 221.98 201.08C224.831 210.368 226.05 221.938 217.945 229.906L216.826 228.378C224.048 221.278 223.152 210.879 220.35 201.752C218.959 197.222 217.13 193.117 215.707 190.067C215.482 189.586 215.266 189.128 215.063 188.697C214.629 187.775 214.253 186.978 213.981 186.354C213.783 185.9 213.616 185.482 213.519 185.144C213.473 184.983 213.421 184.767 213.416 184.541Z" fill="#99A18E" fill-opacity="0.12"/>
<path fill-rule="evenodd" clip-rule="evenodd" d="M206.42 176.827C207.216 178.144 231.087 154.02 244.865 170.977L206.42 176.827Z" fill="#99A18E" fill-opacity="0.12"/>
<path fill-rule="evenodd" clip-rule="evenodd" d="M206.711 179.008C206.434 179.034 205.512 179.046 204.913 178.055L207.928 175.609C207.378 174.701 206.551 174.745 206.413 174.758C206.286 174.77 206.197 174.799 206.163 174.811C206.164 174.811 206.164 174.811 206.164 174.811C206.249 174.772 206.452 174.658 206.823 174.413C207.309 174.091 207.915 173.659 208.659 173.128C209.027 172.866 209.43 172.579 209.868 172.269C212.454 170.443 216.04 168.011 220.069 166.073C228.003 162.257 238.471 160.003 246.205 169.521L243.525 172.444C237.481 165.005 229.125 166.334 221.48 170.011C217.72 171.82 214.328 174.113 211.783 175.91C211.393 176.185 211.016 176.454 210.659 176.709C209.878 177.266 209.187 177.758 208.649 178.115C208.264 178.37 207.859 178.622 207.5 178.784C207.335 178.858 207.047 178.976 206.711 179.008ZM206.149 174.817C206.149 174.817 206.154 174.815 206.163 174.811C206.153 174.816 206.149 174.817 206.149 174.817Z" fill="#99A18E" fill-opacity="0.12"/>
<path fill-rule="evenodd" clip-rule="evenodd" d="M67.9453 135.93C66.5391 135.93 188.231 143.183 204.325 183.359L67.9453 135.93Z" fill="#99A18E" fill-opacity="0.12"/>
<path fill-rule="evenodd" clip-rule="evenodd" d="M67.8551 132.286L67.9453 132.284V139.576L68.0218 139.574C68.0626 139.573 68.1916 139.564 68.2782 139.554C68.5523 139.505 70.7545 137.544 70.8689 134.62C70.0977 133.285 68.7256 132.403 68.5429 132.355C68.4747 132.34 68.3707 132.321 68.3366 132.316L68.2699 132.307L68.2425 132.304L68.2329 132.303C68.2322 132.303 68.2431 132.304 68.2726 132.306L68.3808 132.315L69.2768 132.384C70.0998 132.447 71.3513 132.545 72.974 132.685C76.2188 132.963 80.9456 133.406 86.7065 134.063C98.2217 135.377 113.896 137.551 130.139 140.993C146.355 144.429 163.266 149.154 177.197 155.615C190.925 161.98 202.604 170.404 207.179 181.825L201.472 184.895C198 176.227 188.432 168.678 174.86 162.384C161.491 156.185 145.049 151.564 129.007 148.165C112.99 144.771 97.4995 142.621 86.09 141.319C80.3884 140.669 75.713 140.231 72.5091 139.956C70.9074 139.818 69.6729 139.721 68.8599 139.659L67.9534 139.589C67.8631 139.582 67.7712 139.575 67.7044 139.568L67.6225 139.559L67.5415 139.549C67.5036 139.543 67.3968 139.523 67.3266 139.508C67.142 139.459 65.7688 138.577 64.9975 137.241C65.1118 134.318 67.3148 132.356 67.5907 132.307C67.6277 132.302 67.6723 132.298 67.715 132.295C67.774 132.29 67.8293 132.287 67.8551 132.286Z" fill="#99A18E" fill-opacity="0.12"/>
<path fill-rule="evenodd" clip-rule="evenodd" d="M67.946 135.928C66.5398 135.928 158.061 146.266 175.914 124.712L67.946 135.928Z" fill="#99A18E" fill-opacity="0.12"/>
<path fill-rule="evenodd" clip-rule="evenodd" d="M67.617 132.297C67.7847 132.277 67.9196 132.278 67.9462 132.278V139.569L67.9484 139.569C67.9713 139.569 68.0946 139.569 68.251 139.551C68.3577 139.536 68.6791 139.465 68.8897 139.396C69.4498 139.117 70.9272 137.033 70.9751 135.008C70.5246 133.863 69.4837 132.755 69.1855 132.583C69.051 132.519 68.8378 132.435 68.762 132.41C68.64 132.371 68.5438 132.351 68.5223 132.346L68.5208 132.346C68.4787 132.337 68.446 132.331 68.4329 132.329C68.439 132.33 68.4498 132.332 68.4661 132.334C68.5647 132.348 68.7562 132.372 69.0494 132.407C69.6266 132.475 70.5297 132.574 71.7203 132.693C74.0994 132.931 77.6045 133.249 81.9103 133.563C90.5259 134.192 102.319 134.807 114.696 134.752C127.094 134.698 139.979 133.972 150.816 131.954C156.234 130.944 161.057 129.627 165.013 127.953C169.008 126.263 171.885 124.307 173.645 122.183L178.184 127.232C175.481 130.496 171.592 132.932 167.171 134.802C162.71 136.689 157.465 138.1 151.814 139.152C140.513 141.257 127.259 141.988 114.72 142.043C102.161 142.099 90.2216 141.476 81.5146 140.84C77.159 140.522 73.6052 140.2 71.1787 139.957C69.9665 139.836 69.0301 139.734 68.4124 139.661C68.1082 139.625 67.8634 139.594 67.6971 139.57L67.6944 139.57C67.6377 139.562 67.5033 139.543 67.3748 139.515L67.3742 139.515C67.344 139.508 67.2379 139.486 67.1076 139.445C67.0289 139.418 66.8135 139.334 66.6775 139.269C66.3777 139.096 65.336 137.988 64.8854 136.842C64.9331 134.816 66.411 132.732 66.9724 132.452C67.1843 132.383 67.5077 132.312 67.617 132.297Z" fill="#99A18E" fill-opacity="0.12"/>
<path fill-rule="evenodd" clip-rule="evenodd" d="M231.458 258.094C230.052 258.094 316.468 263.546 339.426 235.047L231.458 258.094Z" fill="#99A18E" fill-opacity="0.12"/>
<path fill-rule="evenodd" clip-rule="evenodd" d="M231.288 254.456C231.371 254.451 231.439 254.452 231.458 254.452V261.743L231.459 261.743C231.471 261.743 231.528 261.743 231.604 261.738C231.652 261.735 231.792 261.721 231.883 261.707C232.111 261.66 233.37 260.978 234.142 259.969C234.502 257.254 232.748 254.782 232.347 254.607C232.219 254.566 232.026 254.516 231.964 254.504C231.873 254.486 231.803 254.477 231.791 254.476L231.79 254.476C231.76 254.472 231.741 254.47 231.743 254.471C231.745 254.471 231.758 254.472 231.787 254.474C231.887 254.482 232.072 254.494 232.346 254.51C232.889 254.542 233.741 254.586 234.864 254.632C237.11 254.725 240.429 254.825 244.529 254.858C252.732 254.923 264.026 254.715 276.061 253.626C288.113 252.535 300.813 250.568 311.862 247.152C323.017 243.702 332.008 238.917 337.127 232.562L341.727 237.537C335.367 245.432 324.946 250.652 313.485 254.196C301.918 257.773 288.797 259.787 276.551 260.895C264.288 262.005 252.807 262.215 244.485 262.149C240.322 262.116 236.942 262.014 234.641 261.919C233.491 261.872 232.607 261.826 232.028 261.792C231.741 261.775 231.518 261.761 231.371 261.749C231.317 261.745 231.215 261.737 231.123 261.726L231.121 261.726C231.101 261.723 231.023 261.714 230.926 261.695C230.862 261.682 230.667 261.632 230.537 261.59C230.135 261.415 228.381 258.942 228.741 256.227C229.513 255.218 230.773 254.535 231.002 254.488C231.095 254.474 231.237 254.46 231.288 254.456Z" fill="#99A18E" fill-opacity="0.12"/>
<path fill-rule="evenodd" clip-rule="evenodd" d="M-0.0137138 39.4517C-1.41941 39.4517 17.5049 55.717 55.3523 72.4766L-0.0137138 39.4517Z" fill="#99A18E" fill-opacity="0.12"/>
<path fill-rule="evenodd" clip-rule="evenodd" d="M-1.61275 36.29C-0.93119 35.8439 -0.294655 35.8068 -0.0145226 35.8068V43.0979C0.221684 43.0979 0.824219 43.0688 1.48169 42.6385C2.29673 42.105 2.87154 41.1631 3.02075 40.0682C3.1412 39.1843 2.94369 38.506 2.85608 38.2434C2.75271 37.9336 2.63539 37.7179 2.58047 37.6221C2.49782 37.4779 2.42773 37.3849 2.40386 37.3549C2.41888 37.3725 2.45406 37.4125 2.51569 37.4769C2.83877 37.8146 3.49586 38.4206 4.54459 39.2849C6.60917 40.9866 9.93488 43.4796 14.5118 46.5163C23.656 52.5833 37.7017 60.759 56.4746 69.072L54.2285 75.8828C35.1541 67.4362 20.8139 59.0994 11.3854 52.8437C6.67603 49.7192 3.16875 47.0983 0.897636 45.2265C-0.221493 44.3041 -1.10793 43.5084 -1.69855 42.8911C-1.93578 42.6432 -2.35139 42.196 -2.66085 41.6561C-2.75109 41.4987 -2.89384 41.2289 -3.01274 40.8725C-3.11589 40.5633 -3.31904 39.846 -3.19432 38.9309C-3.04086 37.8047 -2.45187 36.8392 -1.61275 36.29ZM2.39513 37.3443C2.39524 37.3443 2.3983 37.3479 2.40386 37.3549C2.39779 37.3478 2.39501 37.3443 2.39513 37.3443Z" fill="#99A18E" fill-opacity="0.12"/>
</svg>
