<svg width="85" height="85" viewBox="0 0 85 85" fill="none" xmlns="http://www.w3.org/2000/svg">
<path d="M67.7344 50.4688C62.4425 50.4738 57.2609 51.9823 52.7934 54.8187C48.3258 57.655 44.756 61.7024 42.5 66.4893C40.244 61.7024 36.6742 57.655 32.2066 54.8187C27.7391 51.9823 22.5575 50.4738 17.2656 50.4688H2.65625V53.125C2.65625 68.504 15.1679 81.0156 30.5469 81.0156H54.4531C69.8321 81.0156 82.3438 68.504 82.3438 53.125V50.4688H67.7344ZM30.5469 75.7031C18.9953 75.7031 9.4423 66.9841 8.12414 55.7812H17.2656C28.8172 55.7812 38.3702 64.5002 39.6884 75.7031H30.5469ZM54.4531 75.7031H45.3116C46.6298 64.5002 56.1828 55.7812 67.7344 55.7812H76.8759C75.5577 66.9841 66.0047 75.7031 54.4531 75.7031Z" fill="#545A2F"/>
<path d="M28.0945 43.6281C28.5969 46.6152 30.0219 49.3701 32.1697 51.5061L32.9478 52.284H34.048C37.077 52.2924 40.0327 51.3522 42.5001 49.5952C44.9675 51.3524 47.9232 52.2929 50.9523 52.2847H52.0525L52.8306 51.5067C54.9784 49.3707 56.4034 46.6159 56.9058 43.6288C59.8929 43.1264 62.6478 41.7013 64.7838 39.5536L65.5617 38.7755V37.6753C65.5703 34.646 64.63 31.6901 62.8729 29.2224C64.6301 26.7551 65.5706 23.7994 65.5624 20.7702V19.6701L64.7844 18.8919C62.6484 16.7442 59.8936 15.3192 56.9065 14.8168C56.4041 11.8297 54.979 9.07481 52.8313 6.93882L52.0532 6.16087H50.953C47.9237 6.15232 44.9678 7.09257 42.5001 8.84966C40.0328 7.09245 37.0771 6.15196 34.048 6.16021H32.9478L32.1697 6.93816C30.0219 9.07414 28.5969 11.829 28.0945 14.8161C25.1074 15.3185 22.3525 16.7435 20.2165 18.8913L19.4386 19.6694V20.7696C19.43 23.7989 20.3703 26.7548 22.1274 29.2224C20.3702 31.6898 19.4297 34.6455 19.4379 37.6746V38.7748L20.2159 39.5529C22.352 41.7008 25.1071 43.1259 28.0945 43.6281ZM27.4742 27.3443C26.0011 25.88 25.0652 23.9614 24.818 21.899C26.451 20.6149 28.4696 19.9196 30.547 19.9256H33.2033V17.2693C33.1973 15.1921 33.8924 13.1737 35.1762 11.5408C37.2386 11.7879 39.1572 12.7238 40.6215 14.197L42.5001 16.074L44.3783 14.1959C45.8426 12.7227 47.7612 11.7868 49.8236 11.5396C51.1078 13.1728 51.8031 15.1917 51.797 17.2693V19.9256H54.4533C56.5304 19.9196 58.5488 20.6147 60.1818 21.8985C59.9346 23.9609 58.9987 25.8795 57.5256 27.3438L55.6486 29.2224L57.5269 31.1007C59.0001 32.5651 59.936 34.4837 60.1831 36.5461C58.5499 37.8302 56.5309 38.5255 54.4533 38.5193H51.797V41.1756C51.803 43.2527 51.1079 45.2711 49.8241 46.9041C47.7617 46.6569 45.8431 45.721 44.3788 44.2479L42.5001 42.3709L40.6218 44.2485C39.1575 45.7217 37.2389 46.6576 35.1765 46.9048C33.8925 45.2717 33.1972 43.253 33.2033 41.1756V38.5193H30.547C28.4699 38.5253 26.4514 37.8302 24.8185 36.5464C25.0656 34.484 26.0016 32.5654 27.4747 31.1011L29.3517 29.2224L27.4742 27.3443Z" fill="#545A2F"/>
</svg>
