<svg width="139" height="19" viewBox="0 0 139 19" fill="none" xmlns="http://www.w3.org/2000/svg">
<g clip-path="url(#clip0_85_6104)">
<path d="M1.139 9.05C1.139 10.801 1.581 12.263 2.482 13.436C3.383 14.609 4.573 15.204 6.018 15.204C7.463 15.204 8.636 14.609 9.537 13.436C10.438 12.263 10.88 10.801 10.88 9.05C10.88 7.299 10.438 5.837 9.537 4.664C8.636 3.491 7.463 2.896 6.018 2.896C4.573 2.896 3.383 3.491 2.482 4.681C1.581 5.854 1.139 7.316 1.139 9.05ZM9.639 9.05C9.639 10.478 9.299 11.668 8.619 12.62C7.956 13.555 7.089 14.031 6.018 14.031C4.947 14.031 4.08 13.555 3.4 12.62C2.737 11.668 2.397 10.478 2.397 9.05C2.397 7.639 2.737 6.449 3.417 5.497C4.097 4.545 4.964 4.069 6.018 4.069C7.072 4.069 7.939 4.545 8.619 5.497C9.299 6.449 9.639 7.639 9.639 9.05ZM16.5241 15V3.1H15.4191L12.6141 4.783V5.99L15.2831 4.46V15H16.5241Z" fill="white"/>
<path d="M117.139 9.05C117.139 10.801 117.581 12.263 118.482 13.436C119.383 14.609 120.573 15.204 122.018 15.204C123.463 15.204 124.636 14.609 125.537 13.436C126.438 12.263 126.88 10.801 126.88 9.05C126.88 7.299 126.438 5.837 125.537 4.664C124.636 3.491 123.463 2.896 122.018 2.896C120.573 2.896 119.383 3.491 118.482 4.681C117.581 5.854 117.139 7.316 117.139 9.05ZM125.639 9.05C125.639 10.478 125.299 11.668 124.619 12.62C123.956 13.555 123.089 14.031 122.018 14.031C120.947 14.031 120.08 13.555 119.4 12.62C118.737 11.668 118.397 10.478 118.397 9.05C118.397 7.639 118.737 6.449 119.417 5.497C120.097 4.545 120.964 4.069 122.018 4.069C123.072 4.069 123.939 4.545 124.619 5.497C125.299 6.449 125.639 7.639 125.639 9.05ZM132.201 15.204C133.493 15.204 134.564 14.83 135.431 14.099C136.298 13.368 136.74 12.399 136.74 11.226C136.74 10.138 136.332 9.254 135.516 8.574C134.717 7.894 133.782 7.537 132.745 7.52L136.298 4.035V3.1H129.226V4.239H134.598L130.926 7.826V8.693C131.351 8.574 131.793 8.523 132.252 8.523C134.224 8.523 135.482 9.594 135.482 11.226C135.482 12.093 135.142 12.773 134.479 13.283C133.816 13.776 133.034 14.031 132.133 14.031C130.824 14.031 129.685 13.691 128.733 13.028V14.337C129.651 14.915 130.807 15.204 132.201 15.204Z" fill="white"/>
<rect opacity="0.278995" x="22" y="9" width="90" height="1.5" fill="white"/>
<path d="M22 9H52V10.5H22V9Z" fill="white"/>
</g>
<defs>
<clipPath id="clip0_85_6104">
<rect width="139" height="19" fill="white"/>
</clipPath>
</defs>
</svg>
