<svg width="87" height="85" viewBox="0 0 87 85" fill="none" xmlns="http://www.w3.org/2000/svg">
<path d="M45.7945 38.25C44.0664 37.825 42.3383 36.975 41.0422 35.7C39.7461 35.275 39.3141 34 39.3141 33.15C39.3141 32.3 39.7461 31.025 40.6102 30.6C41.9062 29.75 43.2023 28.9 44.4984 29.325C47.0905 29.325 49.2507 30.6 50.5467 32.3L54.435 27.2C53.1389 25.925 51.8428 25.075 50.5467 24.225C49.2507 23.375 47.5226 22.95 45.7945 22.95V17H40.6102V22.95C38.45 23.375 36.2899 24.65 34.5618 26.35C32.8337 28.475 31.5376 31.025 31.9697 33.575C31.9697 36.125 32.8337 38.675 34.5618 40.375C36.7219 42.5 39.7461 43.775 42.3383 45.05C43.6343 45.475 45.3624 46.325 46.6585 47.175C47.5226 48.025 47.9546 49.3 47.9546 50.575C47.9546 51.85 47.5226 53.125 46.6585 54.4C45.3624 55.675 43.6343 56.1 42.3383 56.1C40.6102 56.1 38.45 55.675 37.154 54.4C35.8579 53.55 34.5618 52.275 33.6978 51L29.3775 55.675C30.6736 57.375 31.9697 58.65 33.6978 59.925C35.8579 61.2 38.45 62.475 41.0422 62.475V68H45.7945V61.625C48.3866 61.2 50.5467 59.925 52.2748 58.225C54.435 56.1 55.731 52.7 55.731 49.725C55.731 47.175 54.867 44.2 52.7068 42.5C50.5467 40.375 48.3866 39.1 45.7945 38.25ZM43.2023 8.5C24.1932 8.5 8.64032 23.8 8.64032 42.5C8.64032 61.2 24.1932 76.5 43.2023 76.5C62.2114 76.5 77.7643 61.2 77.7643 42.5C77.7643 23.8 62.2114 8.5 43.2023 8.5ZM43.2023 71.825C26.7854 71.825 13.3926 58.65 13.3926 42.5C13.3926 26.35 26.7854 13.175 43.2023 13.175C59.6192 13.175 73.012 26.35 73.012 42.5C73.012 58.65 59.6192 71.825 43.2023 71.825Z" fill="#545A2F"/>
</svg>
