<svg width="81" height="81" viewBox="0 0 81 81" fill="none" xmlns="http://www.w3.org/2000/svg">
<path d="M40.5 13C25.3118 13 13 25.3118 13 40.5C13 55.6882 25.3118 68 40.5 68C55.6882 68 68 55.6882 68 40.5C68 25.3118 55.6882 13 40.5 13Z" stroke="#545A2F" stroke-width="1.5" stroke-linecap="round" stroke-linejoin="round"/>
<path d="M29.5 65.712V46L40.5 26.75L51.5 46V65.712" stroke="#545A2F" stroke-width="1.5" stroke-linecap="round" stroke-linejoin="round"/>
<path d="M29.5 46C29.5 46 32.5993 48.75 35 48.75C37.4008 48.75 40.5 46 40.5 46C40.5 46 43.5993 48.75 46 48.75C48.4008 48.75 51.5 46 51.5 46" stroke="#545A2F" stroke-width="1.5" stroke-linecap="round" stroke-linejoin="round"/>
</svg>
