<svg width="44" height="44" viewBox="0 0 44 44" fill="none" xmlns="http://www.w3.org/2000/svg">
<path d="M11.2 21.9992C11.2 21.6412 11.3422 21.2978 11.5954 21.0446C11.8485 20.7915 12.1919 20.6492 12.55 20.6492H20.65V12.5492C20.65 12.1912 20.7922 11.8478 21.0454 11.5946C21.2985 11.3415 21.6419 11.1992 22 11.1992C22.358 11.1992 22.7014 11.3415 22.9545 11.5946C23.2077 11.8478 23.35 12.1912 23.35 12.5492V20.6492H31.4499C31.808 20.6492 32.1514 20.7915 32.4045 21.0446C32.6577 21.2978 32.7999 21.6412 32.7999 21.9992C32.7999 22.3573 32.6577 22.7006 32.4045 22.9538C32.1514 23.207 31.808 23.3492 31.4499 23.3492H23.35V31.4492C23.35 31.8073 23.2077 32.1506 22.9545 32.4038C22.7014 32.657 22.358 32.7992 22 32.7992C21.6419 32.7992 21.2985 32.657 21.0454 32.4038C20.7922 32.1506 20.65 31.8073 20.65 31.4492V23.3492H12.55C12.1919 23.3492 11.8485 23.207 11.5954 22.9538C11.3422 22.7006 11.2 22.3573 11.2 21.9992Z" fill="#545A2F"/>
<path d="M21.9999 43.5984C27.7286 43.5984 33.2226 41.3227 37.2734 37.2719C41.3242 33.2212 43.5999 27.7271 43.5999 21.9984C43.5999 16.2698 41.3242 10.7757 37.2734 6.72493C33.2226 2.67415 27.7286 0.398438 21.9999 0.398438C16.2712 0.398438 10.7772 2.67415 6.7264 6.72493C2.67561 10.7757 0.399902 16.2698 0.399902 21.9984C0.399902 27.7271 2.67561 33.2212 6.7264 37.2719C10.7772 41.3227 16.2712 43.5984 21.9999 43.5984ZM21.9999 40.8984C19.5179 40.8984 17.0602 40.4096 14.7672 39.4598C12.4741 38.5099 10.3906 37.1178 8.63558 35.3628C6.88056 33.6077 5.48839 31.5242 4.53858 29.2312C3.58877 26.9381 3.0999 24.4804 3.0999 21.9984C3.0999 19.5165 3.58877 17.0588 4.53858 14.7657C5.48839 12.4727 6.88056 10.3891 8.63558 8.63412C10.3906 6.87909 12.4741 5.48693 14.7672 4.53711C17.0602 3.5873 19.5179 3.09844 21.9999 3.09844C27.0125 3.09844 31.8198 5.08968 35.3642 8.63412C38.9087 12.1786 40.8999 16.9858 40.8999 21.9984C40.8999 27.011 38.9087 31.8183 35.3642 35.3628C31.8198 38.9072 27.0125 40.8984 21.9999 40.8984Z" fill="#545A2F"/>
</svg>
