<svg width="526" height="600" viewBox="0 0 526 600" fill="none" xmlns="http://www.w3.org/2000/svg">
<path fill-rule="evenodd" clip-rule="evenodd" d="M441.807 191.755C312.534 388.312 142.946 431.885 3.14283 429.042L3.13728 422.893C141.408 425.705 308.864 382.744 436.776 188.257L441.807 191.755Z" fill="#E9ECE0" fill-opacity="0.33"/>
<path fill-rule="evenodd" clip-rule="evenodd" d="M379.504 264.539C378.813 265.698 429.95 264.213 457.8 241.852L379.504 264.539Z" fill="#E9ECE0" fill-opacity="0.33"/>
<path fill-rule="evenodd" clip-rule="evenodd" d="M376.51 264.827C376.428 264.025 376.662 263.362 376.929 262.915L382.08 266.175C382.336 265.746 382.565 265.101 382.485 264.316C382.406 263.543 382.06 262.97 381.762 262.62C381.275 262.046 380.724 261.832 380.628 261.794L380.621 261.792C380.465 261.73 380.342 261.7 380.288 261.689C380.293 261.69 380.299 261.691 380.305 261.692C380.473 261.715 380.862 261.745 381.521 261.758C382.8 261.782 384.763 261.736 387.279 261.577C392.299 261.258 399.377 260.497 407.341 259.01C423.364 256.018 442.533 250.168 455.888 239.446L459.665 244.288C445.179 255.918 424.867 261.987 408.542 265.035C400.331 266.569 393.018 267.358 387.776 267.69C385.162 267.856 383.027 267.911 381.533 267.882C380.807 267.868 380.141 267.833 379.622 267.762C379.413 267.733 378.988 267.669 378.557 267.499L378.554 267.498C378.4 267.437 377.783 267.194 377.257 266.575C376.945 266.207 376.591 265.618 376.51 264.827ZM380.259 261.684C380.259 261.684 380.269 261.686 380.288 261.689C380.268 261.686 380.258 261.685 380.259 261.684Z" fill="#E9ECE0" fill-opacity="0.33"/>
<path fill-rule="evenodd" clip-rule="evenodd" d="M455.892 242.568C457.701 243.819 478.88 254.366 492.689 222.344L455.892 242.568Z" fill="#E9ECE0" fill-opacity="0.33"/>
<path fill-rule="evenodd" clip-rule="evenodd" d="M459.972 246.404C457.344 245.693 455.459 244.715 454.776 244.242L456.985 240.865C457.206 241.018 458.645 241.827 460.927 242.444C463.17 243.051 466.125 243.444 469.409 242.896C475.843 241.822 484.118 237.026 490.824 221.476L494.509 223.191C487.409 239.656 478.196 245.596 470.139 246.941C466.179 247.602 462.638 247.126 459.972 246.404Z" fill="#E9ECE0" fill-opacity="0.33"/>
<path fill-rule="evenodd" clip-rule="evenodd" d="M440.468 190.467C439.352 191.46 428.975 203.879 447.719 219.418L440.468 190.467Z" fill="#E9ECE0" fill-opacity="0.33"/>
<path fill-rule="evenodd" clip-rule="evenodd" d="M438.043 192.97C438.902 191.383 439.794 190.37 440.126 190.075L440.809 190.869C440.583 191.071 439.759 191.983 438.944 193.489C438.134 194.987 437.345 197.047 437.157 199.544C436.782 204.502 438.763 211.333 448.037 219.021L447.4 219.827C437.928 211.975 435.727 204.827 436.134 199.442C436.336 196.767 437.18 194.566 438.043 192.97Z" fill="#E9ECE0" fill-opacity="0.33"/>
<path fill-rule="evenodd" clip-rule="evenodd" d="M433.286 194.952C432.786 193.944 427.106 183.596 413.022 193.993L433.286 194.952Z" fill="#E9ECE0" fill-opacity="0.33"/>
<path fill-rule="evenodd" clip-rule="evenodd" d="M428.912 188.568C432.732 190.234 434.525 193.539 434.843 194.182L431.753 195.714C431.572 195.348 430.274 192.971 427.606 191.808C425.101 190.716 420.798 190.454 414.065 195.426L411.989 192.554C419.346 187.12 424.929 186.832 428.912 188.568Z" fill="#E9ECE0" fill-opacity="0.33"/>
<path fill-rule="evenodd" clip-rule="evenodd" d="M455.89 242.572C457.699 243.823 461.307 239.582 492.696 222.344L455.89 242.572Z" fill="#E9ECE0" fill-opacity="0.33"/>
<path fill-rule="evenodd" clip-rule="evenodd" d="M458.831 244.231C457.701 244.743 456.2 245.236 454.778 244.252L456.988 240.875C456.751 240.71 456.544 240.712 456.489 240.717C456.54 240.708 456.729 240.662 457.134 240.479C458.086 240.047 459.57 239.17 462.139 237.615C462.477 237.41 462.831 237.195 463.203 236.97C468.399 233.819 477.023 228.589 491.7 220.528L493.664 224.147C479.059 232.169 470.49 237.365 465.31 240.506C464.938 240.732 464.583 240.947 464.245 241.152C461.764 242.654 460.045 243.68 458.831 244.231ZM456.475 240.719C456.476 240.719 456.48 240.718 456.489 240.717C456.48 240.719 456.475 240.719 456.475 240.719Z" fill="#E9ECE0" fill-opacity="0.33"/>
<path fill-rule="evenodd" clip-rule="evenodd" d="M440.467 190.466C439.351 191.459 441.543 194.73 447.718 219.42L440.467 190.466Z" fill="#E9ECE0" fill-opacity="0.33"/>
<path fill-rule="evenodd" clip-rule="evenodd" d="M439.755 192.021C439.608 191.176 439.625 190.517 440.125 190.072L440.809 190.866C440.75 190.918 440.623 191.041 440.765 191.859C440.904 192.654 441.255 193.893 441.849 195.919C441.928 196.189 442.011 196.471 442.098 196.768C443.314 200.908 445.331 207.772 448.214 219.3L447.22 219.539C444.342 208.032 442.331 201.184 441.116 197.048C441.029 196.752 440.946 196.469 440.867 196.199C440.28 194.198 439.907 192.89 439.755 192.021Z" fill="#E9ECE0" fill-opacity="0.33"/>
<path fill-rule="evenodd" clip-rule="evenodd" d="M433.264 194.974C432.764 193.966 430.106 194.885 411.825 194.328L433.264 194.974Z" fill="#E9ECE0" fill-opacity="0.33"/>
<path fill-rule="evenodd" clip-rule="evenodd" d="M432.429 192.766C433.08 192.835 434.243 193.033 434.822 194.203L431.732 195.737C431.935 196.147 432.256 196.279 432.343 196.307C432.313 196.3 432.25 196.289 432.144 196.277C431.662 196.226 430.831 196.225 429.279 196.243C429.078 196.246 428.866 196.248 428.644 196.251C425.537 196.289 420.376 196.352 411.804 196.094L411.831 192.564C420.332 192.821 425.438 192.758 428.528 192.721C428.75 192.718 428.962 192.715 429.164 192.713C430.627 192.696 431.699 192.688 432.429 192.766ZM432.365 196.313C432.364 196.313 432.357 196.311 432.343 196.307C432.358 196.31 432.365 196.312 432.365 196.313Z" fill="#E9ECE0" fill-opacity="0.33"/>
<path fill-rule="evenodd" clip-rule="evenodd" d="M455.906 242.58C457.713 243.83 459.167 213.064 492.692 222.359L455.906 242.58Z" fill="#E9ECE0" fill-opacity="0.33"/>
<path fill-rule="evenodd" clip-rule="evenodd" d="M456.81 244.542C456.097 244.809 455.362 244.662 454.809 244.279L457.018 240.903C456.578 240.598 455.955 240.467 455.356 240.691C454.914 240.856 454.697 241.141 454.663 241.185L454.662 241.186C454.641 241.214 454.63 241.231 454.629 241.231C454.628 241.23 454.676 241.143 454.772 240.9C454.922 240.522 455.076 240.069 455.271 239.496C455.423 239.05 455.6 238.531 455.819 237.917C456.757 235.286 458.237 231.624 460.807 228.199C463.393 224.751 467.09 221.532 472.425 219.828C477.749 218.129 484.528 217.994 493.187 220.394L492.207 224.348C484.106 222.102 478.132 222.327 473.698 223.742C469.277 225.154 466.212 227.806 464.018 230.731C461.808 233.678 460.49 236.892 459.6 239.388C459.436 239.847 459.276 240.314 459.124 240.758C458.892 241.436 458.68 242.056 458.504 242.5C458.365 242.851 458.155 243.351 457.85 243.749C457.703 243.942 457.371 244.332 456.81 244.542Z" fill="#E9ECE0" fill-opacity="0.33"/>
<path fill-rule="evenodd" clip-rule="evenodd" d="M440.467 190.466C439.351 191.459 459.297 198.338 447.718 219.42L440.467 190.466Z" fill="#E9ECE0" fill-opacity="0.33"/>
<path fill-rule="evenodd" clip-rule="evenodd" d="M439.914 190.627C439.89 190.402 439.979 190.204 440.127 190.073L440.81 190.867C440.889 190.797 440.949 190.673 440.934 190.533C440.925 190.454 440.895 190.41 440.895 190.409C440.895 190.409 440.896 190.412 440.899 190.416C440.934 190.462 441.032 190.559 441.241 190.721C441.476 190.905 441.778 191.118 442.142 191.375C442.411 191.565 442.714 191.779 443.05 192.024C444.597 193.148 446.672 194.796 448.419 197.097C450.17 199.403 451.592 202.37 451.824 206.119C452.056 209.865 451.096 214.344 448.167 219.678L447.27 219.152C450.128 213.948 451.017 209.665 450.8 206.163C450.584 202.664 449.261 199.897 447.613 197.726C445.96 195.549 443.983 193.974 442.466 192.871C442.164 192.651 441.873 192.445 441.605 192.255C441.217 191.981 440.878 191.742 440.628 191.547C440.421 191.385 440.217 191.211 440.087 191.037C440.024 190.952 439.934 190.81 439.914 190.627Z" fill="#E9ECE0" fill-opacity="0.33"/>
<path fill-rule="evenodd" clip-rule="evenodd" d="M433.26 194.987C432.761 193.979 423.347 206.248 410.654 193.602L433.26 194.987Z" fill="#E9ECE0" fill-opacity="0.33"/>
<path fill-rule="evenodd" clip-rule="evenodd" d="M433.505 193.193C434.069 193.308 434.554 193.681 434.817 194.213L431.727 195.746C431.959 196.215 432.395 196.551 432.893 196.653C433.275 196.732 433.558 196.644 433.623 196.624C433.697 196.6 433.741 196.578 433.741 196.578C433.741 196.578 433.708 196.595 433.633 196.644C433.462 196.755 433.274 196.891 433.023 197.073C432.832 197.212 432.604 197.377 432.32 197.578C431.12 198.425 429.344 199.578 427.115 200.337C424.87 201.102 422.154 201.469 419.102 200.735C416.053 200.001 412.803 198.199 409.441 194.845L411.841 192.35C414.831 195.332 417.523 196.745 419.83 197.3C422.134 197.855 424.188 197.587 425.951 196.987C427.729 196.381 429.198 195.441 430.303 194.662C430.483 194.535 430.673 194.398 430.858 194.264C431.181 194.03 431.492 193.806 431.721 193.657C431.89 193.547 432.19 193.357 432.527 193.251C432.691 193.199 433.057 193.101 433.505 193.193Z" fill="#E9ECE0" fill-opacity="0.33"/>
<path fill-rule="evenodd" clip-rule="evenodd" d="M211.839 420.429C212.723 423.268 237.035 460.113 267.787 431.52L211.839 420.429Z" fill="#E9ECE0" fill-opacity="0.33"/>
<path fill-rule="evenodd" clip-rule="evenodd" d="M210.921 422.091C210.684 421.666 210.462 421.227 210.352 420.874L213.3 419.99C213.299 419.986 213.298 419.985 213.298 419.985C213.298 419.984 213.315 420.03 213.365 420.134C213.419 420.248 213.497 420.399 213.603 420.587C213.813 420.964 214.112 421.456 214.5 422.042C215.274 423.212 216.378 424.722 217.779 426.377C220.587 429.695 224.539 433.54 229.361 436.42C234.173 439.295 239.805 441.183 246.03 440.691C252.246 440.2 259.228 437.323 266.721 430.354L268.839 432.694C260.953 440.027 253.361 443.27 246.34 443.824C239.329 444.378 233.06 442.238 227.839 439.119C222.627 436.006 218.413 431.892 215.453 428.394C213.97 426.642 212.789 425.03 211.945 423.753C211.523 423.115 211.179 422.552 210.921 422.091Z" fill="#E9ECE0" fill-opacity="0.33"/>
<path fill-rule="evenodd" clip-rule="evenodd" d="M437.317 184.448C440.222 183.98 479.307 164.77 454.345 128.905L437.317 184.448Z" fill="#E9ECE0" fill-opacity="0.33"/>
<path fill-rule="evenodd" clip-rule="evenodd" d="M438.819 185.515C438.375 185.692 437.926 185.848 437.576 185.904L437.058 182.96C437.054 182.96 437.054 182.96 437.058 182.959C437.071 182.956 437.122 182.944 437.222 182.912C437.343 182.873 437.503 182.815 437.702 182.735C438.1 182.577 438.621 182.345 439.244 182.038C440.489 181.424 442.105 180.525 443.896 179.344C447.487 176.977 451.725 173.517 455.103 169.016C458.475 164.523 460.962 159.033 461.151 152.563C461.34 146.102 459.242 138.497 453.154 129.747L455.53 128.059C461.915 137.236 464.289 145.477 464.077 152.716C463.866 159.946 461.082 166.01 457.443 170.859C453.81 175.699 449.296 179.37 445.524 181.857C443.635 183.102 441.917 184.06 440.566 184.726C439.892 185.059 439.301 185.323 438.819 185.515Z" fill="#E9ECE0" fill-opacity="0.33"/>
<path fill-rule="evenodd" clip-rule="evenodd" d="M437.512 187.275C438.86 188.686 468.195 201.269 489.179 171.445L437.512 187.275Z" fill="#E9ECE0" fill-opacity="0.33"/>
<path fill-rule="evenodd" clip-rule="evenodd" d="M437.22 189.299C436.935 189.142 436.502 188.889 436.193 188.565L438.808 185.971C438.743 185.902 438.698 185.868 438.698 185.867C438.699 185.867 438.761 185.911 438.924 186.002C439.153 186.128 439.491 186.295 439.937 186.488C440.827 186.873 442.085 187.336 443.643 187.771C446.76 188.641 451.017 189.381 455.858 189.187C465.472 188.802 477.516 184.736 487.656 170.325L490.667 172.558C479.826 187.965 466.713 192.518 456.079 192.945C450.796 193.156 446.156 192.35 442.739 191.396C441.029 190.919 439.611 190.401 438.556 189.944C438.031 189.717 437.58 189.498 437.22 189.299Z" fill="#E9ECE0" fill-opacity="0.33"/>
<path fill-rule="evenodd" clip-rule="evenodd" d="M434.147 195.774C435.428 194.362 446.304 164.835 415.645 144.45L434.147 195.774Z" fill="#E9ECE0" fill-opacity="0.33"/>
<path fill-rule="evenodd" clip-rule="evenodd" d="M435.058 195.477C434.917 195.774 434.765 196.049 434.617 196.213L433.681 195.328C433.68 195.329 433.68 195.329 433.681 195.327C433.686 195.321 433.709 195.29 433.751 195.219C433.797 195.141 433.853 195.033 433.92 194.894C434.052 194.617 434.212 194.237 434.387 193.76C434.736 192.806 435.139 191.485 435.493 189.869C436.202 186.637 436.716 182.245 436.247 177.271C435.311 167.349 430.463 155.056 415.31 144.98L415.984 143.907C431.49 154.217 436.534 166.883 437.504 177.175C437.989 182.307 437.459 186.837 436.727 190.175C436.36 191.845 435.942 193.221 435.572 194.232C435.386 194.737 435.211 195.156 435.058 195.477Z" fill="#E9ECE0" fill-opacity="0.33"/>
<path fill-rule="evenodd" clip-rule="evenodd" d="M347.147 237.597C345.012 235.478 323.273 196.344 363.187 181.753L347.147 237.597Z" fill="#E9ECE0" fill-opacity="0.33"/>
<path fill-rule="evenodd" clip-rule="evenodd" d="M348.49 236.19C348.503 236.207 348.505 236.21 348.497 236.201L345.81 239.013C345.512 238.718 345.203 238.282 344.932 237.869C344.631 237.411 344.282 236.83 343.902 236.145C343.143 234.773 342.24 232.941 341.353 230.77C339.583 226.439 337.839 220.669 337.467 214.447C337.093 208.212 338.095 201.456 341.897 195.278C345.705 189.091 352.207 183.672 362.498 179.909L363.882 183.646C354.225 187.177 348.481 192.12 345.209 197.437C341.93 202.764 341.016 208.656 341.353 214.29C341.692 219.938 343.286 225.257 344.944 229.313C345.77 231.336 346.603 233.022 347.284 234.252C347.625 234.868 347.922 235.359 348.155 235.714C348.345 236.004 348.455 236.146 348.49 236.19Z" fill="#E9ECE0" fill-opacity="0.33"/>
<path fill-rule="evenodd" clip-rule="evenodd" d="M211.909 420.386C212.794 423.217 220.146 422.003 267.802 431.469L211.909 420.386Z" fill="#E9ECE0" fill-opacity="0.33"/>
<path fill-rule="evenodd" clip-rule="evenodd" d="M213.929 423.494C212.331 423.05 210.917 422.403 210.425 420.826L213.369 419.945C213.367 419.941 213.364 419.935 213.36 419.93C213.359 419.928 213.358 419.927 213.358 419.927C213.357 419.926 213.375 419.948 213.435 419.989C213.601 420.101 213.953 420.269 214.677 420.47C216.129 420.872 218.514 421.268 222.508 421.891C223.037 421.973 223.592 422.059 224.174 422.15C232.309 423.413 245.801 425.509 268.076 429.933L267.552 433.01C245.34 428.599 231.897 426.511 223.776 425.25C223.194 425.159 222.639 425.073 222.11 424.991C218.194 424.38 215.595 423.956 213.929 423.494Z" fill="#E9ECE0" fill-opacity="0.33"/>
<path fill-rule="evenodd" clip-rule="evenodd" d="M437.357 184.587C440.278 184.12 439.854 176.381 454.408 128.923L437.357 184.587Z" fill="#E9ECE0" fill-opacity="0.33"/>
<path fill-rule="evenodd" clip-rule="evenodd" d="M440.574 182.928C439.962 184.495 439.184 185.794 437.62 186.045L437.097 183.094L437.112 183.091L437.115 183.09C437.115 183.09 437.115 183.09 437.115 183.09M440.574 182.928C441.21 181.297 441.91 178.705 442.939 174.781L440.574 182.928ZM442.939 174.781C443.078 174.251 443.224 173.694 443.377 173.11L442.939 174.781ZM443.377 173.11C445.505 164.977 449.029 151.514 455.807 129.418L443.377 173.11ZM455.807 129.418L452.999 128.469L455.807 129.418ZM452.999 128.469C446.203 150.624 442.667 164.133 440.535 172.28L452.999 128.469ZM440.535 172.28C440.382 172.864 440.237 173.42 440.098 173.95L440.535 172.28ZM440.098 173.95C439.049 177.947 438.397 180.339 437.838 181.772L440.098 173.95ZM437.838 181.772C437.559 182.487 437.349 182.834 437.209 183L437.838 181.772ZM437.209 183C437.148 183.072 437.116 183.09 437.116 183.09L437.209 183ZM437.116 183.09C437.116 183.09 437.116 183.09 437.115 183.09L437.116 183.09Z" fill="#E9ECE0" fill-opacity="0.33"/>
<path fill-rule="evenodd" clip-rule="evenodd" d="M85.9745 397.183C88.607 397.928 93.4172 388.921 136.549 341.188L85.9745 397.183Z" fill="#E9ECE0" fill-opacity="0.33"/>
<path fill-rule="evenodd" clip-rule="evenodd" d="M88.1625 398.687C87.4296 399.108 86.5179 399.389 85.503 399.102L86.4853 395.224C86.2282 395.151 86.0594 395.214 86.0589 395.213C86.0588 395.213 86.0846 395.202 86.1413 395.17C86.3827 395.031 86.8093 394.701 87.5282 393.986C88.9506 392.571 91.0821 390.099 94.5628 386.01C95.0255 385.467 95.511 384.896 96.0204 384.297C103.126 375.941 114.907 362.089 135.022 339.806L137.983 342.564C117.905 364.806 106.153 378.625 99.0552 386.971C98.5458 387.57 98.0603 388.141 97.5975 388.685C94.1639 392.718 91.9092 395.34 90.3455 396.895C89.5715 397.665 88.8551 398.289 88.1625 398.687Z" fill="#E9ECE0" fill-opacity="0.33"/>
<path fill-rule="evenodd" clip-rule="evenodd" d="M437.509 187.279C438.858 188.69 445.025 185.037 488.529 172.133L437.509 187.279Z" fill="#E9ECE0" fill-opacity="0.33"/>
<path fill-rule="evenodd" clip-rule="evenodd" d="M438.287 189.438C437.617 189.421 436.825 189.234 436.193 188.572L438.808 185.977C438.551 185.708 438.286 185.679 438.286 185.678C438.287 185.678 438.292 185.678 438.305 185.679C438.444 185.682 438.78 185.651 439.468 185.487C440.826 185.163 442.998 184.464 446.605 183.279C447.083 183.121 447.585 182.956 448.112 182.783C455.464 180.362 467.655 176.348 487.982 170.318L489.079 173.931C468.803 179.946 456.65 183.947 449.309 186.364C448.783 186.538 448.281 186.703 447.802 186.86C444.26 188.025 441.917 188.782 440.379 189.149C439.62 189.331 438.913 189.454 438.287 189.438Z" fill="#E9ECE0" fill-opacity="0.33"/>
<path fill-rule="evenodd" clip-rule="evenodd" d="M434.146 195.775C435.428 194.363 431.41 188.215 415.645 144.451L434.146 195.775Z" fill="#E9ECE0" fill-opacity="0.33"/>
<path fill-rule="evenodd" clip-rule="evenodd" d="M434.997 194.937C435.02 195.426 434.926 195.869 434.615 196.212L433.679 195.327L433.679 195.326C433.691 195.315 433.748 195.252 433.735 194.971C433.721 194.667 433.628 194.204 433.41 193.487C432.977 192.06 432.114 189.821 430.703 186.218C430.514 185.737 430.317 185.233 430.109 184.704C427.213 177.321 422.412 165.085 415.053 144.658L416.238 144.238C423.591 164.647 428.386 176.87 431.281 184.249C431.489 184.778 431.686 185.282 431.875 185.763C433.278 189.344 434.164 191.641 434.617 193.131C434.842 193.873 434.975 194.464 434.997 194.937Z" fill="#E9ECE0" fill-opacity="0.33"/>
<path fill-rule="evenodd" clip-rule="evenodd" d="M347.082 237.578C344.931 235.452 349.463 229.336 363.142 181.599L347.082 237.578Z" fill="#E9ECE0" fill-opacity="0.33"/>
<path fill-rule="evenodd" clip-rule="evenodd" d="M348.543 236.327C348.529 236.29 348.498 236.232 348.436 236.171L345.739 238.988C344.384 237.647 344.506 235.865 344.853 234.197C345.218 232.441 346.056 229.857 347.327 226.026C347.499 225.507 347.68 224.962 347.87 224.391C350.516 216.429 354.896 203.253 361.265 181.031L365.024 182.223C358.632 204.524 354.233 217.759 351.581 225.738C351.391 226.31 351.21 226.854 351.038 227.373C349.736 231.3 348.99 233.626 348.683 235.104C348.521 235.881 348.529 236.219 348.543 236.327ZM348.553 236.369C348.551 236.371 348.547 236.359 348.543 236.327C348.552 236.352 348.554 236.368 348.553 236.369Z" fill="#E9ECE0" fill-opacity="0.33"/>
<path fill-rule="evenodd" clip-rule="evenodd" d="M211.914 420.383C245.403 441.545 241.396 434.139 267.804 431.465L211.914 420.383Z" fill="#E9ECE0" fill-opacity="0.33"/>
<path fill-rule="evenodd" clip-rule="evenodd" d="M242.437 436.438C235.496 435.947 227.793 432.261 211.102 421.705L212.692 419.055C229.499 429.685 236.542 432.883 242.578 433.309C245.599 433.523 248.441 433.048 252.316 432.304C252.648 432.24 252.988 432.174 253.334 432.107C257.007 431.397 261.515 430.526 267.62 429.905L268.001 433.026C262.034 433.632 257.645 434.48 253.978 435.189C253.633 435.256 253.294 435.322 252.96 435.386C249.108 436.125 245.904 436.683 242.437 436.438Z" fill="#E9ECE0" fill-opacity="0.33"/>
<path fill-rule="evenodd" clip-rule="evenodd" d="M437.347 184.562C462.04 153.486 454.226 156.445 454.394 128.922L437.347 184.562Z" fill="#E9ECE0" fill-opacity="0.33"/>
<path fill-rule="evenodd" clip-rule="evenodd" d="M456.501 155.7C455.27 162.71 450.795 170.017 438.504 185.496L436.203 183.589C448.574 168.008 452.53 161.263 453.609 155.112C454.15 152.033 453.982 149.033 453.66 144.946C453.633 144.595 453.604 144.237 453.575 143.871C453.265 139.996 452.884 135.244 452.926 128.893L455.863 128.981C455.822 135.196 456.193 139.831 456.502 143.701C456.531 144.065 456.56 144.423 456.588 144.775C456.908 148.839 457.115 152.198 456.501 155.7Z" fill="#E9ECE0" fill-opacity="0.33"/>
<path fill-rule="evenodd" clip-rule="evenodd" d="M85.9795 397.165C126.265 372.538 118.088 372.491 136.518 341.178L85.9795 397.165Z" fill="#E9ECE0" fill-opacity="0.33"/>
<path fill-rule="evenodd" clip-rule="evenodd" d="M121.005 372.922C115.469 380.252 107.152 386.586 87.0758 398.881L84.9682 395.421C105.093 383.095 112.798 377.096 117.836 370.425C120.364 367.078 122.256 363.512 124.713 358.714C124.924 358.301 125.139 357.88 125.358 357.45C127.685 352.895 130.527 347.33 134.762 340.129L138.181 342.253C134.006 349.35 131.211 354.822 128.887 359.373C128.668 359.802 128.453 360.223 128.242 360.636C125.795 365.417 123.763 369.269 121.005 372.922Z" fill="#E9ECE0" fill-opacity="0.33"/>
<path fill-rule="evenodd" clip-rule="evenodd" d="M347.1 237.584C343.593 197.286 348.419 204.38 363.156 181.633L347.1 237.584Z" fill="#E9ECE0" fill-opacity="0.33"/>
<path fill-rule="evenodd" clip-rule="evenodd" d="M350.093 203.864C347.712 209.437 347.296 217.217 349.044 237.435L345.155 237.695C343.422 217.652 343.673 208.845 346.507 202.213C347.922 198.9 349.946 196.217 352.403 193.067C352.616 192.794 352.833 192.517 353.054 192.235C355.399 189.237 358.198 185.661 361.512 180.542L364.787 182.779C361.376 188.046 358.484 191.743 356.134 194.746C355.912 195.03 355.695 195.307 355.482 195.579C353.007 198.752 351.285 201.075 350.093 203.864Z" fill="#E9ECE0" fill-opacity="0.33"/>
<path fill-rule="evenodd" clip-rule="evenodd" d="M211.917 420.37C232.101 427.516 238.803 406.624 267.816 431.453L211.917 420.37Z" fill="#E9ECE0" fill-opacity="0.33"/>
<path fill-rule="evenodd" clip-rule="evenodd" d="M231.656 421.903C225.84 423.264 219.56 424.733 211.425 421.851L212.382 418.891C219.591 421.444 224.772 420.241 230.413 418.931C232.289 418.496 234.216 418.048 236.285 417.723C240.374 417.081 244.819 417.011 250.132 418.751C255.415 420.482 261.455 423.968 268.811 430.27L266.85 432.648C259.696 426.519 254.015 423.298 249.246 421.736C244.507 420.184 240.57 420.237 236.829 420.825C235.121 421.093 233.41 421.493 231.656 421.903Z" fill="#E9ECE0" fill-opacity="0.33"/>
<path fill-rule="evenodd" clip-rule="evenodd" d="M437.387 184.604C446.673 165.006 426.589 154.881 454.433 128.975L437.387 184.604Z" fill="#E9ECE0" fill-opacity="0.33"/>
<path fill-rule="evenodd" clip-rule="evenodd" d="M440.943 164.609C441.664 170.774 442.439 177.397 438.716 185.257L436.067 183.913C439.393 176.893 438.753 171.36 438.061 165.37C437.831 163.385 437.596 161.349 437.497 159.192C437.302 154.915 437.711 150.367 440.003 145.211C442.283 140.082 446.384 134.442 453.425 127.884L455.433 130.106C448.573 136.495 444.754 141.829 442.682 146.49C440.622 151.124 440.249 155.184 440.429 159.12C440.511 160.922 440.725 162.745 440.943 164.609Z" fill="#E9ECE0" fill-opacity="0.33"/>
<path fill-rule="evenodd" clip-rule="evenodd" d="M85.9745 397.183C106.404 378.894 97.1475 358.536 136.549 341.188L85.9745 397.183Z" fill="#E9ECE0" fill-opacity="0.33"/>
<path fill-rule="evenodd" clip-rule="evenodd" d="M102.615 376.453C99.1035 383.78 95.4168 391.473 87.3585 398.698L84.6887 395.652C92.1217 388.987 95.3843 382.193 98.8322 375.012C99.9593 372.664 101.106 370.276 102.425 367.837C107.785 357.925 115.628 348.201 135.684 339.351L137.341 343.051C118.079 351.551 110.874 360.673 105.917 369.839C104.752 371.993 103.692 374.206 102.615 376.453Z" fill="#E9ECE0" fill-opacity="0.33"/>
<path fill-rule="evenodd" clip-rule="evenodd" d="M347.082 237.578C350.036 215.898 372.07 219.557 363.142 181.599L347.082 237.578Z" fill="#E9ECE0" fill-opacity="0.33"/>
<path fill-rule="evenodd" clip-rule="evenodd" d="M357.259 221.729C353.471 226.219 350.062 230.259 349.022 237.873L345.147 237.239C346.356 228.388 350.7 223.261 354.647 218.603C355.823 217.215 356.963 215.869 357.975 214.478C360.222 211.391 362.073 207.896 362.869 202.945C363.672 197.954 363.423 191.35 361.238 182.033L365.042 181.195C367.304 190.842 367.641 198.005 366.729 203.673C365.811 209.382 363.648 213.44 361.138 216.889C359.853 218.655 358.535 220.218 357.259 221.729Z" fill="#E9ECE0" fill-opacity="0.33"/>
<path fill-rule="evenodd" clip-rule="evenodd" d="M211.933 420.319C212.816 423.159 251.472 392.845 267.891 431.411L211.933 420.319Z" fill="#E9ECE0" fill-opacity="0.33"/>
<path fill-rule="evenodd" clip-rule="evenodd" d="M211.744 422.013C211.225 421.871 210.668 421.476 210.447 420.764L213.396 419.879C213.23 419.345 212.802 419.062 212.482 418.975C212.349 418.939 212.251 418.939 212.214 418.941C212.218 418.94 212.223 418.94 212.228 418.939C212.384 418.912 212.718 418.81 213.299 418.571C214.061 418.258 215.02 417.81 216.189 417.264C216.764 416.995 217.39 416.703 218.068 416.391C222.097 414.539 227.656 412.157 233.748 410.918C239.839 409.68 246.592 409.555 252.94 412.359C259.329 415.181 265.085 420.871 269.318 430.821L266.481 432.014C262.504 422.665 257.269 417.673 251.761 415.24C246.212 412.789 240.163 412.836 234.421 414.004C228.682 415.171 223.38 417.431 219.396 419.263C218.779 419.546 218.186 419.823 217.625 420.086C216.409 420.653 215.343 421.151 214.514 421.492C213.921 421.736 213.318 421.956 212.802 422.043C212.558 422.084 212.164 422.127 211.744 422.013ZM212.198 418.943C212.198 418.942 212.204 418.942 212.214 418.941C212.203 418.943 212.198 418.943 212.198 418.943Z" fill="#E9ECE0" fill-opacity="0.33"/>
<path fill-rule="evenodd" clip-rule="evenodd" d="M437.431 184.616C440.335 184.148 414.556 139.956 454.457 129.082L437.431 184.616Z" fill="#E9ECE0" fill-opacity="0.33"/>
<path fill-rule="evenodd" clip-rule="evenodd" d="M438.987 185.002C438.801 185.484 438.376 185.964 437.691 186.074L437.174 183.13C436.671 183.211 436.371 183.576 436.26 183.863C436.217 183.976 436.206 184.062 436.204 184.095C436.204 184.09 436.204 184.082 436.203 184.073C436.194 183.897 436.126 183.531 435.953 182.9C435.726 182.071 435.387 181.018 434.974 179.738C434.772 179.11 434.551 178.427 434.318 177.689C432.928 173.29 431.184 167.254 430.623 160.851C430.063 154.449 430.673 147.552 434.113 141.519C437.575 135.45 443.789 130.452 454.046 127.655L454.859 130.535C445.182 133.174 439.665 137.773 436.651 143.058C433.616 148.378 433.007 154.591 433.537 160.649C434.068 166.705 435.725 172.478 437.101 176.832C437.314 177.507 437.524 178.157 437.722 178.771C438.15 180.098 438.525 181.26 438.77 182.157C438.946 182.8 439.095 183.441 439.124 183.969C439.138 184.22 439.137 184.611 438.987 185.002ZM436.204 184.11C436.204 184.11 436.204 184.105 436.204 184.095C436.204 184.106 436.204 184.111 436.204 184.11Z" fill="#E9ECE0" fill-opacity="0.33"/>
<path fill-rule="evenodd" clip-rule="evenodd" d="M86.0812 397.1C88.6934 397.841 100.153 336.396 138.997 341.499L86.0812 397.1ZM86.0812 397.1C88.6934 397.841 133.154 391.527 137.149 339.65L86.0812 397.1Z" fill="#E9ECE0" fill-opacity="0.33"/>
<path fill-rule="evenodd" clip-rule="evenodd" d="M87.181 399.193C86.725 399.211 86.1046 399.216 85.598 399.072L82.27 398.129L85.1247 395.128C85.2646 394.84 85.4401 394.435 85.6555 393.896C86.0784 392.838 86.5762 391.466 87.1766 389.811C87.4637 389.019 87.7743 388.163 88.1114 387.245C90.1682 381.646 93.1003 374.082 97.197 366.632C105.317 351.867 118.487 336.749 139.197 339.47L143.258 340.003L138.626 344.872C135.489 368.391 123.823 382.086 112.231 389.826C106.066 393.943 99.9486 396.361 95.1932 397.705C92.815 398.377 90.7612 398.785 89.193 399.001C88.4108 399.109 87.7314 399.172 87.181 399.193ZM134.466 343.266C118.744 343.304 108.052 355.394 100.734 368.7C97.0734 375.357 94.3576 382.149 92.3561 387.528L134.466 343.266ZM133.601 350.153C129.63 368.793 119.701 379.869 109.962 386.373C104.195 390.224 98.466 392.488 94.0325 393.74C93.1379 393.993 92.2986 394.204 91.5252 394.378L133.601 350.153Z" fill="#E9ECE0" fill-opacity="0.33"/>
<path fill-rule="evenodd" clip-rule="evenodd" d="M437.516 187.255C438.864 188.666 468.012 156.089 490.16 173.5L437.516 187.255Z" fill="#E9ECE0" fill-opacity="0.33"/>
<path fill-rule="evenodd" clip-rule="evenodd" d="M438.116 189.146C437.84 189.203 436.932 189.332 436.199 188.566L438.814 185.971C438.166 185.293 437.396 185.444 437.311 185.461C437.23 185.478 437.175 185.498 437.155 185.506C437.163 185.503 437.175 185.497 437.193 185.487C437.36 185.397 437.663 185.198 438.141 184.842C438.778 184.367 439.571 183.734 440.535 182.966C440.997 182.597 441.498 182.198 442.04 181.769C445.328 179.17 449.879 175.703 455.116 172.736C465.47 166.87 479.249 162.568 491.279 172.026L489.066 174.985C478.939 167.023 467.06 170.308 456.957 176.031C451.965 178.859 447.588 182.188 444.337 184.758C443.838 185.153 443.36 185.534 442.907 185.895C441.911 186.689 441.041 187.383 440.355 187.894C439.863 188.26 439.379 188.599 438.96 188.823C438.763 188.929 438.463 189.074 438.116 189.146ZM437.146 185.51C437.146 185.51 437.149 185.509 437.155 185.506C437.149 185.509 437.146 185.51 437.146 185.51Z" fill="#E9ECE0" fill-opacity="0.33"/>
<path fill-rule="evenodd" clip-rule="evenodd" d="M434.147 195.773C435.429 194.362 400.232 167.475 415.646 144.45L434.147 195.773Z" fill="#E9ECE0" fill-opacity="0.33"/>
<path fill-rule="evenodd" clip-rule="evenodd" d="M434.763 195.386C434.813 195.549 434.883 195.916 434.612 196.214L433.676 195.33C433.587 195.427 433.554 195.54 433.548 195.625C433.543 195.698 433.557 195.744 433.558 195.746L433.558 195.746C433.558 195.746 433.558 195.746 433.558 195.746C433.558 195.746 433.553 195.732 433.536 195.701C433.519 195.667 433.493 195.622 433.455 195.565C433.3 195.328 433.023 194.986 432.62 194.531C432.079 193.919 431.359 193.156 430.502 192.247C430.089 191.81 429.645 191.338 429.174 190.834C426.29 187.75 422.465 183.509 419.08 178.58C412.338 168.76 407.178 155.951 415.119 144.089L416.168 144.829C408.698 155.987 413.43 168.128 420.11 177.857C423.437 182.702 427.207 186.885 430.08 189.957C430.537 190.447 430.974 190.91 431.384 191.345C432.251 192.265 432.995 193.053 433.55 193.681C433.957 194.141 434.289 194.543 434.501 194.866C434.604 195.023 434.706 195.203 434.763 195.386Z" fill="#E9ECE0" fill-opacity="0.33"/>
<path fill-rule="evenodd" clip-rule="evenodd" d="M347.045 237.461C344.907 235.34 390.062 214.38 363.091 181.582L347.045 237.461Z" fill="#E9ECE0" fill-opacity="0.33"/>
<path fill-rule="evenodd" clip-rule="evenodd" d="M348.879 237.65C348.972 237.215 348.899 236.548 348.384 236.037L345.695 238.85C345.046 238.206 344.932 237.37 345.068 236.729C345.178 236.214 345.438 235.825 345.6 235.607C345.944 235.144 346.449 234.677 346.944 234.251C347.641 233.652 348.593 232.908 349.671 232.067C350.165 231.681 350.685 231.275 351.218 230.853C354.703 228.098 359.16 224.365 362.842 219.741C366.525 215.116 369.327 209.731 369.701 203.674C370.071 197.674 368.076 190.712 361.599 182.832L364.566 180.324C371.566 188.839 374.037 196.791 373.592 204.009C373.15 211.169 369.856 217.304 365.892 222.281C361.926 227.261 357.185 231.214 353.651 234.008C353.051 234.483 352.495 234.917 351.986 235.314C350.96 236.115 350.124 236.768 349.497 237.307C349.02 237.717 348.801 237.948 348.73 238.043C348.758 237.998 348.834 237.862 348.879 237.65ZM348.727 238.046C348.728 238.045 348.729 238.044 348.73 238.043L348.727 238.046Z" fill="#E9ECE0" fill-opacity="0.33"/>
<path fill-rule="evenodd" clip-rule="evenodd" d="M333.1 359.735C335.708 362.356 367.424 386.394 399.317 338.836L333.1 359.735Z" fill="#E9ECE0" fill-opacity="0.33"/>
<path fill-rule="evenodd" clip-rule="evenodd" d="M355.217 370.099C342.362 369.687 333.315 362.724 331.73 361.131L334.441 358.318C335.463 359.346 343.575 365.71 355.199 366.083C366.63 366.449 381.978 361.029 397.653 337.656L400.928 340.007C384.716 364.181 368.265 370.518 355.217 370.099Z" fill="#E9ECE0" fill-opacity="0.33"/>
<path fill-rule="evenodd" clip-rule="evenodd" d="M333.105 359.729C335.712 362.35 342.853 356.632 399.318 338.832L333.105 359.729Z" fill="#E9ECE0" fill-opacity="0.33"/>
<path fill-rule="evenodd" clip-rule="evenodd" d="M337.097 362.029C335.129 362.486 333.21 362.616 331.733 361.131L334.445 358.318C334.441 358.315 334.427 358.304 334.407 358.295C334.402 358.292 334.4 358.291 334.399 358.291C334.399 358.291 334.428 358.302 334.503 358.31C334.737 358.335 335.203 358.314 336.093 358.107C337.875 357.693 340.651 356.717 345.283 355.036C345.897 354.814 346.54 354.58 347.216 354.334C356.646 350.905 372.286 345.218 398.673 336.899L399.958 340.744C373.648 349.039 358.066 354.705 348.653 358.128C347.977 358.373 347.334 358.607 346.72 358.83C342.181 360.477 339.153 361.552 337.097 362.029Z" fill="#E9ECE0" fill-opacity="0.33"/>
<path fill-rule="evenodd" clip-rule="evenodd" d="M346.339 357.352C354.962 342.337 357 336.746 358.766 333.8L346.339 357.352Z" fill="#E9ECE0" fill-opacity="0.33"/>
<path fill-rule="evenodd" clip-rule="evenodd" d="M356.91 342.031C355.1 345.696 352.44 350.868 348.152 358.392L344.637 356.248C348.885 348.794 351.51 343.69 353.287 340.09C353.845 338.961 354.329 337.958 354.76 337.065C355.671 335.178 356.344 333.783 356.971 332.728L360.451 334.933C359.91 335.841 359.351 337 358.507 338.75C358.066 339.665 357.546 340.743 356.91 342.031Z" fill="#E9ECE0" fill-opacity="0.33"/>
<path fill-rule="evenodd" clip-rule="evenodd" d="M360.225 351.453C367.551 338.591 369.155 333.725 370.663 331.207L360.225 351.453Z" fill="#E9ECE0" fill-opacity="0.33"/>
<path fill-rule="evenodd" clip-rule="evenodd" d="M369.411 338.405C367.899 341.571 365.666 346.028 362.019 352.48L358.53 350.362C362.131 343.992 364.323 339.614 365.798 336.524C366.251 335.575 366.648 334.722 367.003 333.957C367.768 332.311 368.344 331.071 368.893 330.147L372.341 332.336C371.893 333.09 371.445 334.054 370.756 335.538C370.389 336.33 369.953 337.27 369.411 338.405Z" fill="#E9ECE0" fill-opacity="0.33"/>
<path fill-rule="evenodd" clip-rule="evenodd" d="M375.061 346.612C380.272 337.266 381.169 333.584 382.258 331.763L375.061 346.612Z" fill="#E9ECE0" fill-opacity="0.33"/>
<path fill-rule="evenodd" clip-rule="evenodd" d="M382.025 337.265C380.998 339.623 379.457 342.92 376.85 347.628L373.34 345.527C375.885 340.933 377.371 337.747 378.352 335.497C378.68 334.742 378.945 334.109 379.183 333.541C379.307 333.245 379.423 332.966 379.538 332.698C379.853 331.956 380.156 331.278 380.498 330.701L383.95 332.902C383.755 333.231 383.542 333.69 383.225 334.435C383.126 334.667 383.017 334.927 382.897 335.214C382.653 335.797 382.363 336.489 382.025 337.265Z" fill="#E9ECE0" fill-opacity="0.33"/>
<path fill-rule="evenodd" clip-rule="evenodd" d="M333.105 359.729C335.712 362.35 346.967 312.807 399.318 338.832L333.105 359.729Z" fill="#E9ECE0" fill-opacity="0.33"/>
<path fill-rule="evenodd" clip-rule="evenodd" d="M333.745 361.835C332.969 361.961 332.245 361.666 331.741 361.16L334.453 358.345C334.112 358.002 333.569 357.77 332.992 357.863C332.766 357.9 332.605 357.976 332.517 358.026C332.429 358.077 332.38 358.12 332.37 358.129C332.356 358.141 332.399 358.103 332.504 357.963C332.602 357.832 332.724 357.652 332.874 357.413C333.241 356.827 333.652 356.093 334.157 355.19C334.537 354.512 334.97 353.738 335.478 352.862C337.753 348.93 341.158 343.595 346.217 338.995C351.295 334.377 358.048 330.492 366.976 329.496C375.893 328.5 386.799 330.405 400.148 337.041L398.528 340.645C385.691 334.263 375.55 332.6 367.544 333.493C359.55 334.386 353.505 337.848 348.896 342.04C344.266 346.25 341.094 351.187 338.888 354.999C338.461 355.737 338.053 356.464 337.674 357.14C337.115 358.136 336.618 359.021 336.215 359.665C335.886 360.19 335.482 360.788 335.021 361.199C334.797 361.398 334.365 361.735 333.745 361.835Z" fill="#E9ECE0" fill-opacity="0.33"/>
<path fill-rule="evenodd" clip-rule="evenodd" d="M242.369 372.355C241.688 373.502 306.18 377.414 335.773 360.52L242.369 372.355Z" fill="#E9ECE0" fill-opacity="0.33"/>
<path fill-rule="evenodd" clip-rule="evenodd" d="M239.475 373.132C239.22 372.218 239.405 371.356 239.78 370.724L244.932 374.022C245.296 373.408 245.478 372.564 245.228 371.668C245.012 370.893 244.564 370.415 244.333 370.202C243.92 369.82 243.518 369.667 243.471 369.649L243.467 369.648C243.375 369.612 243.316 369.596 243.315 369.596C243.314 369.596 243.349 369.605 243.432 369.622C243.739 369.682 244.304 369.764 245.156 369.853C246.829 370.028 249.342 370.206 252.511 370.336C258.841 370.597 267.673 370.665 277.446 370.175C297.155 369.186 320.063 365.947 334.221 357.865L337.291 363.213C321.858 372.024 297.725 375.275 277.961 376.267C267.998 376.767 258.986 376.698 252.491 376.43C249.248 376.297 246.603 376.113 244.764 375.92C243.86 375.826 243.08 375.722 242.503 375.608C242.249 375.557 241.863 375.473 241.493 375.328L241.489 375.326C241.357 375.274 240.874 375.084 240.409 374.656C240.157 374.424 239.697 373.926 239.475 373.132Z" fill="#E9ECE0" fill-opacity="0.33"/>
<path fill-rule="evenodd" clip-rule="evenodd" d="M242.369 372.355C241.688 373.502 306.18 377.414 335.773 360.52L242.369 372.355Z" fill="#E9ECE0" fill-opacity="0.33"/>
<path fill-rule="evenodd" clip-rule="evenodd" d="M239.475 373.132C239.22 372.218 239.405 371.356 239.78 370.724L244.932 374.022C245.296 373.408 245.478 372.564 245.228 371.668C245.012 370.893 244.564 370.415 244.333 370.202C243.92 369.82 243.518 369.667 243.471 369.649L243.467 369.648C243.375 369.612 243.316 369.596 243.315 369.596C243.314 369.596 243.349 369.605 243.432 369.622C243.739 369.682 244.304 369.764 245.156 369.853C246.829 370.028 249.342 370.206 252.511 370.336C258.841 370.597 267.673 370.665 277.446 370.175C297.155 369.186 320.063 365.947 334.221 357.865L337.291 363.213C321.858 372.024 297.725 375.275 277.961 376.267C267.998 376.767 258.986 376.698 252.491 376.43C249.248 376.297 246.603 376.113 244.764 375.92C243.86 375.826 243.08 375.722 242.503 375.608C242.249 375.557 241.863 375.473 241.493 375.328L241.489 375.326C241.357 375.274 240.874 375.084 240.409 374.656C240.157 374.424 239.697 373.926 239.475 373.132Z" fill="#E9ECE0" fill-opacity="0.33"/>
<path fill-rule="evenodd" clip-rule="evenodd" d="M140.42 413.256C139.734 414.402 176.352 418.24 212.455 422.938L140.42 413.256Z" fill="#E9ECE0" fill-opacity="0.33"/>
<path fill-rule="evenodd" clip-rule="evenodd" d="M137.613 414.367C137.257 413.437 137.364 412.438 137.836 411.65L142.966 414.887C143.416 414.135 143.52 413.173 143.179 412.282C142.907 411.571 142.454 411.173 142.285 411.034C142.08 410.867 141.907 410.775 141.841 410.741C141.763 410.701 141.711 410.681 141.704 410.679C141.702 410.678 141.702 410.678 141.704 410.679C141.714 410.682 141.766 410.7 141.876 410.73C142.003 410.764 142.174 410.807 142.394 410.856C143.296 411.056 144.728 411.306 146.67 411.602C150.527 412.19 156.134 412.919 162.93 413.764C167.44 414.325 172.468 414.936 177.835 415.588C188.599 416.896 200.729 418.37 212.786 419.938L212.161 425.962C200.127 424.397 188.05 422.929 177.3 421.623C171.924 420.97 166.88 420.357 162.339 419.792C155.546 418.948 149.865 418.21 145.917 417.608C143.955 417.309 142.356 417.035 141.244 416.787C140.717 416.67 140.158 416.529 139.696 416.351C139.519 416.283 139.052 416.099 138.605 415.734C138.385 415.554 137.899 415.116 137.613 414.367Z" fill="#E9ECE0" fill-opacity="0.33"/>
<path fill-rule="evenodd" clip-rule="evenodd" d="M248.117 316.065C247.065 316.005 235.764 317.022 238.09 333.974L248.117 316.065Z" fill="#E9ECE0" fill-opacity="0.33"/>
<path fill-rule="evenodd" clip-rule="evenodd" d="M240.692 317.319C243.751 314.598 247.293 314.276 248.157 314.324L248.043 317.831C248.046 317.832 248.044 317.832 248.038 317.832C248.002 317.833 247.834 317.836 247.543 317.876C247.22 317.92 246.789 318.004 246.297 318.153C245.308 318.451 244.106 318.999 242.997 319.986C240.868 321.879 238.717 325.728 239.807 333.76L236.387 334.165C235.18 325.275 237.507 320.152 240.692 317.319Z" fill="#E9ECE0" fill-opacity="0.33"/>
<path fill-rule="evenodd" clip-rule="evenodd" d="M237.171 313.74C237.39 313.008 238.592 304.811 226.531 303.031L237.171 313.74Z" fill="#E9ECE0" fill-opacity="0.33"/>
<path fill-rule="evenodd" clip-rule="evenodd" d="M237.864 311.989C237.912 312.94 237.792 313.657 237.715 313.915L236.631 313.559C236.664 313.451 236.777 312.868 236.734 312.019C236.693 311.181 236.501 310.114 235.955 309.02C234.881 306.867 232.358 304.457 226.464 303.587L226.6 302.453C232.77 303.363 235.677 305.945 236.962 308.523C237.596 309.794 237.817 311.027 237.864 311.989Z" fill="#E9ECE0" fill-opacity="0.33"/>
<path fill-rule="evenodd" clip-rule="evenodd" d="M187.58 322.459C189.209 321.773 204.615 310.019 189.052 285.497L187.58 322.459Z" fill="#E9ECE0" fill-opacity="0.33"/>
<path fill-rule="evenodd" clip-rule="evenodd" d="M189.434 322.555C188.868 323.006 188.357 323.339 188.015 323.483L187.138 321.406L187.138 321.406C187.138 321.406 187.145 321.403 187.159 321.396C187.174 321.389 187.194 321.378 187.221 321.363C187.273 321.333 187.342 321.292 187.425 321.237C187.592 321.128 187.807 320.975 188.058 320.775C188.559 320.376 189.191 319.805 189.866 319.059C191.216 317.566 192.722 315.391 193.72 312.511C195.696 306.808 195.756 298.106 188.129 286.089L189.969 284.897C197.901 297.394 198.039 306.825 195.797 313.297C194.685 316.505 193.008 318.929 191.498 320.598C190.743 321.433 190.026 322.085 189.434 322.555Z" fill="#E9ECE0" fill-opacity="0.33"/>
<path fill-rule="evenodd" clip-rule="evenodd" d="M248.125 316.004C247.054 315.941 246.64 318.651 238.013 333.952L248.125 316.004Z" fill="#E9ECE0" fill-opacity="0.33"/>
<path fill-rule="evenodd" clip-rule="evenodd" d="M245.831 315.632C246.177 315.111 246.877 314.184 248.144 314.256L248.036 317.772C248.497 317.798 248.768 317.57 248.835 317.503C248.816 317.526 248.782 317.571 248.73 317.649C248.478 318.029 248.111 318.729 247.437 320.058C247.349 320.23 247.258 320.41 247.162 320.6C245.817 323.257 243.581 327.672 239.566 334.832L236.532 333.035C240.512 325.938 242.723 321.572 244.061 318.93C244.157 318.74 244.248 318.56 244.336 318.387C244.969 317.138 245.44 316.22 245.831 315.632ZM248.852 317.485C248.852 317.485 248.846 317.492 248.835 317.503C248.846 317.49 248.852 317.484 248.852 317.485Z" fill="#E9ECE0" fill-opacity="0.33"/>
<path fill-rule="evenodd" clip-rule="evenodd" d="M237.156 313.733C237.373 313.005 235.586 312.165 226.517 303.071L237.156 313.733Z" fill="#E9ECE0" fill-opacity="0.33"/>
<path fill-rule="evenodd" clip-rule="evenodd" d="M237.285 312.675C237.573 313.01 237.847 313.421 237.699 313.917L236.616 313.561C236.604 313.602 236.609 313.633 236.613 313.647C236.602 313.625 236.563 313.554 236.44 313.411C236.189 313.119 235.732 312.687 234.945 311.957C234.841 311.86 234.731 311.759 234.617 311.653C233.017 310.172 230.365 307.715 226.126 303.457L226.912 302.657C231.134 306.899 233.773 309.343 235.369 310.821C235.483 310.927 235.593 311.028 235.697 311.125C236.463 311.835 236.979 312.32 237.285 312.675ZM236.615 313.655C236.615 313.655 236.614 313.652 236.613 313.647C236.615 313.653 236.616 313.655 236.615 313.655Z" fill="#E9ECE0" fill-opacity="0.33"/>
<path fill-rule="evenodd" clip-rule="evenodd" d="M187.573 322.477C189.205 321.79 187.915 317.292 189.955 287.29L187.573 322.477Z" fill="#E9ECE0" fill-opacity="0.33"/>
<path fill-rule="evenodd" clip-rule="evenodd" d="M189.436 321.083C189.292 322.099 189.003 323.089 188.012 323.506L187.134 321.428C187.106 321.44 187.086 321.454 187.074 321.466C187.107 321.407 187.185 321.214 187.256 320.715C187.385 319.808 187.44 318.323 187.51 315.816C187.519 315.484 187.528 315.136 187.538 314.771C187.676 309.672 187.904 301.213 188.858 287.2L191.056 287.403C190.105 301.369 189.877 309.792 189.74 314.881C189.73 315.246 189.721 315.594 189.712 315.926C189.644 318.376 189.588 320.017 189.436 321.083ZM187.057 321.489C187.057 321.487 187.062 321.478 187.074 321.466C187.064 321.484 187.058 321.49 187.057 321.489Z" fill="#E9ECE0" fill-opacity="0.33"/>
<path fill-rule="evenodd" clip-rule="evenodd" d="M188.523 315.614C183.455 308.803 181.375 306.782 180.392 305.413L188.523 315.614Z" fill="#E9ECE0" fill-opacity="0.33"/>
<path fill-rule="evenodd" clip-rule="evenodd" d="M183.751 307.762C185.041 309.311 186.842 311.544 189.39 314.98L187.658 316.286C185.136 312.887 183.362 310.688 182.098 309.17C181.705 308.697 181.352 308.28 181.037 307.908C180.367 307.118 179.869 306.53 179.513 306.033L181.268 304.758C181.569 305.178 181.973 305.654 182.587 306.379C182.911 306.762 183.294 307.213 183.751 307.762Z" fill="#E9ECE0" fill-opacity="0.33"/>
<path fill-rule="evenodd" clip-rule="evenodd" d="M188.584 308.101C184.233 302.294 182.394 300.61 181.554 299.44L188.584 308.101Z" fill="#E9ECE0" fill-opacity="0.33"/>
<path fill-rule="evenodd" clip-rule="evenodd" d="M184.528 301.342C185.651 302.658 187.214 304.557 189.405 307.494L187.764 308.741C185.603 305.844 184.07 303.982 182.975 302.701C182.641 302.309 182.338 301.961 182.066 301.649C181.477 300.973 181.031 300.461 180.719 300.025L182.387 298.813C182.636 299.163 182.976 299.553 183.503 300.157C183.786 300.481 184.122 300.867 184.528 301.342Z" fill="#E9ECE0" fill-opacity="0.33"/>
<path fill-rule="evenodd" clip-rule="evenodd" d="M189.297 300.341C186.116 296.167 184.672 295.033 184.065 294.188L189.297 300.341Z" fill="#E9ECE0" fill-opacity="0.33"/>
<path fill-rule="evenodd" clip-rule="evenodd" d="M186.416 295.35C187.27 296.287 188.447 297.644 190.057 299.767L188.537 300.941C186.966 298.87 185.829 297.559 185.014 296.665C184.741 296.366 184.51 296.12 184.302 295.899C184.194 295.783 184.092 295.674 183.994 295.569C183.724 295.277 183.479 295.005 183.286 294.734L184.84 293.606C184.95 293.76 185.114 293.949 185.385 294.241C185.47 294.332 185.565 294.434 185.67 294.546C185.883 294.773 186.135 295.042 186.416 295.35Z" fill="#E9ECE0" fill-opacity="0.33"/>
<path fill-rule="evenodd" clip-rule="evenodd" d="M248.033 315.97C246.982 315.911 254.05 329.167 238.009 333.877L248.033 315.97Z" fill="#E9ECE0" fill-opacity="0.33"/>
<path fill-rule="evenodd" clip-rule="evenodd" d="M246.586 314.928C246.97 314.424 247.546 314.208 248.089 314.238L247.975 317.744C248.453 317.771 248.979 317.576 249.328 317.119C249.592 316.774 249.63 316.433 249.638 316.355C249.649 316.254 249.643 316.187 249.643 316.187C249.643 316.187 249.645 316.219 249.658 316.294C249.688 316.478 249.732 316.677 249.789 316.945C249.837 317.167 249.895 317.437 249.965 317.783C250.238 319.149 250.558 321.147 250.347 323.35C250.134 325.577 249.378 328.024 247.507 330.241C245.643 332.45 242.776 334.309 238.548 335.556L237.521 332.182C241.279 331.074 243.524 329.514 244.869 327.92C246.207 326.334 246.755 324.595 246.914 322.934C247.075 321.248 246.834 319.656 246.585 318.411C246.544 318.206 246.496 317.981 246.449 317.761C246.372 317.4 246.297 317.049 246.257 316.804C246.226 316.623 246.17 316.266 246.208 315.906C246.226 315.733 246.286 315.321 246.586 314.928Z" fill="#E9ECE0" fill-opacity="0.33"/>
<path fill-rule="evenodd" clip-rule="evenodd" d="M237.14 313.779C237.358 313.047 227.037 315.373 226.498 303.064L237.14 313.779Z" fill="#E9ECE0" fill-opacity="0.33"/>
<path fill-rule="evenodd" clip-rule="evenodd" d="M237.575 313.384C237.709 313.563 237.734 313.779 237.679 313.963L236.596 313.606C236.554 313.745 236.572 313.921 236.681 314.065C236.759 314.17 236.848 314.206 236.858 314.21C236.858 314.21 236.858 314.21 236.858 314.21C236.861 314.211 236.862 314.212 236.862 314.212C236.862 314.213 236.824 314.202 236.714 314.189C236.571 314.172 236.399 314.161 236.184 314.146C236.02 314.135 235.831 314.123 235.611 314.105C234.645 314.026 233.292 313.858 231.903 313.301C230.506 312.742 229.07 311.79 227.952 310.149C226.836 308.512 226.067 306.233 225.93 303.07L227.061 303.047C227.191 306.046 227.914 308.098 228.878 309.512C229.84 310.924 231.072 311.745 232.296 312.235C233.528 312.728 234.748 312.885 235.674 312.961C235.849 312.975 236.023 312.987 236.186 312.998C236.432 313.015 236.653 313.03 236.816 313.049C236.947 313.064 237.117 313.089 237.262 313.148C237.332 313.177 237.468 313.242 237.575 313.384Z" fill="#E9ECE0" fill-opacity="0.33"/>
<path fill-rule="evenodd" clip-rule="evenodd" d="M187.576 322.482C189.205 321.796 168.249 307.071 189.104 287.897L187.576 322.482Z" fill="#E9ECE0" fill-opacity="0.33"/>
<path fill-rule="evenodd" clip-rule="evenodd" d="M188.746 322.593C188.663 323.05 188.36 323.365 188.014 323.511L187.137 321.435C186.893 321.538 186.647 321.782 186.582 322.142C186.557 322.282 186.568 322.395 186.58 322.459C186.591 322.524 186.607 322.566 186.612 322.579C186.612 322.581 186.612 322.58 186.609 322.576C186.597 322.555 186.541 322.455 186.383 322.243C186.177 321.966 185.916 321.646 185.594 321.252C185.341 320.943 185.051 320.588 184.721 320.172C183.289 318.366 181.392 315.757 180.117 312.519C178.835 309.264 178.177 305.363 179.236 301.006C180.293 296.657 183.035 291.965 188.36 287.068L189.852 288.748C184.757 293.433 182.301 297.767 181.372 301.588C180.445 305.401 181.012 308.814 182.156 311.72C183.306 314.641 185.036 317.038 186.42 318.783C186.692 319.125 186.964 319.459 187.217 319.769C187.577 320.211 187.899 320.606 188.125 320.91C188.312 321.161 188.531 321.474 188.652 321.784C188.71 321.933 188.811 322.235 188.746 322.593Z" fill="#E9ECE0" fill-opacity="0.33"/>
<path fill-rule="evenodd" clip-rule="evenodd" d="M249.293 310.903C250.988 312.088 279.845 321.718 283.987 292.062L249.293 310.903Z" fill="#E9ECE0" fill-opacity="0.33"/>
<path fill-rule="evenodd" clip-rule="evenodd" d="M249.173 313.093C248.86 312.961 248.47 312.784 248.17 312.574L250.393 309.211C250.365 309.191 250.35 309.182 250.35 309.181C250.351 309.18 250.431 309.224 250.636 309.31C250.884 309.415 251.233 309.546 251.674 309.693C252.556 309.986 253.759 310.322 255.184 310.609C258.044 311.185 261.701 311.543 265.386 311.009C269.056 310.477 272.687 309.072 275.635 306.182C278.574 303.301 280.997 298.784 281.984 291.723L285.96 292.383C284.875 300.147 282.138 305.547 278.449 309.163C274.769 312.771 270.304 314.445 266.031 315.064C261.773 315.681 257.64 315.263 254.484 314.627C252.901 314.308 251.539 313.93 250.502 313.585C249.985 313.413 249.536 313.245 249.173 313.093Z" fill="#E9ECE0" fill-opacity="0.33"/>
<path fill-rule="evenodd" clip-rule="evenodd" d="M247.803 312.895C247.832 314.221 256.243 334.387 280.745 330.168L247.803 312.895Z" fill="#E9ECE0" fill-opacity="0.33"/>
<path fill-rule="evenodd" clip-rule="evenodd" d="M247.124 313.574C247.056 313.357 246.984 313.095 246.98 312.879L248.618 312.887C248.618 312.876 248.618 312.87 248.618 312.87C248.62 312.869 248.631 312.94 248.685 313.111C248.744 313.301 248.838 313.559 248.971 313.876C249.236 314.511 249.646 315.358 250.215 316.334C251.354 318.286 253.121 320.73 255.629 323.004C260.621 327.528 268.597 331.428 280.588 329.358L280.906 330.99C268.384 333.152 259.9 329.07 254.553 324.223C251.892 321.811 250.02 319.222 248.809 317.146C248.203 316.108 247.759 315.193 247.464 314.486C247.316 314.132 247.203 313.824 247.124 313.574Z" fill="#E9ECE0" fill-opacity="0.33"/>
<path fill-rule="evenodd" clip-rule="evenodd" d="M238.71 316.285C240.049 316.218 259.784 306.962 253.593 281.696L238.71 316.285Z" fill="#E9ECE0" fill-opacity="0.33"/>
<path fill-rule="evenodd" clip-rule="evenodd" d="M239.797 317.851C239.586 317.927 239.213 318.054 238.844 318.072L238.59 314.466C238.477 314.472 238.408 314.489 238.408 314.489C238.408 314.489 238.45 314.479 238.547 314.444C238.7 314.389 238.925 314.297 239.215 314.16C239.793 313.887 240.579 313.461 241.484 312.867C243.296 311.678 245.543 309.847 247.568 307.28C251.571 302.205 254.801 294.145 251.862 282.105L255.308 281.31C258.53 294.511 254.994 303.699 250.357 309.577C248.062 312.488 245.52 314.56 243.457 315.914C242.424 316.591 241.5 317.096 240.77 317.441C240.406 317.613 240.077 317.751 239.797 317.851Z" fill="#E9ECE0" fill-opacity="0.33"/>
<path fill-rule="evenodd" clip-rule="evenodd" d="M249.283 310.937C250.98 312.122 254.396 308.149 284.017 292.078L249.283 310.937Z" fill="#E9ECE0" fill-opacity="0.33"/>
<path fill-rule="evenodd" clip-rule="evenodd" d="M252.094 312.62C251.025 313.098 249.555 313.581 248.164 312.61L250.39 309.243C250.126 309.059 249.894 309.066 249.838 309.072C249.883 309.064 250.055 309.021 250.415 308.86C251.305 308.462 252.699 307.648 255.126 306.195C255.445 306.005 255.78 305.804 256.131 305.594C261.036 302.653 269.177 297.773 283.031 290.257L284.977 293.885C271.196 301.362 263.109 306.209 258.22 309.14C257.869 309.351 257.534 309.551 257.215 309.742C254.875 311.143 253.246 312.104 252.094 312.62ZM249.825 309.074C249.825 309.074 249.83 309.073 249.838 309.072C249.829 309.074 249.825 309.075 249.825 309.074Z" fill="#E9ECE0" fill-opacity="0.33"/>
<path fill-rule="evenodd" clip-rule="evenodd" d="M247.869 312.884C247.901 314.197 252.722 315.406 280.782 330.039L247.869 312.884Z" fill="#E9ECE0" fill-opacity="0.33"/>
<path fill-rule="evenodd" clip-rule="evenodd" d="M247.572 313.959C247.29 313.681 247.058 313.32 247.047 312.863L248.683 312.873C248.681 312.795 248.652 312.752 248.653 312.752C248.653 312.752 248.664 312.769 248.703 312.807C248.814 312.918 249.04 313.087 249.474 313.343C250.333 313.85 251.779 314.565 254.151 315.722C254.467 315.876 254.797 316.037 255.145 316.207C259.996 318.57 268.04 322.488 281.146 329.337L280.426 330.789C267.341 323.951 259.314 320.041 254.466 317.68C254.119 317.511 253.788 317.35 253.473 317.196C251.128 316.052 249.608 315.302 248.677 314.753C248.215 314.48 247.84 314.224 247.572 313.959Z" fill="#E9ECE0" fill-opacity="0.33"/>
<path fill-rule="evenodd" clip-rule="evenodd" d="M238.728 316.363C240.078 316.298 240.921 311.254 253.653 281.715L238.728 316.363Z" fill="#E9ECE0" fill-opacity="0.33"/>
<path fill-rule="evenodd" clip-rule="evenodd" d="M240.59 317.267C240.232 317.676 239.671 318.111 238.869 318.151L238.609 314.539C238.143 314.562 237.901 314.825 237.896 314.831C237.895 314.832 237.904 314.821 237.923 314.795C237.942 314.769 237.967 314.731 237.999 314.679C238.064 314.572 238.145 314.423 238.248 314.216C238.674 313.354 239.272 311.879 240.268 309.37C240.399 309.039 240.537 308.691 240.682 308.327C242.704 303.228 246.058 294.769 251.997 280.979L255.271 282.493C249.353 296.236 246.013 304.658 243.995 309.747C243.851 310.111 243.713 310.459 243.581 310.79C242.61 313.238 241.95 314.877 241.443 315.901C241.194 316.403 240.921 316.889 240.59 317.267Z" fill="#E9ECE0" fill-opacity="0.33"/>
<path fill-rule="evenodd" clip-rule="evenodd" d="M249.283 310.936C276.368 307.755 271.022 305.41 284.017 292.078L249.283 310.936Z" fill="#E9ECE0" fill-opacity="0.33"/>
<path fill-rule="evenodd" clip-rule="evenodd" d="M273.105 306.986C268.958 309.978 263.004 311.38 249.562 312.96L249.021 308.889C262.638 307.289 267.544 305.93 270.739 303.625C272.339 302.47 273.587 301.022 275.345 298.868C275.495 298.683 275.649 298.495 275.806 298.302C277.466 296.26 279.526 293.729 282.556 290.62L285.435 293.538C282.532 296.517 280.572 298.926 278.916 300.961C278.76 301.153 278.607 301.341 278.456 301.526C276.717 303.657 275.175 305.492 273.105 306.986Z" fill="#E9ECE0" fill-opacity="0.33"/>
<path fill-rule="evenodd" clip-rule="evenodd" d="M249.283 310.936C263.183 305.883 257.754 291.209 284.017 292.078L249.283 310.936Z" fill="#E9ECE0" fill-opacity="0.33"/>
<path fill-rule="evenodd" clip-rule="evenodd" d="M261.363 303.427C258.818 306.818 255.879 310.734 250.004 312.871L248.584 309.006C253.275 307.301 255.333 304.575 257.743 301.382C258.58 300.273 259.46 299.108 260.507 297.91C262.489 295.642 264.952 293.512 268.714 292.039C272.437 290.58 277.305 289.813 284.039 290.036L283.992 294.133C277.599 293.922 273.301 294.663 270.223 295.869C267.184 297.06 265.213 298.75 263.533 300.673C262.801 301.51 262.098 302.447 261.363 303.427Z" fill="#E9ECE0" fill-opacity="0.33"/>
<path fill-rule="evenodd" clip-rule="evenodd" d="M249.288 310.939C250.985 312.124 258.62 277.966 284.016 292.082L249.288 310.939Z" fill="#E9ECE0" fill-opacity="0.33"/>
<path fill-rule="evenodd" clip-rule="evenodd" d="M250.321 312.843C249.747 313.103 248.927 313.16 248.183 312.64L250.409 309.274C249.771 308.828 249.068 308.89 248.624 309.091C248.445 309.172 248.325 309.265 248.266 309.316C248.203 309.369 248.168 309.41 248.159 309.42C248.156 309.423 248.155 309.425 248.155 309.425C248.155 309.424 248.18 309.392 248.233 309.307C248.292 309.211 248.368 309.079 248.461 308.904C248.723 308.408 249.029 307.762 249.412 306.951C249.605 306.541 249.819 306.089 250.057 305.594C251.422 302.749 253.409 298.862 256.204 295.364C258.997 291.869 262.705 288.627 267.558 287.279C272.465 285.915 278.243 286.571 284.961 290.304L283.093 293.895C277.111 290.57 272.41 290.202 268.69 291.236C264.914 292.285 261.845 294.862 259.342 297.994C256.841 301.124 255.013 304.672 253.676 307.457C253.477 307.873 253.283 308.282 253.098 308.674C252.686 309.546 252.314 310.333 252.006 310.912C251.792 311.317 251.524 311.789 251.214 312.151C251.07 312.318 250.775 312.638 250.321 312.843Z" fill="#E9ECE0" fill-opacity="0.33"/>
<path fill-rule="evenodd" clip-rule="evenodd" d="M247.913 312.748C247.942 314.074 277.691 311 280.854 330.021L247.913 312.748Z" fill="#E9ECE0" fill-opacity="0.33"/>
<path fill-rule="evenodd" clip-rule="evenodd" d="M247.597 313.564C247.459 313.482 247.099 313.227 247.089 312.734L248.727 312.743C248.719 312.333 248.418 312.152 248.394 312.138C248.373 312.126 248.359 312.12 248.359 312.12C248.36 312.12 248.378 312.127 248.425 312.139C248.581 312.178 248.852 312.218 249.259 312.257C249.803 312.31 250.501 312.355 251.34 312.409C251.747 312.435 252.187 312.463 252.658 312.496C255.513 312.692 259.385 313.029 263.369 313.931C271.276 315.722 279.996 319.841 281.665 329.916L280.048 330.148C278.562 321.171 270.822 317.307 263.05 315.547C259.194 314.673 255.424 314.342 252.59 314.148C252.144 314.117 251.717 314.09 251.316 314.064C250.458 314.009 249.716 313.961 249.145 313.906C248.73 313.865 248.355 313.817 248.071 313.746C247.936 313.712 247.759 313.659 247.597 313.564Z" fill="#E9ECE0" fill-opacity="0.33"/>
<path fill-rule="evenodd" clip-rule="evenodd" d="M238.796 316.386C240.135 316.32 234.693 285.589 253.678 281.799L238.796 316.386Z" fill="#E9ECE0" fill-opacity="0.33"/>
<path fill-rule="evenodd" clip-rule="evenodd" d="M240.493 317.109C240.375 317.35 239.927 318.121 238.922 318.171L238.669 314.566C237.747 314.612 237.37 315.319 237.31 315.44C237.256 315.55 237.232 315.637 237.225 315.671C237.225 315.67 237.225 315.67 237.225 315.67C237.24 315.582 237.258 315.362 237.267 314.943C237.278 314.395 237.269 313.697 237.259 312.84C237.254 312.416 237.248 311.952 237.244 311.448C237.221 308.479 237.26 304.405 237.872 300.186C239.076 291.879 242.651 282.172 253.279 280.043L254.039 283.585C245.732 285.249 242.543 292.785 241.383 300.791C240.812 304.728 240.77 308.577 240.793 311.5C240.796 311.948 240.801 312.382 240.806 312.794C240.817 313.694 240.827 314.489 240.815 315.097C240.806 315.531 240.786 315.982 240.724 316.352C240.695 316.522 240.637 316.815 240.493 317.109ZM237.222 315.685C237.222 315.685 237.223 315.68 237.225 315.671C237.223 315.681 237.222 315.686 237.222 315.685Z" fill="#E9ECE0" fill-opacity="0.33"/>
<path fill-rule="evenodd" clip-rule="evenodd" d="M140.401 413.344C139.704 414.512 205.218 316.706 241.937 321.469L140.401 413.344Z" fill="#E9ECE0" fill-opacity="0.33"/>
<path fill-rule="evenodd" clip-rule="evenodd" d="M137.793 411.781L137.837 411.706L143.049 414.995L143.086 414.93C143.105 414.896 143.162 414.785 143.198 414.708C143.299 414.459 142.988 411.745 140.955 410.331C139.619 410.37 138.308 411.111 138.183 411.241C138.139 411.291 138.074 411.369 138.053 411.395L138.014 411.446L137.998 411.467L137.993 411.475C137.992 411.476 137.998 411.467 138.015 411.444L138.075 411.358L138.568 410.645C139.021 409.99 139.711 408.995 140.615 407.71C142.422 405.141 145.08 401.416 148.405 396.928C155.049 387.959 164.37 375.923 174.878 363.988C185.369 352.071 197.126 340.16 208.647 331.506C219.999 322.978 231.807 317.079 242.236 318.432L241.603 324.556C233.687 323.529 223.55 328.069 212.327 336.5C201.272 344.805 189.822 356.375 179.444 368.163C169.082 379.932 159.869 391.826 153.285 400.714C149.995 405.155 147.366 408.84 145.582 411.376C144.69 412.644 144.009 413.626 143.561 414.273L143.062 414.994C143.012 415.066 142.962 415.139 142.924 415.191L142.877 415.255L142.829 415.318C142.806 415.346 142.739 415.426 142.694 415.478C142.567 415.609 141.256 416.351 139.919 416.389C137.886 414.976 137.576 412.261 137.677 412.01C137.693 411.977 137.712 411.939 137.731 411.902C137.757 411.85 137.781 411.803 137.793 411.781Z" fill="#E9ECE0" fill-opacity="0.33"/>
<path fill-rule="evenodd" clip-rule="evenodd" d="M140.542 413.967C139.84 415.138 193.007 343.644 186.275 318.991L140.542 413.967Z" fill="#E9ECE0" fill-opacity="0.33"/>
<path fill-rule="evenodd" clip-rule="evenodd" d="M137.782 412.565C137.851 412.416 137.919 412.304 137.932 412.282L143.2 415.588L143.201 415.586C143.212 415.567 143.274 415.464 143.338 415.326C143.381 415.231 143.49 414.931 143.545 414.725C143.622 414.132 142.853 411.958 141.413 411C140.362 410.855 139.043 411.219 138.77 411.389C138.657 411.472 138.49 411.612 138.434 411.663C138.345 411.748 138.283 411.818 138.269 411.834L138.268 411.835C138.24 411.866 138.22 411.891 138.212 411.901C138.215 411.896 138.222 411.888 138.232 411.875C138.291 411.8 138.404 411.651 138.575 411.423C138.912 410.974 139.433 410.267 140.112 409.33C141.469 407.458 143.444 404.685 145.815 401.245C150.561 394.361 156.878 384.826 163.002 374.501C169.137 364.16 175.03 353.108 178.969 343.176C180.938 338.209 182.388 333.598 183.149 329.547C183.918 325.457 183.938 322.176 183.279 319.748L189.188 318.26C190.199 321.99 190.023 326.33 189.172 330.857C188.313 335.424 186.72 340.429 184.667 345.608C180.559 355.967 174.486 367.328 168.282 377.787C162.067 388.263 155.671 397.916 150.875 404.873C148.476 408.354 146.474 411.165 145.09 413.074C144.399 414.028 143.859 414.761 143.498 415.242C143.321 415.479 143.177 415.668 143.077 415.796L143.075 415.798C143.041 415.841 142.96 415.945 142.876 416.039L142.876 416.04C142.856 416.062 142.787 416.14 142.692 416.229C142.634 416.283 142.466 416.424 142.352 416.508C142.077 416.679 140.757 417.043 139.705 416.899C138.265 415.94 137.496 413.766 137.573 413.172C137.629 412.964 137.738 412.663 137.782 412.565Z" fill="#E9ECE0" fill-opacity="0.33"/>
<path fill-rule="evenodd" clip-rule="evenodd" d="M308.725 330.904C308.026 332.073 354.93 262.661 345.823 230.661L308.725 330.904Z" fill="#E9ECE0" fill-opacity="0.33"/>
<path fill-rule="evenodd" clip-rule="evenodd" d="M306.026 329.363C306.064 329.291 306.097 329.236 306.107 329.219L311.344 332.516L311.345 332.515C311.35 332.506 311.379 332.458 311.413 332.393C311.435 332.352 311.494 332.229 311.53 332.147C311.609 331.937 311.745 330.581 311.403 329.483C309.632 327.956 306.985 328.297 306.66 328.551C306.567 328.639 306.435 328.777 306.395 328.823C306.338 328.89 306.297 328.945 306.29 328.954L306.289 328.955C306.272 328.978 306.261 328.993 306.262 328.991C306.263 328.99 306.271 328.979 306.287 328.956C306.342 328.877 306.443 328.728 306.59 328.508C306.883 328.071 307.337 327.383 307.929 326.47C309.11 324.644 310.832 321.93 312.891 318.536C317.013 311.746 322.473 302.262 327.669 291.763C332.872 281.249 337.767 269.801 340.801 259.07C343.865 248.236 344.893 238.597 342.871 231.467L348.73 229.893C351.241 238.751 349.815 249.775 346.667 260.907C343.491 272.141 338.42 283.96 333.133 294.643C327.84 305.34 322.288 314.98 318.107 321.869C316.015 325.316 314.262 328.08 313.052 329.95C312.446 330.885 311.975 331.599 311.663 332.065C311.508 332.296 311.387 332.475 311.306 332.592C311.276 332.635 311.22 332.716 311.165 332.788L311.165 332.789C311.153 332.804 311.107 332.865 311.046 332.937C311.004 332.985 310.871 333.124 310.777 333.213C310.452 333.468 307.804 333.809 306.033 332.281C305.691 331.183 305.827 329.827 305.907 329.615C305.943 329.532 306.003 329.407 306.026 329.363Z" fill="#E9ECE0" fill-opacity="0.33"/>
<path fill-rule="evenodd" clip-rule="evenodd" d="M38.4351 428.239C37.7411 429.403 58.6402 421.039 89.2329 397.223L38.4351 428.239Z" fill="#E9ECE0" fill-opacity="0.33"/>
<path fill-rule="evenodd" clip-rule="evenodd" d="M35.4216 428.134C35.4413 427.37 35.7289 426.826 35.8671 426.595L41.0404 429.868C41.1569 429.673 41.4334 429.161 41.4523 428.424C41.4759 427.51 41.0911 426.611 40.3878 425.996C39.8201 425.5 39.2414 425.358 39.0119 425.313C38.7411 425.259 38.5302 425.26 38.4351 425.262C38.292 425.266 38.1915 425.282 38.1584 425.288C38.1783 425.284 38.224 425.273 38.3001 425.251C38.699 425.135 39.4531 424.863 40.5837 424.383C42.8094 423.439 46.2186 421.806 50.6308 419.382C59.4457 414.538 72.1745 406.585 87.3324 394.782L91.0569 399.699C75.6556 411.692 62.6672 419.816 53.5781 424.81C49.0383 427.304 45.4489 429.03 43.0005 430.069C41.7941 430.581 40.7923 430.958 40.063 431.169C39.77 431.254 39.2478 431.397 38.7121 431.411C38.5559 431.415 38.294 431.412 37.9825 431.35C37.7122 431.297 37.1031 431.143 36.5153 430.629C35.792 429.996 35.3974 429.075 35.4216 428.134ZM38.1466 425.291C38.1466 425.291 38.1507 425.29 38.1584 425.288C38.1503 425.29 38.1465 425.291 38.1466 425.291Z" fill="#E9ECE0" fill-opacity="0.33"/>
</svg>
