<svg width="139" height="19" viewBox="0 0 139 19" fill="none" xmlns="http://www.w3.org/2000/svg">
<g clip-path="url(#clip0_85_6611)">
<path d="M8.75732 11.8989C8.75732 14.0295 8.43083 15.6066 7.77783 16.6304C7.13037 17.6541 6.14811 18.166 4.83105 18.166C3.5638 18.166 2.60091 17.6403 1.94238 16.5889C1.28385 15.5319 0.95459 13.9686 0.95459 11.8989C0.95459 9.78499 1.27279 8.21891 1.90918 7.20068C2.55111 6.18245 3.52507 5.67334 4.83105 5.67334C6.10938 5.67334 7.08333 6.20182 7.75293 7.25879C8.42253 8.31022 8.75732 9.85693 8.75732 11.8989ZM1.85107 11.8989C1.85107 13.7804 2.09733 15.1722 2.58984 16.0742C3.08236 16.9707 3.82943 17.4189 4.83105 17.4189C5.87695 17.4189 6.63786 16.9541 7.11377 16.0244C7.59521 15.0947 7.83594 13.7196 7.83594 11.8989C7.83594 10.106 7.59521 8.74463 7.11377 7.81494C6.63786 6.88525 5.87695 6.42041 4.83105 6.42041C3.78516 6.42041 3.02702 6.88525 2.55664 7.81494C2.08626 8.74463 1.85107 10.106 1.85107 11.8989ZM15.373 18H14.5596V9.15967C14.5596 8.35726 14.5928 7.52441 14.6592 6.66113C14.5762 6.74414 14.4904 6.82438 14.4019 6.90186C14.3133 6.97933 13.4583 7.65169 11.8369 8.91895L11.3638 8.32959L14.6592 5.86426H15.373V18Z" fill="#333333"/>
<path d="M128.757 11.8989C128.757 14.0295 128.431 15.6066 127.778 16.6304C127.13 17.6541 126.148 18.166 124.831 18.166C123.564 18.166 122.601 17.6403 121.942 16.5889C121.284 15.5319 120.955 13.9686 120.955 11.8989C120.955 9.78499 121.273 8.21891 121.909 7.20068C122.551 6.18245 123.525 5.67334 124.831 5.67334C126.109 5.67334 127.083 6.20182 127.753 7.25879C128.423 8.31022 128.757 9.85693 128.757 11.8989ZM121.851 11.8989C121.851 13.7804 122.097 15.1722 122.59 16.0742C123.082 16.9707 123.829 17.4189 124.831 17.4189C125.877 17.4189 126.638 16.9541 127.114 16.0244C127.595 15.0947 127.836 13.7196 127.836 11.8989C127.836 10.106 127.595 8.74463 127.114 7.81494C126.638 6.88525 125.877 6.42041 124.831 6.42041C123.785 6.42041 123.027 6.88525 122.557 7.81494C122.086 8.74463 121.851 10.106 121.851 11.8989ZM134.169 10.7036C135.464 10.7036 136.483 11.0163 137.224 11.6416C137.971 12.2669 138.345 13.1274 138.345 14.2231C138.345 15.4683 137.957 16.4367 137.183 17.1284C136.408 17.8201 135.34 18.166 133.979 18.166C133.375 18.166 132.803 18.1079 132.26 17.9917C131.718 17.87 131.264 17.6984 130.899 17.4771V16.6221C131.497 16.9264 132.028 17.1395 132.493 17.2612C132.958 17.3774 133.453 17.4355 133.979 17.4355C135.041 17.4355 135.893 17.1561 136.535 16.5972C137.177 16.0327 137.498 15.2718 137.498 14.3145C137.498 13.4124 137.185 12.7041 136.56 12.1895C135.935 11.6748 135.085 11.4175 134.012 11.4175C133.292 11.4175 132.54 11.5254 131.754 11.7412L131.256 11.4175L131.737 5.86426H137.581V6.66113H132.518L132.144 10.9443C133.007 10.7839 133.682 10.7036 134.169 10.7036Z" fill="#333333"/>
<rect opacity="0.278995" x="24" y="9" width="88" height="1.5" fill="#DCDCDC"/>
<path d="M24 9H39V10.5H24V9Z" fill="#333333"/>
</g>
<defs>
<clipPath id="clip0_85_6611">
<rect width="139" height="19" fill="white"/>
</clipPath>
</defs>
</svg>
