<svg width="86" height="86" viewBox="0 0 86 86" fill="none" xmlns="http://www.w3.org/2000/svg">
<path d="M37.3166 44.5856L30.413 37.625L26.6547 41.4144L37.3166 52.1644L58.6404 30.6644L54.8821 26.875L37.3166 44.5856Z" fill="#545A2F"/>
<path d="M42.6475 80.625L26.1856 71.7751C21.4926 69.2577 17.568 65.4994 14.8331 60.9034C12.0982 56.3074 10.6562 51.0472 10.6619 45.6875V10.75C10.6633 9.3249 11.2254 7.95857 12.2248 6.95087C13.2243 5.94317 14.5794 5.37642 15.9928 5.375H69.3023C70.7157 5.37642 72.0708 5.94317 73.0702 6.95087C74.0697 7.95857 74.6318 9.3249 74.6332 10.75V45.6875C74.6388 51.0472 73.1968 56.3074 70.4619 60.9034C67.727 65.4994 63.8025 69.2577 59.1095 71.7751L42.6475 80.625ZM15.9928 10.75V45.6875C15.9884 50.073 17.1686 54.3769 19.4067 58.1372C21.6448 61.8976 24.8563 64.9724 28.6965 67.0316L42.6475 74.5324L56.5986 67.0343C60.4392 64.9749 63.651 61.8996 65.8891 58.1388C68.1272 54.3779 69.3072 50.0734 69.3023 45.6875V10.75H15.9928Z" fill="#545A2F"/>
</svg>
