<svg width="50" height="50" viewBox="0 0 50 50" fill="none" xmlns="http://www.w3.org/2000/svg">
<path fill-rule="evenodd" clip-rule="evenodd" d="M25 0.25C11.3313 0.25 0.25 11.3313 0.25 25C0.25 38.6688 11.3313 49.75 25 49.75C38.6688 49.75 49.75 38.6688 49.75 25C49.75 11.3313 38.6688 0.25 25 0.25ZM35.728 20.815C35.9255 20.5892 36.0759 20.3262 36.1703 20.0414C36.2647 19.7566 36.3012 19.4558 36.2776 19.1567C36.254 18.8576 36.1709 18.5663 36.033 18.2998C35.8952 18.0333 35.7055 17.7971 35.475 17.605C35.2445 17.413 34.9779 17.2689 34.691 17.1814C34.404 17.0939 34.1024 17.0646 33.804 17.0954C33.5056 17.1261 33.2163 17.2162 32.9532 17.3604C32.6901 17.5046 32.4585 17.7 32.272 17.935L22.597 29.5427L17.5907 24.5343C17.1664 24.1244 16.598 23.8976 16.0081 23.9027C15.4182 23.9079 14.8538 24.1445 14.4367 24.5617C14.0195 24.9788 13.7829 25.5432 13.7777 26.1331C13.7726 26.723 13.9994 27.2914 14.4093 27.7157L21.1593 34.4658C21.3803 34.6867 21.645 34.8592 21.9364 34.9721C22.2279 35.0851 22.5396 35.1361 22.8519 35.122C23.1641 35.1078 23.4699 35.0287 23.7499 34.8898C24.0299 34.7508 24.2779 34.5551 24.478 34.315L35.728 20.815Z" fill="#545A2F"/>
</svg>
