<svg width="81" height="81" viewBox="0 0 81 81" fill="none" xmlns="http://www.w3.org/2000/svg">
<path d="M57.9219 24.7707C57.691 24.6643 57.5084 24.4751 57.4104 24.2405C56.0119 20.9098 53.6611 18.0662 50.6527 16.0665C47.6443 14.0668 44.1123 13 40.4999 13C36.8876 13 33.3556 14.0668 30.3472 16.0665C27.3388 18.0662 24.9879 20.9098 23.5895 24.2405C23.4914 24.4751 23.3087 24.6643 23.0777 24.7707C20.082 26.1573 17.5433 28.3686 15.7586 31.1456C13.9738 33.9226 13.017 37.1505 13 40.4515C12.9745 49.7862 20.5416 57.5727 29.8682 57.809C33.261 57.9001 36.6053 56.9872 39.4814 55.1851V66.9813C39.4814 67.2514 39.5887 67.5105 39.7797 67.7015C39.9707 67.8925 40.2298 67.9998 40.4999 67.9998C40.7701 67.9998 41.0291 67.8925 41.2201 67.7015C41.4111 67.5105 41.5185 67.2514 41.5185 66.9813V55.1856C44.2649 56.9087 47.4426 57.8201 50.6848 57.8146C50.8335 57.8146 50.9833 57.8128 51.1325 57.8093C60.459 57.573 68.0258 49.7859 67.9999 40.451C67.9827 37.15 67.0257 33.9223 65.241 31.1454C63.4562 28.3685 60.9175 26.1573 57.9219 24.7707ZM51.081 55.7725C47.9276 55.8625 44.8248 54.9653 42.2059 53.2063C41.992 53.0637 41.761 52.9484 41.5185 52.8631V41.1296L53.1779 35.2998C53.4195 35.1789 53.6033 34.967 53.6886 34.7107C53.774 34.4543 53.7541 34.1746 53.6332 33.933C53.5123 33.6913 53.3004 33.5076 53.0441 33.4222C52.7877 33.3369 52.508 33.3568 52.2663 33.4777L41.5185 38.8516V30.3147C41.5185 30.0446 41.4111 29.7855 41.2201 29.5945C41.0291 29.4035 40.7701 29.2962 40.4999 29.2962C40.2298 29.2962 39.9707 29.4035 39.7797 29.5945C39.5887 29.7855 39.4814 30.0446 39.4814 30.3147V44.9627L28.7335 39.5888C28.4919 39.4679 28.2121 39.448 27.9558 39.5333C27.6995 39.6187 27.4876 39.8024 27.3667 40.0441C27.2458 40.2857 27.2259 40.5654 27.3112 40.8218C27.3966 41.0781 27.5803 41.29 27.822 41.4109L39.4814 47.2406V52.8629C39.2388 52.9483 39.0078 53.0637 38.7939 53.2066C36.1758 54.9667 33.0728 55.8639 29.9193 55.7725C21.6907 55.5647 15.0146 48.6938 15.037 40.4571C15.0521 37.5442 15.8966 34.6959 17.4715 32.2456C19.0464 29.7952 21.2867 27.844 23.9302 26.6205C24.624 26.3015 25.1727 25.7335 25.4677 25.0291C26.7107 22.0683 28.8005 19.5405 31.4748 17.7628C34.1491 15.9852 37.2887 15.0369 40.4999 15.0369C43.7111 15.0369 46.8508 15.9852 49.5251 17.7628C52.1994 19.5405 54.2891 22.0683 55.5322 25.0291C55.8271 25.7335 56.3758 26.3015 57.0697 26.6205C59.7131 27.844 61.9533 29.795 63.5282 32.2453C65.1032 34.6956 65.9476 37.5438 65.9628 40.4566C65.9858 48.6938 59.3096 55.5647 51.081 55.7728V55.7725Z" fill="#545A2F"/>
</svg>
