<svg width="207" height="110" viewBox="0 0 207 110" fill="none" xmlns="http://www.w3.org/2000/svg">
<path fill-rule="evenodd" clip-rule="evenodd" d="M67.7457 15.5089C99.679 3.43786 124.131 11.2488 141.137 21.9659L140.683 22.5829C123.847 11.9726 99.6785 4.24436 68.0507 16.1999L67.7457 15.5089Z" fill="white"/>
<path fill-rule="evenodd" clip-rule="evenodd" d="M80.8718 11.1354C80.8243 11.2152 80.7532 11.2621 80.6935 11.2871L80.3757 10.6615C80.3186 10.6853 80.2494 10.7308 80.2031 10.8086C80.1575 10.8853 80.154 10.96 80.1611 11.0112C80.1725 11.0946 80.2157 11.1487 80.223 11.1579L80.2236 11.1586C80.235 11.1731 80.2451 11.1829 80.2496 11.1869C80.2488 11.1863 80.2478 11.1855 80.2467 11.1846C80.2271 11.1693 80.1826 11.1385 80.1063 11.0915C79.9579 11.0001 79.7244 10.8689 79.418 10.7114C78.8066 10.3971 77.921 9.98622 76.8759 9.5885C74.7745 8.78874 72.0811 8.0624 69.6885 8.2388L69.627 7.55235C72.2028 7.36244 75.0326 8.14002 77.17 8.95347C78.2443 9.36236 79.1569 9.78542 79.7927 10.1123C80.11 10.2754 80.3623 10.4165 80.5332 10.5218C80.6165 10.5731 80.69 10.6217 80.7433 10.6635C80.7652 10.6806 80.8068 10.7141 80.8413 10.7578L80.8415 10.758C80.8538 10.7736 80.9024 10.8352 80.9149 10.926C80.9223 10.9799 80.9185 11.0569 80.8718 11.1354ZM80.2522 11.1891C80.2522 11.1891 80.2512 11.1884 80.2496 11.1869C80.2514 11.1884 80.2522 11.1891 80.2522 11.1891Z" fill="white"/>
<path fill-rule="evenodd" clip-rule="evenodd" d="M69.2322 6.72578C69.4594 6.99589 69.5891 7.23981 69.6271 7.3387L69.2003 7.52635C69.1863 7.49011 69.0888 7.29309 68.8889 7.05545C68.692 6.82143 68.404 6.55793 68.0142 6.37379C67.249 6.01237 66.0292 5.92896 64.2273 7.13921L63.9817 6.72171C65.8796 5.44695 67.2623 5.47944 68.2008 5.92275C68.6628 6.14097 69.0019 6.45203 69.2322 6.72578Z" fill="white"/>
<path fill-rule="evenodd" clip-rule="evenodd" d="M68.2681 14.8918C68.0233 15.0012 67.8242 15.0453 67.7596 15.0527L67.7457 14.9608C67.7958 14.955 67.9834 14.9149 68.2198 14.8092C68.4553 14.704 68.7366 14.5347 68.9773 14.2723C69.4563 13.75 69.7834 12.8477 69.2376 11.3166L69.3389 11.2891C69.8925 12.8418 69.5664 13.7782 69.0601 14.3303C68.8081 14.6051 68.5138 14.7819 68.2681 14.8918Z" fill="white"/>
<path fill-rule="evenodd" clip-rule="evenodd" d="M68.1448 16.1162C67.6732 15.648 67.7414 15.1503 67.7602 15.0547L68.5589 15.1225C68.5491 15.1724 68.5041 15.5138 68.8161 15.8234C69.1056 16.1107 69.7859 16.4496 71.475 16.4022L71.5094 16.9316C69.6393 16.9842 68.639 16.6067 68.1448 16.1162Z" fill="white"/>
<path fill-rule="evenodd" clip-rule="evenodd" d="M67.9912 14.88C67.9287 14.9828 67.8658 15.0426 67.7621 15.0527L67.7457 14.9608C67.7776 14.9577 67.8156 14.9427 67.8768 14.842C67.9368 14.7434 68.0088 14.5804 68.1224 14.3155C68.1375 14.2802 68.1533 14.2431 68.17 14.2042C68.4021 13.6617 68.7867 12.7624 69.5096 11.2891L69.6275 11.3207C68.9055 12.7922 68.5214 13.69 68.2896 14.2322C68.2729 14.2711 68.2571 14.3081 68.2419 14.3435C68.1293 14.6062 68.0549 14.7753 67.9912 14.88Z" fill="white"/>
<path fill-rule="evenodd" clip-rule="evenodd" d="M67.9857 15.4684C67.8928 15.415 67.7168 15.3023 67.7498 15.1208L68.465 15.1862C68.478 15.115 68.432 15.0694 68.4178 15.0577C68.4217 15.0604 68.4288 15.0649 68.44 15.0714C68.5055 15.109 68.6289 15.1663 68.8675 15.2738C68.8984 15.2876 68.9307 15.3022 68.9647 15.3175C69.4407 15.5316 70.2319 15.8875 71.5094 16.5166L71.0979 16.9365C69.8327 16.3134 69.0512 15.9619 68.578 15.749C68.5441 15.7337 68.5117 15.7192 68.4808 15.7053C68.2578 15.6048 68.0914 15.5292 67.9857 15.4684ZM68.4138 15.0547C68.4139 15.0547 68.4154 15.0557 68.4178 15.0577C68.4148 15.0557 68.4136 15.0547 68.4138 15.0547Z" fill="white"/>
<path fill-rule="evenodd" clip-rule="evenodd" d="M69.4514 7.9026C69.5368 7.9224 69.5982 7.98184 69.6271 8.05198L69.204 8.22539C69.2266 8.27992 69.2772 8.33013 69.3477 8.34648C69.3994 8.35845 69.4371 8.34604 69.4422 8.34434L69.4425 8.34426C69.445 8.34344 69.4463 8.34291 69.4464 8.34299C69.4465 8.34324 69.4346 8.34893 69.4053 8.36853C69.3631 8.3968 69.3148 8.43259 69.2541 8.47761C69.2072 8.51241 69.1528 8.55271 69.0881 8.5993C68.808 8.80088 68.4011 9.06873 67.8972 9.23888C67.3904 9.41003 66.7841 9.48273 66.1112 9.29258C65.4397 9.10282 64.7223 8.65702 63.9817 7.82598L64.3239 7.52344C65.021 8.30577 65.6674 8.69343 66.2361 8.85415C66.8035 9.01448 67.3138 8.95468 67.7503 8.80726C68.1899 8.65885 68.5531 8.42206 68.8201 8.22988C68.8698 8.19412 68.9193 8.15752 68.966 8.12298C69.0369 8.07058 69.1013 8.02294 69.1502 7.99025C69.189 7.96425 69.2435 7.92967 69.2997 7.91128C69.3269 7.90239 69.384 7.88698 69.4514 7.9026Z" fill="white"/>
<path fill-rule="evenodd" clip-rule="evenodd" d="M68.2206 15.0199C68.2096 15.0391 68.1902 15.0501 68.1688 15.0527L68.1558 14.9614C68.1479 14.9624 68.1379 14.9675 68.1325 14.9767C68.1304 14.9805 68.1301 14.983 68.1302 14.983C68.1302 14.983 68.1303 14.9821 68.1302 14.98C68.1295 14.969 68.1241 14.9486 68.1118 14.9157C68.0978 14.8782 68.0778 14.8321 68.0539 14.7768C68.0364 14.7365 68.0168 14.6912 67.9959 14.6408C67.8983 14.4061 67.779 14.0775 67.7516 13.7029C67.724 13.3276 67.7886 12.9059 68.0585 12.4861C68.3283 12.0666 68.8009 11.6527 69.5827 11.2891L69.6275 11.3713C68.8584 11.729 68.4021 12.132 68.1443 12.5331C67.8865 12.9339 67.8246 13.3363 67.8511 13.6967C67.8775 14.0576 67.9926 14.3761 68.089 14.6079C68.1085 14.6547 68.1275 14.6988 68.145 14.7392C68.1699 14.7968 68.1914 14.8466 68.2061 14.8857C68.2183 14.9185 68.2281 14.9497 68.2297 14.9746C68.2305 14.9869 68.2298 15.0039 68.2206 15.0199Z" fill="white"/>
<path fill-rule="evenodd" clip-rule="evenodd" d="M67.8521 15.4559C67.7729 15.4012 67.7343 15.3239 67.7487 15.2456L68.4194 15.3065C68.4323 15.2363 68.3971 15.1658 68.326 15.1167C68.2714 15.0789 68.2148 15.0672 68.2009 15.0643C68.1831 15.0608 68.1711 15.06 68.171 15.06C68.171 15.06 68.1766 15.0604 68.19 15.0605C68.224 15.0609 68.262 15.06 68.3136 15.0587C68.3538 15.0578 68.4023 15.0566 68.4636 15.0557C68.7158 15.0519 69.0823 15.0558 69.4772 15.1288C69.8753 15.2023 70.3046 15.3464 70.6768 15.6218C71.0487 15.8969 71.345 16.2893 71.5094 16.8386L70.8476 16.9365C70.7039 16.4565 70.4565 16.1491 70.1866 15.9495C69.9171 15.7501 69.6068 15.6444 69.3054 15.5888C69.0006 15.5325 68.7075 15.5277 68.478 15.5311C68.4418 15.5317 68.4026 15.5326 68.3639 15.5335C68.2949 15.535 68.2272 15.5366 68.1797 15.5361C68.1452 15.5357 68.0795 15.5346 68.0153 15.5217C67.9842 15.5154 67.9148 15.4992 67.8521 15.4559Z" fill="white"/>
<path fill-rule="evenodd" clip-rule="evenodd" d="M114.779 5.463C114.773 5.52592 114.762 5.59388 114.742 5.64545L114.097 5.4986C114.096 5.50011 114.097 5.49966 114.097 5.4969C114.099 5.48976 114.103 5.46714 114.108 5.42315C114.114 5.36908 114.118 5.29588 114.118 5.20596C114.118 5.02635 114.103 4.78645 114.059 4.50948C113.971 3.954 113.767 3.26153 113.346 2.61067C112.926 1.96136 112.294 1.36113 111.351 0.971006C110.41 0.581628 109.126 0.387724 107.367 0.594689L107.264 0.0900609C109.139 -0.130514 110.578 0.069382 111.674 0.522729C112.767 0.975327 113.485 1.66675 113.95 2.3856C114.415 3.1029 114.633 3.85511 114.728 4.44839C114.775 4.7458 114.791 5.00631 114.791 5.20658C114.791 5.30661 114.786 5.39321 114.779 5.463Z" fill="white"/>
<path fill-rule="evenodd" clip-rule="evenodd" d="M67.5633 17.0061C67.6397 17.016 67.7044 17.0267 67.7449 17.0379L67.645 17.1753C67.6305 17.1713 67.5884 17.1632 67.5129 17.1534C67.4406 17.1441 67.3452 17.134 67.2299 17.1247C66.9995 17.106 66.6924 17.0904 66.3358 17.0883C65.6218 17.084 64.7152 17.1339 63.8298 17.3187C62.9453 17.5034 62.0859 17.8219 61.4573 18.3539C60.8291 18.8855 60.4233 19.6372 60.4651 20.6975L60.2207 20.7011C60.1778 19.6147 60.5938 18.8288 61.2596 18.2653C61.9249 17.7022 62.8317 17.3681 63.7514 17.1761C64.6702 16.9843 65.6059 16.9334 66.3381 16.9378C66.7046 16.9399 67.0215 16.956 67.2618 16.9754C67.3819 16.9851 67.4836 16.9958 67.5633 17.0061Z" fill="white"/>
<path fill-rule="evenodd" clip-rule="evenodd" d="M67.6803 14.8697C67.7012 14.8946 67.7333 14.9349 67.7449 14.975L67.2089 15.0386C67.2117 15.0481 67.2149 15.0537 67.2148 15.0537C67.2147 15.0537 67.2111 15.0478 67.1998 15.0343C67.1834 15.0147 67.1574 14.9869 67.1209 14.9519C67.0481 14.8821 66.9387 14.7889 66.7926 14.6833C66.5003 14.4721 66.067 14.2153 65.4957 13.997C64.3618 13.5637 62.6689 13.275 60.4081 13.814L60.2177 13.4874C62.6466 12.9083 64.5117 13.2149 65.7754 13.6978C66.4028 13.9375 66.8782 14.2191 67.2009 14.4523C67.3623 14.569 67.487 14.6746 67.5744 14.7584C67.618 14.8002 67.6536 14.8378 67.6803 14.8697Z" fill="white"/>
<path fill-rule="evenodd" clip-rule="evenodd" d="M69.4356 15.1024C69.4956 15.0788 69.5492 15.0609 69.587 15.0547L69.6265 15.1671C69.6153 15.1689 69.5809 15.1787 69.5204 15.2025C69.463 15.225 69.3888 15.2575 69.301 15.2999C69.1255 15.3847 68.8979 15.5083 68.6445 15.67C68.1375 15.9936 67.5289 16.4687 67.0269 17.09C66.0246 18.3305 65.4431 20.1578 66.955 22.536L66.7993 22.582C65.2651 20.1688 65.8523 18.304 66.8782 17.0343C67.3904 16.4005 68.0109 15.916 68.5284 15.5857C68.7872 15.4206 69.0207 15.2936 69.2028 15.2057C69.2938 15.1617 69.3725 15.1272 69.4356 15.1024Z" fill="white"/>
<path fill-rule="evenodd" clip-rule="evenodd" d="M82.1584 17.0551C82.1581 17.0519 82.1581 17.0514 82.1585 17.0533L82.783 16.9375C82.7969 16.9944 82.7998 17.0679 82.7995 17.1354C82.7992 17.2104 82.7945 17.3032 82.7846 17.4099C82.7648 17.6235 82.7233 17.9003 82.6495 18.2143C82.5023 18.8408 82.2235 19.6285 81.7198 20.3629C81.215 21.0989 80.4783 21.789 79.4157 22.1995C78.3513 22.6106 76.9928 22.7282 75.2722 22.3687L75.4213 21.8284C77.0339 22.1654 78.2449 22.0437 79.1567 21.6916C80.0703 21.3387 80.7164 20.7416 81.1716 20.078C81.6279 19.4129 81.8863 18.6888 82.024 18.103C82.0926 17.8109 82.1304 17.5564 82.1482 17.3651C82.1571 17.2694 82.1608 17.1912 82.161 17.1334C82.1612 17.0871 82.1591 17.0629 82.1584 17.0551Z" fill="white"/>
<path fill-rule="evenodd" clip-rule="evenodd" d="M114.504 5.03994C114.691 5.20879 114.856 5.40526 114.765 5.64545L114.134 5.49433C114.13 5.50541 114.13 5.51417 114.131 5.51941C114.124 5.50612 114.098 5.46712 114.01 5.38866C113.844 5.23907 113.543 5.02042 113.029 4.65389C112.961 4.60548 112.89 4.55471 112.815 4.50143C111.769 3.75708 110.035 2.52232 107.264 0.376968L107.723 0C110.485 2.13781 112.211 3.36699 113.254 4.10971C113.329 4.16299 113.401 4.21377 113.469 4.2622C113.97 4.61979 114.306 4.86211 114.504 5.03994ZM114.133 5.52482C114.133 5.52471 114.132 5.5228 114.131 5.51941C114.133 5.52324 114.133 5.52493 114.133 5.52482Z" fill="white"/>
<path fill-rule="evenodd" clip-rule="evenodd" d="M67.1701 17.0978C67.3942 16.9575 67.5695 16.8955 67.7449 16.9681L67.6443 17.1754C67.5985 17.1565 67.5271 17.1488 67.3083 17.2858C67.0942 17.42 66.781 17.6649 66.2757 18.0672C66.2084 18.1207 66.1378 18.177 66.0638 18.236C65.0303 19.0598 63.3173 20.4253 60.3706 22.583L60.2177 22.4049C63.1604 20.2502 64.8705 18.8871 65.9031 18.064C65.9771 18.0049 66.0477 17.9487 66.115 17.8951C66.6155 17.4966 66.9414 17.2411 67.1701 17.0978Z" fill="white"/>
<path fill-rule="evenodd" clip-rule="evenodd" d="M127.627 18.8186C127.747 18.8279 127.871 18.8711 127.964 18.9929L127.587 19.3743C127.602 19.3944 127.616 19.3994 127.616 19.3994C127.616 19.3994 127.61 19.3972 127.593 19.3959C127.545 19.3922 127.459 19.3995 127.307 19.4325C127.008 19.498 126.53 19.6457 125.751 19.8927C125.647 19.9256 125.538 19.9601 125.424 19.9964C123.83 20.5023 121.188 21.3409 116.792 22.58L116.673 22.0179C121.062 20.7807 123.699 19.9438 125.291 19.4384C125.405 19.4021 125.514 19.3676 125.618 19.3347C126.389 19.0905 126.89 18.9348 127.214 18.8639C127.375 18.8288 127.513 18.8097 127.627 18.8186Z" fill="white"/>
<path fill-rule="evenodd" clip-rule="evenodd" d="M67.558 16.27C67.6378 16.3499 67.7207 16.4745 67.7449 16.6639L67.1987 16.8112C67.2095 16.896 67.244 16.9353 67.2439 16.9355C67.2439 16.9355 67.2435 16.9351 67.2427 16.9343C67.2286 16.9203 67.1887 16.889 67.0953 16.8397C66.9115 16.7425 66.6029 16.6163 66.0867 16.4104C66.0184 16.3831 65.9467 16.3546 65.8714 16.3247C64.8195 15.9058 63.075 15.2112 60.2177 13.9435L60.38 13.1719C63.2297 14.4362 64.9683 15.1285 66.0186 15.5466C66.0938 15.5766 66.1655 15.6051 66.2338 15.6324C66.7402 15.8344 67.0752 15.9704 67.2853 16.0815C67.389 16.1362 67.4836 16.1956 67.558 16.27Z" fill="white"/>
<path fill-rule="evenodd" clip-rule="evenodd" d="M69.3256 15.1587C69.391 15.1042 69.4696 15.0675 69.5739 15.0547L69.6265 15.1672C69.6005 15.1704 69.5648 15.1801 69.5177 15.2193C69.4693 15.2597 69.4174 15.3244 69.3567 15.426C69.2357 15.6287 69.0898 15.96 68.862 16.4918C68.8315 16.5627 68.7997 16.6373 68.7663 16.7154C68.2997 17.8066 67.5266 19.6149 66.0817 22.582L65.8629 22.5539C67.307 19.5884 68.0796 17.7814 68.546 16.6906C68.5794 16.6124 68.6113 16.5379 68.6417 16.4669C68.8686 15.9372 69.0167 15.6003 69.141 15.3922C69.203 15.2884 69.2616 15.212 69.3256 15.1587Z" fill="white"/>
<path fill-rule="evenodd" clip-rule="evenodd" d="M82.1724 17.0287C82.1707 17.0347 82.1693 17.0452 82.1725 17.0591L82.7867 16.9375C82.8488 17.2081 82.6744 17.4118 82.4827 17.5822C82.2807 17.7618 81.9441 18.0018 81.4418 18.355C81.3738 18.4029 81.3023 18.4531 81.2274 18.5057C80.1826 19.2395 78.4537 20.4538 75.6715 22.583L75.2722 22.1325C78.0644 19.9957 79.8013 18.7757 80.8484 18.0403C80.9233 17.9877 80.9947 17.9375 81.0628 17.8897C81.5778 17.5275 81.8791 17.3112 82.0485 17.1606C82.1364 17.0824 82.1648 17.0424 82.1724 17.0287ZM82.1747 17.0232C82.175 17.0231 82.1745 17.0248 82.1724 17.0287C82.1734 17.0252 82.1744 17.0232 82.1747 17.0232Z" fill="white"/>
<path fill-rule="evenodd" clip-rule="evenodd" d="M111.633 1.50443C112.612 2.07559 113.383 3.0553 114.791 5.42937L114.182 5.64545C112.762 3.2506 112.052 2.39782 111.23 1.91815C110.818 1.67804 110.366 1.52395 109.729 1.32124C109.675 1.30387 109.619 1.28619 109.562 1.26812C108.958 1.07665 108.215 0.840958 107.264 0.460363L107.571 0C108.496 0.36979 109.215 0.597806 109.817 0.788928C109.874 0.806921 109.93 0.824587 109.984 0.842014C110.616 1.04322 111.144 1.21913 111.633 1.50443Z" fill="white"/>
<path fill-rule="evenodd" clip-rule="evenodd" d="M62.5459 18.3807C63.3276 17.8852 64.5753 17.5345 67.6722 16.9375L67.7449 17.0835C64.6376 17.6824 63.4525 18.0242 62.7213 18.4877C62.3555 18.7195 62.0993 18.9845 61.7724 19.3395C61.7442 19.37 61.7156 19.4012 61.6864 19.433C61.3768 19.7703 60.9994 20.1815 60.4195 20.7011L60.2177 20.614C60.7911 20.1001 61.1638 19.6941 61.4732 19.3571C61.5024 19.3253 61.531 19.2941 61.5591 19.2636C61.8851 18.9095 62.1552 18.6283 62.5459 18.3807Z" fill="white"/>
<path fill-rule="evenodd" clip-rule="evenodd" d="M121.456 19.3388C122.773 18.8295 124.362 18.7222 127.964 18.8898L127.943 19.4717C124.334 19.3038 122.835 19.4203 121.618 19.8907C121.008 20.1267 120.461 20.4545 119.741 20.9014C119.68 20.9399 119.616 20.9792 119.552 21.0193C118.869 21.4441 118.037 21.9623 116.888 22.58L116.673 22.0526C117.808 21.4424 118.629 20.9314 119.31 20.507C119.375 20.467 119.438 20.4277 119.5 20.3892C120.217 19.9437 120.799 19.5927 121.456 19.3388Z" fill="white"/>
<path fill-rule="evenodd" clip-rule="evenodd" d="M79.119 20.7551C79.9327 20.2946 80.6795 19.4242 82.2427 16.9375L82.7995 17.2171C81.2501 19.6819 80.4325 20.6873 79.4607 21.2373C78.9753 21.5121 78.4642 21.6659 77.8542 21.8397C77.8014 21.8548 77.7476 21.8701 77.6929 21.8856C77.1115 22.0506 76.418 22.2474 75.5182 22.583L75.2722 22.0562C76.1988 21.7106 76.9161 21.5071 77.4987 21.3418C77.5537 21.3262 77.6075 21.3109 77.6602 21.2959C78.2748 21.1207 78.7117 20.9856 79.119 20.7551Z" fill="white"/>
<path fill-rule="evenodd" clip-rule="evenodd" d="M111.862 3.7863C112.826 4.06969 113.888 4.38176 114.791 5.32328L114.269 5.64545C113.492 4.83581 112.658 4.58924 111.731 4.31512C111.419 4.22284 111.097 4.12743 110.762 4.00637C110.109 3.77008 109.457 3.44149 108.854 2.84312C108.256 2.24898 107.719 1.40285 107.264 0.147639L107.896 0C108.336 1.21221 108.84 1.98807 109.367 2.51101C109.889 3.02974 110.449 3.31331 111.033 3.52478C111.296 3.62 111.575 3.70187 111.862 3.7863Z" fill="white"/>
<path fill-rule="evenodd" clip-rule="evenodd" d="M65.4766 19.2376C65.9392 18.4234 66.4185 17.5797 67.6206 16.9375L67.7449 17.1344C66.6103 17.7406 66.1725 18.5098 65.716 19.3118C65.5681 19.5717 65.4182 19.835 65.242 20.0973C64.8845 20.6297 64.4236 21.1418 63.654 21.576C62.8867 22.0089 61.8196 22.3602 60.2555 22.583L60.2177 22.3579C61.761 22.1381 62.7938 21.7941 63.5246 21.3819C64.2532 20.9708 64.6887 20.4878 65.0313 19.9776C65.1921 19.7383 65.3335 19.4894 65.4766 19.2376Z" fill="white"/>
<path fill-rule="evenodd" clip-rule="evenodd" d="M124.075 20.4188C125.146 19.7527 126.26 19.059 127.895 18.8164L127.964 19.3622C126.437 19.5889 125.432 20.2133 124.379 20.8678C124.036 21.0806 123.689 21.2965 123.316 21.503C121.798 22.3455 119.979 22.9423 116.673 22.3268L116.759 21.7839C119.955 22.3789 121.662 21.8016 123.084 21.0128C123.419 20.8267 123.745 20.6241 124.075 20.4188Z" fill="white"/>
<path fill-rule="evenodd" clip-rule="evenodd" d="M79.8436 18.1913C80.7344 17.9614 81.5343 17.7549 82.3351 16.9375L82.7995 17.329C81.8658 18.2821 80.8432 18.544 79.9162 18.7814C79.6403 18.8521 79.3729 18.9206 79.1188 19.0045C78.5538 19.191 78.0056 19.457 77.469 19.979C76.928 20.5054 76.3843 21.3063 75.8584 22.583L75.2722 22.3752C75.8171 21.0524 76.3988 20.1767 77.0148 19.5774C77.6353 18.9737 78.2758 18.6649 78.9083 18.4561C79.2328 18.349 79.5434 18.2688 79.8436 18.1913Z" fill="white"/>
<path fill-rule="evenodd" clip-rule="evenodd" d="M114.697 5.25563C114.767 5.32104 114.818 5.42519 114.775 5.54157L114.163 5.38948C114.129 5.48198 114.172 5.56392 114.22 5.60841C114.243 5.63005 114.265 5.6409 114.273 5.64428C114.255 5.63796 114.205 5.62539 114.104 5.60878C113.971 5.58689 113.799 5.56537 113.588 5.53893C113.483 5.52582 113.368 5.5115 113.244 5.49533C112.513 5.40016 111.517 5.24895 110.55 4.9293C109.584 4.60976 108.622 4.11358 107.989 3.31528C107.35 2.51062 107.074 1.4334 107.404 0L108.032 0.0989189C107.727 1.42503 107.993 2.35679 108.524 3.02532C109.059 3.70021 109.89 4.14144 110.788 4.43826C111.685 4.73497 112.623 4.87907 113.344 4.97291C113.454 4.98727 113.561 5.00067 113.663 5.0134C113.885 5.04119 114.081 5.06576 114.229 5.09007C114.334 5.10734 114.444 5.12883 114.531 5.16018C114.571 5.17489 114.64 5.20315 114.697 5.25563ZM114.274 5.64451C114.277 5.64579 114.277 5.64582 114.273 5.64428L114.274 5.64451Z" fill="white"/>
<path fill-rule="evenodd" clip-rule="evenodd" d="M67.5825 16.9642C67.6251 16.9389 67.6845 16.9265 67.7449 16.95L67.6438 17.1458C67.6764 17.1585 67.708 17.1496 67.7223 17.1411C67.725 17.1395 67.7263 17.1384 67.7264 17.1384C67.7264 17.1385 67.7224 17.1421 67.715 17.1527C67.6931 17.1843 67.6655 17.2416 67.6315 17.3288C67.5862 17.4452 67.5356 17.5979 67.475 17.7807C67.4457 17.8692 67.4141 17.9646 67.3796 18.0665C67.17 18.6851 66.8619 19.5142 66.3602 20.292C65.8585 21.0697 65.1581 21.8042 64.159 22.2235C63.1567 22.6442 61.8711 22.7405 60.2177 22.269L60.2949 22.0652C61.8998 22.5229 63.1175 22.4224 64.0512 22.0305C64.9882 21.6372 65.6566 20.9433 66.1443 20.1873C66.632 19.4314 66.9338 18.6213 67.1423 18.006C67.1753 17.9087 67.2061 17.8156 67.235 17.7282C67.2968 17.5419 67.35 17.3813 67.3972 17.2601C67.4315 17.172 67.4662 17.0952 67.5032 17.0419C67.5212 17.0161 67.5466 16.9855 67.5825 16.9642Z" fill="white"/>
<path fill-rule="evenodd" clip-rule="evenodd" d="M127.517 19.4828C127.57 19.5087 127.638 19.5442 127.683 19.5848L127.964 19.8431L127.448 19.9328C127.408 19.9507 127.356 19.977 127.289 20.0132C127.16 20.0825 126.998 20.1755 126.803 20.2874C126.711 20.3408 126.61 20.3986 126.502 20.4601C125.842 20.8364 124.934 21.3352 123.902 21.7536C121.854 22.5837 119.212 23.1372 117.059 21.6577L116.673 21.3927L117.531 21.2435C119.67 19.3318 122.04 18.811 123.95 18.8164C124.965 18.8193 125.847 18.9707 126.491 19.136C126.814 19.2187 127.079 19.3054 127.274 19.38C127.371 19.4171 127.453 19.4521 127.517 19.4828ZM117.808 21.6088C119.634 22.5919 121.81 22.1491 123.676 21.3927C124.652 20.9971 125.519 20.525 126.169 20.1552L117.808 21.6088ZM126.755 19.6398L118.411 21.0905C120.304 19.6193 122.315 19.2159 123.948 19.2205C124.904 19.2233 125.734 19.3659 126.339 19.5211C126.493 19.5607 126.633 19.601 126.755 19.6398Z" fill="white"/>
<path fill-rule="evenodd" clip-rule="evenodd" d="M67.5595 16.1207C67.5968 16.1405 67.7174 16.2161 67.7449 16.414L67.2175 16.545C67.242 16.7215 67.3485 16.7802 67.3613 16.787C67.377 16.7954 67.3876 16.7976 67.3877 16.7975C67.3877 16.7975 67.3858 16.797 67.3815 16.7965C67.3573 16.7932 67.3091 16.7926 67.2283 16.7975C67.1208 16.8041 66.9837 16.8184 66.817 16.8357C66.7368 16.8441 66.6499 16.8532 66.556 16.8625C65.9878 16.9186 65.2104 16.9772 64.3923 16.8942C62.7761 16.7303 60.8787 15.9967 60.2177 13.4031L60.7254 13.1719C61.2749 15.3275 62.8588 16.0196 64.4329 16.1792C65.2099 16.258 65.955 16.2028 66.5164 16.1474C66.6024 16.1389 66.6851 16.1302 66.7634 16.1221C66.9362 16.1041 67.0874 16.0883 67.2038 16.0812C67.2872 16.0761 67.3687 16.0742 67.4345 16.0829C67.4653 16.087 67.5123 16.0956 67.5595 16.1207Z" fill="white"/>
<path fill-rule="evenodd" clip-rule="evenodd" d="M68.8246 15.1167C68.8342 15.0974 68.8594 15.064 68.9232 15.0547L68.9674 15.1666C68.9981 15.1621 69.0068 15.1486 69.0068 15.1485C69.0067 15.1485 69.0064 15.149 69.0059 15.15C69.0034 15.155 69.0003 15.1668 69.0002 15.1885C69 15.2309 69.0106 15.2944 69.0309 15.3791C69.0581 15.4932 69.101 15.6392 69.1518 15.8124C69.1762 15.8955 69.2024 15.9849 69.2297 16.08C69.397 16.6642 69.5987 17.4551 69.6239 18.291C69.6742 19.9586 69.0211 21.8324 65.9332 22.582L65.8629 22.4751C68.833 21.7541 69.4845 19.9509 69.4345 18.2931C69.4096 17.4663 69.2099 16.6825 69.043 16.0997C69.0163 16.0063 68.9903 15.9179 68.9661 15.8352C68.9148 15.6607 68.8711 15.5116 68.8434 15.3957C68.823 15.3105 68.8105 15.2397 68.8108 15.1881C68.8109 15.1628 68.8141 15.1378 68.8246 15.1167Z" fill="white"/>
<path fill-rule="evenodd" clip-rule="evenodd" d="M82.2657 16.974C82.2151 17.0198 82.1662 17.1076 82.1897 17.2129L82.7917 17.0904C82.8211 17.2223 82.7631 17.3338 82.6891 17.4007C82.6298 17.4544 82.5618 17.4804 82.5219 17.4935C82.4369 17.5215 82.3307 17.5368 82.2301 17.5478C82.0884 17.5634 81.9009 17.5757 81.6891 17.5896C81.5921 17.5959 81.4899 17.6026 81.3847 17.6101C80.697 17.6591 79.8 17.7468 78.9273 18.0035C78.0543 18.2603 77.2309 18.6791 76.6644 19.3734C76.1034 20.0612 75.7652 21.0548 75.929 22.5205L75.317 22.583C75.1397 20.9965 75.5014 19.8424 76.179 19.012C76.8511 18.1882 77.8051 17.7184 78.7462 17.4415C79.6875 17.1646 80.6413 17.0734 81.3389 17.0237C81.4576 17.0153 81.5669 17.0081 81.667 17.0016C81.8685 16.9884 82.0324 16.9777 82.1598 16.9637C82.2563 16.9531 82.304 16.9431 82.3209 16.9377C82.3131 16.9409 82.2907 16.9513 82.2657 16.974ZM82.3216 16.9375C82.3214 16.9376 82.3211 16.9377 82.3209 16.9377L82.3216 16.9375Z" fill="white"/>
<path fill-rule="evenodd" clip-rule="evenodd" d="M92.1037 0.958012C93.5272 1.9427 94.0301 3.36583 94.0901 3.65546L93.58 3.76364C93.541 3.57567 93.0984 2.28463 91.8095 1.39303C90.5416 0.516 88.3972 -0.0129523 84.8732 1.40017L84.681 0.910229C88.3241 -0.55065 90.6592 -0.0412283 92.1037 0.958012Z" fill="white"/>
<path fill-rule="evenodd" clip-rule="evenodd" d="M93.5511 2.97515C93.8086 3.09834 94.0343 3.26324 94.0901 3.61543L93.5787 3.75742C93.5789 3.75831 93.5795 3.76043 93.5806 3.76274C93.5821 3.76573 93.5807 3.76121 93.5701 3.75007C93.5451 3.72358 93.4901 3.68165 93.3735 3.62589C93.14 3.51421 92.7515 3.38796 92.0998 3.18487C92.0135 3.15797 91.9229 3.12982 91.8278 3.10028C90.5006 2.68783 88.2993 2.00381 84.681 0.666414L84.8216 0C88.4295 1.33356 90.6226 2.01506 91.9475 2.42677C92.0426 2.45631 92.1332 2.48447 92.2196 2.51138C92.8582 2.71042 93.2822 2.84658 93.5511 2.97515Z" fill="white"/>
<path fill-rule="evenodd" clip-rule="evenodd" d="M89.4837 3.89029C90.0178 3.42044 90.7846 2.77099 91.9525 1.87891L92.2085 2.71854C91.0513 3.60246 90.2945 4.2436 89.7699 4.70517C89.6051 4.85014 89.4602 4.98023 89.3313 5.09599C89.0592 5.34035 88.8582 5.52084 88.6913 5.64254L88.4448 4.79582C88.5887 4.69085 88.7561 4.5405 89.0086 4.31367C89.1407 4.19497 89.2961 4.05533 89.4837 3.89029Z" fill="white"/>
<path fill-rule="evenodd" clip-rule="evenodd" d="M87.5816 2.85596C88.1106 2.62543 88.8707 2.30844 90.0314 1.87891L90.3257 2.33928C89.1792 2.76354 88.4325 3.0751 87.916 3.30019C87.7569 3.36951 87.6158 3.43247 87.4893 3.4889C87.2177 3.61007 87.0134 3.70118 86.8436 3.76072L86.562 3.29578C86.7012 3.24698 86.8609 3.17571 87.1064 3.06608C87.2372 3.00771 87.3923 2.93847 87.5816 2.85596Z" fill="white"/>
<path fill-rule="evenodd" clip-rule="evenodd" d="M87.0433 2.78835C87.3013 2.56825 87.6724 2.26969 88.243 1.87891L88.4438 2.43729C87.8865 2.81904 87.5276 3.10811 87.2809 3.31859C87.1982 3.38912 87.1297 3.44938 87.0685 3.50331C87.0366 3.53139 87.0066 3.55776 86.9776 3.58297C86.8971 3.65298 86.8227 3.71523 86.7511 3.76072L86.562 3.19458C86.6039 3.16794 86.656 3.12574 86.7368 3.05552C86.762 3.03359 86.7902 3.00885 86.821 2.98167C86.8839 2.9263 86.9584 2.86082 87.0433 2.78835Z" fill="white"/>
<path fill-rule="evenodd" clip-rule="evenodd" d="M93.9184 3.36466C94.0131 3.42374 94.0715 3.54071 94.0901 3.66761L93.5868 3.81811C93.5994 3.90348 93.6422 3.99272 93.7123 4.03648C93.7398 4.0536 93.763 4.05815 93.7761 4.05943C93.7894 4.06071 93.7978 4.05918 93.7994 4.05887C93.7996 4.05883 93.7997 4.05881 93.7997 4.05881C93.7997 4.05887 93.7914 4.06104 93.7715 4.07064C93.7507 4.08072 93.7238 4.0958 93.6894 4.11697C93.6052 4.16889 93.5049 4.23895 93.3819 4.32501C93.2894 4.38965 93.184 4.4633 93.0628 4.54508C92.5189 4.91208 91.7456 5.37775 90.8421 5.56346C89.9351 5.74989 88.8954 5.65443 87.826 4.89871C86.7579 4.14398 85.6814 2.74578 84.681 0.378434L85.1215 0C86.084 2.2776 87.0939 3.56302 88.0543 4.24171C89.0134 4.91941 89.9443 5.00716 90.7687 4.83771C91.5966 4.66754 92.3153 4.23823 92.8429 3.88228C92.9452 3.81323 93.0445 3.744 93.1366 3.6797C93.2724 3.58493 93.3929 3.50087 93.4854 3.44388C93.5609 3.39734 93.6497 3.34771 93.7309 3.33216C93.7703 3.32459 93.8427 3.31746 93.9184 3.36466Z" fill="white"/>
<path fill-rule="evenodd" clip-rule="evenodd" d="M107.241 9.21213C107.201 9.31001 107.115 9.37666 107.024 9.41108L106.685 8.80387C106.597 8.83721 106.512 8.90223 106.473 8.99793C106.439 9.08072 106.454 9.15074 106.464 9.18372C106.483 9.24281 106.517 9.28047 106.52 9.28433L106.521 9.28461C106.527 9.29226 106.532 9.29649 106.532 9.2965C106.532 9.2965 106.528 9.29288 106.518 9.28497C106.483 9.25757 106.418 9.21131 106.318 9.14589C106.121 9.01716 105.819 8.83276 105.43 8.60972C104.655 8.16423 103.548 7.57213 102.277 6.97329C99.7142 5.76652 96.555 4.56787 94.0901 4.43261L94.1439 3.76562C96.8097 3.9119 100.11 5.18302 102.679 6.39285C103.973 7.0023 105.1 7.6052 105.894 8.06124C106.29 8.28897 106.607 8.48196 106.821 8.62223C106.927 8.69132 107.015 8.75246 107.077 8.80099C107.105 8.82252 107.144 8.85467 107.176 8.8911L107.176 8.89142C107.188 8.90437 107.229 8.95106 107.25 9.01812C107.261 9.05439 107.276 9.12715 107.241 9.21213Z" fill="white"/>
<path fill-rule="evenodd" clip-rule="evenodd" d="M107.241 9.21213C107.201 9.31001 107.115 9.37666 107.024 9.41108L106.685 8.80387C106.597 8.83721 106.512 8.90223 106.473 8.99793C106.439 9.08072 106.454 9.15074 106.464 9.18372C106.483 9.24281 106.517 9.28047 106.52 9.28433L106.521 9.28461C106.527 9.29226 106.532 9.29649 106.532 9.2965C106.532 9.2965 106.528 9.29288 106.518 9.28497C106.483 9.25757 106.418 9.21131 106.318 9.14589C106.121 9.01716 105.819 8.83276 105.43 8.60972C104.655 8.16423 103.548 7.57213 102.277 6.97329C99.7142 5.76652 96.555 4.56787 94.0901 4.43261L94.1439 3.76562C96.8097 3.9119 100.11 5.18302 102.679 6.39285C103.973 7.0023 105.1 7.6052 105.894 8.06124C106.29 8.28897 106.607 8.48196 106.821 8.62223C106.927 8.69132 107.015 8.75246 107.077 8.80099C107.105 8.82252 107.144 8.85467 107.176 8.8911L107.176 8.89142C107.188 8.90437 107.229 8.95106 107.25 9.01812C107.261 9.05439 107.276 9.12715 107.241 9.21213Z" fill="white"/>
<path fill-rule="evenodd" clip-rule="evenodd" d="M122.309 12.8954C122.283 13.0212 122.209 13.1209 122.113 13.1718L121.826 12.4541C121.735 12.5024 121.664 12.5981 121.64 12.7181C121.621 12.8137 121.639 12.8888 121.646 12.9155C121.655 12.9479 121.666 12.9697 121.669 12.9775C121.674 12.9869 121.678 12.9922 121.678 12.9923C121.678 12.9928 121.677 12.991 121.674 12.9867C121.671 12.9825 121.667 12.9768 121.661 12.9695C121.649 12.9546 121.634 12.9356 121.614 12.912C121.531 12.8157 121.396 12.6716 121.211 12.4824C120.843 12.1063 120.3 11.5745 119.639 10.935C119.201 10.5105 118.711 10.0391 118.188 9.53593C117.139 8.52655 115.958 7.38931 114.79 6.24655L115.235 5.64453C116.4 6.78537 117.577 7.91816 118.625 8.9263C119.149 9.43026 119.64 9.90306 120.081 10.3302C120.742 10.9694 121.291 11.5075 121.667 11.8916C121.854 12.0826 122.003 12.2414 122.103 12.3578C122.15 12.4133 122.198 12.4727 122.233 12.5278C122.246 12.5493 122.28 12.6038 122.3 12.6761C122.31 12.7116 122.329 12.7941 122.309 12.8954Z" fill="white"/>
<path fill-rule="evenodd" clip-rule="evenodd" d="M102.323 16.921C101.957 17.0008 101.675 16.7508 101.618 16.6821L101.744 16.3993C101.744 16.3993 101.745 16.4007 101.748 16.4036C101.751 16.4063 101.754 16.4098 101.759 16.4141C101.768 16.4226 101.78 16.4333 101.795 16.4451C101.825 16.4689 101.866 16.4967 101.916 16.5212C102.015 16.5704 102.147 16.6056 102.296 16.5732C102.585 16.51 102.97 16.1816 103.31 15.0547L103.5 15.2111C103.137 16.4152 102.7 16.8389 102.323 16.921Z" fill="white"/>
<path fill-rule="evenodd" clip-rule="evenodd" d="M101.965 17.1285C102.099 17.031 102.241 16.964 102.315 16.9375L102.736 17.17C102.737 17.1698 102.736 17.1699 102.735 17.1704C102.73 17.1726 102.708 17.1818 102.675 17.1995C102.636 17.2199 102.587 17.2486 102.537 17.2847C102.437 17.357 102.338 17.4565 102.303 17.5773C102.236 17.8089 102.395 18.1625 103.5 18.5951L103.057 18.8193C101.828 18.3383 101.535 17.8924 101.637 17.5392C101.687 17.3677 101.827 17.2284 101.965 17.1285Z" fill="white"/>
<path fill-rule="evenodd" clip-rule="evenodd" d="M108.89 20.7074C109.011 20.7005 109.101 20.7026 109.145 20.7089L109.126 20.7832C109.095 20.7789 109.016 20.7761 108.898 20.7828C108.781 20.7896 108.629 20.8054 108.455 20.8368C108.106 20.8997 107.667 21.0247 107.235 21.2625C106.372 21.7369 105.526 22.6656 105.482 24.4668L105.381 24.4654C105.426 22.6451 106.282 21.6924 107.175 21.2016C107.62 20.9568 108.072 20.8281 108.431 20.7633C108.611 20.7309 108.768 20.7144 108.89 20.7074Z" fill="white"/>
<path fill-rule="evenodd" clip-rule="evenodd" d="M101.822 16.8936C101.768 16.9315 101.69 16.9722 101.618 16.8823L101.747 16.5794C101.729 16.5567 101.713 16.561 101.713 16.5611C101.713 16.5612 101.721 16.5594 101.741 16.5454C101.785 16.5143 101.856 16.4496 101.98 16.3326C101.996 16.3173 102.013 16.3012 102.031 16.2843C102.282 16.048 102.698 15.6558 103.404 15.0547L103.5 15.3915C102.798 15.9892 102.385 16.3785 102.136 16.6139C102.118 16.6308 102.101 16.647 102.084 16.6623C101.965 16.7746 101.882 16.8524 101.822 16.8936Z" fill="white"/>
<path fill-rule="evenodd" clip-rule="evenodd" d="M101.629 17.1654C101.61 17.1118 101.59 17.0083 101.833 16.9375L102.376 17.1807C102.469 17.1539 102.482 17.121 102.484 17.112C102.484 17.1146 102.485 17.1192 102.487 17.1264C102.501 17.1648 102.543 17.2305 102.627 17.3548C102.638 17.3709 102.65 17.3877 102.662 17.4054C102.831 17.6536 103.113 18.0661 103.5 18.7574L102.652 18.8193C102.268 18.1344 101.99 17.7267 101.821 17.4799C101.809 17.4622 101.798 17.4454 101.787 17.4293C101.708 17.3127 101.65 17.2261 101.629 17.1654ZM102.484 17.1096C102.484 17.1097 102.484 17.1105 102.484 17.112C102.484 17.1103 102.484 17.1096 102.484 17.1096Z" fill="white"/>
<path fill-rule="evenodd" clip-rule="evenodd" d="M108.835 20.8338C108.951 20.7348 109.04 20.6905 109.145 20.7062L109.125 20.7854C109.079 20.7784 109.024 20.7909 108.91 20.8883C108.798 20.9844 108.642 21.1502 108.394 21.4189C108.361 21.4548 108.326 21.4925 108.29 21.5321C107.782 22.0832 106.94 22.9964 105.462 24.4668L105.381 24.4168C106.858 22.9478 107.699 22.0356 108.207 21.4849C108.243 21.4453 108.278 21.4075 108.311 21.3716C108.558 21.1045 108.717 20.9342 108.835 20.8338Z" fill="white"/>
<path fill-rule="evenodd" clip-rule="evenodd" d="M101.731 16.9271C101.692 16.9474 101.652 16.9333 101.624 16.9002L101.753 16.6229C101.73 16.5957 101.696 16.583 101.662 16.6005C101.637 16.6135 101.624 16.6376 101.621 16.6417L101.621 16.6418C101.619 16.6454 101.618 16.6477 101.618 16.6477C101.618 16.6476 101.621 16.642 101.625 16.6267C101.633 16.6 101.641 16.5685 101.651 16.5281C101.66 16.4962 101.669 16.4588 101.681 16.4139C101.732 16.2248 101.811 15.9606 101.941 15.7157C102.073 15.4691 102.257 15.2413 102.516 15.1285C102.774 15.016 103.096 15.0221 103.5 15.2164L103.436 15.5453C103.062 15.3654 102.783 15.3689 102.574 15.4599C102.366 15.5507 102.218 15.7326 102.11 15.9364C102 16.1421 101.931 16.3692 101.883 16.5471C101.875 16.5791 101.866 16.6123 101.858 16.6439C101.845 16.693 101.834 16.7385 101.824 16.7706C101.817 16.7957 101.805 16.8341 101.788 16.865C101.78 16.8798 101.761 16.9111 101.731 16.9271Z" fill="white"/>
<path fill-rule="evenodd" clip-rule="evenodd" d="M101.619 17.0713C101.612 17.0156 101.665 16.9675 101.743 16.9375L102.142 17.1742C102.211 17.1477 102.261 17.1037 102.254 17.0531C102.249 17.0147 102.214 16.9899 102.206 16.9842C102.195 16.9766 102.185 16.9722 102.185 16.9722C102.185 16.9722 102.189 16.974 102.199 16.9779C102.223 16.9876 102.251 16.9975 102.289 17.0108C102.32 17.0221 102.358 17.0357 102.407 17.0537C102.598 17.1239 102.867 17.2315 103.09 17.3821C103.315 17.5345 103.494 17.7317 103.5 17.9776C103.506 18.2227 103.34 18.502 102.927 18.8193L102.387 18.6587C102.752 18.3783 102.868 18.1553 102.864 17.9812C102.859 17.8081 102.736 17.6696 102.57 17.5576C102.402 17.4438 102.191 17.3581 102.018 17.2944C101.99 17.284 101.959 17.2727 101.928 17.2616C101.877 17.2432 101.827 17.2253 101.793 17.2122C101.769 17.2025 101.72 17.1828 101.683 17.1573C101.665 17.1451 101.624 17.1146 101.619 17.0713Z" fill="white"/>
<path fill-rule="evenodd" clip-rule="evenodd" d="M108.996 20.7205C109.017 20.7052 109.043 20.7007 109.068 20.7043L109.048 20.7832C109.054 20.784 109.064 20.7829 109.072 20.777C109.074 20.7754 109.075 20.7744 109.075 20.7744C109.075 20.7744 109.074 20.7759 109.073 20.7801C109.068 20.7949 109.067 20.8219 109.071 20.8637C109.074 20.9109 109.082 20.9699 109.092 21.04C109.099 21.0929 109.108 21.1522 109.115 21.2177C109.151 21.5184 109.176 21.9324 109.051 22.3665C108.926 22.8012 108.649 23.2565 108.083 23.6384C107.518 24.02 106.666 24.3256 105.397 24.4668L105.381 24.3873C106.636 24.2479 107.466 23.9472 108.012 23.5785C108.558 23.2101 108.825 22.7711 108.947 22.3495C109.069 21.9273 109.045 21.5228 109.009 21.2249C109.002 21.1627 108.994 21.1045 108.987 21.0515C108.977 20.9792 108.968 20.9168 108.964 20.8683C108.961 20.8267 108.961 20.7897 108.969 20.7629C108.972 20.7497 108.98 20.7332 108.996 20.7205Z" fill="white"/>
<path fill-rule="evenodd" clip-rule="evenodd" d="M101.523 16.6505C101.556 16.6843 101.595 16.7261 101.618 16.7647L101.018 16.9326C101.019 16.9351 101.02 16.9365 101.02 16.9365C101.02 16.9366 101.012 16.9262 100.988 16.9023C100.961 16.8749 100.922 16.8381 100.87 16.7938C100.767 16.7053 100.621 16.591 100.437 16.4669C100.067 16.2178 99.557 15.9367 98.9542 15.7423C98.3533 15.5485 97.6707 15.4439 96.9427 15.5341C96.2166 15.6241 95.4094 15.9123 94.5684 16.5481L94.0903 16.247C95.0072 15.5539 95.9356 15.2052 96.8283 15.0945C97.719 14.9842 98.5384 15.1152 99.2282 15.3377C99.9161 15.5595 100.485 15.8751 100.889 16.1475C101.092 16.2841 101.256 16.4118 101.375 16.5144C101.435 16.5656 101.484 16.6117 101.523 16.6505Z" fill="white"/>
<path fill-rule="evenodd" clip-rule="evenodd" d="M101.496 16.7992C101.485 16.8343 101.465 16.8901 101.433 16.9345L100.982 16.6647C100.974 16.6757 100.97 16.683 100.97 16.683C100.97 16.6829 100.974 16.6756 100.98 16.6575C100.988 16.6307 100.999 16.591 101.011 16.5388C101.034 16.4349 101.057 16.2891 101.069 16.1114C101.094 15.7558 101.074 15.2803 100.928 14.7625C100.638 13.7366 99.8474 12.5245 97.8544 11.7409L98.0681 11.2891C100.225 12.1369 101.122 13.4765 101.451 14.6398C101.613 15.2165 101.635 15.7449 101.608 16.1423C101.594 16.3411 101.568 16.509 101.54 16.636C101.526 16.6993 101.511 16.7544 101.496 16.7992Z" fill="white"/>
<path fill-rule="evenodd" clip-rule="evenodd" d="M101.531 17.0074C101.556 17.0166 101.591 17.0312 101.618 17.0553L101.479 17.4151C101.483 17.419 101.486 17.4209 101.486 17.421C101.486 17.4211 101.48 17.4177 101.465 17.4121C101.445 17.4046 101.416 17.3959 101.379 17.3876C101.304 17.3709 101.201 17.3565 101.075 17.3544C100.825 17.3502 100.491 17.3954 100.132 17.5654C99.4201 17.9027 98.5957 18.7359 98.1129 20.7011L97.8544 20.5561C98.3689 18.4621 99.2618 17.5411 100.05 17.1678C100.441 16.9824 100.804 16.9332 101.078 16.9378C101.215 16.9401 101.331 16.9558 101.419 16.9754C101.463 16.9852 101.5 16.9962 101.531 17.0074Z" fill="white"/>
<path fill-rule="evenodd" clip-rule="evenodd" d="M101.045 15.8539C101.255 15.9101 101.511 16.0245 101.618 16.4408L101.001 16.8356C101.017 16.8997 101.044 16.9277 101.051 16.9347C101.043 16.9289 101.011 16.9101 100.933 16.8893C100.755 16.8417 100.459 16.8122 99.9438 16.7695C99.876 16.7638 99.8048 16.758 99.7301 16.7519C98.6871 16.6665 96.9563 16.5247 94.0903 16.1004L94.1525 15.0547C97.0049 15.477 98.725 15.6179 99.7649 15.7031C99.8397 15.7092 99.9109 15.715 99.9788 15.7207C100.477 15.762 100.82 15.7936 101.045 15.8539ZM101.054 16.9365C101.054 16.9365 101.053 16.936 101.051 16.9347L101.054 16.9365Z" fill="white"/>
<path fill-rule="evenodd" clip-rule="evenodd" d="M101.608 16.6504C101.626 16.7318 101.627 16.8366 101.558 16.9345L101.107 16.6596C101.072 16.7086 101.08 16.7519 101.08 16.752C101.08 16.752 101.08 16.7518 101.08 16.7516C101.077 16.7407 101.066 16.7072 101.027 16.6342C100.951 16.4908 100.808 16.2644 100.565 15.8858C100.532 15.8356 100.499 15.7829 100.463 15.7275C99.9673 14.9571 99.1454 13.6794 97.8544 11.534L98.3249 11.2891C99.6122 13.4282 100.431 14.7011 100.926 15.4702C100.961 15.5256 100.995 15.5783 101.028 15.6285C101.266 15.9992 101.423 16.2465 101.511 16.4126C101.554 16.4944 101.591 16.5747 101.608 16.6504Z" fill="white"/>
<path fill-rule="evenodd" clip-rule="evenodd" d="M101.445 16.9512C101.496 16.9316 101.558 16.927 101.618 16.9785L101.477 17.3357C101.499 17.355 101.518 17.3506 101.518 17.3507C101.518 17.3507 101.517 17.3509 101.516 17.3514C101.504 17.356 101.478 17.371 101.428 17.4121C101.33 17.4932 101.177 17.6429 100.924 17.8938C100.89 17.9271 100.855 17.962 100.818 17.9987C100.301 18.5108 99.4448 19.3599 98.0035 20.7011L97.8544 20.3511C99.2923 19.013 100.146 18.1665 100.662 17.6552C100.699 17.6185 100.734 17.5835 100.768 17.5502C101.017 17.3035 101.181 17.1422 101.292 17.051C101.347 17.0059 101.398 16.9695 101.445 16.9512Z" fill="white"/>
<path fill-rule="evenodd" clip-rule="evenodd" d="M97.3723 15.056C98.3115 15.0299 99.3706 15.3789 101.618 16.3909L101.315 16.9365C99.0412 15.9125 98.134 15.6451 97.3932 15.6657C97.0221 15.676 96.6766 15.759 96.1839 15.8899C96.1417 15.9011 96.0987 15.9126 96.0546 15.9244C95.5883 16.0488 95.0112 16.2029 94.2249 16.3466L94.0903 15.7488C94.8466 15.6106 95.3982 15.4634 95.8633 15.3393C95.9071 15.3276 95.9501 15.3161 95.9925 15.3049C96.4803 15.1753 96.9033 15.0691 97.3723 15.056Z" fill="white"/>
<path fill-rule="evenodd" clip-rule="evenodd" d="M98.9347 15.9485C99.6695 15.6989 100.507 15.4143 101.618 15.6844L101.459 16.3399C100.555 16.1198 99.9503 16.3233 99.2525 16.5584C99.0122 16.6393 98.7609 16.7239 98.4825 16.7963C97.9509 16.9344 97.3612 17.0037 96.6392 16.8464C95.924 16.6905 95.1013 16.3171 94.0903 15.6073L94.4755 15.0547C95.4398 15.7317 96.1804 16.0562 96.7818 16.1873C97.3765 16.3169 97.8568 16.2622 98.314 16.1434C98.5149 16.0911 98.7204 16.0213 98.9347 15.9485Z" fill="white"/>
<path fill-rule="evenodd" clip-rule="evenodd" d="M101.347 15.7409C101.448 15.7654 101.564 15.8612 101.618 16.0579L101.022 16.4148C101.067 16.5809 101.166 16.659 101.242 16.6775C101.273 16.685 101.297 16.6826 101.308 16.6807C101.321 16.6787 101.328 16.6757 101.329 16.6752C101.33 16.6751 101.33 16.6751 101.329 16.6753C101.328 16.676 101.32 16.68 101.303 16.6908C101.284 16.7032 101.259 16.7208 101.228 16.7447C101.141 16.812 101.032 16.9055 100.896 17.0219C100.828 17.0806 100.753 17.145 100.671 17.2149C100.194 17.6188 99.526 18.1519 98.7782 18.4892C98.0309 18.8263 97.1771 18.9799 96.3402 18.5797C95.4944 18.1753 94.7134 17.2284 94.0903 15.5006L94.6582 15.0547C95.2189 16.6094 95.881 17.3623 96.5384 17.6767C97.2046 17.9952 97.914 17.8864 98.5902 17.5814C99.2661 17.2765 99.8824 16.7878 100.35 16.3916C100.421 16.332 100.489 16.2732 100.555 16.2169C100.7 16.0924 100.83 15.9807 100.931 15.9031C101.002 15.8486 101.084 15.7896 101.161 15.7588C101.197 15.7446 101.267 15.7214 101.347 15.7409Z" fill="white"/>
<path fill-rule="evenodd" clip-rule="evenodd" d="M101.587 16.6612C101.605 16.6966 101.653 16.8143 101.574 16.9345L101.156 16.6588C101.085 16.7674 101.132 16.8694 101.14 16.885C101.148 16.9024 101.156 16.912 101.157 16.912C101.157 16.912 101.156 16.9111 101.154 16.9091C101.142 16.896 101.113 16.8701 101.06 16.8275C100.99 16.7715 100.898 16.7031 100.787 16.6196C100.732 16.5784 100.672 16.5336 100.607 16.4848C100.223 16.1951 99.7048 15.7891 99.2234 15.2931C98.2734 14.3143 97.3878 12.8964 98.1316 11.2891L98.5849 11.5013C97.9824 12.8033 98.6608 13.9935 99.5812 14.9417C100.035 15.4093 100.528 15.7966 100.907 16.0824C100.966 16.1266 101.022 16.1689 101.076 16.2091C101.192 16.2961 101.295 16.3726 101.371 16.4338C101.426 16.4778 101.48 16.5233 101.519 16.5657C101.538 16.5854 101.566 16.6185 101.587 16.6612Z" fill="white"/>
<path fill-rule="evenodd" clip-rule="evenodd" d="M101.462 16.9677C101.482 16.9516 101.548 16.9094 101.618 16.9663L101.476 17.3032C101.538 17.3534 101.593 17.3133 101.6 17.3077C101.607 17.3019 101.611 17.2969 101.611 17.2968C101.611 17.2968 101.61 17.298 101.608 17.3009C101.598 17.3161 101.58 17.3475 101.552 17.4012C101.515 17.4724 101.47 17.5654 101.416 17.6781C101.39 17.7333 101.361 17.7932 101.33 17.8575C101.143 18.2429 100.881 18.7622 100.556 19.2498C99.913 20.2146 98.9756 21.1213 97.8544 20.4936L97.9598 20.1318C98.9062 20.6617 99.7224 19.9256 100.349 18.9851C100.659 18.5201 100.911 18.0211 101.096 17.6399C101.125 17.5805 101.152 17.5233 101.178 17.4692C101.234 17.3527 101.283 17.251 101.323 17.1745C101.351 17.1194 101.38 17.0675 101.406 17.0299C101.418 17.0124 101.437 16.9869 101.462 16.9677Z" fill="white"/>
<path fill-rule="evenodd" clip-rule="evenodd" d="M122.169 13.783L122.159 13.7871L121.818 13.194L121.809 13.1974C121.804 13.1993 121.789 13.2056 121.78 13.2102C121.75 13.2261 121.582 13.4815 121.706 13.7243C121.859 13.7991 122.061 13.8113 122.085 13.8073C122.094 13.8055 122.107 13.8025 122.111 13.8015L122.119 13.7993L122.122 13.7986L122.118 13.7999L122.103 13.8043L121.984 13.841C121.874 13.8746 121.707 13.9256 121.49 13.9907C121.055 14.1208 120.421 14.307 119.641 14.5234C118.082 14.956 115.941 15.5102 113.662 15.9781C111.386 16.4453 108.955 16.8298 106.822 16.9169C104.718 17.0029 102.786 16.8057 101.618 16.0104L102.146 15.5129C103.055 16.1322 104.698 16.3499 106.781 16.2648C108.835 16.1808 111.206 15.8081 113.46 15.3455C115.71 14.8836 117.829 14.3354 119.374 13.9064C120.146 13.692 120.775 13.5076 121.204 13.379C121.419 13.3148 121.584 13.2644 121.693 13.2311L121.813 13.194L121.846 13.1842L121.857 13.1813L121.867 13.1786C121.871 13.1775 121.885 13.1744 121.894 13.1726C121.918 13.1685 122.12 13.1806 122.273 13.2555C122.397 13.4983 122.23 13.7538 122.2 13.7698C122.19 13.7745 122.175 13.7809 122.169 13.783Z" fill="white"/>
<path fill-rule="evenodd" clip-rule="evenodd" d="M122.143 13.8834L122.143 13.8835L121.826 13.207L121.825 13.2072C121.823 13.2083 121.809 13.2143 121.793 13.2238C121.782 13.2304 121.75 13.2529 121.73 13.2697C121.681 13.3235 121.61 13.5901 121.693 13.7803C121.792 13.8641 121.954 13.9152 121.994 13.9164C122.012 13.9157 122.039 13.9129 122.048 13.9115C122.063 13.909 122.074 13.9062 122.077 13.9056L122.077 13.9055C122.083 13.904 122.087 13.9028 122.087 13.9028C122.087 13.9027 122.086 13.9032 122.082 13.9044C122.069 13.9085 122.044 13.9165 122.007 13.929C121.934 13.9536 121.82 13.9928 121.671 14.0456C121.372 14.151 120.934 14.3098 120.4 14.5125C119.33 14.9182 117.878 15.4987 116.387 16.1795C114.894 16.8613 113.373 17.6389 112.161 18.4375C111.555 18.8368 111.034 19.2358 110.635 19.6247C110.233 20.0171 109.975 20.3785 109.862 20.6991L109.145 20.4555C109.312 19.9824 109.659 19.5263 110.101 19.0961C110.546 18.6624 111.109 18.2339 111.738 17.8191C112.998 16.9895 114.559 16.1931 116.067 15.5042C117.578 14.8144 119.047 14.2274 120.126 13.8178C120.667 13.613 121.11 13.4522 121.414 13.3448C121.566 13.2912 121.684 13.2506 121.761 13.2245C121.8 13.2116 121.83 13.2015 121.851 13.195L121.851 13.1949C121.858 13.1926 121.875 13.1876 121.89 13.1836L121.89 13.1836C121.894 13.1827 121.907 13.1796 121.923 13.1769C121.933 13.1755 121.96 13.1727 121.978 13.1719C122.018 13.1731 122.18 13.2243 122.279 13.3081C122.363 13.4984 122.292 13.765 122.242 13.8189C122.222 13.8359 122.19 13.8585 122.178 13.8653C122.161 13.8752 122.147 13.8818 122.143 13.8834Z" fill="white"/>
<path fill-rule="evenodd" clip-rule="evenodd" d="M95.744 10.1736L95.744 10.1736L95.4137 9.44422L95.4136 9.44427C95.4123 9.44486 95.4059 9.44789 95.3976 9.45229C95.3923 9.45516 95.377 9.46402 95.3673 9.47014C95.3438 9.48682 95.2318 9.62016 95.1888 9.76009C95.2686 10.0534 95.5818 10.2092 95.6358 10.2053C95.6524 10.2026 95.6766 10.1972 95.6843 10.1952C95.6958 10.192 95.7044 10.189 95.7052 10.1887C95.7082 10.1877 95.7102 10.187 95.7102 10.187C95.7102 10.187 95.7084 10.1876 95.7041 10.1893C95.691 10.1944 95.6668 10.204 95.6315 10.2184C95.5616 10.2469 95.4523 10.2922 95.3089 10.3532C95.022 10.4752 94.5999 10.6593 94.0833 10.8969C93.0496 11.3721 91.6411 12.0594 90.1834 12.8875C88.7238 13.7167 87.2254 14.6811 86.0062 15.709C84.7764 16.7459 83.8793 17.8074 83.5501 18.8192L82.8003 18.5671C83.2011 17.335 84.2416 16.1537 85.502 15.091C86.7729 14.0195 88.3173 13.0279 89.7981 12.1866C91.2809 11.3443 92.7106 10.6468 93.7579 10.1653C94.2818 9.9244 94.7108 9.73716 95.0041 9.61247C95.1506 9.55015 95.2636 9.5033 95.3378 9.47307C95.3746 9.45808 95.4031 9.4467 95.4218 9.43943C95.4289 9.43667 95.4413 9.43184 95.4526 9.42797C95.4548 9.42724 95.4644 9.42391 95.4766 9.42054C95.4846 9.41841 95.5091 9.41299 95.5258 9.41023C95.5799 9.4063 95.8933 9.56213 95.973 9.85548C95.93 9.99546 95.818 10.1289 95.7942 10.1457C95.7844 10.1519 95.7689 10.1609 95.7632 10.164C95.754 10.1689 95.7463 10.1725 95.744 10.1736Z" fill="white"/>
<path fill-rule="evenodd" clip-rule="evenodd" d="M137.293 20.4988C137.233 20.6195 137.159 20.6758 137.126 20.6982L136.782 19.6116C136.754 19.6302 136.684 19.6822 136.626 19.7982C136.555 19.942 136.531 20.1277 136.564 20.3026C136.592 20.4438 136.647 20.5291 136.67 20.561C136.697 20.5988 136.72 20.6213 136.731 20.6309C136.75 20.6475 136.763 20.6551 136.763 20.6551C136.763 20.6551 136.755 20.6508 136.738 20.6429C136.676 20.6147 136.556 20.5723 136.374 20.5222C136.013 20.4233 135.447 20.3052 134.689 20.2076C133.175 20.0126 130.91 19.9011 128.018 20.1813L127.964 18.9877C130.897 18.7035 133.205 18.8156 134.762 19.0161C135.54 19.1163 136.134 19.2389 136.526 19.3468C136.72 19.4 136.876 19.4524 136.983 19.501C137.027 19.5208 137.1 19.5559 137.164 19.6131C137.182 19.6298 137.212 19.659 137.243 19.703C137.271 19.7412 137.329 19.8324 137.357 19.9791C137.392 20.1595 137.367 20.3503 137.293 20.4988Z" fill="white"/>
<path d="M5.18062 100.454V106.646H4.52207V101.043H2.09091L1.98664 103.361C1.94273 104.219 1.86042 104.875 1.73968 105.329C1.61895 105.78 1.43967 106.111 1.20186 106.325C0.96405 106.539 0.647578 106.646 0.252446 106.646H0V106.039L0.203054 106.028C0.579893 106.02 0.850632 105.829 1.01527 105.455C1.17991 105.081 1.28784 104.414 1.33906 103.452L1.45979 100.454H5.18062Z" fill="white"/>
<path d="M10.696 106.646C10.6302 106.451 10.5881 106.163 10.5698 105.781C10.3393 106.094 10.0448 106.337 9.68623 106.508C9.33134 106.676 8.95451 106.76 8.55571 106.76C7.98497 106.76 7.52215 106.594 7.16726 106.262C6.81603 105.93 6.64042 105.511 6.64042 105.003C6.64042 104.4 6.88006 103.923 7.35934 103.572C7.84228 103.221 8.51364 103.046 9.37342 103.046H10.5643V102.342C10.5643 101.9 10.4326 101.552 10.1692 101.301C9.90941 101.045 9.52891 100.917 9.02768 100.917C8.57035 100.917 8.19168 101.039 7.89167 101.283C7.59166 101.528 7.44166 101.821 7.44166 102.165L6.78311 102.159C6.78311 101.667 7.00262 101.241 7.44166 100.883C7.8807 100.52 8.42035 100.339 9.06061 100.339C9.72282 100.339 10.2442 100.513 10.6247 100.86C11.0088 101.203 11.2064 101.684 11.2174 102.302V105.232C11.2174 105.831 11.2777 106.279 11.3985 106.577V106.646H10.696ZM8.63255 106.153C9.07158 106.153 9.46306 106.043 9.80697 105.821C10.1545 105.6 10.407 105.305 10.5643 104.934V103.572H9.38988C8.73499 103.58 8.22278 103.706 7.85326 103.95C7.48374 104.191 7.29897 104.522 7.29897 104.946C7.29897 105.293 7.42154 105.581 7.66667 105.81C7.91545 106.039 8.23741 106.153 8.63255 106.153Z" fill="white"/>
<path d="M17.534 106.646H16.8754V103.807H13.676V106.646H13.0174V100.454H13.676V103.229H16.8754V100.454H17.534V106.646Z" fill="white"/>
<path d="M19.1584 106.068L19.4493 105.673C19.9103 105.02 20.1755 104.067 20.245 102.811L20.3493 100.454H23.8561V106.068H24.4708V108.465H23.8177V106.646H19.356V108.465H18.7249L18.7304 106.068H19.1584ZM19.9158 106.068H23.1976V101.095H20.9749L20.9036 102.703C20.8377 104.179 20.5085 105.301 19.9158 106.068Z" fill="white"/>
<path d="M26.4409 100.454V106.068H29.0806V100.454H29.7392V106.068H32.357V100.454H33.0155V106.646H25.7824V100.454H26.4409Z" fill="white"/>
<path d="M38.4102 106.646C38.3443 106.451 38.3022 106.163 38.2839 105.781C38.0534 106.094 37.7589 106.337 37.4004 106.508C37.0455 106.676 36.6687 106.76 36.2699 106.76C35.6991 106.76 35.2363 106.594 34.8814 106.262C34.5302 105.93 34.3546 105.511 34.3546 105.003C34.3546 104.4 34.5942 103.923 35.0735 103.572C35.5564 103.221 36.2278 103.046 37.0876 103.046H38.2785V102.342C38.2785 101.9 38.1467 101.552 37.8833 101.301C37.6236 101.045 37.2431 100.917 36.7418 100.917C36.2845 100.917 35.9058 101.039 35.6058 101.283C35.3058 101.528 35.1558 101.821 35.1558 102.165L34.4973 102.159C34.4973 101.667 34.7168 101.241 35.1558 100.883C35.5948 100.52 36.1345 100.339 36.7748 100.339C37.437 100.339 37.9583 100.513 38.3388 100.86C38.723 101.203 38.9205 101.684 38.9315 102.302V105.232C38.9315 105.831 38.9919 106.279 39.1126 106.577V106.646H38.4102ZM36.3467 106.153C36.7857 106.153 37.1772 106.043 37.5211 105.821C37.8687 105.6 38.1211 105.305 38.2785 104.934V103.572H37.104C36.4491 103.58 35.9369 103.706 35.5674 103.95C35.1979 104.191 35.0131 104.522 35.0131 104.946C35.0131 105.293 35.1357 105.581 35.3808 105.81C35.6296 106.039 35.9516 106.153 36.3467 106.153Z" fill="white"/>
<path d="M40.4407 103.601C40.4407 102.594 40.6291 101.798 41.006 101.215C41.3865 100.631 41.9115 100.339 42.581 100.339C42.9652 100.339 43.2908 100.429 43.5579 100.608V97.8555H44.2109V100.631C44.4817 100.436 44.8183 100.339 45.2207 100.339C45.8537 100.339 46.3604 100.604 46.7409 101.135C47.1214 101.665 47.3281 102.403 47.361 103.349L47.3665 103.721C47.3665 104.664 47.1763 105.408 46.7958 105.953C46.4153 106.495 45.8939 106.766 45.2317 106.766C44.8366 106.766 44.4963 106.676 44.2109 106.497V109.026H43.5579V106.502C43.2761 106.678 42.9469 106.766 42.57 106.766C41.9444 106.766 41.4432 106.52 41.0663 106.028C40.6895 105.532 40.4828 104.847 40.4462 103.973L40.4407 103.601ZM46.7134 103.601C46.7134 102.769 46.5689 102.115 46.2799 101.638C45.9945 101.161 45.5939 100.923 45.078 100.923C44.7048 100.923 44.4158 101.007 44.2109 101.175V105.965C44.4414 106.113 44.7341 106.188 45.089 106.188C45.6012 106.188 46 105.974 46.2854 105.547C46.5707 105.116 46.7134 104.467 46.7134 103.601ZM41.0993 103.721C41.0993 104.5 41.2365 105.106 41.5109 105.541C41.7853 105.972 42.1804 106.188 42.6963 106.188C43.0402 106.188 43.3274 106.11 43.5579 105.953V101.157C43.3457 101.001 43.0621 100.923 42.7072 100.923C42.195 100.923 41.7981 101.161 41.5163 101.638C41.2383 102.111 41.0993 102.806 41.0993 103.721Z" fill="white"/>
<path d="M52.6569 101.037H50.4946V106.646H49.8361V101.037H47.7561V100.454H52.6569V101.037Z" fill="white"/>
<path d="M58.2985 106.646H57.6399V103.807H54.4405V106.646H53.7819V100.454H54.4405V103.229H57.6399V100.454H58.2985V106.646Z" fill="white"/>
<path d="M63.8084 106.646C63.7425 106.451 63.7005 106.163 63.6822 105.781C63.4517 106.094 63.1572 106.337 62.7986 106.508C62.4437 106.676 62.0669 106.76 61.6681 106.76C61.0974 106.76 60.6345 106.594 60.2796 106.262C59.9284 105.93 59.7528 105.511 59.7528 105.003C59.7528 104.4 59.9924 103.923 60.4717 103.572C60.9547 103.221 61.626 103.046 62.4858 103.046H63.6767V102.342C63.6767 101.9 63.545 101.552 63.2816 101.301C63.0218 101.045 62.6413 100.917 62.1401 100.917C61.6827 100.917 61.3041 101.039 61.0041 101.283C60.704 101.528 60.554 101.821 60.554 102.165L59.8955 102.159C59.8955 101.667 60.115 101.241 60.554 100.883C60.9931 100.52 61.5327 100.339 62.173 100.339C62.8352 100.339 63.3566 100.513 63.7371 100.86C64.1212 101.203 64.3188 101.684 64.3298 102.302V105.232C64.3298 105.831 64.3901 106.279 64.5109 106.577V106.646H63.8084ZM61.7449 106.153C62.184 106.153 62.5754 106.043 62.9193 105.821C63.2669 105.6 63.5194 105.305 63.6767 104.934V103.572H62.5023C61.8474 103.58 61.3352 103.706 60.9656 103.95C60.5961 104.191 60.4114 104.522 60.4114 104.946C60.4114 105.293 60.5339 105.581 60.779 105.81C61.0278 106.039 61.3498 106.153 61.7449 106.153Z" fill="white"/>
<path d="M70.4159 100.454V106.646H69.7573V104.15H67.9134L66.4646 106.646H65.7402L67.2329 104.065C66.8268 103.954 66.5103 103.74 66.2835 103.424C66.0603 103.107 65.9487 102.733 65.9487 102.302C65.9487 101.741 66.1408 101.293 66.5249 100.957C66.9128 100.621 67.4359 100.454 68.0945 100.454H70.4159ZM66.6073 102.313C66.6073 102.676 66.717 102.973 66.9365 103.206C67.1597 103.439 67.4689 103.559 67.864 103.567H69.7573V101.037H68.078C67.6207 101.037 67.2603 101.152 66.9969 101.381C66.7371 101.61 66.6073 101.921 66.6073 102.313Z" fill="white"/>
<path d="M77.1167 106.182C77.574 106.182 77.9563 106.048 78.2637 105.781C78.5746 105.511 78.7429 105.161 78.7686 104.734H79.3997C79.3814 105.112 79.268 105.457 79.0594 105.77C78.8509 106.079 78.5728 106.321 78.2252 106.497C77.8813 106.672 77.5118 106.76 77.1167 106.76C76.3374 106.76 75.7191 106.478 75.2617 105.913C74.8081 105.348 74.5812 104.589 74.5812 103.635V103.429C74.5812 102.819 74.6837 102.279 74.8886 101.81C75.0935 101.341 75.3861 100.978 75.7666 100.723C76.1508 100.467 76.599 100.339 77.1112 100.339C77.7624 100.339 78.2984 100.541 78.7192 100.946C79.1436 101.35 79.3704 101.882 79.3997 102.542H78.7686C78.7393 102.058 78.571 101.667 78.2637 101.369C77.96 101.072 77.5758 100.923 77.1112 100.923C76.5185 100.923 76.0575 101.146 75.7282 101.592C75.4026 102.039 75.2398 102.664 75.2398 103.469V103.67C75.2398 104.459 75.4026 105.076 75.7282 105.518C76.0575 105.961 76.5203 106.182 77.1167 106.182Z" fill="white"/>
<path d="M84.9809 101.037H82.8187V106.646H82.1601V101.037H80.0802V100.454H84.9809V101.037Z" fill="white"/>
<path d="M88.0103 105.661L89.7445 100.454H90.4524L87.917 107.699L87.7853 108.019C87.4596 108.771 86.9566 109.146 86.2761 109.146C86.1187 109.146 85.9504 109.12 85.7712 109.066L85.7657 108.5L86.1059 108.534C86.4279 108.534 86.6877 108.45 86.8852 108.282C87.0865 108.118 87.2566 107.834 87.3956 107.43L87.6865 106.594L85.4474 100.454H86.1663L88.0103 105.661Z" fill="white"/>
<path d="M91.0286 106.068L91.3195 105.673C91.7805 105.02 92.0457 104.067 92.1152 102.811L92.2195 100.454H95.7263V106.068H96.341V108.465H95.6879V106.646H91.2262V108.465H90.5951L90.6006 106.068H91.0286ZM91.786 106.068H95.0678V101.095H92.8451L92.7738 102.703C92.7079 104.179 92.3787 105.301 91.786 106.068Z" fill="white"/>
<path d="M101.511 100.454H102.169V106.646H101.511V101.558L98.3057 106.646H97.6526V100.454H98.3057V105.547L101.511 100.454Z" fill="white"/>
<path d="M108.261 100.454V106.646H107.602V104.15H105.758L104.309 106.646H103.585L105.078 104.065C104.672 103.954 104.355 103.74 104.128 103.424C103.905 103.107 103.794 102.733 103.794 102.302C103.794 101.741 103.986 101.293 104.37 100.957C104.758 100.621 105.281 100.454 105.939 100.454H108.261ZM104.452 102.313C104.452 102.676 104.562 102.973 104.781 103.206C105.005 103.439 105.314 103.559 105.709 103.567H107.602V101.037H105.923C105.466 101.037 105.105 101.152 104.842 101.381C104.582 101.61 104.452 101.921 104.452 102.313Z" fill="white"/>
<path d="M113.815 98.3133L116.762 105.667L119.72 98.3133H120.62V106.646H119.945V103.017L120 99.2976L117.025 106.646H116.504L113.54 99.3262L113.595 102.994V106.646H112.92V98.3133H113.815Z" fill="white"/>
<path d="M126.239 106.646C126.173 106.451 126.131 106.163 126.113 105.781C125.883 106.094 125.588 106.337 125.23 106.508C124.875 106.676 124.498 106.76 124.099 106.76C123.528 106.76 123.065 106.594 122.711 106.262C122.359 105.93 122.184 105.511 122.184 105.003C122.184 104.4 122.423 103.923 122.903 103.572C123.386 103.221 124.057 103.046 124.917 103.046H126.108V102.342C126.108 101.9 125.976 101.552 125.712 101.301C125.453 101.045 125.072 100.917 124.571 100.917C124.114 100.917 123.735 101.039 123.435 101.283C123.135 101.528 122.985 101.821 122.985 102.165L122.326 102.159C122.326 101.667 122.546 101.241 122.985 100.883C123.424 100.52 123.964 100.339 124.604 100.339C125.266 100.339 125.787 100.513 126.168 100.86C126.552 101.203 126.75 101.684 126.761 102.302V105.232C126.761 105.831 126.821 106.279 126.942 106.577V106.646H126.239ZM124.176 106.153C124.615 106.153 125.006 106.043 125.35 105.821C125.698 105.6 125.95 105.305 126.108 104.934V103.572H124.933C124.278 103.58 123.766 103.706 123.397 103.95C123.027 104.191 122.842 104.522 122.842 104.946C122.842 105.293 122.965 105.581 123.21 105.81C123.459 106.039 123.781 106.153 124.176 106.153Z" fill="white"/>
<path d="M133.291 103.613C133.291 104.578 133.086 105.345 132.677 105.913C132.267 106.478 131.718 106.76 131.03 106.76C130.218 106.76 129.596 106.462 129.164 105.867V109.026H128.511V100.454H129.12L129.153 101.329C129.581 100.669 130.202 100.339 131.014 100.339C131.724 100.339 132.28 100.62 132.682 101.18C133.088 101.741 133.291 102.519 133.291 103.515V103.613ZM132.633 103.492C132.633 102.703 132.477 102.079 132.166 101.621C131.855 101.163 131.422 100.934 130.866 100.934C130.463 100.934 130.117 101.035 129.828 101.238C129.539 101.44 129.318 101.734 129.164 102.119V105.089C129.322 105.444 129.547 105.715 129.839 105.902C130.132 106.089 130.478 106.182 130.877 106.182C131.429 106.182 131.859 105.953 132.166 105.495C132.477 105.034 132.633 104.366 132.633 103.492Z" fill="white"/>
<path d="M138.653 100.454H139.312V106.646H138.653V101.558L135.448 106.646H134.795V100.454H135.448V105.547L138.653 100.454Z" fill="white"/>
<path d="M145.634 106.646H144.975V103.807H141.776V106.646H141.117V100.454H141.776V103.229H144.975V100.454H145.634V106.646Z" fill="white"/>
<path d="M148.12 102.703H149.832C150.271 102.703 150.655 102.787 150.984 102.954C151.317 103.118 151.568 103.347 151.736 103.641C151.908 103.935 151.994 104.276 151.994 104.665C151.994 105.264 151.797 105.745 151.402 106.108C151.01 106.466 150.48 106.646 149.81 106.646H147.467V100.454H148.12V102.703ZM148.12 103.286V106.068H149.821C150.293 106.068 150.663 105.944 150.93 105.696C151.2 105.448 151.336 105.108 151.336 104.677C151.336 104.265 151.204 103.933 150.941 103.681C150.681 103.426 150.324 103.294 149.87 103.286H148.12ZM154.008 106.646H153.35V100.454H154.008V106.646Z" fill="white"/>
<path d="M160.523 102.737H159.425V106.646H158.75V98.3133H159.425V102.136H160.49L163.579 98.3133H164.43L161.148 102.411L164.671 106.646H163.832L160.523 102.737Z" fill="white"/>
<path d="M170.39 103.613C170.39 104.578 170.185 105.345 169.775 105.913C169.365 106.478 168.817 106.76 168.129 106.76C167.317 106.76 166.695 106.462 166.263 105.867V109.026H165.61V100.454H166.219L166.252 101.329C166.68 100.669 167.3 100.339 168.112 100.339C168.822 100.339 169.378 100.62 169.781 101.18C170.187 101.741 170.39 102.519 170.39 103.515V103.613ZM169.731 103.492C169.731 102.703 169.576 102.079 169.265 101.621C168.954 101.163 168.52 100.934 167.964 100.934C167.562 100.934 167.216 101.035 166.927 101.238C166.638 101.44 166.417 101.734 166.263 102.119V105.089C166.42 105.444 166.645 105.715 166.938 105.902C167.231 106.089 167.576 106.182 167.975 106.182C168.528 106.182 168.958 105.953 169.265 105.495C169.576 105.034 169.731 104.366 169.731 103.492Z" fill="white"/>
<path d="M171.487 103.458C171.487 102.863 171.597 102.327 171.817 101.85C172.04 101.373 172.353 101.003 172.755 100.74C173.161 100.473 173.62 100.339 174.133 100.339C174.923 100.339 175.563 100.629 176.053 101.209C176.544 101.785 176.789 102.55 176.789 103.504V103.647C176.789 104.246 176.677 104.786 176.454 105.266C176.235 105.743 175.924 106.111 175.521 106.371C175.119 106.63 174.66 106.76 174.144 106.76C173.357 106.76 172.717 106.472 172.223 105.896C171.733 105.316 171.487 104.549 171.487 103.595V103.458ZM172.146 103.647C172.146 104.387 172.329 104.996 172.695 105.472C173.064 105.945 173.547 106.182 174.144 106.182C174.736 106.182 175.216 105.945 175.581 105.472C175.951 104.996 176.136 104.368 176.136 103.59V103.458C176.136 102.985 176.052 102.552 175.883 102.159C175.715 101.766 175.479 101.463 175.175 101.249C174.872 101.032 174.524 100.923 174.133 100.923C173.547 100.923 173.07 101.163 172.7 101.644C172.331 102.121 172.146 102.746 172.146 103.521V103.647Z" fill="white"/>
<path d="M179.895 102.966L181.497 100.454H182.277L180.263 103.492L182.365 106.646H181.591L179.9 104.025L178.21 106.646H177.436L179.533 103.492L177.519 100.454H178.293L179.895 102.966Z" fill="white"/>
<path d="M187.397 100.454H188.056V106.646H187.397V101.558L184.192 106.646H183.539V100.454H184.192V105.547L187.397 100.454Z" fill="white"/>
<path d="M194.378 106.646H193.719V103.807H190.52V106.646H189.861V100.454H190.52V103.229H193.719V100.454H194.378V106.646Z" fill="white"/>
<path d="M195.777 103.458C195.777 102.863 195.887 102.327 196.106 101.85C196.33 101.373 196.642 101.003 197.045 100.74C197.451 100.473 197.91 100.339 198.422 100.339C199.213 100.339 199.853 100.629 200.343 101.209C200.833 101.785 201.079 102.55 201.079 103.504V103.647C201.079 104.246 200.967 104.786 200.744 105.266C200.524 105.743 200.213 106.111 199.811 106.371C199.408 106.63 198.949 106.76 198.433 106.76C197.647 106.76 197.006 106.472 196.513 105.896C196.022 105.316 195.777 104.549 195.777 103.595V103.458ZM196.436 103.647C196.436 104.387 196.619 104.996 196.984 105.472C197.354 105.945 197.837 106.182 198.433 106.182C199.026 106.182 199.505 105.945 199.871 105.472C200.241 104.996 200.425 104.368 200.425 103.59V103.458C200.425 102.985 200.341 102.552 200.173 102.159C200.005 101.766 199.769 101.463 199.465 101.249C199.161 101.032 198.814 100.923 198.422 100.923C197.837 100.923 197.359 101.163 196.99 101.644C196.62 102.121 196.436 102.746 196.436 103.521V103.647Z" fill="white"/>
<path d="M206.341 100.454H207V106.646H206.341V101.558L203.136 106.646H202.483V100.454H203.136V105.547L206.341 100.454ZM206.309 98.2217C206.309 98.6605 206.164 99.0153 205.875 99.2861C205.59 99.557 205.205 99.6925 204.723 99.6925C204.247 99.6925 203.863 99.5589 203.57 99.2919C203.281 99.021 203.136 98.6643 203.136 98.2217H203.696C203.696 98.5384 203.786 98.7806 203.965 98.9485C204.148 99.1164 204.401 99.2003 204.723 99.2003C205.044 99.2003 205.295 99.1126 205.474 98.9371C205.657 98.7616 205.749 98.5231 205.749 98.2217H206.309Z" fill="white"/>
<path fill-rule="evenodd" clip-rule="evenodd" d="M11.2905 38.3784C11.2905 37.9729 11.4157 37.5292 11.6655 37.048C11.9158 36.5662 12.2284 36.0975 12.6033 35.6413C12.9783 35.185 13.3785 34.8051 13.8034 34.5013C14.2288 34.197 14.6414 34.0451 15.0416 34.0451C15.5916 34.0451 16.1541 34.3238 16.7294 34.8812C17.3041 35.4388 17.7919 35.92 18.192 36.3255C18.9924 37.1873 19.7048 38.0866 20.33 39.0247C20.9552 39.962 21.5676 40.9376 22.1682 41.9513C25.0184 46.7664 27.3814 51.7966 29.2571 57.0423C31.1325 62.2881 32.6451 67.6482 33.7957 73.1221C34.1954 71.7534 34.733 70.4355 35.4083 69.1687C36.0835 67.9013 36.7711 66.6346 37.4715 65.3672C38.7715 62.9343 40.0844 60.5396 41.4096 58.1828C42.7347 55.8262 44.0728 53.4564 45.4232 51.0747C46.9236 48.4388 48.4487 45.7402 49.9988 42.9779C51.5496 40.2158 53.1499 37.5672 54.8001 35.0331C54.95 34.7799 55.1379 34.4883 55.363 34.1588C55.588 33.8295 55.8378 33.5001 56.1129 33.1707C56.388 32.8409 56.6629 32.5622 56.938 32.3341C57.213 32.1065 57.5009 31.9922 57.8007 31.9922C58.3507 31.9922 58.8761 32.2077 59.3761 32.6383C59.8763 33.069 60.126 33.5633 60.126 34.1208C60.126 34.3744 60.0391 34.615 59.8639 34.8431C59.6888 35.0713 59.526 35.2869 59.3761 35.4894C57.9259 37.3142 56.6382 39.2527 55.5129 41.3051C54.3876 43.358 53.2498 45.3979 52.0996 47.4252C49.9489 51.1759 47.8485 54.9393 45.7981 58.7152C43.7479 62.4912 41.7222 66.2796 39.7218 70.081C39.3216 70.8411 38.8714 71.6772 38.3713 72.5897C37.8712 73.502 37.3711 74.4395 36.8711 75.4026C36.3709 76.3655 35.9083 77.316 35.4835 78.2535C35.0581 79.1915 34.7459 80.0402 34.5456 80.8007C34.3458 81.4594 34.2083 82.0801 34.1331 82.6631C34.0578 83.2461 33.9203 83.7399 33.7205 84.1454C33.5206 84.551 33.208 84.8804 32.7826 85.134C32.3577 85.3872 31.6949 85.5141 30.795 85.5141C30.1946 85.5141 29.7444 85.3622 29.4447 85.0579C29.1443 84.7541 28.9193 84.3736 28.7694 83.9174C28.6196 83.4611 28.532 82.9799 28.5068 82.4731C28.4821 81.9662 28.4193 81.5101 28.3193 81.1045C27.419 75.4281 25.9563 69.7261 23.9306 63.9992C21.9055 58.2716 19.6171 52.8233 17.0667 47.6532C16.4667 46.4877 15.8414 45.2966 15.1915 44.0804C14.5415 42.8636 13.791 41.7488 12.9408 40.7352C12.6909 40.482 12.3531 40.1145 11.9282 39.6327C11.5032 39.1514 11.2905 38.7333 11.2905 38.3784ZM193.827 68.9852C193.827 67.8597 193.359 67.2968 192.424 67.2968C191.781 67.2968 191.284 67.5484 190.933 68.0522C190.582 68.5556 190.261 69.0443 189.969 69.5186C189.442 70.3478 188.653 71.4442 187.601 72.8067C186.549 74.1693 185.409 75.4873 184.182 76.7611C182.954 78.0349 181.697 79.1453 180.411 80.0933C179.125 81.0413 177.956 81.5151 176.904 81.5151C176.202 81.5151 175.661 81.1451 175.281 80.4047C174.901 79.6637 174.624 78.8049 174.448 77.8274C174.273 76.8498 174.171 75.8873 174.141 74.9393C174.112 73.9913 174.097 73.2805 174.097 72.8067C174.097 71.2662 174.2 69.6224 174.405 67.8743C174.609 66.1267 174.945 64.4829 175.413 62.9424C175.647 62.2906 175.968 61.4319 176.377 60.3656C176.786 59.2988 176.991 58.44 176.991 57.7884C176.991 57.1957 176.772 56.8108 176.333 56.6333C175.895 56.4553 175.442 56.3666 174.974 56.3666C174.156 56.3666 173.528 56.6478 173.089 57.2108C172.65 57.7733 172.285 58.3809 171.993 59.0326C171.701 59.6246 171.277 60.5285 170.722 61.7427C170.166 62.9575 169.508 64.2753 168.749 65.6971C167.989 67.1193 167.185 68.5856 166.337 70.0961C165.49 71.607 164.628 72.9696 163.751 74.1838C162.873 75.3986 162.026 76.4057 161.207 77.2053C160.389 78.0054 159.659 78.4049 159.016 78.4049C158.489 78.4049 158.168 78.1382 158.051 77.6054C157.934 77.0719 157.875 76.6277 157.875 76.2723C157.875 72.8954 158.548 69.7406 159.892 66.8079C161.237 63.8758 163.049 61.2243 165.329 58.8547C166.615 57.492 167.974 56.2924 169.406 55.2557C170.838 54.2189 172.344 53.2263 173.922 52.2789C174.156 52.16 174.361 52.0266 174.536 51.8789C174.711 51.7304 174.799 51.5083 174.799 51.2121C174.799 50.5603 174.477 49.9388 173.834 49.3462C173.192 48.7536 172.549 48.4573 171.905 48.4573C169.333 48.4573 166.863 49.3462 164.496 51.1234C162.128 52.9005 160.024 55.1078 158.183 57.7437C156.341 60.3801 154.865 63.1794 153.754 66.1417C153.668 66.3713 153.585 66.5995 153.506 66.825C153.224 67.2617 152.983 67.6562 152.785 68.0077C152.317 68.9557 151.645 70.1106 150.768 71.4732C149.892 72.8357 148.898 74.1542 147.787 75.4276C146.676 76.7015 145.522 77.7973 144.324 78.7158C143.125 79.6342 141.941 80.0933 140.772 80.0933C140.07 80.0933 139.53 79.9153 139.15 79.56C138.77 79.2045 138.492 78.7603 138.317 78.2269C138.141 77.6941 138.039 77.116 138.01 76.4939C137.981 75.8722 137.966 75.2942 137.966 74.7613C137.966 72.6878 138.025 70.6145 138.141 68.5405C138.258 66.4671 138.317 64.3936 138.317 62.3202C138.317 61.6685 138.288 60.8688 138.229 59.921C138.171 58.973 138.01 58.025 137.747 57.077C137.484 56.129 137.089 55.3293 136.563 54.6777C136.037 54.026 135.336 53.7001 134.459 53.7001C133.348 53.7001 132.048 54.3519 130.557 55.6552C129.066 56.9587 127.59 58.4691 126.128 60.1876C124.667 61.9057 123.308 63.6532 122.051 65.4304C120.794 67.2075 119.844 68.5701 119.201 69.5181C119.435 67.8001 119.728 66.082 120.078 64.3641C120.429 62.6461 120.926 60.9576 121.569 59.2988C122.095 57.8771 122.606 56.322 123.104 54.6336C123.6 52.9452 123.849 51.3304 123.849 49.7904C123.849 48.8424 123.659 48.102 123.279 47.5685C122.899 47.0351 122.212 46.7689 121.218 46.7689C120.107 46.7689 119.04 47.2131 118.017 48.102C116.994 48.9903 116.366 49.9678 116.132 51.0341C115.84 52.3967 115.577 53.7894 115.343 55.211C115.109 56.6328 114.846 58.025 114.554 59.3875C114.116 61.5181 113.675 63.6923 113.23 65.9116C113.18 65.9698 113.131 66.0314 113.083 66.0971C112.674 66.6596 112.323 67.1483 112.031 67.5635C111.504 68.3926 110.657 69.5036 109.487 70.8958C108.319 72.2878 107.033 73.6505 105.63 74.9834C104.227 76.3164 102.823 77.472 101.421 78.4496C100.018 79.4266 98.7899 79.8857 97.7378 79.8266C98.4392 78.8194 98.9507 77.7237 99.2722 76.5385C99.5937 75.3539 99.7545 74.1688 99.7545 72.9842C99.7545 71.0882 99.4621 69.2223 98.8774 67.3855C98.2932 65.5492 97.5622 63.757 96.6856 62.0095C95.8086 60.2614 94.9023 58.5288 93.9674 56.8108C93.032 55.0927 92.2134 53.3747 91.512 51.6562C92.0383 50.2936 92.5057 48.8574 92.9149 47.3464C93.3244 45.836 93.5287 44.34 93.5287 42.8587C93.5287 42.3849 93.4852 41.8811 93.3971 41.3482C93.3096 40.8148 93.1637 40.2965 92.9588 39.7931C92.754 39.2893 92.4621 38.8747 92.0818 38.5488C91.7019 38.223 91.2488 38.0601 90.7229 38.0601C89.6708 38.0601 88.7354 38.445 87.9168 39.2151C87.0985 39.9856 86.4264 40.9035 85.9 41.9704C85.3742 43.0367 84.965 44.1621 84.6727 45.3473C84.3804 46.5318 84.234 47.5685 84.234 48.4573C84.234 50.057 84.4971 51.6266 85.0235 53.1673C82.8642 61.1251 78.1377 67.6026 73.4687 73.5175C72.2998 74.9984 71.0136 76.317 69.6103 77.472C68.2074 78.627 66.6878 79.575 65.0509 80.3154C63.4141 81.0564 61.66 81.4264 59.7897 81.4264C57.7438 81.4264 56.2821 80.8488 55.4055 79.6938C54.5285 78.5237 54.0903 76.9385 54.0903 74.9242C54.0903 73.7989 54.2362 72.5401 54.5285 71.1775C55.873 70.7032 57.3342 69.8148 58.9127 68.5115C60.4911 67.1935 61.9672 65.6975 63.3409 64.0091C64.7146 62.3057 65.8548 60.5581 66.7605 58.7509C67.6667 56.9442 68.1198 55.2852 68.1198 53.8043C68.1198 52.2638 67.6959 50.9755 66.8486 49.9684C66.0007 48.9612 64.7878 48.4573 63.2093 48.4573C60.8711 48.4573 58.7227 49.3757 56.7643 51.2126C54.806 53.049 53.1256 55.2852 51.7227 57.9216C50.3194 60.5581 49.2381 63.2978 48.4783 66.1417C47.7185 68.9852 47.3381 71.4145 47.3381 73.4288C47.3381 75.028 47.5137 76.5536 47.8644 78.0054C48.2151 79.4566 48.785 80.7305 49.5744 81.8264C50.3635 82.9222 51.3721 83.8111 52.5993 84.4923C53.827 85.1737 55.3174 85.5141 57.0716 85.5141C59.4682 85.5141 61.7773 85.1145 63.9988 84.2999C66.2198 83.4853 68.295 82.3894 70.2241 81.0117C72.1533 79.6342 73.9217 78.0199 75.5294 76.1836C79.5678 71.5685 83.1873 66.2772 85.5934 60.5872C86.2072 59.1359 86.7187 57.8179 87.1277 56.6328C87.8291 57.6991 88.5454 58.9584 89.276 60.4097C90.0066 61.861 90.6646 63.3569 91.2488 64.8975C91.8335 66.4375 92.3158 67.9781 92.6957 69.5181C93.0756 71.0586 93.2661 72.5099 93.2661 73.8726C93.2661 76.1239 92.6665 77.9752 91.4684 79.4266C90.2699 80.8784 88.5014 81.6038 86.1631 81.6038C84.9942 81.6038 83.9124 81.4855 82.9187 81.2484C81.9249 81.0117 80.9312 80.5671 79.9373 79.9153C79.6454 79.738 79.3966 79.5895 79.1924 79.4712C78.9876 79.3529 78.7101 79.2938 78.3594 79.2938C77.4239 79.2938 76.956 79.7379 76.956 80.6263C76.956 81.0413 77.0441 81.3968 77.2191 81.693C77.3947 81.9893 77.6282 82.2851 77.9206 82.5814C79.2067 83.8256 80.8292 84.6253 82.7871 84.9806C84.7455 85.3361 86.5722 85.5141 88.2674 85.5141C91.4244 85.5141 94.3033 85.1436 96.9048 84.4032C99.5062 83.6626 101.874 82.5814 104.007 81.1596C106.141 79.7379 108.114 77.9903 109.926 75.9163C110.519 75.2385 111.102 74.5323 111.675 73.7974C110.905 78.0405 110.52 82.1833 110.52 86.2249C110.52 86.8174 110.667 87.3359 110.959 87.78C111.251 88.2242 111.719 88.4467 112.362 88.4467C113.18 88.4467 113.896 88.1505 114.51 87.558C115.124 86.9653 115.606 86.3137 115.957 85.6028C116.951 83.3514 117.974 81.1446 119.026 78.9824C120.078 76.8198 121.248 74.7022 122.533 72.6288C123.586 70.9103 124.755 69.1035 126.041 67.2075C127.327 65.312 128.701 63.6532 130.162 62.2315C130.396 61.9944 130.717 61.6981 131.126 61.3426C131.536 60.9873 131.887 60.8093 132.179 60.8093C132.53 60.8093 132.749 61.0464 132.837 61.5206C132.924 61.9944 132.968 62.3498 132.968 62.5869C132.968 64.3049 132.91 65.9934 132.793 67.6522C132.676 69.311 132.617 70.9994 132.617 72.7175C132.617 73.843 132.661 75.0872 132.749 76.4498C132.837 77.8123 133.1 79.0862 133.538 80.2708C133.976 81.4559 134.619 82.448 135.467 83.2481C136.314 84.0477 137.498 84.4478 139.018 84.4478C140.655 84.4478 142.336 83.9143 144.061 82.848C145.785 81.7817 147.422 80.4784 148.971 78.9379C150.124 77.7913 151.18 76.5872 152.139 75.3253C152.175 75.8161 152.231 76.3395 152.307 76.8944C152.454 77.9607 152.717 78.9679 153.097 79.9159C153.477 80.8639 154.017 81.6634 154.719 82.3152C155.42 82.9669 156.297 83.2928 157.35 83.2928C158.518 83.2928 159.702 82.848 160.901 81.9597C162.099 81.0709 163.254 80.0046 164.364 78.7604C165.475 77.5166 166.483 76.2277 167.39 74.8947C168.295 73.5617 169.041 72.4512 169.626 71.5624C169.567 72.6287 169.596 73.9467 169.713 75.5169C169.83 77.087 170.122 78.5974 170.59 80.0492C171.058 81.5006 171.73 82.7448 172.607 83.7815C173.483 84.8182 174.653 85.3365 176.114 85.3365C177.634 85.3365 179.169 84.8919 180.718 84.0036C182.267 83.1148 183.728 82.0189 185.102 80.7154C186.476 79.4121 187.747 78.0199 188.916 76.539C190.085 75.0576 191.079 73.7542 191.898 72.6288C192.19 72.155 192.584 71.5625 193.082 70.8516C193.578 70.1407 193.827 69.5186 193.827 68.9852ZM62.771 52.5451C63.3558 52.5451 63.75 52.7677 63.9548 53.2118C64.1596 53.656 64.2614 54.1302 64.2614 54.604C64.2614 55.7891 63.9399 57.0329 63.2969 58.3067C62.6538 59.5951 61.8648 60.8394 60.9294 62.0685C59.994 63.2832 58.971 64.3942 57.8606 65.3717C56.75 66.3488 55.7271 67.1489 54.7917 67.7414C54.9084 66.9709 55.2299 65.7271 55.7563 64.0387C56.2821 62.3352 56.9252 60.6323 57.6854 58.9434C58.4452 57.2404 59.2634 55.7445 60.1405 54.4706C61.0175 53.1822 61.894 52.5451 62.771 52.5451Z" fill="white"/>
</svg>
