<svg width="85" height="85" viewBox="0 0 85 85" fill="none" xmlns="http://www.w3.org/2000/svg">
<path d="M71.7191 50.4742C71.7156 47.6571 70.5952 44.9564 68.6034 42.9641C66.6117 40.9719 63.9112 39.8508 61.0941 39.8465H23.9066C22.4983 39.8444 21.1483 39.2841 20.1524 38.2882C19.1566 37.2924 18.5962 35.9424 18.5941 34.534V26.1855C20.4199 25.7096 22.0858 24.7556 23.4202 23.4217C24.7546 22.0877 25.7092 20.4222 26.1857 18.5965H58.8151C59.4616 21.1005 60.9991 23.2827 63.1395 24.7341C65.2798 26.1855 67.876 26.8065 70.4415 26.4806C73.0069 26.1548 75.3655 24.9044 77.075 22.964C78.7845 21.0236 79.7277 18.5263 79.7277 15.9403C79.7277 13.3542 78.7845 10.857 77.075 8.91655C75.3655 6.97614 73.0069 5.72583 70.4415 5.39998C67.876 5.07412 65.2798 5.6951 63.1395 7.14651C60.9991 8.59791 59.4616 10.7801 58.8151 13.284H26.1857C25.7212 11.4714 24.7853 9.814 23.4731 8.48006C22.1609 7.14611 20.519 6.18316 18.7143 5.68898C16.9095 5.1948 15.0062 5.18699 13.1974 5.66634C11.3887 6.1457 9.73897 7.09514 8.41585 8.41827C7.09272 9.74139 6.14328 11.3911 5.66392 13.1998C5.18457 15.0086 5.19238 16.912 5.68656 18.7167C6.18074 20.5215 7.14369 22.1633 8.47764 23.4755C9.81158 24.7877 11.469 25.7236 13.2816 26.1881V34.5314C13.2851 37.3489 14.406 40.0501 16.3983 42.0424C18.3906 44.0347 21.0917 45.1555 23.9093 45.159H61.0941C62.5029 45.1612 63.8534 45.7219 64.8493 46.7183C65.8452 47.7147 66.4052 49.0654 66.4066 50.4742V58.4403H58.4379V66.4091H26.1857C25.5392 63.9051 24.0016 61.7229 21.8613 60.2715C19.7209 58.8201 17.1247 58.1991 14.5593 58.525C11.9938 58.8508 9.6353 60.1012 7.92577 62.0416C6.21623 63.982 5.27307 66.4792 5.27307 69.0653C5.27307 71.6514 6.21623 74.1486 7.92577 76.089C9.6353 78.0295 11.9938 79.2798 14.5593 79.6056C17.1247 79.9315 19.7209 79.3105 21.8613 77.8591C24.0016 76.4077 25.5392 74.2255 26.1857 71.7216H58.4379V79.6903H79.6879V58.4403H71.7191V50.4742ZM69.0629 10.6278C70.1136 10.6278 71.1407 10.9394 72.0144 11.5231C72.888 12.1069 73.5689 12.9366 73.971 13.9073C74.3731 14.878 74.4783 15.9462 74.2733 16.9767C74.0683 18.0072 73.5624 18.9538 72.8194 19.6968C72.0764 20.4398 71.1298 20.9457 70.0993 21.1507C69.0688 21.3557 68.0006 21.2505 67.0299 20.8484C66.0592 20.4463 65.2295 19.7654 64.6457 18.8918C64.062 18.0181 63.7504 16.991 63.7504 15.9403C63.7518 14.5318 64.312 13.1813 65.3079 12.1853C66.3039 11.1894 67.6544 10.6292 69.0629 10.6278V10.6278ZM10.6254 15.9403C10.6254 14.8896 10.9369 13.8625 11.5207 12.9888C12.1044 12.1152 12.9341 11.4343 13.9049 11.0322C14.8756 10.6301 15.9438 10.5249 16.9743 10.7299C18.0048 10.9349 18.9514 11.4408 19.6944 12.1838C20.4373 12.9268 20.9433 13.8734 21.1483 14.9039C21.3533 15.9344 21.2481 17.0026 20.846 17.9733C20.4439 18.944 19.763 19.7737 18.8893 20.3575C18.0157 20.9412 16.9886 21.2528 15.9379 21.2528C14.5293 21.2514 13.1789 20.6912 12.1829 19.6952C11.1869 18.6993 10.6268 17.3488 10.6254 15.9403V15.9403ZM15.9379 74.3778C14.8872 74.3778 13.86 74.0662 12.9864 73.4825C12.1128 72.8987 11.4319 72.069 11.0298 71.0983C10.6277 70.1276 10.5225 69.0594 10.7275 68.0289C10.9324 66.9984 11.4384 66.0518 12.1814 65.3088C12.9243 64.5658 13.8709 64.0599 14.9015 63.8549C15.932 63.6499 17.0001 63.7551 17.9709 64.1572C18.9416 64.5593 19.7713 65.2402 20.3551 66.1138C20.9388 66.9875 21.2504 68.0146 21.2504 69.0653C21.249 70.4738 20.6888 71.8243 19.6928 72.8203C18.6968 73.8162 17.3464 74.3764 15.9379 74.3778V74.3778ZM74.3754 63.7528V74.3778H63.7504V63.7528H74.3754Z" fill="#545A2F"/>
</svg>
