<svg width="172" height="182" viewBox="0 0 172 182" fill="none" xmlns="http://www.w3.org/2000/svg">
<path fill-rule="evenodd" clip-rule="evenodd" d="M80.327 12.2148C125.784 14.2081 150.425 37.8159 164.409 61.0753L163.405 61.6786C149.575 38.6743 125.254 15.3569 80.2757 13.3847L80.327 12.2148Z" fill="white"/>
<path fill-rule="evenodd" clip-rule="evenodd" d="M99.2466 15.0587C99.5082 15.0587 93.9593 6.76694 87.4052 4.37109L99.2466 15.0587Z" fill="white"/>
<path fill-rule="evenodd" clip-rule="evenodd" d="M99.6035 15.5281C99.4805 15.6206 99.3476 15.6472 99.2465 15.6472V14.4763C99.1495 14.4763 99.02 14.5018 98.8997 14.5923C98.7812 14.6814 98.7231 14.7948 98.6966 14.8785C98.6531 15.0153 98.6751 15.1273 98.6789 15.1468L98.6792 15.1483C98.6853 15.1801 98.6933 15.2034 98.697 15.2133C98.6966 15.2124 98.6962 15.2114 98.6957 15.2103C98.682 15.1803 98.6466 15.1131 98.5802 15.003C98.4515 14.7895 98.2403 14.47 97.953 14.0705C97.3798 13.2733 96.5204 12.18 95.4501 11.0119C93.2966 8.66162 90.3481 6.07325 87.2041 4.92398L87.6061 3.82422C91.0163 5.0708 94.1193 7.82624 96.3134 10.2208C97.4169 11.4251 98.3052 12.5546 98.9037 13.3869C99.2023 13.8022 99.4328 14.1492 99.5831 14.3985C99.6562 14.5198 99.7196 14.6331 99.7617 14.7257C99.7787 14.7631 99.8123 14.8395 99.8292 14.9274L99.8293 14.9281C99.8353 14.9595 99.8595 15.0852 99.8126 15.2329C99.7847 15.3206 99.7247 15.437 99.6035 15.5281ZM98.6992 15.2187C98.6992 15.2186 98.6983 15.2168 98.697 15.2133C98.6987 15.217 98.6993 15.2187 98.6992 15.2187Z" fill="white"/>
<path fill-rule="evenodd" clip-rule="evenodd" d="M87.9065 4.5683C87.9239 4.14849 87.4575 -0.366374 80.8011 0.501049L87.9065 4.5683Z" fill="white"/>
<path fill-rule="evenodd" clip-rule="evenodd" d="M88.1115 3.51763C88.267 4.01937 88.3021 4.42537 88.2955 4.58393L87.5156 4.55162C87.5177 4.50027 87.501 4.18448 87.366 3.74872C87.2332 3.32036 86.992 2.796 86.5629 2.30965C85.7224 1.35707 84.0837 0.466219 80.8506 0.887536L80.7497 0.113512C84.173 -0.332594 86.0957 0.600277 87.1482 1.79323C87.6656 2.37964 87.9537 3.00849 88.1115 3.51763Z" fill="white"/>
<path fill-rule="evenodd" clip-rule="evenodd" d="M80.9175 12.3531C81.1964 12.4396 84.3124 12.9307 84.9157 8.30469L80.9175 12.3531Z" fill="white"/>
<path fill-rule="evenodd" clip-rule="evenodd" d="M81.5792 12.5127C81.2296 12.5271 80.9707 12.4795 80.8879 12.4538L80.9472 12.2626C81.0037 12.2802 81.239 12.3264 81.5709 12.3127C81.9009 12.2991 82.3209 12.2264 82.7502 12.0117C83.6027 11.5854 84.518 10.5855 84.8164 8.29688L85.0149 8.32275C84.7101 10.6601 83.7657 11.7277 82.8397 12.1907C82.3798 12.4207 81.9308 12.4981 81.5792 12.5127Z" fill="white"/>
<path fill-rule="evenodd" clip-rule="evenodd" d="M82.3465 13.1484C82.2322 13.3308 81.1175 15.2939 84.3005 16.5982L82.3465 13.1484Z" fill="white"/>
<path fill-rule="evenodd" clip-rule="evenodd" d="M81.7519 14.5049C81.6283 13.708 81.9863 13.0849 82.0591 12.9688L82.6336 13.3288C82.5921 13.395 82.3356 13.8447 82.4219 14.401C82.5029 14.9235 82.908 15.6616 84.4289 16.2849L84.1718 16.9123C82.5098 16.2312 81.8807 15.3356 81.7519 14.5049Z" fill="white"/>
<path fill-rule="evenodd" clip-rule="evenodd" d="M87.9065 4.56725C87.9239 4.14744 86.8587 3.96995 80.8011 0.5L87.9065 4.56725Z" fill="white"/>
<path fill-rule="evenodd" clip-rule="evenodd" d="M87.874 3.91812C88.0745 4.05372 88.31 4.25213 88.2963 4.58222L87.5164 4.54991C87.5141 4.60498 87.5358 4.63876 87.5422 4.64725C87.5355 4.63989 87.5084 4.6132 87.4367 4.5647C87.2678 4.45052 86.9714 4.29247 86.4518 4.02258C86.3835 3.98708 86.3118 3.94987 86.2365 3.91082C85.185 3.36543 83.44 2.46033 80.6069 0.837471L80.9949 0.160156C83.814 1.77502 85.548 2.67439 86.5962 3.2181C86.6715 3.25716 86.7433 3.29438 86.8117 3.3299C87.3135 3.5906 87.6587 3.77251 87.874 3.91812ZM87.544 4.64938C87.5439 4.64937 87.5433 4.64866 87.5422 4.64725C87.5435 4.64868 87.544 4.64938 87.544 4.64938Z" fill="white"/>
<path fill-rule="evenodd" clip-rule="evenodd" d="M80.9175 12.3531C81.1964 12.4396 81.5055 11.7556 84.9157 8.30469L80.9175 12.3531Z" fill="white"/>
<path fill-rule="evenodd" clip-rule="evenodd" d="M81.2461 12.3217C81.1226 12.4293 81.0128 12.4913 80.8879 12.4526L80.9472 12.2614C80.9617 12.266 80.9951 12.275 81.1146 12.1708C81.2306 12.0696 81.3974 11.8897 81.6683 11.592C81.7044 11.5524 81.7422 11.5109 81.7818 11.4672C82.335 10.8587 83.252 9.84974 84.8445 8.23828L84.9868 8.37896C83.3973 9.98748 82.4824 10.994 81.9298 11.6019C81.8902 11.6456 81.8524 11.6871 81.8164 11.7267C81.5489 12.0206 81.373 12.2111 81.2461 12.3217Z" fill="white"/>
<path fill-rule="evenodd" clip-rule="evenodd" d="M82.3469 13.1484C82.2326 13.3309 82.6616 13.6804 84.4766 16.7633L82.3469 13.1484Z" fill="white"/>
<path fill-rule="evenodd" clip-rule="evenodd" d="M82.071 13.5068C82.0146 13.3922 81.9261 13.1802 82.0585 12.9688L82.6332 13.3287C82.6795 13.2547 82.6679 13.1884 82.6634 13.1714C82.6654 13.177 82.6701 13.1886 82.6793 13.2072C82.721 13.292 82.8074 13.4296 82.9721 13.6847C82.9934 13.7178 83.0159 13.7526 83.0395 13.7891C83.3694 14.2994 83.9174 15.1473 84.7677 16.5916L84.1834 16.9356C83.3402 15.5033 82.798 14.6645 82.4699 14.1568C82.4463 14.1203 82.4238 14.0855 82.4024 14.0524C82.2471 13.8119 82.1343 13.6352 82.071 13.5068ZM82.6621 13.1671C82.6622 13.1672 82.6627 13.1687 82.6634 13.1714C82.6623 13.1684 82.662 13.1671 82.6621 13.1671Z" fill="white"/>
<path fill-rule="evenodd" clip-rule="evenodd" d="M87.9065 4.56725C87.9239 4.14744 82.7485 6.92342 80.8011 0.5L87.9065 4.56725Z" fill="white"/>
<path fill-rule="evenodd" clip-rule="evenodd" d="M88.1326 4.22859C88.2499 4.31967 88.3018 4.45492 88.2965 4.58335L87.5166 4.55105C87.5124 4.65325 87.5552 4.7685 87.6538 4.84507C87.7265 4.90154 87.7955 4.9094 87.8061 4.9106L87.8065 4.91065C87.8132 4.91142 87.8171 4.91156 87.8171 4.91173C87.8171 4.9121 87.798 4.91265 87.7483 4.92067C87.671 4.93313 87.5812 4.95212 87.4674 4.97616C87.3788 4.99489 87.2757 5.01668 87.1528 5.04084C86.6261 5.14434 85.875 5.25984 85.0498 5.17307C84.2193 5.08575 83.3113 4.7932 82.4815 4.08278C81.6535 3.3739 80.9306 2.27241 80.4276 0.613183L81.1746 0.386719C81.6453 1.9392 82.2996 2.8995 82.9891 3.48983C83.6769 4.07861 84.4268 4.3227 85.1314 4.39679C85.8413 4.47143 86.5026 4.37311 87.0023 4.27492C87.0941 4.25687 87.1871 4.23736 87.2751 4.21887C87.4099 4.19059 87.5333 4.1647 87.6239 4.15007C87.6955 4.13852 87.799 4.1241 87.8955 4.13518C87.9421 4.14052 88.0403 4.15688 88.1326 4.22859Z" fill="white"/>
<path fill-rule="evenodd" clip-rule="evenodd" d="M80.9175 12.3531C81.1964 12.4396 80.2537 8.46832 84.9157 8.30469L80.9175 12.3531Z" fill="white"/>
<path fill-rule="evenodd" clip-rule="evenodd" d="M81.0015 12.4315C80.9671 12.4577 80.9254 12.4625 80.8884 12.451L80.9477 12.2599C80.9281 12.2538 80.9015 12.2561 80.8802 12.2723C80.868 12.2816 80.8638 12.2908 80.8639 12.2909C80.8639 12.291 80.8641 12.2905 80.8645 12.2895C80.8685 12.2793 80.8741 12.2535 80.8791 12.2031C80.8848 12.1461 80.8884 12.0754 80.8929 11.9898C80.8961 11.9267 80.8998 11.8555 80.905 11.7759C80.9289 11.4096 80.9837 10.9045 81.18 10.3894C81.3767 9.87302 81.7158 9.34598 82.3071 8.93841C82.8979 8.53118 83.7329 8.24844 84.9127 8.20703L84.9197 8.40704C83.7685 8.44745 82.973 8.72249 82.4207 9.10319C81.8689 9.48355 81.5522 9.97461 81.367 10.4607C81.1813 10.948 81.1281 11.4297 81.1047 11.7889C81.1 11.8604 81.0964 11.9289 81.0932 11.9919C81.0884 12.083 81.0843 12.1625 81.0783 12.2229C81.0733 12.2732 81.066 12.324 81.0509 12.3625C81.0435 12.3814 81.0294 12.4102 81.0015 12.4315Z" fill="white"/>
<path fill-rule="evenodd" clip-rule="evenodd" d="M82.3461 13.1484C82.2318 13.3308 85.2404 13.6766 84.4758 17.0303L82.3461 13.1484Z" fill="white"/>
<path fill-rule="evenodd" clip-rule="evenodd" d="M82.0277 13.2874C81.988 13.1826 81.999 13.0656 82.0592 12.9695L82.6337 13.3295C82.6868 13.2448 82.6968 13.1395 82.6617 13.0469C82.6347 12.9759 82.5909 12.9377 82.5808 12.9291C82.5692 12.9191 82.5609 12.9141 82.5609 12.9141C82.5609 12.914 82.5672 12.9178 82.583 12.9254C82.6192 12.9427 82.6612 12.9603 82.7173 12.9839C82.7601 13.0018 82.811 13.0232 82.8737 13.0505C83.1383 13.1655 83.5134 13.3455 83.8706 13.6394C84.2305 13.9355 84.574 14.3487 84.7708 14.9263C84.9675 15.5034 85.0091 16.2191 84.8067 17.1067L84.1456 16.956C84.3256 16.1667 84.2778 15.5816 84.129 15.145C83.9804 14.7088 83.7222 14.3954 83.4398 14.163C83.1547 13.9284 82.8469 13.7782 82.6033 13.6723C82.5636 13.655 82.5213 13.6372 82.48 13.6197C82.4078 13.5893 82.3383 13.56 82.29 13.5368C82.2544 13.5198 82.1918 13.4888 82.1391 13.4435C82.1135 13.4215 82.0593 13.3706 82.0277 13.2874Z" fill="white"/>
<path fill-rule="evenodd" clip-rule="evenodd" d="M141.417 27.3144C141.795 26.8867 145.355 19.2073 137.409 16.9414L141.417 27.3144Z" fill="white"/>
<path fill-rule="evenodd" clip-rule="evenodd" d="M141.786 27.3024C141.74 27.3838 141.691 27.464 141.644 27.5172L141.189 27.1162C141.189 27.1167 141.189 27.117 141.189 27.117C141.189 27.1169 141.194 27.1097 141.207 27.0911C141.22 27.0709 141.236 27.0429 141.257 27.0068C141.297 26.9346 141.347 26.8363 141.404 26.714C141.517 26.4698 141.651 26.1373 141.779 25.7412C142.035 24.9472 142.258 23.9114 142.231 22.827C142.204 21.7447 141.929 20.6243 141.197 19.6411C140.467 18.6594 139.261 17.7871 137.325 17.235L137.491 16.6523C139.529 17.2333 140.858 18.1705 141.683 19.2794C142.507 20.3867 142.808 21.6378 142.837 22.812C142.866 23.9841 142.625 25.09 142.355 25.927C142.22 26.3464 142.077 26.7017 141.954 26.9682C141.892 27.1013 141.835 27.214 141.786 27.3024Z" fill="white"/>
<path fill-rule="evenodd" clip-rule="evenodd" d="M80.3008 13.5601C79.9254 13.1302 72.7704 8.60733 69.4968 16.1945L80.3008 13.5601Z" fill="white"/>
<path fill-rule="evenodd" clip-rule="evenodd" d="M80.3227 13.2062C80.3974 13.2618 80.4691 13.3201 80.5143 13.3718L80.0877 13.7443C80.0882 13.7448 80.0881 13.7448 80.0876 13.7443C80.0858 13.7425 80.0785 13.7353 80.063 13.7221C80.0442 13.7061 80.0183 13.6856 79.9848 13.6607C79.918 13.611 79.8265 13.5482 79.7122 13.4762C79.484 13.3323 79.1709 13.1555 78.7939 12.9774C78.0383 12.6205 77.0378 12.2642 75.9562 12.1505C74.8765 12.037 73.7255 12.1658 72.6516 12.7667C71.5793 13.3667 70.5559 14.4531 69.757 16.3047L69.237 16.0803C70.0749 14.1383 71.1735 12.9449 72.3751 12.2725C73.5752 11.6009 74.8503 11.4648 76.0154 11.5873C77.1787 11.7096 78.242 12.0904 79.0358 12.4654C79.4335 12.6532 79.7666 12.841 80.0142 12.9971C80.138 13.0751 80.2419 13.1461 80.3227 13.2062Z" fill="white"/>
<path fill-rule="evenodd" clip-rule="evenodd" d="M80.7945 13.1778C80.8859 12.8165 79.9048 6.7399 72.842 6.21094L80.7945 13.1778Z" fill="white"/>
<path fill-rule="evenodd" clip-rule="evenodd" d="M81.1558 13.0269C81.1596 13.0894 81.1631 13.1857 81.1422 13.2686L80.4457 13.0924C80.4413 13.1098 80.4403 13.1206 80.4402 13.1206C80.44 13.1206 80.4409 13.1059 80.4387 13.0702C80.4357 13.02 80.428 12.9478 80.4133 12.8552C80.3842 12.6705 80.3296 12.4174 80.2392 12.1176C80.0584 11.5177 79.7381 10.7426 79.2041 9.96296C78.1437 8.41467 76.2281 6.82753 72.8146 6.57188L72.8682 5.85547C76.5175 6.12878 78.6239 7.84442 79.7969 9.55699C80.3796 10.4078 80.7289 11.2526 80.9271 11.9103C81.0262 12.2392 81.0884 12.5242 81.123 12.7431C81.1402 12.8522 81.1511 12.9481 81.1558 13.0269Z" fill="white"/>
<path fill-rule="evenodd" clip-rule="evenodd" d="M82.4415 12.972C82.076 12.8993 76.0877 14.0133 75.9244 21.0942L82.4415 12.972Z" fill="white"/>
<path fill-rule="evenodd" clip-rule="evenodd" d="M82.2986 12.845C82.3622 12.8392 82.4232 12.837 82.4656 12.8454L82.4175 13.0875C82.4176 13.0875 82.4176 13.0875 82.4173 13.0875C82.4157 13.0873 82.4082 13.0865 82.3922 13.0866C82.3745 13.0868 82.3509 13.088 82.3212 13.0908C82.262 13.0962 82.1827 13.1073 82.086 13.1254C81.8927 13.1617 81.6336 13.2255 81.331 13.3262C80.7256 13.5278 79.9498 13.876 79.1805 14.4443C77.6459 15.5777 76.1285 17.5918 76.0478 21.0916L75.8011 21.0859C75.8837 17.5048 77.4421 15.4214 79.0338 14.2457C79.8277 13.6594 80.6277 13.3002 81.253 13.0921C81.5657 12.988 81.8357 12.9213 82.0405 12.8829C82.1428 12.8637 82.2299 12.8514 82.2986 12.845Z" fill="white"/>
<path fill-rule="evenodd" clip-rule="evenodd" d="M98.0032 23.2695C97.8778 23.8263 93.7391 31.2101 87.2481 26.0966L98.0032 23.2695Z" fill="white"/>
<path fill-rule="evenodd" clip-rule="evenodd" d="M97.6352 23.191C97.6366 23.1872 97.6369 23.1866 97.6364 23.1888L98.3717 23.3544C98.3542 23.4321 98.3151 23.5255 98.2757 23.6102C98.232 23.7042 98.1732 23.8183 98.1007 23.9474C97.9553 24.2059 97.7498 24.5328 97.4872 24.8904C96.9636 25.6036 96.2026 26.4533 95.2267 27.1224C94.2487 27.7929 93.0439 28.2889 91.6449 28.2694C90.2436 28.2499 88.6899 27.7137 87.0157 26.3948L87.4822 25.8027C89.0534 27.0405 90.4512 27.4989 91.6554 27.5157C92.8619 27.5325 93.9168 27.1065 94.8005 26.5006C95.6863 25.8933 96.3892 25.1122 96.8796 24.4443C97.1242 24.1112 97.3132 23.8099 97.4436 23.578C97.5089 23.4619 97.5583 23.3652 97.5921 23.2924C97.6198 23.2329 97.6315 23.201 97.6352 23.191Z" fill="white"/>
<path fill-rule="evenodd" clip-rule="evenodd" d="M141.417 27.3144C141.795 26.8867 140.824 25.7873 137.409 16.9414L141.417 27.3144Z" fill="white"/>
<path fill-rule="evenodd" clip-rule="evenodd" d="M141.72 26.6691C141.813 26.978 141.854 27.2767 141.643 27.5147L141.189 27.1137C141.189 27.1144 141.188 27.1154 141.188 27.1168C141.188 27.1171 141.188 27.1173 141.188 27.1174C141.188 27.1176 141.189 27.1124 141.19 27.0984C141.191 27.0597 141.182 26.9848 141.14 26.8447C141.055 26.5641 140.871 26.1292 140.556 25.4051C140.515 25.3092 140.471 25.2086 140.425 25.1031C139.784 23.6286 138.721 21.1833 137.125 17.0502L137.691 16.832C139.282 20.9534 140.341 23.3899 140.981 24.8617C141.027 24.9673 141.071 25.0679 141.112 25.1638C141.42 25.8737 141.622 26.3468 141.72 26.6691Z" fill="white"/>
<path fill-rule="evenodd" clip-rule="evenodd" d="M80.3008 13.5631C79.9254 13.1332 78.7098 13.9541 69.4968 16.1975L80.3008 13.5631Z" fill="white"/>
<path fill-rule="evenodd" clip-rule="evenodd" d="M79.7037 13.1926C80.0217 13.1398 80.3129 13.1403 80.5143 13.3709L80.0877 13.7434L80.0857 13.7413L80.0852 13.7408C80.0853 13.7408 80.0853 13.7408 80.0852 13.7407M79.7037 13.1926C79.3729 13.2475 78.8791 13.3857 78.1349 13.5997L79.7037 13.1926ZM78.1349 13.5997C78.0343 13.6286 77.9287 13.659 77.818 13.6909L78.1349 13.5997ZM77.818 13.6909C76.2756 14.1354 73.7225 14.8712 69.43 15.9165L77.818 13.6909ZM69.43 15.9165L69.564 16.4667L69.43 15.9165ZM69.564 16.4667C73.8678 15.4187 76.4296 14.6804 77.9745 14.2352L69.564 16.4667ZM77.9745 14.2352C78.0852 14.2033 78.1908 14.1729 78.2913 14.144L77.9745 14.2352ZM78.2913 14.144C79.0495 13.926 79.5058 13.7995 79.7964 13.7512L78.2913 14.144ZM79.7964 13.7512C79.9415 13.7272 80.0196 13.7275 80.061 13.7343L79.7964 13.7512ZM80.061 13.7343C80.0789 13.7372 80.0851 13.7407 80.0851 13.7407L80.061 13.7343ZM80.0851 13.7407C80.0851 13.7407 80.0851 13.7407 80.0852 13.7407L80.0851 13.7407Z" fill="white"/>
<path fill-rule="evenodd" clip-rule="evenodd" d="M150.262 50.6359C150.114 50.1368 148.158 50.2299 135.985 47.8633L150.262 50.6359Z" fill="white"/>
<path fill-rule="evenodd" clip-rule="evenodd" d="M150.288 50.139C150.432 50.2172 150.571 50.338 150.628 50.5308L149.897 50.7476C149.911 50.7965 149.939 50.8177 149.939 50.8179C149.939 50.818 149.935 50.8148 149.923 50.8088C149.876 50.783 149.779 50.7457 149.589 50.6983C149.213 50.6046 148.593 50.4982 147.571 50.3296C147.435 50.3072 147.293 50.2837 147.143 50.2591C145.056 49.9156 141.597 49.3462 135.912 48.241L136.058 47.4922C141.732 48.5953 145.183 49.1633 147.267 49.5064C147.417 49.531 147.56 49.5545 147.695 49.5769C148.703 49.7432 149.36 49.8551 149.774 49.9582C149.978 50.0092 150.153 50.065 150.288 50.139Z" fill="white"/>
<path fill-rule="evenodd" clip-rule="evenodd" d="M80.7941 13.1782C80.8856 12.8169 79.6471 12.1587 73.0195 6.25L80.7941 13.1782Z" fill="white"/>
<path fill-rule="evenodd" clip-rule="evenodd" d="M81.0674 12.8343C81.134 12.9465 81.1856 13.0955 81.1428 13.2649L80.4463 13.0887C80.4289 13.1576 80.4516 13.204 80.4514 13.2041C80.4514 13.2041 80.4509 13.2031 80.4497 13.2011C80.4358 13.1777 80.3959 13.1254 80.2975 13.028C80.1036 12.8359 79.7639 12.5462 79.1955 12.0678C79.1202 12.0044 79.0411 11.9378 78.9581 11.868C77.799 10.8933 75.8769 9.27686 72.7809 6.51672L73.259 5.98047C76.3473 8.73378 78.2633 10.3451 79.4207 11.3183C79.5037 11.3882 79.5828 11.4547 79.6582 11.5181C80.2164 11.988 80.5834 12.2999 80.8031 12.5175C80.9115 12.6249 81.0052 12.7295 81.0674 12.8343Z" fill="white"/>
<path fill-rule="evenodd" clip-rule="evenodd" d="M82.4415 12.9716C82.076 12.899 81.4827 14.1698 75.9244 21.0939L82.4415 12.9716Z" fill="white"/>
<path fill-rule="evenodd" clip-rule="evenodd" d="M82.2164 12.9076C82.2944 12.8556 82.377 12.8275 82.4658 12.8451L82.4177 13.0872L82.4175 13.0871C82.4144 13.0865 82.3981 13.0831 82.3532 13.113C82.3047 13.1453 82.2383 13.2063 82.143 13.3131C81.9532 13.5255 81.6747 13.8891 81.2289 14.478C81.1695 14.5565 81.1071 14.6389 81.0417 14.7254C80.1286 15.9327 78.6153 17.9337 76.0209 21.1657L75.8285 21.0112C78.4207 17.782 79.9323 15.7832 80.8449 14.5765C80.9104 14.49 80.9727 14.4075 81.0321 14.329C81.4752 13.7438 81.7609 13.3705 81.9589 13.1487C82.0574 13.0383 82.1408 12.9579 82.2164 12.9076Z" fill="white"/>
<path fill-rule="evenodd" clip-rule="evenodd" d="M98.0032 23.2695C97.8778 23.8263 96.418 23.6831 87.2481 26.0966L98.0032 23.2695Z" fill="white"/>
<path fill-rule="evenodd" clip-rule="evenodd" d="M97.6505 23.1581C97.6459 23.164 97.6397 23.1747 97.6361 23.1906L98.3714 23.3562C98.2923 23.7077 97.9897 23.8612 97.6826 23.967C97.3593 24.0784 96.8528 24.1931 96.0988 24.3588C95.9966 24.3812 95.8894 24.4047 95.7769 24.4294C94.2094 24.7727 91.6153 25.3409 87.3446 26.465L87.1527 25.736C91.4385 24.608 94.0443 24.0372 95.6152 23.6931C95.7277 23.6685 95.8349 23.645 95.937 23.6226C96.7098 23.4527 97.1649 23.348 97.4371 23.2543C97.5802 23.205 97.6343 23.171 97.6505 23.1581ZM97.6564 23.1523C97.6568 23.1524 97.6552 23.1543 97.6505 23.1581C97.6536 23.1542 97.6559 23.1523 97.6564 23.1523Z" fill="white"/>
<path fill-rule="evenodd" clip-rule="evenodd" d="M141.417 27.3144C141.428 19.6578 140.617 21.0576 137.409 16.9414L141.417 27.3144Z" fill="white"/>
<path fill-rule="evenodd" clip-rule="evenodd" d="M140.887 20.6596C141.532 21.8595 141.726 23.5026 141.72 27.3175L141.114 27.3166C141.12 23.4749 140.914 21.9897 140.354 20.9463C140.073 20.4241 139.697 19.9998 139.168 19.4309C139.123 19.3821 139.077 19.3323 139.029 19.2814C138.527 18.7427 137.911 18.0815 137.17 17.1303L137.648 16.7578C138.372 17.6873 138.972 18.3311 139.473 18.8691C139.52 18.9198 139.567 18.9695 139.612 19.0184C140.138 19.584 140.565 20.0601 140.887 20.6596Z" fill="white"/>
<path fill-rule="evenodd" clip-rule="evenodd" d="M80.3008 13.5592C72.7098 12.5586 73.9931 13.544 69.4968 16.1936L80.3008 13.5592Z" fill="white"/>
<path fill-rule="evenodd" clip-rule="evenodd" d="M73.6387 13.2409C74.9063 12.7589 76.5557 12.7778 80.3388 13.2764L80.2648 13.8379C76.4569 13.336 74.9524 13.3472 73.8399 13.7702C73.2832 13.9819 72.812 14.3014 72.1797 14.752C72.1254 14.7907 72.07 14.8303 72.0134 14.8707C71.4144 15.2988 70.6798 15.8237 69.6416 16.4356L69.3541 15.9477C70.3702 15.3489 71.0867 14.8369 71.6849 14.4094C71.7412 14.3692 71.7966 14.3296 71.851 14.2908C72.4798 13.8427 73.0053 13.4817 73.6387 13.2409Z" fill="white"/>
<path fill-rule="evenodd" clip-rule="evenodd" d="M150.262 50.6368C142.135 46.4863 142.964 47.8184 135.985 47.8642L150.262 50.6368Z" fill="white"/>
<path fill-rule="evenodd" clip-rule="evenodd" d="M142.734 47.3001C144.494 47.4887 146.378 48.2269 150.437 50.2996L150.09 50.979C146.021 48.9012 144.255 48.2302 142.653 48.0586C141.849 47.9725 141.075 48.011 140.042 48.0776C139.954 48.0833 139.863 48.0892 139.771 48.0952C138.791 48.1593 137.594 48.2376 135.988 48.2481L135.983 47.4853C137.566 47.4749 138.743 47.398 139.722 47.334C139.814 47.328 139.904 47.322 139.993 47.3163C141.022 47.25 141.857 47.2062 142.734 47.3001Z" fill="white"/>
<path fill-rule="evenodd" clip-rule="evenodd" d="M98.0032 23.2695C91.8043 27.7635 92.4636 26.286 87.2481 26.0966L98.0032 23.2695Z" fill="white"/>
<path fill-rule="evenodd" clip-rule="evenodd" d="M92.2075 26.0662C93.36 25.9121 94.6696 25.2216 97.7826 22.9648L98.225 23.5751C95.139 25.8124 93.6789 26.63 92.3074 26.8134C91.6223 26.9049 90.9771 26.8358 90.2115 26.7413C90.1451 26.7331 90.0777 26.7247 90.009 26.7161C89.2796 26.625 88.4094 26.5164 87.235 26.4737L87.2623 25.7204C88.4709 25.7643 89.3704 25.8767 90.1012 25.9679C90.1702 25.9766 90.2378 25.985 90.3039 25.9932C91.0752 26.0884 91.6306 26.1433 92.2075 26.0662Z" fill="white"/>
<path fill-rule="evenodd" clip-rule="evenodd" d="M141.417 27.3144C140.492 23.257 136.321 24.2177 137.409 16.9414L141.417 27.3144Z" fill="white"/>
<path fill-rule="evenodd" clip-rule="evenodd" d="M139.605 23.8889C140.439 24.7185 141.339 25.6144 141.712 27.2489L141.121 27.3836C140.791 25.9351 140.05 25.1952 139.243 24.3895C138.974 24.1216 138.699 23.8464 138.429 23.5355C137.895 22.9211 137.419 22.191 137.152 21.1375C136.886 20.0901 136.833 18.7429 137.108 16.8984L137.708 16.988C137.44 18.7817 137.499 20.043 137.739 20.9887C137.977 21.9283 138.397 22.5759 138.886 23.1381C139.109 23.3946 139.354 23.6387 139.605 23.8889Z" fill="white"/>
<path fill-rule="evenodd" clip-rule="evenodd" d="M80.3008 13.5586C76.1578 13.9518 76.5717 18.2118 69.4968 16.1931L80.3008 13.5586Z" fill="white"/>
<path fill-rule="evenodd" clip-rule="evenodd" d="M76.6823 14.926C77.612 14.2073 78.6108 13.4351 80.2735 13.2773L80.327 13.8411C78.8419 13.9821 78.0068 14.6257 77.1025 15.3227C76.8027 15.5537 76.4954 15.7905 76.1543 16.0169C75.4779 16.4657 74.6953 16.8421 73.62 16.9702C72.5504 17.0976 71.2104 16.9773 69.4186 16.466L69.574 15.9214C71.3196 16.4195 72.5809 16.5237 73.553 16.4078C74.5193 16.2927 75.2187 15.958 75.8412 15.545C76.1262 15.3559 76.4011 15.1434 76.6823 14.926Z" fill="white"/>
<path fill-rule="evenodd" clip-rule="evenodd" d="M150.262 50.6359C145.199 49.0961 142.835 52.5704 135.985 47.8633L150.262 50.6359Z" fill="white"/>
<path fill-rule="evenodd" clip-rule="evenodd" d="M145.191 49.9527C146.743 49.8121 148.372 49.6644 150.373 50.2728L150.151 51.0027C148.305 50.4414 146.866 50.5709 145.345 50.7077C144.847 50.7524 144.341 50.7979 143.809 50.8203C141.648 50.9114 139.263 50.5806 135.769 48.1795L136.201 47.5508C139.557 49.8569 141.778 50.1424 143.777 50.0581C144.247 50.0383 144.716 49.9959 145.191 49.9527Z" fill="white"/>
<path fill-rule="evenodd" clip-rule="evenodd" d="M98.0032 23.2695C94.1727 24.8962 92.5085 20.953 87.2481 26.0966L98.0032 23.2695Z" fill="white"/>
<path fill-rule="evenodd" clip-rule="evenodd" d="M94.3827 23.1497C95.5027 23.3307 96.5104 23.4936 97.8567 22.9219L98.1513 23.6157C96.5866 24.2802 95.3057 24.0706 94.1422 23.8803C93.7955 23.8236 93.4592 23.7686 93.1289 23.7389C92.3956 23.673 91.6366 23.7112 90.7489 24.0633C89.854 24.4183 88.8047 25.1018 87.5124 26.3654L86.9854 25.8264C88.3234 24.5182 89.4547 23.7658 90.471 23.3626C91.4945 22.9566 92.3773 22.9145 93.1964 22.9881C93.616 23.0258 94.0057 23.0888 94.3827 23.1497Z" fill="white"/>
<path fill-rule="evenodd" clip-rule="evenodd" d="M141.417 27.3144C141.795 26.8867 132.742 23.4812 137.409 16.9414L141.417 27.3144Z" fill="white"/>
<path fill-rule="evenodd" clip-rule="evenodd" d="M141.715 27.1727C141.746 27.2727 141.739 27.4042 141.644 27.5112L141.19 27.1102C141.119 27.1905 141.117 27.2894 141.136 27.351C141.144 27.3766 141.154 27.3928 141.159 27.3988C141.158 27.3982 141.157 27.3975 141.157 27.3967C141.136 27.3734 141.084 27.3282 140.984 27.2556C140.853 27.1603 140.679 27.0457 140.466 26.9061C140.362 26.8375 140.248 26.7627 140.126 26.6812C139.399 26.1969 138.426 25.5115 137.585 24.6246C136.745 23.7381 136.019 22.6314 135.82 21.3022C135.62 19.9644 135.959 18.4476 137.162 16.7617L137.656 17.1137C136.525 18.6977 136.247 20.059 136.419 21.2124C136.593 22.3744 137.233 23.3721 138.025 24.2078C138.817 25.0433 139.744 25.6981 140.462 26.177C140.573 26.2511 140.681 26.322 140.783 26.3891C141.004 26.5343 141.197 26.6616 141.34 26.7652C141.442 26.8394 141.542 26.9176 141.61 26.9944C141.642 27.0308 141.69 27.0918 141.715 27.1727ZM141.16 27.4013C141.16 27.4013 141.16 27.4005 141.159 27.3988C141.16 27.4005 141.161 27.4013 141.16 27.4013Z" fill="white"/>
<path fill-rule="evenodd" clip-rule="evenodd" d="M80.3008 13.5627C79.9254 13.1328 75.379 21.6694 69.4968 16.1971L80.3008 13.5627Z" fill="white"/>
<path fill-rule="evenodd" clip-rule="evenodd" d="M80.2057 13.2628C80.3034 13.2461 80.4254 13.269 80.514 13.3704L80.0874 13.7429C80.1525 13.8174 80.2429 13.8309 80.301 13.821C80.3239 13.8171 80.339 13.8104 80.3447 13.8074C80.3438 13.808 80.3426 13.8088 80.3411 13.8098C80.3135 13.8285 80.2607 13.8755 80.1757 13.9654C80.0639 14.0836 79.9273 14.2421 79.7612 14.4348C79.6796 14.5294 79.591 14.6323 79.4947 14.7426C78.9208 15.4004 78.1165 16.276 77.1303 16.9937C76.1445 17.7111 74.9572 18.2851 73.619 18.3107C72.2726 18.3364 70.8172 17.8063 69.3038 16.3984L69.6896 15.9838C71.1173 17.312 72.436 17.7669 73.6082 17.7445C74.7884 17.7219 75.8642 17.2147 76.7971 16.5358C77.7298 15.8571 78.5001 15.0212 79.068 14.3703C79.1561 14.2693 79.2404 14.1715 79.3202 14.079C79.4925 13.8791 79.6433 13.7041 79.7642 13.5763C79.8509 13.4846 79.94 13.3976 80.0231 13.3412C80.0625 13.3144 80.1264 13.2763 80.2057 13.2628ZM80.3472 13.806C80.3472 13.8061 80.3463 13.8066 80.3447 13.8074C80.3464 13.8064 80.3472 13.806 80.3472 13.806Z" fill="white"/>
<path fill-rule="evenodd" clip-rule="evenodd" d="M150.263 50.6378C150.115 50.1389 138.931 54.2552 135.768 47.4117L150.263 50.6378ZM150.263 50.6378C150.115 50.1389 144.515 43.4905 135.657 47.8939L150.263 50.6378Z" fill="white"/>
<path fill-rule="evenodd" clip-rule="evenodd" d="M150.493 50.2558C150.543 50.3286 150.608 50.4296 150.636 50.5265L150.825 51.1626L150.043 50.9885C149.981 50.9938 149.897 51.0045 149.788 51.0218C149.572 51.0559 149.297 51.1083 148.966 51.1716C148.807 51.2019 148.636 51.2346 148.451 51.269C147.328 51.4787 145.794 51.737 144.159 51.7937C140.919 51.9061 137.101 51.2269 135.414 47.5751L135.083 46.8591L136.352 47.1416C140.506 45.3607 143.937 45.9327 146.39 47.0732C147.695 47.6798 148.718 48.4443 149.427 49.0908C149.781 49.4142 150.058 49.7102 150.255 49.9455C150.353 50.0629 150.433 50.1679 150.493 50.2558ZM136.519 47.9784C138.143 50.5456 141.212 51.1149 144.132 51.0136C145.593 50.963 146.979 50.7446 148.061 50.5473L136.519 47.9784ZM137.73 47.4482C141.174 46.2795 144 46.8228 146.061 47.7811C147.282 48.3485 148.24 49.0645 148.9 49.6673C149.033 49.7889 149.154 49.9056 149.262 50.015L137.73 47.4482Z" fill="white"/>
<path fill-rule="evenodd" clip-rule="evenodd" d="M80.7946 13.18C80.8861 12.8187 72.519 11.213 73.0752 5.84375L80.7946 13.18Z" fill="white"/>
<path fill-rule="evenodd" clip-rule="evenodd" d="M81.0388 12.8966C81.0768 12.9365 81.1922 13.0737 81.1426 13.2699L80.4461 13.0937C80.4022 13.2674 80.5067 13.3796 80.5185 13.3919C80.5296 13.4036 80.5386 13.4106 80.542 13.4131C80.5407 13.4122 80.5383 13.4107 80.5349 13.4087C80.5029 13.3899 80.4388 13.3597 80.3309 13.3159C80.187 13.2574 80.001 13.1887 79.775 13.1053C79.6667 13.0653 79.5492 13.0219 79.4227 12.9746C78.6556 12.6878 77.6153 12.2779 76.5858 11.7056C74.5502 10.5742 72.4156 8.72371 72.7176 5.80859L73.4322 5.88263C73.178 8.33671 74.9488 9.97373 76.9348 11.0777C77.9161 11.6232 78.9157 12.0181 79.6743 12.3017C79.7907 12.3452 79.9029 12.3866 80.0089 12.4258C80.2425 12.5121 80.4465 12.5874 80.6013 12.6503C80.7123 12.6954 80.8181 12.742 80.8983 12.789C80.936 12.8111 80.991 12.8463 81.0388 12.8966ZM80.5436 13.4142C80.5436 13.4142 80.543 13.4138 80.542 13.4131C80.5431 13.4138 80.5436 13.4142 80.5436 13.4142Z" fill="white"/>
<path fill-rule="evenodd" clip-rule="evenodd" d="M82.4415 12.9692C82.076 12.8966 81.3154 21.3693 75.9244 21.0915L82.4415 12.9692Z" fill="white"/>
<path fill-rule="evenodd" clip-rule="evenodd" d="M82.3131 12.9075C82.3347 12.8831 82.3877 12.8353 82.465 12.8506L82.4169 13.0927C82.4422 13.0977 82.4643 13.0921 82.4789 13.0847C82.4914 13.0784 82.4974 13.0716 82.4977 13.0713L82.4977 13.0712C82.4978 13.0712 82.4978 13.0711 82.4978 13.0711C82.4978 13.0712 82.496 13.0734 82.4925 13.0792C82.4888 13.0854 82.4841 13.0942 82.4787 13.106C82.4558 13.1551 82.4284 13.2346 82.3954 13.3462C82.3511 13.4961 82.3004 13.6904 82.2401 13.9218C82.211 14.0332 82.1797 14.1531 82.1459 14.2808C81.9385 15.0621 81.6388 16.1132 81.18 17.1593C80.2661 19.2432 78.6956 21.3603 75.9175 21.2172L75.9302 20.9707C78.5432 21.1053 80.0485 19.125 80.954 17.0602C81.4049 16.0319 81.7008 14.9958 81.9073 14.2175C81.9402 14.0935 81.971 13.9755 81.9998 13.865C82.0609 13.6308 82.1133 13.43 82.1588 13.2762C82.1921 13.1636 82.2238 13.0689 82.2549 13.0019C82.27 12.9694 82.2888 12.9348 82.3131 12.9075Z" fill="white"/>
<path fill-rule="evenodd" clip-rule="evenodd" d="M98.0032 23.2713C97.8778 23.8281 89.8154 18.4856 87.2481 26.0984L98.0032 23.2713Z" fill="white"/>
<path fill-rule="evenodd" clip-rule="evenodd" d="M97.8477 22.9479C97.7671 22.9752 97.666 23.0522 97.6357 23.1864L98.3711 23.3521C98.333 23.5211 98.2085 23.6214 98.09 23.6617C97.9948 23.694 97.9046 23.6894 97.8525 23.6841C97.7416 23.673 97.6133 23.6359 97.4931 23.5965C97.3238 23.5409 97.1044 23.4576 96.8564 23.3633C96.7427 23.3201 96.623 23.2746 96.4993 23.2285C95.6914 22.927 94.6241 22.5618 93.4916 22.4104C92.3587 22.259 91.1927 22.326 90.1673 22.8561C89.1515 23.3812 88.2224 24.3874 87.6054 26.2168L86.8912 25.9759C87.5579 23.999 88.5993 22.8181 89.8212 22.1865C91.0334 21.5598 92.3722 21.5003 93.5915 21.6632C94.8112 21.8263 95.9435 22.2165 96.7628 22.5222C96.902 22.5742 97.03 22.6228 97.1471 22.6673C97.3833 22.7571 97.5756 22.8302 97.7281 22.8802C97.844 22.9183 97.9043 22.9316 97.9271 22.934C97.9168 22.9337 97.8869 22.9346 97.8477 22.9479ZM97.9279 22.9341C97.9276 22.9341 97.9274 22.9341 97.9271 22.934L97.9279 22.9341Z" fill="white"/>
<path fill-rule="evenodd" clip-rule="evenodd" d="M119.436 13.2035C119.593 12.5206 120.203 4.97632 109.026 4.37109L119.436 13.2035Z" fill="white"/>
<path fill-rule="evenodd" clip-rule="evenodd" d="M118.811 8.56146C120.097 10.7116 119.906 12.8742 119.811 13.2894L119.062 13.1183C119.124 12.8505 119.315 10.8996 118.152 8.95552C117.008 7.04364 114.5 5.05207 109.005 4.75456L109.047 3.98828C114.73 4.29599 117.505 6.37916 118.811 8.56146Z" fill="white"/>
<path fill-rule="evenodd" clip-rule="evenodd" d="M119.436 13.2035C119.593 12.5206 117.9 11.9051 109.026 4.37109L119.436 13.2035Z" fill="white"/>
<path fill-rule="evenodd" clip-rule="evenodd" d="M119.392 12.3211C119.675 12.5996 119.898 12.902 119.81 13.2886L119.062 13.1175C119.062 13.1184 119.061 13.1218 119.062 13.1259C119.062 13.1269 119.062 13.1275 119.062 13.1275C119.062 13.1277 119.061 13.1218 119.054 13.1086C119.034 13.0679 118.981 12.9935 118.854 12.8676C118.598 12.6155 118.145 12.255 117.381 11.6585C117.28 11.5795 117.173 11.4966 117.062 11.4097C115.505 10.196 112.923 8.18322 108.777 4.66314L109.273 4.07812C113.408 7.588 115.98 9.59328 117.534 10.8047C117.645 10.8917 117.752 10.9745 117.853 11.0535C118.602 11.638 119.097 12.0303 119.392 12.3211Z" fill="white"/>
<path fill-rule="evenodd" clip-rule="evenodd" d="M117.548 11.3008C114.232 11.3604 113.116 11.5659 112.458 11.566L117.548 11.3008Z" fill="white"/>
<path fill-rule="evenodd" clip-rule="evenodd" d="M113.977 11.0779C114.76 11.0185 115.875 10.9518 117.541 10.9219L117.555 11.6891C115.905 11.7188 114.804 11.7848 114.035 11.8431C113.794 11.8613 113.581 11.8794 113.391 11.8954C112.99 11.9293 112.694 11.9544 112.458 11.9544L112.458 11.187C112.661 11.187 112.907 11.1661 113.279 11.1346C113.473 11.1181 113.702 11.0987 113.977 11.0779Z" fill="white"/>
<path fill-rule="evenodd" clip-rule="evenodd" d="M115.191 9.58203C112.356 9.64177 111.401 9.84724 110.839 9.84733L115.191 9.58203Z" fill="white"/>
<path fill-rule="evenodd" clip-rule="evenodd" d="M112.129 9.35564C112.8 9.29608 113.756 9.22928 115.183 9.19922L115.199 9.96206C113.79 9.99174 112.852 10.0575 112.196 10.1157C111.995 10.1335 111.815 10.1513 111.654 10.1673C111.307 10.2016 111.046 10.2274 110.839 10.2274L110.839 9.46443C111.008 9.4644 111.211 9.44426 111.523 9.41321C111.69 9.39666 111.888 9.377 112.129 9.35564Z" fill="white"/>
<path fill-rule="evenodd" clip-rule="evenodd" d="M112.91 7.59766C110.86 7.65731 110.17 7.86279 109.763 7.86287L112.91 7.59766Z" fill="white"/>
<path fill-rule="evenodd" clip-rule="evenodd" d="M110.674 7.37249C111.164 7.31228 111.862 7.24504 112.899 7.21484L112.922 7.98407C111.909 8.01353 111.236 8.07885 110.767 8.13631C110.61 8.15557 110.48 8.17349 110.362 8.18954C110.301 8.19792 110.244 8.2058 110.188 8.21309C110.034 8.23326 109.893 8.24942 109.763 8.24945L109.763 7.4799C109.837 7.47988 109.934 7.47032 110.088 7.45008C110.136 7.44378 110.19 7.43642 110.249 7.42833C110.369 7.41183 110.512 7.3923 110.674 7.37249Z" fill="white"/>
<path fill-rule="evenodd" clip-rule="evenodd" d="M119.436 13.2035C119.593 12.5206 110.262 15.4956 109.026 4.37109L119.436 13.2035Z" fill="white"/>
<path fill-rule="evenodd" clip-rule="evenodd" d="M119.711 12.8941C119.813 13.0092 119.841 13.1565 119.811 13.2885L119.063 13.1174C119.042 13.2067 119.061 13.3185 119.137 13.4041C119.167 13.4376 119.197 13.4565 119.214 13.466C119.232 13.4756 119.244 13.4794 119.247 13.4802C119.25 13.4813 119.239 13.4779 119.205 13.4743C119.173 13.471 119.131 13.4685 119.076 13.4672C118.941 13.464 118.777 13.468 118.576 13.4729C118.424 13.4766 118.251 13.4808 118.054 13.4828C117.168 13.492 115.933 13.4524 114.645 13.0701C113.351 12.6863 112.002 11.9563 110.898 10.5887C109.795 9.22279 108.96 7.2485 108.645 4.41288L109.408 4.32812C109.711 7.05475 110.505 8.88026 111.495 10.1067C112.483 11.3313 113.689 11.9861 114.863 12.3344C116.042 12.6843 117.187 12.7244 118.046 12.7155C118.212 12.7137 118.375 12.7099 118.526 12.7064C118.748 12.7012 118.946 12.6965 119.094 12.7C119.215 12.7029 119.356 12.711 119.472 12.7466C119.528 12.7639 119.629 12.8022 119.711 12.8941Z" fill="white"/>
<path fill-rule="evenodd" clip-rule="evenodd" d="M130.705 27.0231C130.967 27.0231 124.789 16.0189 118.864 12.7969L130.705 27.0231Z" fill="white"/>
<path fill-rule="evenodd" clip-rule="evenodd" d="M131.135 27.426C131.011 27.5574 130.849 27.6112 130.705 27.6112V26.4403C130.565 26.4403 130.406 26.4928 130.284 26.6215C130.179 26.7329 130.147 26.8535 130.136 26.9124C130.117 27.0178 130.134 27.099 130.136 27.1085L130.137 27.1092C130.14 27.1279 130.144 27.1391 130.144 27.1393C130.144 27.1395 130.142 27.1328 130.136 27.1175C130.113 27.061 130.067 26.96 129.992 26.811C129.844 26.5183 129.607 26.0871 129.293 25.5523C128.666 24.4843 127.743 23.0228 126.628 21.4612C124.378 18.3118 121.419 14.8554 118.584 13.3138L119.143 12.2852C122.233 13.9656 125.325 17.6224 127.581 20.7806C128.718 22.3728 129.66 23.8637 130.303 24.9597C130.624 25.5069 130.874 25.9606 131.036 26.2823C131.117 26.4405 131.182 26.579 131.224 26.6853C131.243 26.732 131.27 26.8037 131.285 26.879L131.285 26.8798C131.29 26.9065 131.31 27.0047 131.288 27.1231C131.277 27.1873 131.243 27.3119 131.135 27.426Z" fill="white"/>
<path fill-rule="evenodd" clip-rule="evenodd" d="M130.705 27.0231C130.967 27.0231 124.789 16.0189 118.864 12.7969L130.705 27.0231Z" fill="white"/>
<path fill-rule="evenodd" clip-rule="evenodd" d="M131.135 27.426C131.011 27.5574 130.849 27.6112 130.705 27.6112V26.4403C130.565 26.4403 130.406 26.4928 130.284 26.6215C130.179 26.7329 130.147 26.8535 130.136 26.9124C130.117 27.0178 130.134 27.099 130.136 27.1085L130.137 27.1092C130.14 27.1279 130.144 27.1391 130.144 27.1393C130.144 27.1395 130.142 27.1328 130.136 27.1175C130.113 27.061 130.067 26.96 129.992 26.811C129.844 26.5183 129.607 26.0871 129.293 25.5523C128.666 24.4843 127.743 23.0228 126.628 21.4612C124.378 18.3118 121.419 14.8554 118.584 13.3138L119.143 12.2852C122.233 13.9656 125.325 17.6224 127.581 20.7806C128.718 22.3728 129.66 23.8637 130.303 24.9597C130.624 25.5069 130.874 25.9606 131.036 26.2823C131.117 26.4405 131.182 26.579 131.224 26.6853C131.243 26.732 131.27 26.8037 131.285 26.879L131.285 26.8798C131.29 26.9065 131.31 27.0047 131.288 27.1231C131.277 27.1873 131.243 27.3119 131.135 27.426Z" fill="white"/>
<path fill-rule="evenodd" clip-rule="evenodd" d="M147.484 39.9317C147.745 39.9317 144.554 33.4795 141.559 27.0273L147.484 39.9317Z" fill="white"/>
<path fill-rule="evenodd" clip-rule="evenodd" d="M147.957 40.2855C147.84 40.4364 147.663 40.5176 147.484 40.5176V39.3466C147.312 39.3466 147.142 39.4246 147.03 39.5693C146.941 39.6847 146.922 39.7992 146.917 39.841C146.911 39.8916 146.914 39.9294 146.915 39.9436C146.917 39.9606 146.919 39.9711 146.919 39.9725C146.919 39.9729 146.919 39.9729 146.919 39.9724C146.919 39.9705 146.916 39.9601 146.91 39.939C146.902 39.9144 146.891 39.882 146.876 39.8406C146.815 39.6712 146.707 39.4091 146.553 39.0581C146.248 38.3605 145.783 37.359 145.213 36.1489C144.835 35.3458 144.411 34.452 143.958 33.4979C143.05 31.5842 142.028 29.4279 141.028 27.2743L142.09 26.7812C143.088 28.9309 144.106 31.0779 145.013 32.989C145.466 33.9447 145.891 34.8415 146.272 35.65C146.842 36.8595 147.313 37.8743 147.626 38.5882C147.781 38.9428 147.903 39.2352 147.978 39.4439C148.014 39.5428 148.049 39.6496 148.067 39.7436C148.075 39.7799 148.093 39.8754 148.079 39.9857C148.072 40.0399 148.051 40.1639 147.957 40.2855Z" fill="white"/>
<path fill-rule="evenodd" clip-rule="evenodd" d="M120.7 31.8002C120.798 31.9771 122.122 33.7166 124.641 31.6914L120.7 31.8002Z" fill="white"/>
<path fill-rule="evenodd" clip-rule="evenodd" d="M121.664 32.888C120.906 32.6533 120.489 32.1057 120.408 31.9599L120.991 31.6366C120.991 31.6361 120.991 31.6364 120.992 31.6375C120.995 31.6431 121.013 31.6703 121.05 31.7139C121.09 31.7625 121.148 31.8247 121.223 31.8907C121.373 32.0231 121.586 32.1662 121.861 32.2513C122.388 32.4146 123.236 32.391 124.432 31.4297L124.85 31.9492C123.526 33.0131 122.452 33.1323 121.664 32.888Z" fill="white"/>
<path fill-rule="evenodd" clip-rule="evenodd" d="M121.438 33.8672C121.293 33.9036 119.803 34.5181 120.77 36.6967L121.438 33.8672Z" fill="white"/>
<path fill-rule="evenodd" clip-rule="evenodd" d="M121.075 33.9242C121.228 33.822 121.36 33.7706 121.411 33.7578L121.465 33.973C121.444 33.9784 121.335 34.0175 121.198 34.1088C121.063 34.1989 120.906 34.3366 120.781 34.5358C120.536 34.9276 120.399 35.5855 120.872 36.6499L120.669 36.7399C120.174 35.6257 120.299 34.8871 120.593 34.4179C120.738 34.1866 120.92 34.0277 121.075 33.9242Z" fill="white"/>
<path fill-rule="evenodd" clip-rule="evenodd" d="M127.86 41.2805C127.579 41.0799 124.067 39.6987 121.671 44.6602L127.86 41.2805Z" fill="white"/>
<path fill-rule="evenodd" clip-rule="evenodd" d="M127.686 40.9631C127.818 41.0121 127.925 41.0634 127.984 41.1055L127.736 41.4532L127.736 41.4533C127.736 41.4533 127.734 41.4524 127.732 41.4508C127.729 41.4491 127.725 41.4468 127.72 41.4439C127.71 41.4382 127.696 41.431 127.678 41.4226C127.643 41.4058 127.596 41.3856 127.537 41.3639C127.42 41.3205 127.262 41.2726 127.07 41.2348C126.687 41.1591 126.176 41.1246 125.602 41.2428C124.466 41.4768 123.038 42.3199 121.864 44.752L121.479 44.5662C122.7 42.0368 124.227 41.0897 125.516 40.8241C126.155 40.6925 126.724 40.7308 127.153 40.8154C127.367 40.8578 127.548 40.9119 127.686 40.9631Z" fill="white"/>
<path fill-rule="evenodd" clip-rule="evenodd" d="M120.7 31.8002C120.798 31.9771 121.281 31.7831 124.641 31.6914L120.7 31.8002Z" fill="white"/>
<path fill-rule="evenodd" clip-rule="evenodd" d="M120.869 32.2008C120.748 32.1952 120.526 32.1715 120.408 31.9591L120.991 31.6357C120.948 31.5584 120.883 31.5365 120.866 31.5321C120.871 31.533 120.882 31.5342 120.9 31.535C120.988 31.5392 121.139 31.5307 121.424 31.5112C121.461 31.5087 121.5 31.506 121.54 31.5032C122.11 31.4639 123.057 31.3984 124.632 31.3555L124.65 32.0217C123.089 32.0643 122.153 32.129 121.586 32.1682C121.545 32.171 121.507 32.1737 121.47 32.1762C121.202 32.1945 121.004 32.2072 120.869 32.2008ZM120.861 31.5312C120.861 31.5311 120.863 31.5314 120.866 31.5321C120.862 31.5316 120.861 31.5313 120.861 31.5312Z" fill="white"/>
<path fill-rule="evenodd" clip-rule="evenodd" d="M121.438 33.8672C121.294 33.9036 121.341 34.2842 120.771 36.6967L121.438 33.8672Z" fill="white"/>
<path fill-rule="evenodd" clip-rule="evenodd" d="M121.247 33.9502C121.273 33.8689 121.313 33.7826 121.411 33.7578L121.465 33.973C121.473 33.971 121.478 33.9671 121.48 33.9651C121.477 33.969 121.469 33.9825 121.458 34.0171C121.436 34.088 121.412 34.2068 121.373 34.4102C121.367 34.4371 121.362 34.4653 121.356 34.4949C121.277 34.9079 121.145 35.5928 120.878 36.7204L120.662 36.6694C120.928 35.5463 121.059 34.8647 121.138 34.4529C121.144 34.4232 121.149 34.395 121.155 34.3681C121.193 34.1702 121.22 34.0363 121.247 33.9502ZM121.481 33.9638C121.481 33.9638 121.481 33.9643 121.48 33.9651C121.48 33.9641 121.481 33.9637 121.481 33.9638Z" fill="white"/>
<path fill-rule="evenodd" clip-rule="evenodd" d="M127.859 41.2838C127.579 41.0832 126.978 41.735 121.872 44.3358L127.859 41.2838Z" fill="white"/>
<path fill-rule="evenodd" clip-rule="evenodd" d="M127.442 41.1083C127.622 41.0326 127.814 40.9831 127.984 41.105L127.736 41.4527C127.741 41.4562 127.745 41.458 127.748 41.4589C127.735 41.4592 127.696 41.4653 127.607 41.5025C127.445 41.5701 127.197 41.7065 126.781 41.9407C126.726 41.9716 126.668 42.0042 126.607 42.0383C125.761 42.5151 124.356 43.3059 121.97 44.5214L121.776 44.1405C124.154 42.929 125.553 42.1415 126.398 41.6657C126.458 41.6316 126.516 41.599 126.571 41.5681C126.978 41.3392 127.252 41.1877 127.442 41.1083ZM127.754 41.4594C127.753 41.4597 127.751 41.4597 127.748 41.4589C127.752 41.4588 127.754 41.4592 127.754 41.4594Z" fill="white"/>
<path fill-rule="evenodd" clip-rule="evenodd" d="M126.638 41.7773C126.036 43.2948 125.917 43.8407 125.793 44.1396L126.638 41.7773Z" fill="white"/>
<path fill-rule="evenodd" clip-rule="evenodd" d="M125.833 43.3489C125.955 42.9816 126.136 42.4619 126.439 41.6992L126.836 41.8569C126.537 42.6116 126.358 43.1236 126.239 43.4834C126.202 43.5955 126.17 43.6953 126.141 43.7844C126.08 43.9736 126.035 44.1144 125.989 44.2227L125.595 44.058C125.633 43.9666 125.67 43.8524 125.726 43.6788C125.755 43.5872 125.79 43.479 125.833 43.3489Z" fill="white"/>
<path fill-rule="evenodd" clip-rule="evenodd" d="M125.409 42.5234C124.898 43.8225 124.81 44.295 124.704 44.5505L125.409 42.5234Z" fill="white"/>
<path fill-rule="evenodd" clip-rule="evenodd" d="M124.712 43.867C124.812 43.5504 124.963 43.1032 125.221 42.4492L125.599 42.5978C125.345 43.2429 125.197 43.6815 125.099 43.9898C125.069 44.084 125.043 44.1686 125.02 44.2448C124.969 44.4093 124.931 44.534 124.892 44.6289L124.517 44.4724C124.549 44.3963 124.578 44.3014 124.623 44.1543C124.647 44.0753 124.676 43.9813 124.712 43.867Z" fill="white"/>
<path fill-rule="evenodd" clip-rule="evenodd" d="M124.075 43.1836C123.713 44.1262 123.676 44.4787 123.599 44.6635L124.075 43.1836Z" fill="white"/>
<path fill-rule="evenodd" clip-rule="evenodd" d="M123.548 44.1541C123.614 43.9197 123.715 43.5904 123.899 43.1133L124.252 43.2489C124.073 43.7144 123.975 44.0326 123.912 44.2563C123.891 44.3312 123.874 44.3939 123.859 44.4501C123.852 44.4795 123.844 44.5072 123.837 44.5339C123.817 44.6075 123.797 44.675 123.773 44.7338L123.424 44.588C123.438 44.5545 123.452 44.5086 123.472 44.4347C123.478 44.4117 123.485 44.3858 123.493 44.3573C123.508 44.2995 123.526 44.2311 123.548 44.1541Z" fill="white"/>
<path fill-rule="evenodd" clip-rule="evenodd" d="M120.7 31.7989C120.798 31.9758 122.23 29.5371 124.641 31.6901L120.7 31.7989Z" fill="white"/>
<path fill-rule="evenodd" clip-rule="evenodd" d="M120.675 32.1404C120.554 32.1267 120.459 32.0536 120.408 31.9618L120.991 31.6385C120.946 31.5578 120.86 31.4906 120.75 31.4781C120.667 31.4687 120.607 31.4957 120.594 31.502C120.576 31.5101 120.566 31.5175 120.566 31.5176C120.566 31.5176 120.571 31.5141 120.582 31.5047C120.609 31.4818 120.637 31.4552 120.674 31.4197C120.706 31.3902 120.744 31.3544 120.793 31.3093C120.987 31.1312 121.28 30.884 121.66 30.7036C122.045 30.5212 122.521 30.4063 123.075 30.496C123.627 30.5853 124.225 30.8728 124.863 31.4428L124.419 31.9399C123.852 31.4334 123.366 31.2183 122.968 31.1539C122.572 31.0898 122.233 31.1698 121.946 31.3058C121.655 31.4438 121.42 31.6386 121.243 31.8008C121.214 31.8276 121.182 31.8573 121.151 31.8864C121.1 31.9343 121.051 31.9808 121.015 32.0112C120.988 32.0339 120.936 32.078 120.874 32.1069C120.844 32.1208 120.77 32.1511 120.675 32.1404Z" fill="white"/>
<path fill-rule="evenodd" clip-rule="evenodd" d="M121.438 33.8672C121.294 33.9036 122.761 35.3854 120.771 36.6967L121.438 33.8672Z" fill="white"/>
<path fill-rule="evenodd" clip-rule="evenodd" d="M121.326 33.8326C121.342 33.7925 121.375 33.767 121.411 33.7578L121.465 33.973C121.493 33.9661 121.52 33.9457 121.533 33.9134C121.542 33.89 121.539 33.8717 121.538 33.8697C121.538 33.8697 121.538 33.8696 121.538 33.8696C121.538 33.869 121.538 33.8687 121.538 33.8687C121.538 33.8686 121.54 33.8761 121.55 33.8956C121.562 33.921 121.578 33.9507 121.598 33.9877C121.613 34.016 121.631 34.0487 121.651 34.087C121.739 34.255 121.853 34.4962 121.906 34.7818C121.959 35.069 121.951 35.4018 121.796 35.7499C121.641 36.0975 121.343 36.451 120.832 36.7876L120.71 36.6023C121.194 36.2832 121.459 35.9597 121.593 35.6595C121.727 35.3599 121.734 35.0741 121.688 34.8223C121.641 34.5691 121.539 34.351 121.455 34.1899C121.439 34.1596 121.422 34.1295 121.407 34.1013C121.384 34.0589 121.364 34.0207 121.35 33.9917C121.339 33.9685 121.325 33.9378 121.32 33.908C121.317 33.8935 121.314 33.8644 121.326 33.8326Z" fill="white"/>
<path fill-rule="evenodd" clip-rule="evenodd" d="M127.859 41.2834C127.579 41.0828 127.34 45.9706 122.053 44.4209L127.859 41.2834Z" fill="white"/>
<path fill-rule="evenodd" clip-rule="evenodd" d="M127.758 41.0741C127.841 41.0428 127.924 41.0619 127.984 41.1045L127.735 41.4523C127.777 41.4824 127.843 41.4989 127.908 41.4743C127.934 41.4647 127.951 41.4518 127.96 41.4436C127.97 41.4354 127.975 41.4286 127.977 41.4265C127.977 41.4263 127.977 41.4265 127.976 41.4273C127.974 41.4314 127.964 41.4504 127.945 41.4973C127.921 41.5582 127.896 41.6325 127.865 41.7241C127.84 41.7961 127.812 41.8786 127.779 41.9737C127.632 42.3865 127.402 42.9543 127.004 43.4817C126.605 44.0117 126.036 44.5026 125.214 44.7556C124.394 45.008 123.344 45.0171 121.993 44.621L122.113 44.2108C123.406 44.5897 124.368 44.5689 125.088 44.347C125.807 44.1256 126.306 43.6977 126.663 43.2245C127.021 42.7488 127.234 42.2291 127.376 41.8303C127.404 41.7521 127.43 41.6746 127.455 41.6026C127.49 41.4999 127.521 41.4083 127.547 41.3412C127.569 41.2859 127.597 41.2191 127.636 41.1687C127.654 41.1446 127.693 41.0985 127.758 41.0741Z" fill="white"/>
<path fill-rule="evenodd" clip-rule="evenodd" d="M119.814 32.1066C119.832 31.7116 118.42 26.0187 113.145 28.2453L119.814 32.1066Z" fill="white"/>
<path fill-rule="evenodd" clip-rule="evenodd" d="M120.184 31.9084C120.195 31.9727 120.206 32.0542 120.203 32.1243L119.424 32.0883C119.423 32.0947 119.423 32.0983 119.423 32.0983C119.423 32.0983 119.422 32.0808 119.415 32.0384C119.406 31.9875 119.391 31.9171 119.37 31.8301C119.326 31.6563 119.257 31.4252 119.156 31.1627C118.955 30.6354 118.635 29.9985 118.166 29.4446C117.699 28.8926 117.094 28.4329 116.317 28.2312C115.542 28.0301 114.553 28.0743 113.297 28.6045L112.993 27.8854C114.375 27.3024 115.54 27.2232 116.513 27.4756C117.483 27.7274 118.219 28.2982 118.762 28.9405C119.304 29.5809 119.663 30.3021 119.885 30.8837C119.997 31.1757 120.076 31.4368 120.127 31.6413C120.153 31.7433 120.172 31.8336 120.184 31.9084Z" fill="white"/>
<path fill-rule="evenodd" clip-rule="evenodd" d="M120.242 32.1542C120.461 32.0174 122.954 28.6116 119.674 24.9609L120.242 32.1542Z" fill="white"/>
<path fill-rule="evenodd" clip-rule="evenodd" d="M120.428 32.1958C120.399 32.2288 120.362 32.2667 120.327 32.289L120.156 32.016C120.154 32.0171 120.153 32.0178 120.153 32.0177C120.153 32.0175 120.164 32.0087 120.187 31.9826C120.212 31.9539 120.245 31.9126 120.284 31.8589C120.363 31.7518 120.461 31.5995 120.565 31.4077C120.771 31.0242 120.994 30.4876 121.111 29.8447C121.343 28.5655 121.158 26.8526 119.553 25.0667L119.793 24.8516C121.468 26.7163 121.677 28.5317 121.428 29.9022C121.304 30.5842 121.068 31.1529 120.848 31.5605C120.738 31.7644 120.632 31.9291 120.544 32.0487C120.501 32.1084 120.461 32.1578 120.428 32.1958Z" fill="white"/>
<path fill-rule="evenodd" clip-rule="evenodd" d="M121.713 33.3621C121.565 33.1505 118.035 30.8371 114.559 34.3014L121.713 33.3621Z" fill="white"/>
<path fill-rule="evenodd" clip-rule="evenodd" d="M121.86 33.0303C121.894 33.0574 121.953 33.1059 121.994 33.1643L121.433 33.557C121.446 33.5749 121.456 33.5845 121.456 33.5845C121.456 33.5845 121.45 33.5786 121.434 33.5662C121.409 33.5466 121.371 33.5189 121.319 33.4848C121.215 33.417 121.065 33.3303 120.875 33.2404C120.496 33.0603 119.967 32.8719 119.341 32.7914C118.103 32.6323 116.459 32.89 114.801 34.5425L114.318 34.0575C116.136 32.2457 117.995 31.9279 119.428 32.1123C120.138 32.2035 120.736 32.4166 121.169 32.6216C121.385 32.7241 121.562 32.8258 121.694 32.9115C121.759 32.9542 121.815 32.9944 121.86 33.0303Z" fill="white"/>
<path fill-rule="evenodd" clip-rule="evenodd" d="M119.814 32.1074C119.832 31.7124 118.83 31.5404 113.145 28.2461L119.814 32.1074Z" fill="white"/>
<path fill-rule="evenodd" clip-rule="evenodd" d="M119.799 31.4763C119.987 31.6052 120.218 31.7995 120.203 32.1233L119.423 32.0873C119.421 32.1488 119.446 32.1862 119.453 32.1948C119.446 32.1882 119.422 32.1642 119.358 32.1208C119.201 32.0134 118.924 31.864 118.436 31.6073C118.372 31.5735 118.305 31.5382 118.234 31.5011C117.247 30.9828 115.609 30.1226 112.949 28.5816L113.341 27.9062C115.986 29.4392 117.613 30.2936 118.597 30.8102C118.668 30.8473 118.735 30.8827 118.799 30.9164C119.27 31.1638 119.595 31.3374 119.799 31.4763ZM119.454 32.1967C119.454 32.1967 119.454 32.196 119.453 32.1948C119.454 32.1961 119.454 32.1967 119.454 32.1967Z" fill="white"/>
<path fill-rule="evenodd" clip-rule="evenodd" d="M120.242 32.1542C120.461 32.0174 120.157 31.0944 119.674 24.9609L120.242 32.1542Z" fill="white"/>
<path fill-rule="evenodd" clip-rule="evenodd" d="M120.457 32.0909C120.44 32.1656 120.404 32.2402 120.327 32.2878L120.157 32.0148C120.144 32.0229 120.14 32.0319 120.14 32.0319C120.14 32.0319 120.141 32.0281 120.144 32.018C120.151 31.9884 120.155 31.9339 120.153 31.8363C120.148 31.6428 120.116 31.3307 120.061 30.8205C120.054 30.7527 120.046 30.6816 120.038 30.607C119.926 29.5639 119.739 27.8347 119.513 24.9706L119.834 24.9453C120.06 27.8048 120.246 29.5305 120.358 30.5725C120.366 30.6472 120.374 30.7183 120.381 30.7861C120.436 31.2904 120.469 31.6181 120.475 31.8279C120.477 31.9319 120.474 32.0199 120.457 32.0909Z" fill="white"/>
<path fill-rule="evenodd" clip-rule="evenodd" d="M121.713 33.3573C121.565 33.1457 120.659 33.4971 114.559 34.2967L121.713 33.3573Z" fill="white"/>
<path fill-rule="evenodd" clip-rule="evenodd" d="M121.674 32.9735C121.778 32.9919 121.906 33.0409 121.995 33.1674L121.434 33.5601C121.485 33.6337 121.553 33.6473 121.554 33.6476C121.554 33.6477 121.552 33.6472 121.546 33.6467C121.539 33.6462 121.531 33.6458 121.519 33.6457C121.495 33.6455 121.462 33.6467 121.418 33.6502C121.234 33.6645 120.933 33.7107 120.423 33.7923C120.356 33.8031 120.285 33.8145 120.211 33.8264C119.175 33.9928 117.455 34.2689 114.604 34.6426L114.515 33.9637C117.357 33.5912 119.068 33.3163 120.103 33.1502C120.177 33.1383 120.247 33.127 120.315 33.1162C120.812 33.0365 121.147 32.9845 121.365 32.9675C121.472 32.9591 121.579 32.9565 121.674 32.9735Z" fill="white"/>
<path fill-rule="evenodd" clip-rule="evenodd" d="M119.814 32.1074C116.495 27.9677 116.665 29.0759 113.145 28.2461L119.814 32.1074Z" fill="white"/>
<path fill-rule="evenodd" clip-rule="evenodd" d="M116.707 28.5732C117.625 28.962 118.47 29.804 120.118 31.8604L119.509 32.3486C117.839 30.2653 117.11 29.5915 116.403 29.292C116.049 29.1419 115.683 29.0785 115.149 29.0006C115.103 28.9939 115.057 28.9872 115.009 28.9803C114.504 28.9072 113.877 28.8167 113.056 28.623L113.235 27.8633C114.022 28.0488 114.618 28.135 115.122 28.2079C115.169 28.2148 115.216 28.2215 115.262 28.2282C115.79 28.3053 116.249 28.3791 116.707 28.5732Z" fill="white"/>
<path fill-rule="evenodd" clip-rule="evenodd" d="M119.814 32.1074C117.552 30.318 115.717 32.6477 113.145 28.2461L119.814 32.1074Z" fill="white"/>
<path fill-rule="evenodd" clip-rule="evenodd" d="M117.339 30.8568C118.156 30.9429 119.099 31.0424 120.055 31.7991L119.571 32.4112C118.807 31.8071 118.15 31.7358 117.379 31.6523C117.111 31.6233 116.83 31.5929 116.526 31.5381C115.951 31.4345 115.348 31.2382 114.719 30.7642C114.096 30.2949 113.467 29.5696 112.808 28.4407L113.482 28.0469C114.108 29.1187 114.673 29.7528 115.188 30.1406C115.697 30.5236 116.177 30.6821 116.665 30.7699C116.877 30.8082 117.103 30.8319 117.339 30.8568Z" fill="white"/>
<path fill-rule="evenodd" clip-rule="evenodd" d="M119.814 32.1074C119.832 31.7124 113.465 33.8037 113.145 28.2461L119.814 32.1074Z" fill="white"/>
<path fill-rule="evenodd" clip-rule="evenodd" d="M120.015 31.7492C120.117 31.818 120.211 31.9474 120.203 32.1205L119.423 32.0845C119.416 32.2329 119.499 32.3424 119.578 32.3957C119.61 32.4172 119.637 32.4278 119.652 32.4326C119.667 32.4376 119.677 32.4395 119.68 32.4399C119.68 32.44 119.681 32.4401 119.681 32.4401C119.681 32.4401 119.673 32.4392 119.654 32.4388C119.632 32.4385 119.602 32.439 119.564 32.4409C119.456 32.4463 119.319 32.4594 119.147 32.4758C119.06 32.4842 118.964 32.4933 118.859 32.5028C118.253 32.557 117.413 32.6113 116.553 32.4945C115.694 32.3778 114.781 32.086 114.06 31.4205C113.33 30.7474 112.84 29.7334 112.755 28.2636L113.534 28.2188C113.61 29.5277 114.035 30.3364 114.589 30.8467C115.15 31.3645 115.888 31.6165 116.658 31.7211C117.428 31.8256 118.196 31.7784 118.789 31.7253C118.877 31.7174 118.964 31.7091 119.047 31.7012C119.232 31.6835 119.399 31.6675 119.526 31.6613C119.614 31.657 119.719 31.6548 119.81 31.6703C119.852 31.6774 119.935 31.6948 120.015 31.7492Z" fill="white"/>
<path fill-rule="evenodd" clip-rule="evenodd" d="M120.242 32.1542C120.461 32.0174 116.821 27.3807 119.673 24.9609L120.242 32.1542Z" fill="white"/>
<path fill-rule="evenodd" clip-rule="evenodd" d="M120.412 32.1215C120.413 32.1526 120.408 32.2378 120.327 32.2885L120.157 32.0155C120.089 32.0577 120.09 32.1255 120.091 32.1309C120.091 32.1358 120.091 32.1385 120.091 32.1385C120.091 32.1385 120.09 32.1347 120.087 32.1258C120.078 32.096 120.056 32.0471 120.02 31.9754C119.971 31.8798 119.906 31.7594 119.827 31.6148C119.788 31.5446 119.747 31.4687 119.703 31.3871C119.436 30.8936 119.086 30.2167 118.819 29.4654C118.288 27.9738 118.061 26.1156 119.57 24.8359L119.778 25.0814C118.434 26.2216 118.601 27.8916 119.122 29.3575C119.381 30.0849 119.721 30.7441 119.986 31.234C120.028 31.3112 120.068 31.3848 120.106 31.454C120.187 31.602 120.256 31.73 120.307 31.8303C120.344 31.9033 120.375 31.9704 120.393 32.0246C120.402 32.0504 120.411 32.0851 120.412 32.1215Z" fill="white"/>
<path fill-rule="evenodd" clip-rule="evenodd" d="M121.713 33.36C121.565 33.1484 117.123 37.0227 114.559 34.2994L121.713 33.36Z" fill="white"/>
<path fill-rule="evenodd" clip-rule="evenodd" d="M121.66 33.009C121.712 33.0048 121.883 33.0029 121.995 33.1621L121.434 33.5548C121.536 33.7008 121.69 33.6936 121.716 33.6915C121.739 33.6896 121.756 33.685 121.762 33.683C121.762 33.683 121.762 33.6831 121.762 33.6831C121.746 33.6893 121.708 33.7076 121.639 33.747C121.549 33.7987 121.436 33.8681 121.298 33.9533C121.229 33.9955 121.154 34.0416 121.073 34.0913C120.592 34.3845 119.924 34.775 119.174 35.0863C117.698 35.6991 115.75 36.0612 114.311 34.5325L114.809 34.0632C115.934 35.2579 117.489 35.0444 118.912 34.4539C119.612 34.1634 120.243 33.7952 120.716 33.5066C120.789 33.4623 120.859 33.4192 120.926 33.3782C121.071 33.2888 121.199 33.2098 121.3 33.1525C121.371 33.1116 121.447 33.071 121.513 33.045C121.544 33.0331 121.598 33.0141 121.66 33.009ZM121.765 33.6821C121.765 33.6821 121.764 33.6825 121.762 33.683C121.764 33.6823 121.765 33.682 121.765 33.6821Z" fill="white"/>
<path fill-rule="evenodd" clip-rule="evenodd" d="M147.484 39.9295C147.745 39.9295 125.099 38.7647 122.104 32.3125L147.484 39.9295Z" fill="white"/>
<path fill-rule="evenodd" clip-rule="evenodd" d="M147.5 40.5152L147.484 40.5154V39.3444L147.469 39.3446C147.462 39.3449 147.438 39.3463 147.422 39.3479C147.371 39.3558 146.961 39.6708 146.939 40.1403C147.083 40.3547 147.338 40.4964 147.372 40.5041C147.385 40.5065 147.404 40.5095 147.411 40.5103L147.423 40.5118L147.428 40.5123L147.43 40.5124C147.43 40.5124 147.428 40.5123 147.423 40.5119L147.402 40.5105L147.236 40.4994C147.083 40.4893 146.85 40.4735 146.548 40.4511C145.944 40.4064 145.064 40.3353 143.992 40.2297C141.849 40.0188 138.932 39.6696 135.91 39.1169C132.892 38.5651 129.745 37.8062 127.152 36.7686C124.597 35.7463 122.424 34.3935 121.573 32.5594L122.635 32.0664C123.281 33.4584 125.061 34.6708 127.587 35.6815C130.075 36.6771 133.135 37.4192 136.12 37.9651C139.101 38.5101 141.984 38.8554 144.107 39.0644C145.168 39.1689 146.038 39.2392 146.634 39.2834C146.932 39.3055 147.162 39.321 147.313 39.3311L147.482 39.3423C147.499 39.3434 147.516 39.3446 147.528 39.3456L147.544 39.3471L147.559 39.3488C147.566 39.3497 147.586 39.3528 147.599 39.3553C147.633 39.3631 147.889 39.5049 148.032 39.7193C148.011 40.1889 147.601 40.5039 147.55 40.5118C147.543 40.5125 147.534 40.5131 147.526 40.5137C147.515 40.5144 147.505 40.515 147.5 40.5152Z" fill="white"/>
<path fill-rule="evenodd" clip-rule="evenodd" d="M147.483 39.9293C147.745 39.9293 130.713 38.269 127.391 41.7305L147.483 39.9293Z" fill="white"/>
<path fill-rule="evenodd" clip-rule="evenodd" d="M147.545 40.5112C147.514 40.5144 147.489 40.5143 147.484 40.5143V39.3433L147.483 39.3433C147.479 39.3433 147.456 39.3433 147.427 39.3462C147.407 39.3486 147.347 39.3599 147.308 39.371C147.204 39.4159 146.929 39.7505 146.92 40.0758C147.004 40.2596 147.198 40.4375 147.253 40.4653C147.278 40.4755 147.318 40.4889 147.332 40.493C147.355 40.4992 147.373 40.5025 147.377 40.5032L147.377 40.5033C147.385 40.5047 147.391 40.5056 147.393 40.506C147.392 40.5058 147.39 40.5056 147.387 40.5052C147.369 40.503 147.333 40.499 147.279 40.4934C147.171 40.4825 147.003 40.4666 146.781 40.4475C146.339 40.4092 145.686 40.3583 144.885 40.3078C143.282 40.2067 141.087 40.108 138.784 40.1168C136.477 40.1255 134.079 40.2421 132.062 40.5663C131.054 40.7284 130.156 40.94 129.42 41.2087C128.677 41.4801 128.141 41.7942 127.814 42.1354L126.969 41.3246C127.472 40.8004 128.196 40.4092 129.019 40.1088C129.849 39.8058 130.825 39.5792 131.876 39.4102C133.979 39.0721 136.446 38.9547 138.779 38.9459C141.117 38.937 143.338 39.037 144.959 39.1391C145.769 39.1902 146.431 39.2419 146.882 39.2809C147.108 39.3004 147.282 39.3168 147.397 39.3285C147.454 39.3343 147.499 39.3392 147.53 39.3431L147.531 39.3431C147.541 39.3444 147.566 39.3475 147.59 39.3519L147.59 39.3519C147.596 39.353 147.616 39.3566 147.64 39.3632C147.655 39.3674 147.695 39.3811 147.72 39.3914C147.776 39.4192 147.97 39.5972 148.053 39.7812C148.045 40.1066 147.77 40.4412 147.665 40.4862C147.626 40.4974 147.565 40.5088 147.545 40.5112Z" fill="white"/>
<path fill-rule="evenodd" clip-rule="evenodd" d="M117.054 20.3131C117.316 20.3131 101.234 19.4376 96.9614 24.0145L117.054 20.3131Z" fill="white"/>
<path fill-rule="evenodd" clip-rule="evenodd" d="M117.087 20.8935C117.071 20.8942 117.058 20.8942 117.055 20.8942V19.7233L117.055 19.7233C117.053 19.7233 117.042 19.7233 117.028 19.724C117.019 19.7245 116.993 19.7268 116.976 19.729C116.933 19.7366 116.699 19.8461 116.556 20.0081C116.488 20.4441 116.815 20.8412 116.889 20.8692C116.913 20.8759 116.949 20.8838 116.961 20.8859C116.978 20.8887 116.991 20.8901 116.993 20.8903L116.993 20.8903C116.999 20.8909 117.002 20.8912 117.002 20.8912C117.002 20.8911 116.999 20.8909 116.994 20.8906C116.975 20.8894 116.941 20.8873 116.89 20.8848C116.789 20.8796 116.63 20.8726 116.421 20.8652C116.003 20.8504 115.385 20.8342 114.623 20.8289C113.096 20.8184 110.994 20.8518 108.754 21.0268C106.512 21.202 104.148 21.5179 102.092 22.0666C100.016 22.6205 98.3429 23.389 97.3903 24.4096L96.5343 23.6106C97.7178 22.3427 99.6571 21.5044 101.79 20.9352C103.943 20.3608 106.384 20.0374 108.663 19.8594C110.945 19.6811 113.082 19.6474 114.631 19.658C115.405 19.6633 116.034 19.6798 116.463 19.695C116.677 19.7026 116.841 19.7099 116.949 19.7153C117.002 19.718 117.044 19.7204 117.071 19.7222C117.081 19.7229 117.1 19.7241 117.117 19.726L117.118 19.726C117.121 19.7264 117.136 19.728 117.154 19.7309C117.166 19.7331 117.202 19.7411 117.226 19.7478C117.301 19.7759 117.628 20.173 117.56 20.6091C117.417 20.7712 117.182 20.8807 117.14 20.8884C117.123 20.8906 117.096 20.8929 117.087 20.8935Z" fill="white"/>
<path fill-rule="evenodd" clip-rule="evenodd" d="M160.131 55.4209C160.393 55.4209 156.871 52.8087 149.828 50.1172L160.131 55.4209Z" fill="white"/>
<path fill-rule="evenodd" clip-rule="evenodd" d="M160.428 55.9327C160.302 56.0043 160.183 56.0103 160.131 56.0103V54.8394C160.087 54.8394 159.975 54.844 159.853 54.9131C159.701 54.9988 159.594 55.1501 159.566 55.3259C159.544 55.4679 159.58 55.5768 159.597 55.619C159.616 55.6687 159.638 55.7034 159.648 55.7188C159.663 55.7419 159.676 55.7568 159.681 55.7617C159.678 55.7588 159.672 55.7524 159.66 55.7421C159.6 55.6878 159.478 55.5905 159.283 55.4517C158.898 55.1784 158.279 54.7781 157.428 54.2904C155.726 53.316 153.112 52.0031 149.619 50.668L150.037 49.5742C153.586 50.9307 156.255 52.2696 158.009 53.2742C158.886 53.776 159.539 54.1969 159.961 54.4975C160.169 54.6456 160.334 54.7734 160.444 54.8726C160.489 54.9124 160.566 54.9842 160.623 55.0709C160.64 55.0962 160.667 55.1395 160.689 55.1968C160.708 55.2464 160.746 55.3616 160.723 55.5086C160.694 55.6894 160.585 55.8445 160.428 55.9327ZM159.683 55.7634C159.683 55.7634 159.682 55.7628 159.681 55.7617C159.682 55.7628 159.683 55.7634 159.683 55.7634Z" fill="white"/>
<path fill-rule="evenodd" clip-rule="evenodd" d="M60.8644 14.2318C26.2866 24.9444 1.17094 57.1754 1.17094 95.2729C1.17094 142.123 39.1502 180.102 86 180.102C132.85 180.102 170.829 142.123 170.829 95.2729C170.829 86.907 169.618 78.8249 167.362 71.1919L168.485 70.86C170.772 78.5997 172 86.7935 172 95.2729C172 142.769 133.497 181.273 86 181.273C38.5035 181.273 0 142.769 0 95.2729C0 56.6477 25.4639 23.9735 60.5179 13.1133L60.8644 14.2318Z" fill="white"/>
<path fill-rule="evenodd" clip-rule="evenodd" d="M19.4473 75.9072C19.4473 75.6018 19.5428 75.2676 19.7335 74.9052C19.9245 74.5424 20.1631 74.1894 20.4492 73.8457C20.7354 73.5022 21.0408 73.2161 21.3652 72.9873C21.6899 72.758 22.0048 72.6436 22.3102 72.6436C22.73 72.6436 23.1593 72.8536 23.5984 73.2734C24.037 73.6932 24.4093 74.0557 24.7147 74.3611C25.3256 75.0101 25.8693 75.6874 26.3465 76.3938C26.8237 77.0998 27.2911 77.8345 27.7494 78.5979C29.9248 82.2242 31.7284 86.0125 33.16 89.9631C34.5913 93.9137 35.7458 97.9504 36.624 102.073C36.929 101.042 37.3394 100.05 37.8547 99.0955C38.3701 98.1411 38.8949 97.187 39.4295 96.2326C40.4216 94.4004 41.4237 92.5969 42.4351 90.822C43.4466 89.0472 44.4678 87.2625 45.4985 85.4688C46.6436 83.4837 47.8076 81.4514 48.9908 79.3711C50.1743 77.2909 51.3957 75.2963 52.6552 73.3878C52.7696 73.1971 52.913 72.9775 53.0849 72.7294C53.2566 72.4813 53.4473 72.2333 53.6572 71.9852C53.8671 71.7368 54.077 71.5269 54.287 71.3551C54.4968 71.1837 54.7166 71.0977 54.9454 71.0977C55.3652 71.0977 55.7661 71.26 56.1478 71.5843C56.5296 71.9086 56.7202 72.2809 56.7202 72.7007C56.7202 72.8917 56.6538 73.0729 56.5201 73.2447C56.3864 73.4166 56.2622 73.5789 56.1478 73.7313C55.0409 75.1056 54.0582 76.5656 53.1993 78.1112C52.3404 79.6573 51.472 81.1935 50.5942 82.7203C48.9526 85.5451 47.3496 88.3793 45.7846 91.2229C44.2198 94.0666 42.6737 96.9197 41.1469 99.7826C40.8415 100.355 40.4979 100.985 40.1162 101.672C39.7345 102.359 39.3529 103.065 38.9712 103.79C38.5894 104.515 38.2364 105.231 37.9122 105.937C37.5875 106.644 37.3492 107.283 37.1963 107.856C37.0438 108.352 36.9389 108.819 36.8814 109.258C36.824 109.697 36.7191 110.069 36.5666 110.375C36.414 110.68 36.1754 110.928 35.8507 111.119C35.5265 111.31 35.0206 111.405 34.3338 111.405C33.8755 111.405 33.5319 111.291 33.3031 111.062C33.0739 110.833 32.9022 110.546 32.7878 110.203C32.6734 109.859 32.6066 109.497 32.5873 109.115C32.5684 108.733 32.5205 108.39 32.4442 108.084C31.7571 103.809 30.6407 99.5153 29.0946 95.2022C27.549 90.8889 25.8024 86.7857 23.8558 82.8921C23.3979 82.0143 22.9207 81.1173 22.4246 80.2013C21.9285 79.285 21.3557 78.4454 20.7068 77.682C20.5161 77.4914 20.2582 77.2146 19.934 76.8518C19.6096 76.4893 19.4473 76.1745 19.4473 75.9072ZM158.765 98.9573C158.765 98.1097 158.408 97.6857 157.694 97.6857C157.204 97.6857 156.824 97.8752 156.557 98.2547C156.289 98.6338 156.044 99.0019 155.82 99.359C155.419 99.9835 154.816 100.809 154.013 101.835C153.21 102.861 152.34 103.854 151.403 104.813C150.466 105.773 149.507 106.609 148.525 107.323C147.544 108.037 146.652 108.394 145.849 108.394C145.313 108.394 144.9 108.115 144.61 107.557C144.32 106.999 144.109 106.353 143.975 105.616C143.841 104.88 143.763 104.155 143.741 103.441C143.718 102.727 143.707 102.192 143.707 101.835C143.707 100.675 143.785 99.4372 143.941 98.1207C144.097 96.8046 144.354 95.5666 144.711 94.4064C144.889 93.9156 145.135 93.2689 145.447 92.4658C145.759 91.6624 145.915 91.0157 145.915 90.5248C145.915 90.0786 145.748 89.7887 145.413 89.655C145.079 89.521 144.733 89.4542 144.376 89.4542C143.751 89.4542 143.272 89.6659 142.937 90.09C142.603 90.5136 142.324 90.9712 142.101 91.462C141.878 91.9078 141.554 92.5885 141.131 93.5029C140.707 94.4177 140.204 95.4103 139.625 96.481C139.045 97.5521 138.431 98.6564 137.784 99.794C137.137 100.932 136.479 101.958 135.81 102.872C135.14 103.787 134.494 104.546 133.869 105.148C133.244 105.75 132.687 106.051 132.196 106.051C131.794 106.051 131.549 105.85 131.46 105.449C131.371 105.047 131.326 104.713 131.326 104.445C131.326 101.902 131.839 99.5262 132.865 97.3176C133.892 95.1094 135.274 93.1126 137.015 91.3279C137.996 90.3017 139.033 89.3983 140.127 88.6175C141.22 87.8368 142.369 87.0892 143.573 86.3757C143.751 86.2862 143.908 86.1858 144.042 86.0744C144.175 85.9626 144.242 85.7954 144.242 85.5723C144.242 85.0814 143.997 84.6133 143.506 84.1671C143.016 83.7208 142.525 83.4977 142.034 83.4977C140.071 83.4977 138.186 84.1671 136.379 85.5055C134.572 86.8438 132.965 88.5062 131.56 90.4913C130.155 92.4768 129.028 94.5849 128.18 96.8159C128.115 96.9888 128.051 97.1606 127.991 97.3304C127.775 97.6593 127.592 97.9564 127.441 98.2211C127.084 98.9351 126.571 99.8049 125.901 100.831C125.232 101.857 124.474 102.85 123.626 103.809C122.778 104.768 121.897 105.594 120.983 106.285C120.068 106.977 119.164 107.323 118.272 107.323C117.736 107.323 117.324 107.189 117.034 106.921C116.744 106.654 116.532 106.319 116.398 105.917C116.264 105.516 116.186 105.081 116.164 104.612C116.141 104.144 116.13 103.709 116.13 103.307C116.13 101.746 116.175 100.184 116.264 98.6224C116.353 97.0609 116.398 95.4994 116.398 93.9379C116.398 93.4471 116.376 92.8449 116.331 92.1309C116.287 91.4171 116.164 90.7031 115.963 89.9892C115.762 89.2752 115.461 88.673 115.06 88.1822C114.658 87.6915 114.123 87.446 113.453 87.446C112.606 87.446 111.613 87.9369 110.475 88.9184C109.338 89.9001 108.211 91.0376 107.095 92.3318C105.98 93.6257 104.943 94.9417 103.983 96.2801C103.024 97.6186 102.299 98.6447 101.808 99.3586C101.987 98.0648 102.21 96.7709 102.478 95.4771C102.745 94.1833 103.125 92.9117 103.616 91.6624C104.017 90.5917 104.407 89.4205 104.787 88.149C105.166 86.8774 105.355 85.6613 105.355 84.5015C105.355 83.7877 105.21 83.2299 104.92 82.8283C104.63 82.4266 104.106 82.2261 103.347 82.2261C102.5 82.2261 101.686 82.5606 100.905 83.2299C100.124 83.899 99.6446 84.6352 99.466 85.4382C99.2429 86.4644 99.0421 87.5132 98.8639 88.5839C98.6853 89.6547 98.4844 90.7031 98.2612 91.7293C97.9272 93.3338 97.5904 94.9712 97.2506 96.6426C97.2124 96.6864 97.1751 96.7328 97.1385 96.7823C96.8262 97.2059 96.5586 97.574 96.3355 97.8866C95.9337 98.511 95.287 99.3477 94.3945 100.396C93.5023 101.445 92.5208 102.471 91.45 103.475C90.3793 104.478 89.3082 105.349 88.2375 106.085C87.1668 106.821 86.2298 107.167 85.4267 107.122C85.962 106.364 86.3524 105.538 86.5978 104.646C86.8432 103.754 86.966 102.861 86.966 101.969C86.966 100.541 86.7428 99.1359 86.2965 97.7526C85.8507 96.3696 85.2927 95.0199 84.6237 93.7037C83.9543 92.3873 83.2626 91.0825 82.5491 89.7887C81.8351 88.4948 81.2103 87.201 80.675 85.9068C81.0767 84.8806 81.4334 83.7989 81.7457 82.6611C82.0583 81.5235 82.2142 80.3969 82.2142 79.2812C82.2142 78.9245 82.181 78.5451 82.1138 78.1437C82.047 77.742 81.9356 77.3517 81.7793 76.9726C81.6229 76.5931 81.4002 76.2809 81.1099 76.0355C80.8199 75.7901 80.4741 75.6674 80.0727 75.6674C79.2697 75.6674 78.5558 75.9574 77.931 76.5373C77.3065 77.1175 76.7935 77.8088 76.3917 78.6122C75.9904 79.4152 75.6781 80.2629 75.455 81.1554C75.2319 82.0476 75.1202 82.8283 75.1202 83.4977C75.1202 84.7024 75.321 85.8845 75.7227 87.0447C74.0747 93.0378 70.4673 97.916 66.9037 102.371C66.0116 103.486 65.0299 104.479 63.9588 105.349C62.8881 106.219 61.7284 106.933 60.479 107.49C59.2297 108.048 57.8909 108.327 56.4635 108.327C54.902 108.327 53.7863 107.892 53.1173 107.022C52.448 106.141 52.1135 104.947 52.1135 103.43C52.1135 102.583 52.2248 101.635 52.448 100.608C53.4741 100.251 54.5894 99.5821 55.7941 98.6006C56.9988 97.608 58.1254 96.4814 59.1739 95.2098C60.2223 93.927 61.0926 92.6108 61.7838 91.2498C62.4754 89.8891 62.8213 88.6398 62.8213 87.5245C62.8213 86.3644 62.4977 85.3941 61.851 84.6356C61.2039 83.8771 60.2782 83.4977 59.0734 83.4977C57.2888 83.4977 55.6491 84.1893 54.1544 85.5727C52.6597 86.9556 51.3772 88.6398 50.3065 90.6253C49.2354 92.6108 48.4101 94.674 47.8302 96.8159C47.2503 98.9573 46.96 100.787 46.96 102.304C46.96 103.508 47.094 104.657 47.3617 105.75C47.6293 106.843 48.0643 107.803 48.6668 108.628C49.2691 109.453 50.0389 110.123 50.9755 110.636C51.9125 111.149 53.0501 111.405 54.3889 111.405C56.2181 111.405 57.9804 111.104 59.676 110.491C61.3711 109.877 62.955 109.052 64.4274 108.015C65.8998 106.977 67.2495 105.761 68.4765 104.378C71.5588 100.903 74.3213 96.9178 76.1577 92.6327C76.6262 91.5397 77.0166 90.5471 77.3288 89.6547C77.8641 90.4577 78.4108 91.406 78.9684 92.4991C79.526 93.592 80.0282 94.7186 80.4741 95.8788C80.9204 97.0386 81.2884 98.1988 81.5784 99.3586C81.8684 100.519 82.0137 101.612 82.0137 102.638C82.0137 104.334 81.5561 105.728 80.6417 106.821C79.727 107.914 78.3772 108.46 76.5925 108.46C75.7004 108.46 74.8747 108.371 74.1163 108.193C73.3578 108.015 72.5993 107.68 71.8408 107.189C71.618 107.055 71.4281 106.943 71.2722 106.854C71.1159 106.765 70.9042 106.721 70.6365 106.721C69.9225 106.721 69.5654 107.055 69.5654 107.724C69.5654 108.037 69.6326 108.305 69.7662 108.528C69.9002 108.751 70.0784 108.974 70.3016 109.197C71.2832 110.134 72.5215 110.736 74.0158 111.004C75.5105 111.271 76.9048 111.405 78.1986 111.405C80.6082 111.405 82.8054 111.126 84.7909 110.569C86.7764 110.011 88.5833 109.197 90.2117 108.126C91.8404 107.055 93.346 105.739 94.7294 104.177C95.1817 103.667 95.6264 103.135 96.0643 102.581C95.4765 105.777 95.1828 108.897 95.1828 111.941C95.1828 112.387 95.2945 112.777 95.5177 113.112C95.7404 113.446 96.0976 113.614 96.5884 113.614C97.2129 113.614 97.7596 113.391 98.2281 112.944C98.6966 112.498 99.0647 112.007 99.3324 111.472C100.091 109.777 100.872 108.115 101.675 106.486C102.478 104.858 103.37 103.263 104.351 101.701C105.155 100.407 106.047 99.0464 107.029 97.6186C108.01 96.191 109.059 94.9417 110.174 93.871C110.352 93.6925 110.598 93.4694 110.91 93.2016C111.223 92.9339 111.49 92.7999 111.713 92.7999C111.981 92.7999 112.148 92.9785 112.215 93.3357C112.282 93.6925 112.316 93.9602 112.316 94.1387C112.316 95.4326 112.271 96.7041 112.182 97.9534C112.093 99.2027 112.048 100.474 112.048 101.768C112.048 102.616 112.081 103.553 112.148 104.579C112.215 105.605 112.416 106.564 112.751 107.457C113.085 108.349 113.576 109.096 114.223 109.699C114.87 110.301 115.773 110.602 116.933 110.602C118.183 110.602 119.466 110.201 120.782 109.397C122.098 108.594 123.347 107.613 124.53 106.453C125.41 105.589 126.216 104.682 126.947 103.732C126.975 104.102 127.018 104.496 127.076 104.914C127.188 105.717 127.388 106.475 127.679 107.189C127.969 107.903 128.381 108.505 128.917 108.996C129.452 109.487 130.121 109.732 130.924 109.732C131.817 109.732 132.72 109.397 133.635 108.728C134.55 108.059 135.431 107.256 136.278 106.319C137.126 105.382 137.896 104.412 138.587 103.408C139.279 102.404 139.848 101.568 140.294 100.898C140.249 101.701 140.272 102.694 140.361 103.876C140.45 105.059 140.673 106.196 141.03 107.29C141.387 108.383 141.9 109.32 142.569 110.101C143.238 110.881 144.131 111.272 145.246 111.272C146.406 111.272 147.577 110.937 148.76 110.268C149.942 109.598 151.058 108.773 152.106 107.791C153.155 106.81 154.125 105.761 155.017 104.646C155.909 103.53 156.668 102.549 157.293 101.701C157.516 101.345 157.817 100.898 158.196 100.363C158.575 99.8275 158.765 99.359 158.765 98.9573ZM58.7389 86.5761C59.1852 86.5761 59.4861 86.7438 59.6424 87.0783C59.7987 87.4128 59.8764 87.77 59.8764 88.1268C59.8764 89.0192 59.631 89.9559 59.1403 90.9153C58.6495 91.8856 58.0473 92.8226 57.3333 93.7483C56.6194 94.6631 55.8386 95.4998 54.9911 96.2359C54.1435 96.9718 53.3627 97.5744 52.6488 98.0206C52.7379 97.4404 52.9833 96.5037 53.385 95.2321C53.7863 93.9492 54.2771 92.6667 54.8574 91.3948C55.4373 90.1123 56.0617 88.9857 56.7312 88.0263C57.4005 87.056 58.0695 86.5761 58.7389 86.5761Z" fill="white"/>
<path d="M46.5933 135.404V140.406H46.0384V135.88H43.9903L43.9024 137.752C43.8654 138.446 43.7961 138.976 43.6944 139.343C43.5927 139.707 43.4416 139.975 43.2413 140.147C43.0409 140.32 42.7743 140.406 42.4414 140.406H42.2288V139.916L42.3998 139.907C42.7173 139.901 42.9454 139.747 43.0841 139.445C43.2228 139.143 43.3137 138.603 43.3569 137.826L43.4586 135.404H46.5933Z" fill="white"/>
<path d="M51.2398 140.406C51.1843 140.249 51.1488 140.016 51.1334 139.708C50.9393 139.961 50.6911 140.157 50.3891 140.295C50.0901 140.431 49.7726 140.499 49.4366 140.499C48.9558 140.499 48.5659 140.365 48.2669 140.096C47.971 139.828 47.8231 139.489 47.8231 139.079C47.8231 138.592 48.025 138.207 48.4287 137.923C48.8356 137.64 49.4012 137.498 50.1255 137.498H51.1288V136.929C51.1288 136.572 51.0179 136.291 50.7959 136.088C50.5771 135.881 50.2565 135.778 49.8343 135.778C49.449 135.778 49.13 135.877 48.8772 136.074C48.6245 136.271 48.4981 136.509 48.4981 136.786L47.9433 136.781C47.9433 136.384 48.1282 136.04 48.4981 135.75C48.868 135.458 49.3226 135.311 49.862 135.311C50.4199 135.311 50.8591 135.451 51.1797 135.732C51.5033 136.009 51.6698 136.398 51.679 136.897V139.264C51.679 139.748 51.7299 140.11 51.8316 140.351V140.406H51.2398ZM49.5014 140.009C49.8712 140.009 50.2011 139.919 50.4908 139.74C50.7836 139.562 50.9963 139.323 51.1288 139.024V137.923H50.1394C49.5877 137.93 49.1562 138.031 48.8449 138.229C48.5335 138.423 48.3779 138.691 48.3779 139.033C48.3779 139.314 48.4811 139.546 48.6877 139.731C48.8973 139.916 49.1685 140.009 49.5014 140.009Z" fill="white"/>
<path d="M57.0005 140.406H56.4457V138.113H53.7503V140.406H53.1955V135.404H53.7503V137.646H56.4457V135.404H57.0005V140.406Z" fill="white"/>
<path d="M58.3691 139.939L58.6141 139.62C59.0025 139.093 59.2259 138.323 59.2845 137.309L59.3723 135.404H62.3267V139.939H62.8445V141.876H62.2943V140.406H58.5355V141.876H58.0038L58.0084 139.939H58.3691ZM59.0071 139.939H61.7719V135.922H59.8994L59.8393 137.221C59.7838 138.414 59.5064 139.32 59.0071 139.939Z" fill="white"/>
<path d="M64.5043 135.404V139.939H66.7282V135.404H67.283V139.939H69.4884V135.404H70.0432V140.406H63.9495V135.404H64.5043Z" fill="white"/>
<path d="M74.588 140.406C74.5325 140.249 74.497 140.016 74.4816 139.708C74.2875 139.961 74.0393 140.157 73.7373 140.295C73.4383 140.431 73.1208 140.499 72.7848 140.499C72.304 140.499 71.9141 140.365 71.6151 140.096C71.3192 139.828 71.1713 139.489 71.1713 139.079C71.1713 138.592 71.3732 138.207 71.7769 137.923C72.1838 137.64 72.7494 137.498 73.4737 137.498H74.477V136.929C74.477 136.572 74.3661 136.291 74.1441 136.088C73.9253 135.881 73.6047 135.778 73.1825 135.778C72.7972 135.778 72.4782 135.877 72.2254 136.074C71.9727 136.271 71.8463 136.509 71.8463 136.786L71.2915 136.781C71.2915 136.384 71.4764 136.04 71.8463 135.75C72.2162 135.458 72.6708 135.311 73.2102 135.311C73.7681 135.311 74.2073 135.451 74.5279 135.732C74.8515 136.009 75.018 136.398 75.0272 136.897V139.264C75.0272 139.748 75.0781 140.11 75.1798 140.351V140.406H74.588ZM72.8496 140.009C73.2194 140.009 73.5492 139.919 73.839 139.74C74.1318 139.562 74.3445 139.323 74.477 139.024V137.923H73.4876C72.9359 137.93 72.5044 138.031 72.1931 138.229C71.8817 138.423 71.7261 138.691 71.7261 139.033C71.7261 139.314 71.8293 139.546 72.0359 139.731C72.2454 139.916 72.5167 140.009 72.8496 140.009Z" fill="white"/>
<path d="M76.2986 137.947C76.2986 137.133 76.4574 136.49 76.7748 136.019C77.0954 135.547 77.5377 135.311 78.1018 135.311C78.4254 135.311 78.6997 135.384 78.9247 135.529V133.305H79.4749V135.547C79.703 135.39 79.9866 135.311 80.3256 135.311C80.8589 135.311 81.2857 135.525 81.6063 135.954C81.9269 136.382 82.101 136.979 82.1287 137.743L82.1334 138.044C82.1334 138.805 81.9731 139.406 81.6525 139.847C81.332 140.284 80.8928 140.503 80.3349 140.503C80.002 140.503 79.7153 140.431 79.4749 140.286V142.33H78.9247V140.291C78.6874 140.432 78.41 140.503 78.0925 140.503C77.5654 140.503 77.1432 140.305 76.8257 139.907C76.5082 139.506 76.3341 138.953 76.3033 138.247L76.2986 137.947ZM81.5832 137.947C81.5832 137.275 81.4614 136.746 81.2179 136.361C80.9775 135.975 80.64 135.783 80.2054 135.783C79.891 135.783 79.6475 135.851 79.4749 135.986V139.856C79.6691 139.976 79.9157 140.036 80.2147 140.036C80.6462 140.036 80.9821 139.864 81.2226 139.519C81.463 139.17 81.5832 138.646 81.5832 137.947ZM76.8534 138.044C76.8534 138.672 76.969 139.163 77.2002 139.514C77.4314 139.862 77.7643 140.036 78.1989 140.036C78.4886 140.036 78.7305 139.973 78.9247 139.847V135.972C78.746 135.846 78.5071 135.783 78.2081 135.783C77.7766 135.783 77.4422 135.975 77.2048 136.361C76.9706 136.743 76.8534 137.304 76.8534 138.044Z" fill="white"/>
<path d="M86.5903 135.875H84.7687V140.406H84.2139V135.875H82.4616V135.404H86.5903V135.875Z" fill="white"/>
<path d="M91.3432 140.406H90.7884V138.113H88.0929V140.406H87.5381V135.404H88.0929V137.646H90.7884V135.404H91.3432V140.406Z" fill="white"/>
<path d="M95.9851 140.406C95.9296 140.249 95.8942 140.016 95.8788 139.708C95.6846 139.961 95.4365 140.157 95.1344 140.295C94.8354 140.431 94.5179 140.499 94.182 140.499C93.7011 140.499 93.3112 140.365 93.0122 140.096C92.7163 139.828 92.5684 139.489 92.5684 139.079C92.5684 138.592 92.7703 138.207 93.1741 137.923C93.5809 137.64 94.1465 137.498 94.8709 137.498H95.8741V136.929C95.8741 136.572 95.7632 136.291 95.5412 136.088C95.3224 135.881 95.0019 135.778 94.5796 135.778C94.1943 135.778 93.8753 135.877 93.6225 136.074C93.3698 136.271 93.2434 136.509 93.2434 136.786L92.6886 136.781C92.6886 136.384 92.8735 136.04 93.2434 135.75C93.6133 135.458 94.0679 135.311 94.6073 135.311C95.1652 135.311 95.6044 135.451 95.925 135.732C96.2486 136.009 96.4151 136.398 96.4243 136.897V139.264C96.4243 139.748 96.4752 140.11 96.5769 140.351V140.406H95.9851ZM94.2467 140.009C94.6166 140.009 94.9464 139.919 95.2361 139.74C95.5289 139.562 95.7416 139.323 95.8741 139.024V137.923H94.8847C94.333 137.93 93.9015 138.031 93.5902 138.229C93.2789 138.423 93.1232 138.691 93.1232 139.033C93.1232 139.314 93.2265 139.546 93.433 139.731C93.6426 139.916 93.9138 140.009 94.2467 140.009Z" fill="white"/>
<path d="M101.552 135.404V140.406H100.997V138.39H99.4434L98.2228 140.406H97.6125L98.8701 138.321C98.528 138.232 98.2613 138.059 98.0702 137.803C97.8822 137.547 97.7882 137.245 97.7882 136.897C97.7882 136.444 97.95 136.082 98.2737 135.811C98.6004 135.539 99.0412 135.404 99.596 135.404H101.552ZM98.343 136.906C98.343 137.199 98.4355 137.44 98.6204 137.628C98.8085 137.816 99.0689 137.913 99.4018 137.919H100.997V135.875H99.5821C99.1968 135.875 98.8932 135.968 98.6713 136.153C98.4524 136.338 98.343 136.589 98.343 136.906Z" fill="white"/>
<path d="M107.197 140.032C107.582 140.032 107.904 139.924 108.163 139.708C108.425 139.489 108.567 139.207 108.588 138.862H109.12C109.105 139.167 109.009 139.446 108.834 139.699C108.658 139.949 108.424 140.144 108.131 140.286C107.841 140.428 107.53 140.499 107.197 140.499C106.54 140.499 106.019 140.271 105.634 139.814C105.252 139.358 105.061 138.745 105.061 137.974V137.808C105.061 137.315 105.147 136.879 105.32 136.499C105.492 136.12 105.739 135.828 106.059 135.621C106.383 135.415 106.761 135.311 107.192 135.311C107.741 135.311 108.192 135.475 108.547 135.801C108.904 136.128 109.096 136.558 109.12 137.091H108.588C108.564 136.7 108.422 136.384 108.163 136.143C107.907 135.903 107.584 135.783 107.192 135.783C106.693 135.783 106.305 135.963 106.027 136.324C105.753 136.684 105.616 137.19 105.616 137.84V138.002C105.616 138.64 105.753 139.138 106.027 139.495C106.305 139.853 106.694 140.032 107.197 140.032Z" fill="white"/>
<path d="M113.822 135.875H112.001V140.406H111.446V135.875H109.693V135.404H113.822V135.875Z" fill="white"/>
<path d="M116.374 139.611L117.835 135.404H118.432L116.296 141.257L116.185 141.516C115.91 142.123 115.487 142.427 114.913 142.427C114.781 142.427 114.639 142.405 114.488 142.362L114.483 141.904L114.77 141.932C115.041 141.932 115.26 141.864 115.427 141.729C115.596 141.596 115.739 141.366 115.856 141.04L116.102 140.365L114.215 135.404H114.821L116.374 139.611Z" fill="white"/>
<path d="M118.917 139.939L119.162 139.62C119.551 139.093 119.774 138.323 119.833 137.309L119.92 135.404H122.875V139.939H123.393V141.876H122.842V140.406H119.084V141.876H118.552L118.557 139.939H118.917ZM119.555 139.939H122.32V135.922H120.448L120.387 137.221C120.332 138.414 120.055 139.32 119.555 139.939Z" fill="white"/>
<path d="M127.748 135.404H128.303V140.406H127.748V136.296L125.048 140.406H124.498V135.404H125.048V139.519L127.748 135.404Z" fill="white"/>
<path d="M133.435 135.404V140.406H132.88V138.39H131.326L130.106 140.406H129.496L130.753 138.321C130.411 138.232 130.144 138.059 129.953 137.803C129.765 137.547 129.671 137.245 129.671 136.897C129.671 136.444 129.833 136.082 130.157 135.811C130.483 135.539 130.924 135.404 131.479 135.404H133.435ZM130.226 136.906C130.226 137.199 130.319 137.44 130.503 137.628C130.691 137.816 130.952 137.913 131.285 137.919H132.88V135.875H131.465C131.08 135.875 130.776 135.968 130.554 136.153C130.335 136.338 130.226 136.589 130.226 136.906Z" fill="white"/>
<path d="M50.4353 147.447L52.9181 153.388L55.4101 147.447H56.1683V154.179H55.5996V151.248L55.6459 148.242L53.14 154.179H52.7008L50.2041 148.266L50.2504 151.229V154.179H49.6817V147.447H50.4353Z" fill="white"/>
<path d="M60.9027 154.179C60.8472 154.022 60.8118 153.789 60.7964 153.481C60.6022 153.734 60.354 153.929 60.052 154.068C59.753 154.204 59.4355 154.271 59.0996 154.271C58.6187 154.271 58.2288 154.137 57.9298 153.869C57.6339 153.601 57.486 153.262 57.486 152.852C57.486 152.365 57.6879 151.98 58.0917 151.696C58.4985 151.413 59.0641 151.271 59.7885 151.271H60.7917V150.702C60.7917 150.345 60.6808 150.064 60.4588 149.861C60.24 149.654 59.9194 149.551 59.4972 149.551C59.1119 149.551 58.7929 149.65 58.5401 149.847C58.2874 150.044 58.161 150.281 58.161 150.559L57.6062 150.554C57.6062 150.157 57.7911 149.813 58.161 149.523C58.5309 149.23 58.9855 149.084 59.5249 149.084C60.0828 149.084 60.522 149.224 60.8426 149.505C61.1662 149.782 61.3327 150.17 61.3419 150.67V153.037C61.3419 153.521 61.3928 153.883 61.4945 154.123V154.179H60.9027ZM59.1643 153.781C59.5342 153.781 59.864 153.692 60.1537 153.513C60.4465 153.334 60.6592 153.096 60.7917 152.797V151.696H59.8023C59.2506 151.702 58.8191 151.804 58.5078 152.001C58.1965 152.196 58.0408 152.464 58.0408 152.806C58.0408 153.086 58.1441 153.319 58.3506 153.504C58.5602 153.689 58.8314 153.781 59.1643 153.781Z" fill="white"/>
<path d="M66.8438 151.729C66.8438 152.508 66.6712 153.128 66.3259 153.587C65.9807 154.043 65.5184 154.271 64.9389 154.271C64.2547 154.271 63.7307 154.031 63.367 153.55V156.102H62.8168V149.176H63.33L63.3577 149.884C63.7183 149.351 64.2408 149.084 64.9251 149.084C65.523 149.084 65.9915 149.31 66.3306 149.764C66.6727 150.217 66.8438 150.845 66.8438 151.65V151.729ZM66.289 151.631C66.289 150.993 66.158 150.489 65.896 150.12C65.634 149.75 65.2687 149.565 64.8002 149.565C64.4612 149.565 64.1699 149.646 63.9264 149.81C63.6829 149.973 63.4964 150.211 63.367 150.522V152.921C63.4995 153.208 63.6891 153.427 63.9356 153.578C64.1822 153.729 64.4735 153.804 64.8095 153.804C65.2749 153.804 65.6371 153.62 65.896 153.25C66.158 152.877 66.289 152.337 66.289 151.631Z" fill="white"/>
<path d="M71.3608 149.176H71.9156V154.179H71.3608V150.069L68.6608 154.179H68.1106V149.176H68.6608V153.291L71.3608 149.176Z" fill="white"/>
<path d="M77.2418 154.179H76.687V151.886H73.9916V154.179H73.4367V149.176H73.9916V151.419H76.687V149.176H77.2418V154.179Z" fill="white"/>
<path d="M79.3362 150.993H80.7787C81.1486 150.993 81.4722 151.061 81.7496 151.197C82.0301 151.329 82.2412 151.514 82.383 151.752C82.5279 151.989 82.6003 152.265 82.6003 152.579C82.6003 153.063 82.4339 153.452 82.101 153.744C81.7712 154.034 81.3243 154.179 80.7602 154.179H78.786V149.176H79.3362V150.993ZM79.3362 151.465V153.712H80.7695C81.1671 153.712 81.4784 153.612 81.7034 153.411C81.9315 153.211 82.0455 152.937 82.0455 152.588C82.0455 152.256 81.9346 151.987 81.7126 151.784C81.4938 151.578 81.1933 151.471 80.8111 151.465H79.3362ZM84.2971 154.179H83.7423V149.176H84.2971V154.179Z" fill="white"/>
<path d="M89.7851 151.021H88.8604V154.179H88.2917V147.447H88.8604V150.536H89.7574L92.3603 147.447H93.077L90.3122 150.758L93.2804 154.179H92.573L89.7851 151.021Z" fill="white"/>
<path d="M98.098 151.729C98.098 152.508 97.9254 153.128 97.5802 153.587C97.235 154.043 96.7726 154.271 96.1931 154.271C95.5089 154.271 94.9849 154.031 94.6212 153.55V156.102H94.071V149.176H94.5842L94.6119 149.884C94.9726 149.351 95.495 149.084 96.1793 149.084C96.7772 149.084 97.2457 149.31 97.5848 149.764C97.9269 150.217 98.098 150.845 98.098 151.65V151.729ZM97.5432 151.631C97.5432 150.993 97.4122 150.489 97.1502 150.12C96.8882 149.75 96.5229 149.565 96.0544 149.565C95.7154 149.565 95.4241 149.646 95.1806 149.81C94.9371 149.973 94.7506 150.211 94.6212 150.522V152.921C94.7537 153.208 94.9433 153.427 95.1899 153.578C95.4365 153.729 95.7277 153.804 96.0637 153.804C96.5291 153.804 96.8913 153.62 97.1502 153.25C97.4122 152.877 97.5432 152.337 97.5432 151.631Z" fill="white"/>
<path d="M99.0227 151.604C99.0227 151.123 99.1151 150.69 99.3001 150.305C99.4881 149.919 99.7516 149.62 100.091 149.408C100.433 149.192 100.82 149.084 101.251 149.084C101.917 149.084 102.456 149.318 102.869 149.787C103.282 150.252 103.489 150.87 103.489 151.641V151.756C103.489 152.24 103.395 152.676 103.207 153.065C103.022 153.45 102.76 153.747 102.421 153.957C102.082 154.167 101.695 154.271 101.26 154.271C100.598 154.271 100.058 154.039 99.6422 153.573C99.2292 153.105 99.0227 152.485 99.0227 151.715V151.604ZM99.5775 151.756C99.5775 152.354 99.7316 152.846 100.04 153.231C100.351 153.613 100.758 153.804 101.26 153.804C101.76 153.804 102.164 153.613 102.472 153.231C102.783 152.846 102.939 152.339 102.939 151.71V151.604C102.939 151.222 102.868 150.872 102.726 150.554C102.584 150.237 102.385 149.992 102.13 149.819C101.874 149.643 101.581 149.556 101.251 149.556C100.758 149.556 100.356 149.75 100.044 150.138C99.7331 150.523 99.5775 151.029 99.5775 151.655V151.756Z" fill="white"/>
<path d="M106.106 151.206L107.456 149.176H108.112L106.415 151.631L108.186 154.179H107.534L106.11 152.061L104.686 154.179H104.034L105.801 151.631L104.104 149.176H104.756L106.106 151.206Z" fill="white"/>
<path d="M112.426 149.176H112.981V154.179H112.426V150.069L109.726 154.179H109.176V149.176H109.726V153.291L112.426 149.176Z" fill="white"/>
<path d="M118.307 154.179H117.752V151.886H115.057V154.179H114.502V149.176H115.057V151.419H117.752V149.176H118.307V154.179Z" fill="white"/>
<path d="M119.486 151.604C119.486 151.123 119.578 150.69 119.763 150.305C119.951 149.919 120.215 149.62 120.554 149.408C120.896 149.192 121.283 149.084 121.714 149.084C122.38 149.084 122.92 149.318 123.333 149.787C123.746 150.252 123.952 150.87 123.952 151.641V151.756C123.952 152.24 123.858 152.676 123.67 153.065C123.485 153.45 123.223 153.747 122.884 153.957C122.545 154.167 122.158 154.271 121.724 154.271C121.061 154.271 120.522 154.039 120.105 153.573C119.692 153.105 119.486 152.485 119.486 151.715V151.604ZM120.041 151.756C120.041 152.354 120.195 152.846 120.503 153.231C120.814 153.613 121.221 153.804 121.724 153.804C122.223 153.804 122.627 153.613 122.935 153.231C123.246 152.846 123.402 152.339 123.402 151.71V151.604C123.402 151.222 123.331 150.872 123.189 150.554C123.047 150.237 122.849 149.992 122.593 149.819C122.337 149.643 122.044 149.556 121.714 149.556C121.221 149.556 120.819 149.75 120.508 150.138C120.196 150.523 120.041 151.029 120.041 151.655V151.756Z" fill="white"/>
<path d="M128.386 149.176H128.941V154.179H128.386V150.069L125.686 154.179H125.136V149.176H125.686V153.291L128.386 149.176ZM128.358 147.373C128.358 147.728 128.236 148.014 127.993 148.233C127.753 148.452 127.429 148.562 127.022 148.562C126.621 148.562 126.298 148.454 126.051 148.238C125.808 148.019 125.686 147.731 125.686 147.373H126.157C126.157 147.629 126.233 147.825 126.384 147.96C126.538 148.096 126.751 148.164 127.022 148.164C127.293 148.164 127.504 148.093 127.655 147.951C127.81 147.809 127.887 147.617 127.887 147.373H128.358Z" fill="white"/>
</svg>
